<?xml version="1.0" encoding="UTF-8" standalone="no"?>
<!DOCTYPE svg PUBLIC "-//W3C//DTD SVG 1.1//EN" "http://www.w3.org/Graphics/SVG/1.1/DTD/svg11.dtd">
<svg style="fill-rule:evenodd;clip-rule:evenodd;stroke-linecap:round;stroke-linejoin:round;" xmlns="http://www.w3.org/2000/svg" xml:space="preserve" version="1.1" viewBox="0 0 14 14">
<g>
<path d="M622+347C622+352.523+626.477+357+632+357C637.523+357+642+352.523+642+347C642+341.477+637.523+337+632+337C626.477+337+622+341.477+622+347ZM637+344L637+347L632+351L627+347L627+344L632+348L637+344Z" opacity="1" fill="#000000"/>
<path d="M622+347C622+352.523+626.477+357+632+357C637.523+357+642+352.523+642+347C642+341.477+637.523+337+632+337C626.477+337+622+341.477+622+347ZM637+344L637+347L632+351L627+347L627+344L632+348L637+344Z" opacity="1" fill="#000000"/>
<path d="M7+1C3.6862+0.999999+1+3.6862+1+7C0.999999+10.3138+3.6862+13+7+13C10.3138+13+13+10.3138+13+7C13+3.6862+10.3138+1+7+1ZM8.8+10L7.2886+10C7.1062+10+6.934+9.9172+6.82+9.775L4.9+7.375C4.7248+7.156+4.7248+6.8446+4.9+6.6256L6.82+4.2256C6.934+4.0828+7.1062+4+7.2886+4L8.8+4L6.4+7L8.8+10Z" opacity="1" fill="#aaaaaa"/>
</g>
</svg>
