<?xml version="1.0" encoding="UTF-8" standalone="no"?>
<svg
   xmlns:dc="http://purl.org/dc/elements/1.1/"
   xmlns:cc="http://creativecommons.org/ns#"
   xmlns:rdf="http://www.w3.org/1999/02/22-rdf-syntax-ns#"
   xmlns:svg="http://www.w3.org/2000/svg"
   xmlns="http://www.w3.org/2000/svg"
   xmlns:sodipodi="http://sodipodi.sourceforge.net/DTD/sodipodi-0.dtd"
   xmlns:inkscape="http://www.inkscape.org/namespaces/inkscape"
   inkscape:version="1.0 (4035a4fb49, 2020-05-01)"
   sodipodi:docname="camera-icon.svg"
   width="24"
   height="14"
   viewBox="0 0 6.3499998 3.7041666"
   version="1.1"
   id="svg44">
  <metadata
     id="metadata110">
    <rdf:RDF>
      <cc:Work
         rdf:about="">
        <dc:format>image/svg+xml</dc:format>
        <dc:type
           rdf:resource="http://purl.org/dc/dcmitype/StillImage" />
        <dc:title></dc:title>
      </cc:Work>
    </rdf:RDF>
  </metadata>
  <defs
     id="defs108" />
  <sodipodi:namedview
     inkscape:current-layer="svg44"
     inkscape:window-maximized="1"
     inkscape:window-y="-6"
     inkscape:window-x="-6"
     inkscape:cy="25.966687"
     inkscape:cx="22.782769"
     inkscape:zoom="11.564497"
     units="px"
     showgrid="false"
     id="namedview106"
     inkscape:window-height="850"
     inkscape:window-width="1368"
     inkscape:pageshadow="2"
     inkscape:pageopacity="0"
     guidetolerance="10"
     gridtolerance="10"
     objecttolerance="10"
     borderopacity="1"
     bordercolor="#666666"
     pagecolor="#ffffff" />
  <g
     id="layer1" />
  <g
     transform="matrix(0.32018354,0,0,0.32018354,-1.6009184,-0.38920141)"
     id="g119">
    <path
       style="stroke-width:0.0142857"
       d="M 17.511427,3.2092868 H 17.212856 16.782618 L 15.878332,1.9364301 C 15.665475,1.6421445 15.424047,1.4221445 15.10119,1.4221445 h -4.084285 c -0.322857,0 -0.561428,0.2228571 -0.764285,0.5142856 L 9.3340487,3.2092868 h -2.844047 c -0.9671426,0 -1.4899996,0.6985713 -1.4899996,1.7699995 v 5.6585697 c 0,1.071428 0.7842855,1.939999 1.7499995,1.939999 H 17.249998 c 0.967143,0 1.75,-0.868571 1.75,-1.939999 V 4.9792863 c 0,-1.0714282 -0.522857,-1.7699995 -1.488571,-1.7699995 z m 0.892857,7.4271402 c 0,0.741429 -0.517143,1.344286 -1.154286,1.344286 H 6.7500016 c -0.6357141,0 -1.1542854,-0.602857 -1.1542854,-1.344286 V 4.9792863 c 0,-0.7799998 0.2999999,-1.1742853 0.8942855,-1.1742853 h 2.8454756 c 0.1914285,0 0.3714284,-0.091429 0.482857,-0.2471428 L 10.74262,2.27643 c 0.112857,-0.1628571 0.215714,-0.2585714 0.274285,-0.2585714 h 4.082856 c 0.06429,0 0.171428,0.097143 0.291428,0.2642857 l 0.904286,1.2728567 c 0.111428,0.1571428 0.292857,0.25 0.485714,0.25 h 0.431667 0.298571 c 0.29,0 0.5,0.085714 0.645714,0.2642856 0.162857,0.1999999 0.248571,0.5142855 0.248571,0.9099997 z"
       id="path4" />
    <path
       style="stroke-width:0.0142857"
       d="M 11.851429,10.956427"
       id="path8" />
    <path
       style="stroke-width:0.0142857"
       d="M 10.12262,2.3121443 H 6.728573 c -0.071428,0 -0.13,0.058571 -0.13,0.1299999 v 0.3185714 c 0,0.071428 0.058572,0.1299999 0.13,0.1299999 h 3.392618 c 0.07143,0 0.13,-0.058571 0.13,-0.1299999 V 2.4421442 c 0.0014,-0.072857 -0.05714,-0.1299999 -0.128571,-0.1299999 z"
       id="path10" />
    <path
       style="stroke-width:0.0142857"
       d="M 7.17143,3.525001 V 2.4578585 c 0,-0.071429 -0.058571,-0.13 -0.1299999,-0.13 H 6.7228587 c -0.071428,0 -0.1299999,0.058571 -0.1299999,0.13 V 3.525001 c 0,0.071429 0.058571,0.13 0.1299999,0.13 h 0.3185714 c 0.071428,0.00143 0.1299999,-0.057143 0.1299999,-0.13 z"
       id="path12" />
    <g
       transform="matrix(1.0702169,0,0,1.0702169,-0.65674557,-0.42350303)"
       id="g95">
      <path
         id="path6"
         d="m 12.909763,4.1921437 c -1.962857,0 -3.5614285,1.5971424 -3.5614285,3.5614275 0,1.9628566 1.5971425,3.5614278 3.5614285,3.5614278 1.962856,0 3.561427,-1.5971427 3.561427,-3.5614278 0,-1.9642851 -1.598571,-3.5614275 -3.561427,-3.5614275 z m 0,6.5428553 c -1.644286,0 -2.9814287,-1.3371426 -2.9814287,-2.9814278 0,-1.6442852 1.3371427,-2.9814277 2.9814287,-2.9814277 1.644285,0 2.981427,1.3371425 2.981427,2.9814277 0,1.6442852 -1.337142,2.9814278 -2.981427,2.9814278 z"
         style="stroke-width:0.0142857" />
      <path
         id="path14"
         d="m 12.955477,5.4178576 c -1.262857,0 -2.29,1.0271426 -2.29,2.2899993 0,1.2628568 1.027143,2.2899993 2.29,2.2899993 1.262857,0 2.289999,-1.0271425 2.289999,-2.2899993 0,-1.2628567 -1.027142,-2.2899993 -2.289999,-2.2899993 z m 0,4.2071416 c -1.057143,0 -1.917143,-0.8599997 -1.917143,-1.9171423 0,-1.0571425 0.86,-1.9171423 1.917143,-1.9171423 1.057142,0 1.917142,0.8599998 1.917142,1.9171423 0,1.0571426 -0.86,1.9171423 -1.917142,1.9171423 z"
         style="stroke-width:0.0142857" />
    </g>
  </g>
</svg>
