<?xml version="1.0" encoding="UTF-8" standalone="no"?>
<!-- Created with Inkscape (http://www.inkscape.org/) -->

<svg
   xmlns:dc="http://purl.org/dc/elements/1.1/"
   xmlns:cc="http://creativecommons.org/ns#"
   xmlns:rdf="http://www.w3.org/1999/02/22-rdf-syntax-ns#"
   xmlns:svg="http://www.w3.org/2000/svg"
   xmlns="http://www.w3.org/2000/svg"
   xmlns:sodipodi="http://sodipodi.sourceforge.net/DTD/sodipodi-0.dtd"
   xmlns:inkscape="http://www.inkscape.org/namespaces/inkscape"
   width="36"
   height="20"
   viewBox="0 0 9.5250004 5.2916668"
   version="1.1"
   id="svg904"
   inkscape:version="0.92.2 (5c3e80d, 2017-08-06)"
   sodipodi:docname="github.svg">
  <defs
     id="defs898">
    <clipPath
       clipPathUnits="userSpaceOnUse"
       id="clipPath3020">
      <path
         inkscape:connector-curvature="0"
         d="M 0,0 H 4802 V 1298.75 H 0 Z"
         id="path3022" />
    </clipPath>
  </defs>
  <sodipodi:namedview
     id="base"
     pagecolor="#ffffff"
     bordercolor="#666666"
     borderopacity="1.0"
     inkscape:pageopacity="0.0"
     inkscape:pageshadow="2"
     inkscape:zoom="16.896"
     inkscape:cx="29.410334"
     inkscape:cy="25"
     inkscape:document-units="mm"
     inkscape:current-layer="layer1"
     showgrid="true"
     units="px"
     inkscape:window-width="2736"
     inkscape:window-height="1699"
     inkscape:window-x="-13"
     inkscape:window-y="-13"
     inkscape:window-maximized="1">
    <inkscape:grid
       type="xygrid"
       id="grid10725" />
  </sodipodi:namedview>
  <metadata
     id="metadata901">
    <rdf:RDF>
      <cc:Work
         rdf:about="">
        <dc:format>image/svg+xml</dc:format>
        <dc:type
           rdf:resource="http://purl.org/dc/dcmitype/StillImage" />
        <dc:title></dc:title>
      </cc:Work>
    </rdf:RDF>
  </metadata>
  <g
     inkscape:label="Layer 1"
     inkscape:groupmode="layer"
     id="layer1"
     transform="translate(0,-291.70832)">
    <g
       id="g3844"
       style="fill:#616161"
       transform="matrix(0.01466795,0,0,0.01466795,0.11790427,293.08784)">
      <title
         id="title3830">Layer 1</title>
      <g
         id="layer1-8"
         style="fill:#616161">
        <g
           id="g3012"
           style="fill:#616161">
          <g
             id="g3014"
             style="fill:#616161">
            <g
               id="g3016"
               style="fill:#616161">
              <g
                 id="g3018"
                 clip-path="url(#clipPath3020)"
                 style="fill:#616161">
                <path
                   d="M 125.62163,79.48438 H 75.17576 c -1.30125,0 -2.35688,1.05611 -2.35688,2.35838 v 24.66312 c 0,1.30125 1.05563,2.36087 2.35688,2.36087 H 94.855 v 30.64199 c 0,0 -4.41949,1.50639 -16.63475,1.50639 -14.41262,0 -34.54588,-5.26662 -34.54588,-49.53902 0,-44.28237 20.96425,-50.10863 40.64687,-50.10863 17.03712,0 24.37749,3.00001 29.04787,4.44501 1.46725,0.45 2.82475,-1.01125 2.82475,-2.31375 l 5.62737,-23.83 c 0,-0.60875 -0.206,-1.3425 -0.90087,-1.84125 -1.89687,-1.35249 -13.46825,-7.8275 -42.70013,-7.8275 -33.67675,0 -68.22026,14.3275 -68.22026,83.20263 0,68.87746 39.54939,79.14114 72.87751,79.14114 27.59463,0 44.33537,-11.79248 44.33537,-11.79248 0.68999,-0.38135 0.76413,-1.34529 0.76413,-1.78763 V 81.84277 c 0,-1.30225 -1.05412,-2.35838 -2.35538,-2.35838"
                   id="path3024"
                   style="fill:#616161;fill-rule:nonzero"
                   inkscape:connector-curvature="0" />
                <path
                   d="m 385.59375,18.2525 c 0,-1.3125 -1.04001,-2.37125 -2.34125,-2.37125 h -28.40375 c -1.29752,0 -2.35251,1.05875 -2.35251,2.37125 0,0.0063 0.008,54.89063 0.008,54.89063 H 308.23001 V 18.2525 c 0,-1.3125 -1.04501,-2.37125 -2.34375,-2.37125 h -28.4025 c -1.29251,0 -2.34625,1.05875 -2.34625,2.37125 v 148.62883 c 0,1.31105 1.05374,2.3784 2.34625,2.3784 h 28.4025 c 1.29874,0 2.34375,-1.06737 2.34375,-2.3784 v -63.5737 h 44.27374 c 0,0 -0.0775,63.56882 -0.0775,63.5737 0,1.31105 1.05377,2.3784 2.35251,2.3784 H 383.25 c 1.30124,0 2.34125,-1.06737 2.34375,-2.3784 V 18.2525"
                   id="path3026"
                   style="fill:#616161;fill-rule:nonzero"
                   inkscape:connector-curvature="0" />
                <path
                   d="m 179.22,37.75625 c 0,-10.22749 -8.2,-18.49249 -18.31625,-18.49249 -10.10625,0 -18.3125,8.265 -18.3125,18.49249 0,10.21687 8.20625,18.504 18.3125,18.504 10.11626,0 18.31625,-8.28712 18.31625,-18.504"
                   id="path3028"
                   style="fill:#616161;fill-rule:nonzero"
                   inkscape:connector-curvature="0" />
                <path
                   d="m 177.18875,135.52875 c 0,-3.808 0,-68.60739 0,-68.60739 0,-1.30275 -1.05125,-2.36761 -2.35001,-2.36761 h -28.31375 c -1.29874,0 -2.46126,1.33975 -2.46126,2.642 0,0 0,82.55675 0,98.29401 0,2.88913 1.79999,3.74753 4.12999,3.74753 0,0 12.08499,0 25.50999,0 2.79875,0 3.485,-1.37352 3.485,-3.79344 0,-5.26906 0,-25.90871 0,-29.9151"
                   id="path3030"
                   style="fill:#616161;fill-rule:nonzero"
                   inkscape:connector-curvature="0" />
                <path
                   d="m 493.54001,64.77737 h -28.18625 c -1.29251,0 -2.345,1.06538 -2.345,2.37637 v 72.87751 c 0,0 -7.16,5.23875 -17.32376,5.23875 -10.16248,0 -12.85999,-4.61125 -12.85999,-14.56252 0,-9.96338 0,-63.55376 0,-63.55376 0,-1.311 -1.05002,-2.37638 -2.34375,-2.37638 H 401.875 c -1.29123,0 -2.34875,1.06538 -2.34875,2.37638 0,0 0,38.81012 0,68.36624 0,29.55766 16.47375,36.7886 39.13626,36.7886 18.59125,0 33.58124,-10.27101 33.58124,-10.27101 0,0 0.71378,5.41261 1.03625,6.0547 0.32376,0.64014 1.16501,1.28662 2.07376,1.28662 l 18.19876,-0.0801 c 1.29123,0 2.34872,-1.06737 2.34872,-2.37256 l -0.009,-99.77251 c 0,-1.311 -1.05377,-2.37637 -2.35251,-2.37637"
                   id="path3032"
                   style="fill:#616161;fill-rule:nonzero"
                   inkscape:connector-curvature="0" />
                <path
                   d="m 559.45874,145.18011 c -9.77625,-0.29774 -16.40747,-4.73387 -16.40747,-4.73387 V 93.37837 c 0,0 6.54248,-4.00975 14.56873,-4.72649 10.15002,-0.90926 19.92999,2.15675 19.92999,26.36962 0,25.53224 -4.41376,30.57074 -18.09125,30.15862 z m 11.11749,-83.74162 c -16.00873,0 -26.89752,7.14249 -26.89752,7.14249 v -50.3285 c 0,-1.3125 -1.04871,-2.37125 -2.34375,-2.37125 h -28.4837 c -1.29501,0 -2.3475,1.05875 -2.3475,2.37125 v 148.62884 c 0,1.31105 1.05249,2.3784 2.35123,2.3784 0.002,0 19.75629,0 19.76251,0 0.89001,0 1.56372,-0.45848 2.06128,-1.26219 0.49121,-0.79883 1.19995,-6.85254 1.19995,-6.85254 0,0 11.64752,11.03761 33.69629,11.03761 25.88501,0 40.72998,-13.13037 40.72998,-58.94337 0,-45.81401 -23.70874,-51.80075 -39.72876,-51.80075"
                   id="path3034"
                   style="fill:#616161;fill-rule:nonzero"
                   inkscape:connector-curvature="0" />
                <path
                   d="m 258.82248,64.54049 h -21.30623 c 0,0 -0.0325,-28.14175 -0.0325,-28.14799 0,-1.065 -0.54875,-1.5975 -1.78,-1.5975 h -29.035 c -1.12875,0 -1.735,0.49625 -1.735,1.58125 v 29.08712 c 0,0 -14.55,3.51275 -15.53374,3.79638 -0.98001,0.28425 -1.70125,1.1875 -1.70125,2.26563 v 18.27838 c 0,1.31438 1.05,2.3745 2.34875,2.3745 h 14.88623 c 0,0 0,19.11762 0,43.97312 0,32.66113 22.90999,35.87012 38.37001,35.87012 7.06374,0 15.51375,-2.26906 16.90874,-2.78419 0.84375,-0.31003 1.33377,-1.18358 1.33377,-2.13083 l 0.0237,-20.10797 c 0,-1.31099 -1.10751,-2.37198 -2.35501,-2.37198 -1.24124,0 -4.4175,0.50487 -7.6875,0.50487 -10.465,0 -14.01125,-4.86623 -14.01125,-11.16463 0,-6.29388 -0.001,-41.7885 -0.001,-41.7885 h 21.30751 c 1.29877,0 2.35001,-1.06013 2.35001,-2.3745 v -22.895 c 0,-1.31213 -1.05124,-2.36825 -2.35001,-2.36825"
                   id="path3036"
                   style="fill:#616161;fill-rule:nonzero"
                   inkscape:connector-curvature="0" />
              </g>
            </g>
          </g>
        </g>
      </g>
    </g>
  </g>
</svg>
