<?xml version="1.0" encoding="UTF-8" standalone="no"?>
<!-- Created with Inkscape (http://www.inkscape.org/) -->

<svg
   xmlns:dc="http://purl.org/dc/elements/1.1/"
   xmlns:cc="http://creativecommons.org/ns#"
   xmlns:rdf="http://www.w3.org/1999/02/22-rdf-syntax-ns#"
   xmlns:svg="http://www.w3.org/2000/svg"
   xmlns="http://www.w3.org/2000/svg"
   xmlns:sodipodi="http://sodipodi.sourceforge.net/DTD/sodipodi-0.dtd"
   xmlns:inkscape="http://www.inkscape.org/namespaces/inkscape"
   width="49"
   height="20"
   viewBox="0 0 12.964582 5.2916668"
   version="1.1"
   id="svg904"
   inkscape:version="0.92.2 (5c3e80d, 2017-08-06)"
   sodipodi:docname="Strava.svg">
  <defs
     id="defs898" />
  <sodipodi:namedview
     id="base"
     pagecolor="#ffffff"
     bordercolor="#666666"
     borderopacity="1.0"
     inkscape:pageopacity="0.0"
     inkscape:pageshadow="2"
     inkscape:zoom="16.896"
     inkscape:cx="31.346049"
     inkscape:cy="25"
     inkscape:document-units="mm"
     inkscape:current-layer="layer1"
     showgrid="true"
     units="px"
     inkscape:window-width="2736"
     inkscape:window-height="1699"
     inkscape:window-x="-13"
     inkscape:window-y="-13"
     inkscape:window-maximized="1">
    <inkscape:grid
       type="xygrid"
       id="grid10727" />
  </sodipodi:namedview>
  <metadata
     id="metadata901">
    <rdf:RDF>
      <cc:Work
         rdf:about="">
        <dc:format>image/svg+xml</dc:format>
        <dc:type
           rdf:resource="http://purl.org/dc/dcmitype/StillImage" />
        <dc:title></dc:title>
      </cc:Work>
    </rdf:RDF>
  </metadata>
  <g
     inkscape:label="Layer 1"
     inkscape:groupmode="layer"
     id="layer1"
     transform="translate(0,-291.70832)">
    <path
       class="st0"
       d="m 2.3622241,294.66701 c 0.045171,0.0791 0.07058,0.17786 0.07058,0.29361 v 0.006 c 0,0.11858 -0.022586,0.22585 -0.07058,0.32185 -0.047994,0.096 -0.1157513,0.17503 -0.2004475,0.24279 -0.08752,0.0649 -0.1919779,0.11575 -0.3161988,0.15245 -0.124221,0.0367 -0.2625581,0.0537 -0.4150111,0.0537 -0.2315028,0 -0.4488894,-0.031 -0.64933691,-0.096 -0.2004476,-0.0651 -0.37266306,-0.16104 -0.51664646,-0.28809 l 0.40654145,-0.48277 c 0.12422101,0.096 0.25408842,0.16375 0.38960222,0.20327 0.1355138,0.0424 0.2710276,0.0621 0.4065413,0.0621 0.07058,0 0.1185746,-0.009 0.1496298,-0.0254 0.031055,-0.017 0.045171,-0.0424 0.045171,-0.0706 v -0.006 c 0,-0.0339 -0.022586,-0.0593 -0.067757,-0.0818 -0.045171,-0.0226 -0.1270442,-0.0451 -0.2484419,-0.0678 -0.1270442,-0.0254 -0.2484419,-0.0564 -0.3641933,-0.0904 -0.1157514,-0.0339 -0.21738681,-0.0791 -0.3049061,-0.13269 -0.0875193,-0.0537 -0.15809948,-0.12139 -0.20891715,-0.20327 -0.0564641,-0.0875 -0.0818729,-0.18916 -0.0818729,-0.30772 v -0.006 c 0,-0.10729 0.0197624,-0.20892 0.0621104,-0.30209 0.0423481,-0.0931 0.10445857,-0.17504 0.18633152,-0.24279 0.0818729,-0.0705 0.18350833,-0.12422 0.30208283,-0.16374 0.1185746,-0.0395 0.2569117,-0.0593 0.4150111,-0.0593 0.2202099,0 0.415011,0.0254 0.5787568,0.0791 0.1665691,0.0508 0.3133757,0.12986 0.4460663,0.23432 l -0.3698396,0.511 c -0.1072819,-0.0791 -0.2230333,-0.13552 -0.3416078,-0.17221 -0.1213979,-0.0367 -0.234326,-0.0537 -0.3387845,-0.0537 -0.056464,0 -0.098812,0.009 -0.124221,0.0254 -0.028232,0.017 -0.039525,0.0395 -0.039525,0.0678 v 0.006 c 0,0.031 0.019763,0.0564 0.062111,0.0791 0.042348,0.0226 0.1213977,0.0451 0.2399723,0.0677 0.1439835,0.0254 0.2766741,0.0564 0.3952486,0.0931 0.1185746,0.0367 0.22021,0.0847 0.3077293,0.14116 0.081873,0.0621 0.1496299,0.12987 0.1948011,0.21175 z m 0.028231,-0.60416 h 0.6690996 v 1.63181 h 0.7594419 v -1.63181 h 0.6690996 v -0.6437 H 2.3904561 Z m 8.8196889,-0.78485 -1.2224458,2.41666 h 0.7283858 l 0.49406,-0.97683 0.496886,0.97683 h 0.728386 z m -3.404783,0 1.2252705,2.41666 H 8.3022458 l -0.4940607,-0.97683 -0.494061,0.97683 H 6.8200638 6.585738 5.9533399 l -0.4291271,-0.64934 h -0.00564 -0.1552762 v 0.64934 h -0.759447 v -2.27551 h 1.1038728 c 0.2032706,0 0.3698396,0.0226 0.5025304,0.0705 0.1298672,0.0451 0.2371492,0.1101 0.3161989,0.18915 0.07058,0.0678 0.1213977,0.14681 0.1552761,0.23432 0.033878,0.0875 0.050818,0.18916 0.050818,0.30492 v 0.006 c 0,0.16656 -0.039525,0.30773 -0.121398,0.42066 -0.07905,0.11574 -0.1891546,0.20609 -0.3274917,0.27384 l 0.3952486,0.57594 z m -1.8294366,0.99659 c 0,-0.0734 -0.02541,-0.12705 -0.07905,-0.16375 -0.050818,-0.0367 -0.1213977,-0.0537 -0.2117403,-0.0537 H 5.3548202 v 0.44607 H 5.682312 c 0.090342,0 0.163746,-0.0197 0.2145634,-0.0593 0.050818,-0.0395 0.07905,-0.0931 0.07905,-0.16374 z m 4.0287136,-0.85544 -0.4968849,0.97966 -0.496884,-0.97966 H 8.2824834 l 1.2252704,2.41667 1.2224462,-2.41667 z"
       id="path2675"
       inkscape:connector-curvature="0"
       style="fill:#616161;stroke-width:0.02823204" />
  </g>
</svg>
