<?xml version="1.0" encoding="UTF-8" standalone="no"?>
<!-- Created with Inkscape (http://www.inkscape.org/) -->

<svg
   xmlns:dc="http://purl.org/dc/elements/1.1/"
   xmlns:cc="http://creativecommons.org/ns#"
   xmlns:rdf="http://www.w3.org/1999/02/22-rdf-syntax-ns#"
   xmlns:svg="http://www.w3.org/2000/svg"
   xmlns="http://www.w3.org/2000/svg"
   xmlns:sodipodi="http://sodipodi.sourceforge.net/DTD/sodipodi-0.dtd"
   xmlns:inkscape="http://www.inkscape.org/namespaces/inkscape"
   width="50"
   height="20"
   viewBox="0 0 13.229166 5.2916668"
   version="1.1"
   id="svg904"
   inkscape:version="0.92.2 (5c3e80d, 2017-08-06)"
   sodipodi:docname="twitter.svg">
  <defs
     id="defs898" />
  <sodipodi:namedview
     id="base"
     pagecolor="#ffffff"
     bordercolor="#666666"
     borderopacity="1.0"
     inkscape:pageopacity="0.0"
     inkscape:pageshadow="2"
     inkscape:zoom="16.896"
     inkscape:cx="37.594195"
     inkscape:cy="25"
     inkscape:document-units="mm"
     inkscape:current-layer="layer1"
     showgrid="true"
     units="px"
     inkscape:window-width="2736"
     inkscape:window-height="1699"
     inkscape:window-x="-13"
     inkscape:window-y="-13"
     inkscape:window-maximized="1">
    <inkscape:grid
       type="xygrid"
       id="grid10729" />
  </sodipodi:namedview>
  <metadata
     id="metadata901">
    <rdf:RDF>
      <cc:Work
         rdf:about="">
        <dc:format>image/svg+xml</dc:format>
        <dc:type
           rdf:resource="http://purl.org/dc/dcmitype/StillImage" />
        <dc:title></dc:title>
      </cc:Work>
    </rdf:RDF>
  </metadata>
  <g
     inkscape:label="Layer 1"
     inkscape:groupmode="layer"
     id="layer1"
     transform="translate(0,-291.70832)">
    <g
       id="g2623"
       transform="matrix(0.05026704,0,0,0.05026704,-0.03531448,281.04748)"
       style="fill:#616161">
      <path
         id="path51"
         d="m 42.830018,284.84705 c 0,1.69526 -0.605667,3.14963 -1.81786,4.35924 -1.211762,1.21091 -2.664847,1.81615 -4.361402,1.81615 H 24.434188 c -5.089663,0 -9.439019,-1.80453 -13.05108,-5.41702 -3.6124903,-3.61206 -5.4170154,-7.96099 -5.4170154,-13.05108 V 247.9044 c 0,-1.74473 0.6013653,-3.21029 1.8045251,-4.39883 1.2027294,-1.18681 2.6721593,-1.78172 4.4065673,-1.78172 1.68408,0 3.130711,0.60566 4.332151,1.81786 1.20488,1.21004 1.808395,2.66183 1.808395,4.35796 v 6.17496 h 18.311086 c 1.702578,0 3.162113,0.60567 4.378609,1.81786 1.216925,1.21004 1.822592,2.66269 1.822592,4.35796 0,1.69397 -0.605667,3.14835 -1.81786,4.35925 -1.211762,1.20917 -2.66872,1.81613 -4.363982,1.81613 H 18.317731 v 6.12249 c 0,1.70128 0.591902,3.14619 1.781727,4.3386 1.188534,1.18896 2.631294,1.78388 4.328708,1.78388 h 12.22001 c 1.695262,0 3.15222,0.60696 4.363982,1.81786 1.212193,1.2109 1.81786,2.66355 1.81786,4.35839 z"
         style="fill:#616161;stroke-width:0.29050002"
         inkscape:connector-curvature="0" />
      <path
         id="path53"
         d="m 102.72389,273.74331 c 0,4.76187 -1.68752,8.83334 -5.066007,12.21183 -3.377621,3.37848 -7.446074,5.06687 -12.205371,5.06687 -4.353668,0 -8.18425,-1.47244 -11.494765,-4.41905 -3.263632,2.94704 -7.073133,4.41905 -11.425506,4.41905 -4.75844,0 -8.829046,-1.68882 -12.207534,-5.06687 -3.377194,-3.37849 -5.064714,-7.44953 -5.064714,-12.21183 v -11.49605 c 0,-1.63333 0.564809,-3.00339 1.700432,-4.11449 1.129168,-1.11197 2.491058,-1.66731 4.074481,-1.66731 1.587728,0 2.946598,0.55534 4.07749,1.66731 1.132615,1.11196 1.698709,2.48504 1.698709,4.11749 v 11.50251 c 0,1.59116 0.556201,2.93886 1.665155,4.05212 1.111963,1.11153 2.461808,1.66515 4.047812,1.66515 1.541702,0 2.868314,-0.55362 3.978553,-1.66515 1.110678,-1.11326 1.665155,-2.46096 1.665155,-4.05212 v -11.43454 c 0,-1.58772 0.569102,-2.95865 1.702574,-4.11707 1.137347,-1.15584 2.522898,-1.7357 4.15708,-1.7357 1.587717,0 2.950046,0.56696 4.086098,1.70258 1.136491,1.13347 1.703441,2.49579 1.703441,4.08222 v 11.50251 c 0,1.59116 0.555333,2.93886 1.66644,4.05212 1.108954,1.11153 2.437718,1.66515 3.977696,1.66515 1.5873,0 2.937573,-0.55362 4.046527,-1.66515 1.111535,-1.11326 1.66644,-2.46096 1.66644,-4.05212 v -11.50251 c 0,-1.58643 0.56695,-2.94875 1.699566,-4.08222 1.132187,-1.13519 2.491485,-1.70258 4.075337,-1.70258 1.586872,0 2.946609,0.56696 4.077501,1.70043 1.13262,1.13304 1.69828,2.49321 1.69828,4.08137 v 11.49605 z"
         style="fill:#616161;stroke-width:0.29050002"
         inkscape:connector-curvature="0" />
      <path
         id="path55"
         d="m 118.71125,247.84805 c 0,1.69354 -0.60351,3.14835 -1.81614,4.35797 -1.21134,1.21003 -2.66398,1.81699 -4.35796,1.81699 -1.69741,0 -3.1492,-0.60696 -4.36226,-1.81699 -1.20832,-1.21005 -1.81398,-2.66486 -1.81398,-4.35797 0,-1.69612 0.60566,-3.14921 1.81398,-4.35925 1.21262,-1.21176 2.66441,-1.81699 4.36226,-1.81699 1.69398,0 3.1462,0.60479 4.35796,1.81699 1.21263,1.21004 1.81614,2.66313 1.81614,4.35925 z m 0,36.99211 c 0,1.69785 -0.60351,3.15308 -1.81614,4.36442 -1.21134,1.21218 -2.66398,1.81743 -4.35796,1.81743 -1.69741,0 -3.1492,-0.60481 -4.36226,-1.81743 -1.20832,-1.21134 -1.81398,-2.66657 -1.81398,-4.36442 v -20.06614 c 0,-1.69741 0.60566,-3.15308 1.81398,-4.36398 1.21262,-1.21177 2.66441,-1.81786 4.36226,-1.81786 1.69398,0 3.1462,0.60609 4.35796,1.81786 1.2122,1.2109 1.81614,2.66657 1.81614,4.36398 z"
         style="fill:#616161;stroke-width:0.29050002"
         inkscape:connector-curvature="0" />
      <path
         id="path57"
         d="m 152.80967,284.84705 c 0,1.69526 -0.60652,3.14963 -1.81872,4.35924 -1.21091,1.21091 -2.66571,1.81615 -4.36355,1.81615 h -5.54607 c -5.08837,0 -9.61711,-1.63333 -13.05065,-5.41702 -7.69902,-8.48535 -5.41744,-37.70102 -5.41744,-37.70102 0,-1.74473 0.60223,-3.21029 1.80452,-4.39883 1.20402,-1.18681 2.67432,-1.78172 4.40657,-1.78172 1.68623,0 3.12856,0.60566 4.33387,1.81786 1.20403,1.21004 1.80496,2.66183 1.80496,4.35796 v 11.53734 h 11.64489 c 1.69956,0 3.15909,0.60611 4.37817,1.81829 1.21348,1.20876 1.82216,2.66227 1.82216,4.3571 0,1.69398 -0.60653,3.14921 -1.82044,4.35925 -1.21091,1.21004 -2.66613,1.81615 -4.36399,1.81615 h -10.99619 c 0,0 -0.0706,3.90758 1.11842,5.09955 1.18853,1.18896 2.63129,1.78388 4.3287,1.78388 h 5.54865 c 1.69741,0 3.15265,0.60695 4.36397,1.81785 1.21565,1.21048 1.82217,2.66313 1.82217,4.35797 z"
         style="fill:#616161;stroke-width:0.29050002"
         inkscape:connector-curvature="0" />
      <path
         id="path59"
         d="m 185.53889,284.84705 c 0,1.69526 -0.60825,3.14963 -1.81959,4.35924 -1.21218,1.21091 -2.66656,1.81615 -4.36225,1.81615 h -5.54693 c -5.0888,0 -9.61925,-1.63333 -13.05108,-5.41702 -7.69859,-8.48535 -5.41701,-37.70102 -5.41701,-37.70102 0,-1.74473 0.60179,-3.21029 1.80452,-4.39883 1.20488,-1.18681 2.67389,-1.78172 4.40614,-1.78172 1.68579,0 3.12899,0.60566 4.3343,1.81786 1.20187,1.21004 1.80453,2.66183 1.80453,4.35796 v 11.53734 h 11.64488 c 1.69956,0 3.1591,0.60611 4.37689,1.81829 1.2152,1.20876 1.82474,2.66227 1.82474,4.3571 0,1.69398 -0.60825,3.14921 -1.82174,4.35925 -1.21132,1.21004 -2.66742,1.81615 -4.36397,1.81615 h -10.99621 c 0,0 -0.0718,3.90758 1.11756,5.09955 1.19026,1.18896 2.63259,1.78388 4.32871,1.78388 h 5.54994 c 1.69612,0 3.15222,0.60695 4.36397,1.81785 1.21435,1.21048 1.8226,2.66313 1.8226,4.35797 z"
         style="fill:#616161;stroke-width:0.29050002"
         inkscape:connector-curvature="0" />
      <path
         id="path61"
         d="m 258.61676,262.48599 c 0,1.57052 -0.56308,2.91908 -1.6888,4.04266 -1.12445,1.12142 -2.47344,1.68364 -4.04696,1.68364 h -8.43287 c -1.57525,0 -2.91263,0.55061 -4.0147,1.65398 -1.10422,1.10163 -1.65267,2.43944 -1.65267,4.01554 v 11.40486 c 0,1.57353 -0.5605,2.92467 -1.68408,4.04868 -1.12315,1.12658 -2.46999,1.68709 -4.04265,1.68709 -1.57053,0 -2.9195,-0.56051 -4.0418,-1.68537 -1.12315,-1.12402 -1.6845,-2.47171 -1.6845,-4.04696 v -11.39883 c 0,-4.72144 1.67375,-8.75678 5.02255,-12.10731 3.34923,-3.3488 7.38501,-5.02514 12.10602,-5.02514 h 8.42685 c 1.57396,0 2.92208,0.56222 4.04652,1.6858 1.12401,1.12229 1.68709,2.46913 1.68709,4.04136 z"
         style="fill:#616161;stroke-width:0.29050002"
         inkscape:connector-curvature="0" />
      <path
         id="path63"
         d="m 217.81902,278.49874 c -2.75862,0.38541 -4.9034,2.88422 -9.58442,2.84852 -8.51202,-0.36435 -7.85172,-4.1902 -7.85172,-4.1902 h 18.72275 c 4.20397,0 6.0515,-1.40146 6.0515,-5.35077 0,-4.96792 -4.45905,-15.03068 -19.10861,-15.03068 -18.72188,0 -18.36958,16.18996 -18.36958,16.18996 0,5.09096 1.3877,9.02693 4.99803,12.63941 3.61336,3.61207 8.19371,5.41789 13.05324,5.41789 13.3552,0.35617 18.00438,-5.89536 17.45679,-9.40117 -0.60266,-2.95736 -3.50625,-3.46667 -5.36798,-3.12296 z m -11.13342,-13.0042 c 0,0 6.11516,0 6.11516,3.9506 h -12.29313 c 0,-3.9506 6.17797,-3.9506 6.17797,-3.9506 z"
         style="fill:#616161;stroke-width:0.29050002"
         inkscape:connector-curvature="0" />
    </g>
  </g>
</svg>
