<?xml version="1.0" encoding="UTF-8" standalone="no"?>
<!DOCTYPE svg PUBLIC "-//W3C//DTD SVG 1.1//EN" "http://www.w3.org/Graphics/SVG/1.1/DTD/svg11.dtd">
<!-- Created with Vectornator (http://vectornator.io/) -->
<svg stroke-miterlimit="10" style="fill-rule:nonzero;clip-rule:evenodd;stroke-linecap:round;stroke-linejoin:round;" version="1.1" viewBox="0 0 330 110" xml:space="preserve" xmlns="http://www.w3.org/2000/svg" xmlns:xlink="http://www.w3.org/1999/xlink">
<defs>
<linearGradient gradientTransform="matrix(0.0181717 -2.22543 0.188538 0.00153951 176.795 2880.76)" gradientUnits="userSpaceOnUse" id="LinearGradient" x1="1250.45" x2="1283.31" y1="198.479" y2="195.843">
<stop offset="0" stop-color="#f97409"/>
<stop offset="1" stop-color="#f5c043"/>
</linearGradient>
<linearGradient gradientTransform="matrix(0.0103361 -1.26582 0.164818 0.00134582 221.196 1681.78)" gradientUnits="userSpaceOnUse" id="LinearGradient_2" x1="1248.19" x2="1283.31" y1="196.711" y2="195.843">
<stop offset="0" stop-color="#074d98"/>
<stop offset="1" stop-color="#6ab0fa"/>
</linearGradient>
<linearGradient gradientTransform="matrix(0.0155993 -1.91039 0.154994 0.0012656 201.986 2486.79)" gradientUnits="userSpaceOnUse" id="LinearGradient_3" x1="1248.19" x2="1283.31" y1="196.711" y2="195.843">
<stop offset="0" stop-color="#074d98"/>
<stop offset="1" stop-color="#6ab0fa"/>
</linearGradient>
<linearGradient gradientTransform="matrix(0.010263 -1.25688 0.164818 0.00134582 178.124 1670.61)" gradientUnits="userSpaceOnUse" id="LinearGradient_4" x1="1248.19" x2="1283.31" y1="196.711" y2="195.843">
<stop offset="0" stop-color="#074d98"/>
<stop offset="1" stop-color="#6ab0fa"/>
</linearGradient>
<linearGradient gradientTransform="matrix(0.00684619 -0.838431 0.164818 0.00134582 168.092 1147.99)" gradientUnits="userSpaceOnUse" id="LinearGradient_5" x1="1248.19" x2="1283.31" y1="196.711" y2="195.843">
<stop offset="0" stop-color="#074d98"/>
<stop offset="1" stop-color="#6ab0fa"/>
</linearGradient>
<linearGradient gradientTransform="matrix(0.00464352 -0.568677 0.164818 0.00134582 156.51 811.064)" gradientUnits="userSpaceOnUse" id="LinearGradient_6" x1="1248.19" x2="1283.31" y1="196.711" y2="195.843">
<stop offset="0" stop-color="#074d98"/>
<stop offset="1" stop-color="#6ab0fa"/>
</linearGradient>
<linearGradient gradientTransform="matrix(0.000765353 -0.0937302 0.164818 0.00134582 46.4085 217.843)" gradientUnits="userSpaceOnUse" id="LinearGradient_7" x1="1248.19" x2="1283.31" y1="196.711" y2="195.843">
<stop offset="0" stop-color="#074d98"/>
<stop offset="1" stop-color="#6ab0fa"/>
</linearGradient>
<linearGradient gradientTransform="matrix(0.00333417 -0.408324 0.164818 0.00134582 244.515 610.779)" gradientUnits="userSpaceOnUse" id="LinearGradient_8" x1="1248.19" x2="1283.31" y1="196.711" y2="195.843">
<stop offset="0" stop-color="#074d98"/>
<stop offset="1" stop-color="#6ab0fa"/>
</linearGradient>
<linearGradient gradientTransform="matrix(0.00022211 -0.0272011 0.164818 0.00134582 277.261 134.746)" gradientUnits="userSpaceOnUse" id="LinearGradient_9" x1="1248.19" x2="1283.31" y1="196.711" y2="195.843">
<stop offset="0" stop-color="#074d98"/>
<stop offset="1" stop-color="#6ab0fa"/>
</linearGradient>
<linearGradient gradientTransform="matrix(0.000419272 -0.0513469 0.164818 0.00134582 262.62 164.905)" gradientUnits="userSpaceOnUse" id="LinearGradient_10" x1="1248.19" x2="1283.31" y1="196.711" y2="195.843">
<stop offset="0" stop-color="#074d98"/>
<stop offset="1" stop-color="#6ab0fa"/>
</linearGradient>
<linearGradient gradientTransform="matrix(0.000146025 -0.0178832 0.164818 0.00134582 291.746 123.108)" gradientUnits="userSpaceOnUse" id="LinearGradient_11" x1="1248.19" x2="1283.31" y1="196.711" y2="195.843">
<stop offset="0" stop-color="#074d98"/>
<stop offset="1" stop-color="#6ab0fa"/>
</linearGradient>
<linearGradient gradientTransform="matrix(0.000557918 -0.0683264 0.164818 0.00134582 32.2227 186.113)" gradientUnits="userSpaceOnUse" id="LinearGradient_12" x1="1248.19" x2="1291.12" y1="196.711" y2="195.88">
<stop offset="0" stop-color="#074d98"/>
<stop offset="1" stop-color="#6ab0fa"/>
</linearGradient>
<linearGradient gradientTransform="matrix(0.000244101 -0.0298942 0.164818 0.00134582 -10.4744 138.111)" gradientUnits="userSpaceOnUse" id="LinearGradient_13" x1="1248.19" x2="1283.31" y1="196.711" y2="195.843">
<stop offset="0" stop-color="#074d98"/>
<stop offset="1" stop-color="#6ab0fa"/>
</linearGradient>
<linearGradient gradientTransform="matrix(0.000813526 -0.0996298 0.164818 0.00134582 60.6744 225.212)" gradientUnits="userSpaceOnUse" id="LinearGradient_14" x1="1248.19" x2="1283.31" y1="196.711" y2="195.843">
<stop offset="0" stop-color="#074d98"/>
<stop offset="1" stop-color="#6ab0fa"/>
</linearGradient>
<linearGradient gradientTransform="matrix(0.000926148 -0.113422 0.164818 0.00134582 74.9196 242.439)" gradientUnits="userSpaceOnUse" id="LinearGradient_15" x1="1248.19" x2="1283.31" y1="196.711" y2="195.843">
<stop offset="0" stop-color="#074d98"/>
<stop offset="1" stop-color="#6ab0fa"/>
</linearGradient>
<linearGradient gradientTransform="matrix(0.00112972 -0.138354 0.164818 0.00134582 89.0488 273.579)" gradientUnits="userSpaceOnUse" id="LinearGradient_16" x1="1248.19" x2="1292.3" y1="196.711" y2="191.899">
<stop offset="0" stop-color="#074d98"/>
<stop offset="1" stop-color="#6ab0fa"/>
</linearGradient>
<linearGradient gradientTransform="matrix(0.00142322 -0.174297 0.164818 0.00134582 103.063 318.473)" gradientUnits="userSpaceOnUse" id="LinearGradient_17" x1="1248.19" x2="1283.31" y1="196.711" y2="195.843">
<stop offset="0" stop-color="#074d98"/>
<stop offset="1" stop-color="#6ab0fa"/>
</linearGradient>
<linearGradient gradientTransform="matrix(0.00179538 -0.219874 0.164818 0.00134582 116.978 375.4)" gradientUnits="userSpaceOnUse" id="LinearGradient_18" x1="1248.19" x2="1283.31" y1="196.711" y2="195.843">
<stop offset="0" stop-color="#074d98"/>
<stop offset="1" stop-color="#6ab0fa"/>
</linearGradient>
<linearGradient gradientTransform="matrix(0.00244191 -0.299053 0.164818 0.00134582 130.542 474.296)" gradientUnits="userSpaceOnUse" id="LinearGradient_19" x1="1248.19" x2="1283.31" y1="196.711" y2="195.843">
<stop offset="0" stop-color="#074d98"/>
<stop offset="1" stop-color="#6ab0fa"/>
</linearGradient>
<linearGradient gradientTransform="matrix(0.00330045 -0.404195 0.164818 0.00134582 143.836 605.614)" gradientUnits="userSpaceOnUse" id="LinearGradient_20" x1="1248.19" x2="1283.31" y1="196.711" y2="195.843">
<stop offset="0" stop-color="#074d98"/>
<stop offset="1" stop-color="#6ab0fa"/>
</linearGradient>
<linearGradient gradientTransform="matrix(0.000183985 -0.0225321 0.164818 0.00134582 -24.7865 128.915)" gradientUnits="userSpaceOnUse" id="LinearGradient_21" x1="1248.19" x2="1283.31" y1="196.711" y2="195.843">
<stop offset="0" stop-color="#074d98"/>
<stop offset="1" stop-color="#6ab0fa"/>
</linearGradient>
<linearGradient gradientTransform="matrix(0.000318643 -0.0390232 0.164818 0.00134582 3.81935 149.513)" gradientUnits="userSpaceOnUse" id="LinearGradient_22" x1="1248.19" x2="1283.31" y1="196.711" y2="195.843">
<stop offset="0" stop-color="#074d98"/>
<stop offset="1" stop-color="#6ab0fa"/>
</linearGradient>
<linearGradient gradientTransform="matrix(0.000476449 -0.0583491 0.164818 0.00134582 18.0069 173.651)" gradientUnits="userSpaceOnUse" id="LinearGradient_23" x1="1248.19" x2="1283.31" y1="196.711" y2="195.843">
<stop offset="0" stop-color="#074d98"/>
<stop offset="1" stop-color="#6ab0fa"/>
</linearGradient>
<clipPath id="TextBounds">
<rect height="6.79258" transform="matrix(1 0 0 1 285.637 103)" width="15.5307" x="0" y="0"/>
</clipPath>
<clipPath id="TextBounds_2">
<rect height="6.79258" transform="matrix(1 0 0 1 228.524 103)" width="15.5307" x="0" y="0"/>
</clipPath>
<clipPath id="TextBounds_3">
<rect height="6.79258" transform="matrix(1 0 0 1 111.491 103)" width="18.8286" x="0" y="0"/>
</clipPath>
<clipPath id="TextBounds_4">
<rect height="6.79258" transform="matrix(1 0 0 1 54.0607 103)" width="18.8286" x="0" y="0"/>
</clipPath>
<clipPath id="TextBounds_5">
<rect height="6.79258" transform="matrix(1 0 0 1 -1 103)" width="18.8286" x="0" y="0"/>
</clipPath>
<clipPath id="TextBounds_6">
<rect height="6.79258" transform="matrix(1 0 0 1 170.954 103)" width="15.5307" x="0" y="0"/>
</clipPath>
</defs>
<clipPath id="ArtboardFrame">
<rect height="110" width="330" x="0" y="0"/>
</clipPath>
<g clip-path="url(#ArtboardFrame)" id="Layer-1">
<g opacity="1">
<path d="M0 101.082L330 101.082" fill="none" opacity="1" stroke="#8b8b8b" stroke-linecap="butt" stroke-linejoin="miter" stroke-width="0.5"/>
<path d="M0 75.1342L330 75.1342" fill="none" opacity="1" stroke="#8b8b8b" stroke-linecap="butt" stroke-linejoin="miter" stroke-width="0.5"/>
<path d="M0 49.1861L330 49.1861" fill="none" opacity="1" stroke="#8b8b8b" stroke-linecap="butt" stroke-linejoin="miter" stroke-width="0.5"/>
<path d="M0 23.2379L330 23.2379" fill="none" opacity="1" stroke="#8b8b8b" stroke-linecap="butt" stroke-linejoin="miter" stroke-width="0.5"/>
</g>
<path d="M230.492 101.082L230.527 12.159L243.362 12.1536L243.326 101.077L230.492 101.082Z" fill="url(#LinearGradient)" fill-rule="nonzero" opacity="1" stroke="none"/>
<path d="M259.045 101.082L259.193 34.8474L272.326 34.807L272.178 101.042L259.045 101.082Z" fill="url(#LinearGradient_2)" fill-rule="nonzero" opacity="1" stroke="none"/>
<path d="M244.921 101.082L244.966 1.00602L257.719 1L257.674 101.076L244.921 101.082Z" fill="url(#LinearGradient_3)" fill-rule="nonzero" opacity="1" stroke="none"/>
<path d="M215.882 101.082L216.026 35.3153L229.158 35.276L229.014 101.043L215.882 101.082Z" fill="url(#LinearGradient_4)" fill-rule="nonzero" opacity="1" stroke="none"/>
<path d="M201.543 101.073L201.548 57.2004L214.72 57.2098L214.715 101.082L201.543 101.073Z" fill="url(#LinearGradient_5)" fill-rule="nonzero" opacity="1" stroke="none"/>
<path d="M187.25 101.041L187.1 71.3258L200.385 71.3241L200.382 101.082L187.25 101.041Z" fill="url(#LinearGradient_6)" fill-rule="nonzero" opacity="1" stroke="none"/>
<path d="M71.9516 101.082L71.9516 96.0785L85.3127 96.0785L85.3127 101.082L71.9516 101.082Z" fill="url(#LinearGradient_7)" fill-rule="nonzero" opacity="1" stroke="none"/>
<path d="M273.4 101.023L273.4 79.6547L286.75 79.6547L286.75 101.082L273.4 101.023Z" fill="url(#LinearGradient_8)" fill-rule="nonzero" opacity="1" stroke="none"/>
<path d="M302.167 100.988L302.097 99.5518L315.539 99.6458L315.609 101.082L302.167 100.988Z" fill="url(#LinearGradient_9)" fill-rule="nonzero" opacity="1" stroke="none"/>
<path d="M287.773 101.002L287.713 98.2912L301.155 98.3713L301.215 101.082L287.773 101.002Z" fill="url(#LinearGradient_10)" fill-rule="nonzero" opacity="1" stroke="none"/>
<path d="M316.558 100.983L316.483 100.038L329.926 100.138L330 101.082L316.558 100.983Z" fill="url(#LinearGradient_11)" fill-rule="nonzero" opacity="1" stroke="none"/>
<path d="M57.4959 101.082L57.4959 97.4048L70.9909 97.4048L70.9909 101.082L57.4959 101.082Z" fill="url(#LinearGradient_12)" fill-rule="nonzero" opacity="1" stroke="none"/>
<path d="M14.4029 101.029L14.3904 99.4117L27.751 99.4649L27.7636 101.082L14.4029 101.029Z" fill="url(#LinearGradient_13)" fill-rule="nonzero" opacity="1" stroke="none"/>
<path d="M86.4006 101.002L86.2801 95.7705L99.6413 95.8511L99.7618 101.082L86.4006 101.002Z" fill="url(#LinearGradient_14)" fill-rule="nonzero" opacity="1" stroke="none"/>
<path d="M100.672 101.082L100.672 95.0505L114.148 95.0505L114.148 101.082L100.672 101.082Z" fill="url(#LinearGradient_15)" fill-rule="nonzero" opacity="1" stroke="none"/>
<path d="M115.17 101.013L115.066 93.7489L128.427 93.8183L128.531 101.082L115.17 101.013Z" fill="url(#LinearGradient_16)" fill-rule="nonzero" opacity="1" stroke="none"/>
<path d="M129.551 101.023L129.462 91.8724L142.824 91.9316L142.912 101.082L129.551 101.023Z" fill="url(#LinearGradient_17)" fill-rule="nonzero" opacity="1" stroke="none"/>
<path d="M143.861 101.036L143.861 89.493L157.222 89.493L157.291 101.082L143.861 101.036Z" fill="url(#LinearGradient_18)" fill-rule="nonzero" opacity="1" stroke="none"/>
<path d="M158.302 101.059L158.267 85.3594L171.628 85.3828L171.663 101.082L158.302 101.059Z" fill="url(#LinearGradient_19)" fill-rule="nonzero" opacity="1" stroke="none"/>
<path d="M172.668 101.082L172.668 79.8568L186.04 79.8568L186.03 101.076L172.668 101.082Z" fill="url(#LinearGradient_20)" fill-rule="nonzero" opacity="1" stroke="none"/>
<path d="M0.0158209 101.015L0 99.7962L13.3605 99.8632L13.3763 101.082L0.0158209 101.015Z" fill="url(#LinearGradient_21)" fill-rule="nonzero" opacity="1" stroke="none"/>
<path d="M28.7896 101.046L28.7811 98.9349L42.1419 98.9711L42.1504 101.082L28.7896 101.046Z" fill="url(#LinearGradient_22)" fill-rule="nonzero" opacity="1" stroke="none"/>
<path d="M43.174 101.082L43.174 97.9256L56.5351 97.9256L56.5351 101.082L43.174 101.082Z" fill="url(#LinearGradient_23)" fill-rule="nonzero" opacity="1" stroke="none"/>
<g fill="#000000" opacity="1" stroke="none">
<path clip-path="url(#TextBounds)" d="M289.503 108.432L289.503 107.403L287.639 107.403L287.639 106.92L289.599 104.137L290.03 104.137L290.03 106.92L290.61 106.92L290.61 107.403L290.03 107.403L290.03 108.432L289.503 108.432ZM289.503 106.92L289.503 104.983L288.158 106.92L289.503 106.92Z"/>
<path clip-path="url(#TextBounds)" d="M291.442 105.921L291.442 105.32L292.043 105.32L292.043 105.921L291.442 105.921ZM291.442 108.432L291.442 107.831L292.043 107.831L292.043 108.432L291.442 108.432Z"/>
<path clip-path="url(#TextBounds)" d="M292.816 106.313C292.816 105.806 292.868 105.397 292.973 105.087C293.077 104.778 293.233 104.539 293.439 104.371C293.645 104.203 293.904 104.119 294.217 104.119C294.447 104.119 294.649 104.166 294.823 104.258C294.997 104.351 295.14 104.485 295.254 104.66C295.367 104.834 295.456 105.047 295.52 105.298C295.585 105.549 295.617 105.888 295.617 106.313C295.617 106.817 295.565 107.224 295.462 107.534C295.358 107.843 295.203 108.083 294.997 108.251C294.791 108.42 294.531 108.505 294.217 108.505C293.803 108.505 293.477 108.356 293.241 108.06C292.958 107.702 292.816 107.12 292.816 106.313ZM293.358 106.313C293.358 107.019 293.441 107.488 293.606 107.721C293.771 107.955 293.974 108.071 294.217 108.071C294.459 108.071 294.662 107.954 294.827 107.72C294.992 107.485 295.075 107.017 295.075 106.313C295.075 105.606 294.992 105.137 294.827 104.904C294.662 104.672 294.457 104.556 294.211 104.556C293.969 104.556 293.775 104.658 293.631 104.863C293.449 105.125 293.358 105.608 293.358 106.313Z"/>
<path clip-path="url(#TextBounds)" d="M296.153 106.313C296.153 105.806 296.205 105.397 296.31 105.087C296.414 104.778 296.57 104.539 296.776 104.371C296.982 104.203 297.241 104.119 297.554 104.119C297.784 104.119 297.986 104.166 298.16 104.258C298.334 104.351 298.477 104.485 298.591 104.66C298.704 104.834 298.793 105.047 298.857 105.298C298.922 105.549 298.954 105.888 298.954 106.313C298.954 106.817 298.902 107.224 298.799 107.534C298.695 107.843 298.54 108.083 298.334 108.251C298.128 108.42 297.868 108.505 297.554 108.505C297.139 108.505 296.814 108.356 296.578 108.06C296.295 107.702 296.153 107.12 296.153 106.313ZM296.695 106.313C296.695 107.019 296.778 107.488 296.943 107.721C297.108 107.955 297.311 108.071 297.554 108.071C297.796 108.071 297.999 107.954 298.164 107.72C298.329 107.485 298.412 107.017 298.412 106.313C298.412 105.606 298.329 105.137 298.164 104.904C297.999 104.672 297.794 104.556 297.548 104.556C297.305 104.556 297.112 104.658 296.968 104.863C296.786 105.125 296.695 105.608 296.695 106.313Z"/>
</g>
<g fill="#000000" opacity="1" stroke="none">
<path clip-path="url(#TextBounds_2)" d="M233.436 105.188L232.911 105.229C232.864 105.022 232.798 104.872 232.712 104.778C232.57 104.628 232.394 104.553 232.185 104.553C232.017 104.553 231.869 104.6 231.742 104.693C231.576 104.814 231.446 104.991 231.35 105.224C231.254 105.456 231.204 105.787 231.2 106.217C231.327 106.023 231.483 105.88 231.666 105.786C231.85 105.692 232.042 105.646 232.243 105.646C232.595 105.646 232.894 105.775 233.141 106.034C233.388 106.292 233.512 106.627 233.512 107.037C233.512 107.307 233.454 107.557 233.338 107.789C233.221 108.02 233.062 108.197 232.859 108.32C232.655 108.443 232.425 108.505 232.167 108.505C231.728 108.505 231.369 108.343 231.092 108.02C230.815 107.697 230.676 107.164 230.676 106.422C230.676 105.592 230.829 104.988 231.136 104.611C231.404 104.283 231.764 104.119 232.217 104.119C232.555 104.119 232.832 104.214 233.048 104.403C233.263 104.593 233.393 104.854 233.436 105.188ZM231.282 107.04C231.282 107.222 231.321 107.396 231.398 107.562C231.475 107.728 231.583 107.854 231.722 107.941C231.861 108.028 232.006 108.071 232.158 108.071C232.381 108.071 232.572 107.981 232.733 107.802C232.893 107.622 232.973 107.378 232.973 107.069C232.973 106.772 232.894 106.539 232.736 106.368C232.577 106.197 232.378 106.111 232.138 106.111C231.9 106.111 231.697 106.197 231.531 106.368C231.365 106.539 231.282 106.763 231.282 107.04Z"/>
<path clip-path="url(#TextBounds_2)" d="M234.329 105.921L234.329 105.32L234.93 105.32L234.93 105.921L234.329 105.921ZM234.329 108.432L234.329 107.831L234.93 107.831L234.93 108.432L234.329 108.432Z"/>
<path clip-path="url(#TextBounds_2)" d="M235.703 106.313C235.703 105.806 235.756 105.397 235.86 105.087C235.965 104.778 236.12 104.539 236.326 104.371C236.532 104.203 236.791 104.119 237.104 104.119C237.334 104.119 237.536 104.166 237.71 104.258C237.884 104.351 238.028 104.485 238.141 104.66C238.254 104.834 238.343 105.047 238.407 105.298C238.472 105.549 238.504 105.888 238.504 106.313C238.504 106.817 238.452 107.224 238.349 107.534C238.245 107.843 238.091 108.083 237.884 108.251C237.678 108.42 237.418 108.505 237.104 108.505C236.69 108.505 236.364 108.356 236.128 108.06C235.845 107.702 235.703 107.12 235.703 106.313ZM236.245 106.313C236.245 107.019 236.328 107.488 236.493 107.721C236.658 107.955 236.862 108.071 237.104 108.071C237.346 108.071 237.55 107.954 237.715 107.72C237.88 107.485 237.962 107.017 237.962 106.313C237.962 105.606 237.88 105.137 237.715 104.904C237.55 104.672 237.344 104.556 237.098 104.556C236.856 104.556 236.662 104.658 236.518 104.863C236.336 105.125 236.245 105.608 236.245 106.313Z"/>
<path clip-path="url(#TextBounds_2)" d="M239.04 106.313C239.04 105.806 239.092 105.397 239.197 105.087C239.301 104.778 239.457 104.539 239.663 104.371C239.869 104.203 240.128 104.119 240.441 104.119C240.671 104.119 240.873 104.166 241.047 104.258C241.221 104.351 241.364 104.485 241.478 104.66C241.591 104.834 241.68 105.047 241.744 105.298C241.809 105.549 241.841 105.888 241.841 106.313C241.841 106.817 241.789 107.224 241.686 107.534C241.582 107.843 241.427 108.083 241.221 108.251C241.015 108.42 240.755 108.505 240.441 108.505C240.027 108.505 239.701 108.356 239.465 108.06C239.182 107.702 239.04 107.12 239.04 106.313ZM239.582 106.313C239.582 107.019 239.665 107.488 239.83 107.721C239.995 107.955 240.198 108.071 240.441 108.071C240.683 108.071 240.886 107.954 241.051 107.72C241.217 107.485 241.299 107.017 241.299 106.313C241.299 105.606 241.217 105.137 241.051 104.904C240.886 104.672 240.681 104.556 240.435 104.556C240.193 104.556 239.999 104.658 239.855 104.863C239.673 105.125 239.582 105.608 239.582 106.313Z"/>
</g>
<g fill="#000000" opacity="1" stroke="none">
<path clip-path="url(#TextBounds_3)" d="M115.633 108.432L115.106 108.432L115.106 105.071C114.979 105.192 114.812 105.313 114.606 105.435C114.4 105.556 114.215 105.646 114.051 105.707L114.051 105.197C114.346 105.059 114.604 104.891 114.824 104.693C115.045 104.496 115.201 104.305 115.293 104.119L115.633 104.119L115.633 108.432Z"/>
<path clip-path="url(#TextBounds_3)" d="M116.984 106.313C116.984 105.806 117.036 105.397 117.14 105.087C117.245 104.778 117.4 104.539 117.606 104.371C117.812 104.203 118.071 104.119 118.384 104.119C118.614 104.119 118.817 104.166 118.99 104.258C119.164 104.351 119.308 104.485 119.421 104.66C119.534 104.834 119.623 105.047 119.688 105.298C119.752 105.549 119.784 105.888 119.784 106.313C119.784 106.817 119.733 107.224 119.629 107.534C119.526 107.843 119.371 108.083 119.165 108.251C118.959 108.42 118.698 108.505 118.384 108.505C117.97 108.505 117.645 108.356 117.408 108.06C117.125 107.702 116.984 107.12 116.984 106.313ZM117.526 106.313C117.526 107.019 117.608 107.488 117.773 107.721C117.938 107.955 118.142 108.071 118.384 108.071C118.626 108.071 118.83 107.954 118.995 107.72C119.16 107.485 119.242 107.017 119.242 106.313C119.242 105.606 119.16 105.137 118.995 104.904C118.83 104.672 118.624 104.556 118.378 104.556C118.136 104.556 117.943 104.658 117.798 104.863C117.616 105.125 117.526 105.608 117.526 106.313Z"/>
<path clip-path="url(#TextBounds_3)" d="M120.613 105.921L120.613 105.32L121.214 105.32L121.214 105.921L120.613 105.921ZM120.613 108.432L120.613 107.831L121.214 107.831L121.214 108.432L120.613 108.432Z"/>
<path clip-path="url(#TextBounds_3)" d="M121.987 106.313C121.987 105.806 122.04 105.397 122.144 105.087C122.249 104.778 122.404 104.539 122.61 104.371C122.816 104.203 123.075 104.119 123.388 104.119C123.618 104.119 123.82 104.166 123.994 104.258C124.168 104.351 124.312 104.485 124.425 104.66C124.538 104.834 124.627 105.047 124.692 105.298C124.756 105.549 124.788 105.888 124.788 106.313C124.788 106.817 124.736 107.224 124.633 107.534C124.529 107.843 124.375 108.083 124.169 108.251C123.963 108.42 123.702 108.505 123.388 108.505C122.974 108.505 122.649 108.356 122.412 108.06C122.129 107.702 121.987 107.12 121.987 106.313ZM122.529 106.313C122.529 107.019 122.612 107.488 122.777 107.721C122.942 107.955 123.146 108.071 123.388 108.071C123.63 108.071 123.834 107.954 123.999 107.72C124.164 107.485 124.246 107.017 124.246 106.313C124.246 105.606 124.164 105.137 123.999 104.904C123.834 104.672 123.628 104.556 123.382 104.556C123.14 104.556 122.946 104.658 122.802 104.863C122.62 105.125 122.529 105.608 122.529 106.313Z"/>
<path clip-path="url(#TextBounds_3)" d="M125.324 106.313C125.324 105.806 125.377 105.397 125.481 105.087C125.586 104.778 125.741 104.539 125.947 104.371C126.153 104.203 126.412 104.119 126.725 104.119C126.955 104.119 127.157 104.166 127.331 104.258C127.505 104.351 127.649 104.485 127.762 104.66C127.875 104.834 127.964 105.047 128.028 105.298C128.093 105.549 128.125 105.888 128.125 106.313C128.125 106.817 128.073 107.224 127.97 107.534C127.866 107.843 127.712 108.083 127.506 108.251C127.299 108.42 127.039 108.505 126.725 108.505C126.311 108.505 125.985 108.356 125.749 108.06C125.466 107.702 125.324 107.12 125.324 106.313ZM125.866 106.313C125.866 107.019 125.949 107.488 126.114 107.721C126.279 107.955 126.483 108.071 126.725 108.071C126.967 108.071 127.171 107.954 127.336 107.72C127.501 107.485 127.583 107.017 127.583 106.313C127.583 105.606 127.501 105.137 127.336 104.904C127.171 104.672 126.965 104.556 126.719 104.556C126.477 104.556 126.283 104.658 126.139 104.863C125.957 105.125 125.866 105.608 125.866 106.313Z"/>
</g>
<g fill="#000000" opacity="1" stroke="none">
<path clip-path="url(#TextBounds_4)" d="M58.203 108.432L57.6757 108.432L57.6757 105.071C57.5487 105.192 57.3822 105.313 57.1762 105.435C56.9701 105.556 56.785 105.646 56.621 105.707L56.621 105.197C56.9159 105.059 57.1737 104.891 57.3944 104.693C57.6151 104.496 57.7714 104.305 57.8632 104.119L58.203 104.119L58.203 108.432Z"/>
<path clip-path="url(#TextBounds_4)" d="M62.3251 107.925L62.3251 108.432L59.4862 108.432C59.4823 108.305 59.5028 108.183 59.5477 108.065C59.62 107.872 59.7357 107.682 59.8949 107.494C60.0541 107.307 60.2841 107.09 60.5849 106.844C61.0516 106.461 61.3671 106.158 61.5311 105.934C61.6952 105.71 61.7772 105.499 61.7772 105.3C61.7772 105.091 61.7025 104.915 61.5531 104.771C61.4037 104.627 61.2089 104.556 60.9686 104.556C60.7147 104.556 60.5116 104.632 60.3593 104.784C60.2069 104.937 60.1298 105.147 60.1278 105.417L59.5858 105.361C59.6229 104.957 59.7626 104.649 60.0048 104.437C60.247 104.225 60.5722 104.119 60.9804 104.119C61.3925 104.119 61.7186 104.233 61.9589 104.462C62.1991 104.69 62.3192 104.974 62.3192 105.312C62.3192 105.483 62.2841 105.652 62.2138 105.818C62.1434 105.984 62.0267 106.159 61.8637 106.343C61.7006 106.526 61.4296 106.778 61.0507 107.099C60.7343 107.364 60.5311 107.544 60.4413 107.639C60.3515 107.734 60.2772 107.829 60.2186 107.925L62.3251 107.925Z"/>
<path clip-path="url(#TextBounds_4)" d="M63.1835 105.921L63.1835 105.32L63.7841 105.32L63.7841 105.921L63.1835 105.921ZM63.1835 108.432L63.1835 107.831L63.7841 107.831L63.7841 108.432L63.1835 108.432Z"/>
<path clip-path="url(#TextBounds_4)" d="M64.5575 106.313C64.5575 105.806 64.6098 105.397 64.7142 105.087C64.8187 104.778 64.974 104.539 65.1801 104.371C65.3861 104.203 65.6454 104.119 65.9579 104.119C66.1884 104.119 66.3905 104.166 66.5643 104.258C66.7382 104.351 66.8817 104.485 66.995 104.66C67.1083 104.834 67.1972 105.047 67.2616 105.298C67.3261 105.549 67.3583 105.888 67.3583 106.313C67.3583 106.817 67.3065 107.224 67.203 107.534C67.0995 107.843 66.9447 108.083 66.7387 108.251C66.5326 108.42 66.2724 108.505 65.9579 108.505C65.5438 108.505 65.2186 108.356 64.9823 108.06C64.6991 107.702 64.5575 107.12 64.5575 106.313ZM65.0995 106.313C65.0995 107.019 65.182 107.488 65.3471 107.721C65.5121 107.955 65.7157 108.071 65.9579 108.071C66.2001 108.071 66.4037 107.954 66.5687 107.72C66.7338 107.485 66.8163 107.017 66.8163 106.313C66.8163 105.606 66.7338 105.137 66.5687 104.904C66.4037 104.672 66.1981 104.556 65.952 104.556C65.7099 104.556 65.5165 104.658 65.372 104.863C65.1903 105.125 65.0995 105.608 65.0995 106.313Z"/>
<path clip-path="url(#TextBounds_4)" d="M67.8944 106.313C67.8944 105.806 67.9467 105.397 68.0512 105.087C68.1557 104.778 68.3109 104.539 68.517 104.371C68.723 104.203 68.9823 104.119 69.2948 104.119C69.5253 104.119 69.7274 104.166 69.9013 104.258C70.0751 104.351 70.2186 104.485 70.3319 104.66C70.4452 104.834 70.5341 105.047 70.5985 105.298C70.663 105.549 70.6952 105.888 70.6952 106.313C70.6952 106.817 70.6434 107.224 70.5399 107.534C70.4364 107.843 70.2816 108.083 70.0756 108.251C69.8695 108.42 69.6093 108.505 69.2948 108.505C68.8808 108.505 68.5556 108.356 68.3192 108.06C68.036 107.702 67.8944 107.12 67.8944 106.313ZM68.4364 106.313C68.4364 107.019 68.5189 107.488 68.684 107.721C68.849 107.955 69.0526 108.071 69.2948 108.071C69.537 108.071 69.7406 107.954 69.9057 107.72C70.0707 107.485 70.1532 107.017 70.1532 106.313C70.1532 105.606 70.0707 105.137 69.9057 104.904C69.7406 104.672 69.535 104.556 69.289 104.556C69.0468 104.556 68.8534 104.658 68.7089 104.863C68.5272 105.125 68.4364 105.608 68.4364 106.313Z"/>
</g>
<g fill="#000000" opacity="1" stroke="none">
<path clip-path="url(#TextBounds_5)" d="M2.73535 108.432L2.20801 108.432L2.20801 105.071C2.08105 105.192 1.91455 105.313 1.7085 105.435C1.50244 105.556 1.31738 105.646 1.15332 105.707L1.15332 105.197C1.44824 105.059 1.70605 104.891 1.92676 104.693C2.14746 104.496 2.30371 104.305 2.39551 104.119L2.73535 104.119L2.73535 108.432Z"/>
<path clip-path="url(#TextBounds_5)" d="M5.77637 108.432L5.77637 107.403L3.91309 107.403L3.91309 106.92L5.87305 104.137L6.30371 104.137L6.30371 106.92L6.88379 106.92L6.88379 107.403L6.30371 107.403L6.30371 108.432L5.77637 108.432ZM5.77637 106.92L5.77637 104.983L4.43164 106.92L5.77637 106.92Z"/>
<path clip-path="url(#TextBounds_5)" d="M7.71582 105.921L7.71582 105.32L8.31641 105.32L8.31641 105.921L7.71582 105.921ZM7.71582 108.432L7.71582 107.831L8.31641 107.831L8.31641 108.432L7.71582 108.432Z"/>
<path clip-path="url(#TextBounds_5)" d="M9.08984 106.313C9.08984 105.806 9.14209 105.397 9.24658 105.087C9.35107 104.778 9.50635 104.539 9.7124 104.371C9.91846 104.203 10.1777 104.119 10.4902 104.119C10.7207 104.119 10.9229 104.166 11.0967 104.258C11.2705 104.351 11.4141 104.485 11.5273 104.66C11.6406 104.834 11.7295 105.047 11.7939 105.298C11.8584 105.549 11.8906 105.888 11.8906 106.313C11.8906 106.817 11.8389 107.224 11.7354 107.534C11.6318 107.843 11.4771 108.083 11.271 108.251C11.0649 108.42 10.8047 108.505 10.4902 108.505C10.0762 108.505 9.75098 108.356 9.51465 108.06C9.23145 107.702 9.08984 107.12 9.08984 106.313ZM9.63184 106.313C9.63184 107.019 9.71436 107.488 9.87939 107.721C10.0444 107.955 10.248 108.071 10.4902 108.071C10.7324 108.071 10.936 107.954 11.1011 107.72C11.2661 107.485 11.3486 107.017 11.3486 106.313C11.3486 105.606 11.2661 105.137 11.1011 104.904C10.936 104.672 10.7305 104.556 10.4844 104.556C10.2422 104.556 10.0488 104.658 9.9043 104.863C9.72266 105.125 9.63184 105.608 9.63184 106.313Z"/>
<path clip-path="url(#TextBounds_5)" d="M12.4268 106.313C12.4268 105.806 12.479 105.397 12.5835 105.087C12.688 104.778 12.8433 104.539 13.0493 104.371C13.2554 104.203 13.5146 104.119 13.8271 104.119C14.0576 104.119 14.2598 104.166 14.4336 104.258C14.6074 104.351 14.751 104.485 14.8643 104.66C14.9775 104.834 15.0664 105.047 15.1309 105.298C15.1953 105.549 15.2275 105.888 15.2275 106.313C15.2275 106.817 15.1758 107.224 15.0723 107.534C14.9687 107.843 14.814 108.083 14.6079 108.251C14.4019 108.42 14.1416 108.505 13.8271 108.505C13.4131 108.505 13.0879 108.356 12.8516 108.06C12.5684 107.702 12.4268 107.12 12.4268 106.313ZM12.9688 106.313C12.9688 107.019 13.0513 107.488 13.2163 107.721C13.3813 107.955 13.585 108.071 13.8271 108.071C14.0693 108.071 14.2729 107.954 14.438 107.72C14.603 107.485 14.6855 107.017 14.6855 106.313C14.6855 105.606 14.603 105.137 14.438 104.904C14.2729 104.672 14.0674 104.556 13.8213 104.556C13.5791 104.556 13.3857 104.658 13.2412 104.863C13.0596 105.125 12.9688 105.608 12.9688 106.313Z"/>
</g>
<g fill="#000000" opacity="1" stroke="none">
<path clip-path="url(#TextBounds_6)" d="M173.941 106.103C173.722 106.022 173.56 105.908 173.455 105.76C173.349 105.611 173.297 105.434 173.297 105.227C173.297 104.914 173.409 104.651 173.634 104.438C173.858 104.226 174.157 104.119 174.53 104.119C174.905 104.119 175.207 104.228 175.435 104.446C175.664 104.664 175.778 104.929 175.778 105.241C175.778 105.44 175.726 105.614 175.621 105.761C175.517 105.909 175.358 106.022 175.145 106.103C175.409 106.188 175.61 106.327 175.747 106.519C175.885 106.71 175.954 106.938 175.954 107.204C175.954 107.571 175.824 107.88 175.564 108.13C175.304 108.38 174.963 108.505 174.539 108.505C174.115 108.505 173.773 108.379 173.513 108.128C173.254 107.877 173.124 107.564 173.124 107.189C173.124 106.91 173.195 106.676 173.336 106.488C173.478 106.299 173.679 106.171 173.941 106.103ZM173.836 105.209C173.836 105.412 173.901 105.578 174.032 105.707C174.163 105.836 174.333 105.9 174.542 105.9C174.745 105.9 174.911 105.836 175.041 105.708C175.171 105.581 175.236 105.424 175.236 105.238C175.236 105.045 175.169 104.882 175.035 104.75C174.902 104.619 174.735 104.553 174.536 104.553C174.335 104.553 174.168 104.617 174.035 104.746C173.902 104.875 173.836 105.029 173.836 105.209ZM173.666 107.192C173.666 107.343 173.701 107.488 173.773 107.629C173.844 107.77 173.95 107.878 174.091 107.956C174.231 108.033 174.383 108.071 174.545 108.071C174.797 108.071 175.005 107.99 175.169 107.828C175.333 107.666 175.415 107.46 175.415 107.21C175.415 106.956 175.33 106.746 175.161 106.58C174.992 106.414 174.781 106.331 174.527 106.331C174.279 106.331 174.073 106.413 173.91 106.577C173.747 106.741 173.666 106.946 173.666 107.192Z"/>
<path clip-path="url(#TextBounds_6)" d="M176.76 105.921L176.76 105.32L177.36 105.32L177.36 105.921L176.76 105.921ZM176.76 108.432L176.76 107.831L177.36 107.831L177.36 108.432L176.76 108.432Z"/>
<path clip-path="url(#TextBounds_6)" d="M178.134 106.313C178.134 105.806 178.186 105.397 178.29 105.087C178.395 104.778 178.55 104.539 178.756 104.371C178.962 104.203 179.221 104.119 179.534 104.119C179.764 104.119 179.967 104.166 180.14 104.258C180.314 104.351 180.458 104.485 180.571 104.66C180.684 104.834 180.773 105.047 180.838 105.298C180.902 105.549 180.934 105.888 180.934 106.313C180.934 106.817 180.883 107.224 180.779 107.534C180.676 107.843 180.521 108.083 180.315 108.251C180.109 108.42 179.848 108.505 179.534 108.505C179.12 108.505 178.795 108.356 178.558 108.06C178.275 107.702 178.134 107.12 178.134 106.313ZM178.676 106.313C178.676 107.019 178.758 107.488 178.923 107.721C179.088 107.955 179.292 108.071 179.534 108.071C179.776 108.071 179.98 107.954 180.145 107.72C180.31 107.485 180.392 107.017 180.392 106.313C180.392 105.606 180.31 105.137 180.145 104.904C179.98 104.672 179.774 104.556 179.528 104.556C179.286 104.556 179.093 104.658 178.948 104.863C178.766 105.125 178.676 105.608 178.676 106.313Z"/>
<path clip-path="url(#TextBounds_6)" d="M181.47 106.313C181.47 105.806 181.523 105.397 181.627 105.087C181.732 104.778 181.887 104.539 182.093 104.371C182.299 104.203 182.558 104.119 182.871 104.119C183.101 104.119 183.303 104.166 183.477 104.258C183.651 104.351 183.795 104.485 183.908 104.66C184.021 104.834 184.11 105.047 184.175 105.298C184.239 105.549 184.271 105.888 184.271 106.313C184.271 106.817 184.219 107.224 184.116 107.534C184.012 107.843 183.858 108.083 183.652 108.251C183.446 108.42 183.185 108.505 182.871 108.505C182.457 108.505 182.132 108.356 181.895 108.06C181.612 107.702 181.47 107.12 181.47 106.313ZM182.012 106.313C182.012 107.019 182.095 107.488 182.26 107.721C182.425 107.955 182.629 108.071 182.871 108.071C183.113 108.071 183.317 107.954 183.482 107.72C183.647 107.485 183.729 107.017 183.729 106.313C183.729 105.606 183.647 105.137 183.482 104.904C183.317 104.672 183.111 104.556 182.865 104.556C182.623 104.556 182.429 104.658 182.285 104.863C182.103 105.125 182.012 105.608 182.012 106.313Z"/>
</g>
</g>
</svg>
