<?xml version="1.0" encoding="UTF-8" standalone="no"?>
<!DOCTYPE svg PUBLIC "-//W3C//DTD SVG 1.1//EN" "http://www.w3.org/Graphics/SVG/1.1/DTD/svg11.dtd">
<!-- Created with Vectornator (http://vectornator.io/) -->
<svg stroke-miterlimit="10" style="fill-rule:nonzero;clip-rule:evenodd;stroke-linecap:round;stroke-linejoin:round;" version="1.1" viewBox="0 0 330 130" xml:space="preserve" xmlns="http://www.w3.org/2000/svg" xmlns:xlink="http://www.w3.org/1999/xlink">
<defs>
<linearGradient gradientTransform="matrix(0.0121987 -1.49393 0.164548 0.00134362 73.2566 1983.19)" gradientUnits="userSpaceOnUse" id="LinearGradient" x1="1250.45" x2="1283.31" y1="198.479" y2="195.843">
<stop offset="0" stop-color="#f97409"/>
<stop offset="1" stop-color="#f5c043"/>
</linearGradient>
<linearGradient gradientTransform="matrix(0.00635952 -0.778829 0.144492 0.00117985 72.8469 1089.46)" gradientUnits="userSpaceOnUse" id="LinearGradient_2" x1="1248.19" x2="1283.31" y1="196.711" y2="195.843">
<stop offset="0" stop-color="#074d98"/>
<stop offset="1" stop-color="#6ab0fa"/>
</linearGradient>
<linearGradient gradientTransform="matrix(0.0111847 -1.36975 0.137499 0.00112274 93.3954 1825.99)" gradientUnits="userSpaceOnUse" id="LinearGradient_3" x1="1248.19" x2="1285.39" y1="196.711" y2="194.184">
<stop offset="0" stop-color="#074d98"/>
<stop offset="1" stop-color="#6ab0fa"/>
</linearGradient>
<linearGradient gradientTransform="matrix(0.0132445 -1.62201 0.134745 0.00110026 103.979 2139.83)" gradientUnits="userSpaceOnUse" id="LinearGradient_4" x1="1248.19" x2="1283.31" y1="196.711" y2="195.843">
<stop offset="0" stop-color="#074d98"/>
<stop offset="1" stop-color="#6ab0fa"/>
</linearGradient>
<linearGradient gradientTransform="matrix(0.0149957 -1.83648 0.132356 0.00108076 114.886 2406.37)" gradientUnits="userSpaceOnUse" id="LinearGradient_5" x1="1248.19" x2="1283.31" y1="196.711" y2="195.843">
<stop offset="0" stop-color="#074d98"/>
<stop offset="1" stop-color="#6ab0fa"/>
</linearGradient>
<linearGradient gradientTransform="matrix(0.0158599 -1.94231 0.13119 0.00107123 126.692 2537.82)" gradientUnits="userSpaceOnUse" id="LinearGradient_6" x1="1248.19" x2="1283.31" y1="196.711" y2="195.843">
<stop offset="0" stop-color="#074d98"/>
<stop offset="1" stop-color="#6ab0fa"/>
</linearGradient>
<linearGradient gradientTransform="matrix(0.0152089 -1.86258 0.132101 0.00107867 140.035 2438.97)" gradientUnits="userSpaceOnUse" id="LinearGradient_7" x1="1248.19" x2="1283.31" y1="196.711" y2="195.843">
<stop offset="0" stop-color="#074d98"/>
<stop offset="1" stop-color="#6ab0fa"/>
</linearGradient>
<linearGradient gradientTransform="matrix(0.0142981 -1.75104 0.133298 0.00108844 153.656 2300.21)" gradientUnits="userSpaceOnUse" id="LinearGradient_8" x1="1248.19" x2="1283.31" y1="196.711" y2="195.843">
<stop offset="0" stop-color="#074d98"/>
<stop offset="1" stop-color="#6ab0fa"/>
</linearGradient>
<linearGradient gradientTransform="matrix(0.012401 -1.5187 0.135858 0.00110934 168.275 2011.33)" gradientUnits="userSpaceOnUse" id="LinearGradient_9" x1="1248.19" x2="1283.31" y1="196.711" y2="195.843">
<stop offset="0" stop-color="#074d98"/>
<stop offset="1" stop-color="#6ab0fa"/>
</linearGradient>
<linearGradient gradientTransform="matrix(0.00973274 -1.19194 0.139458 0.00113874 183.68 1604.59)" gradientUnits="userSpaceOnUse" id="LinearGradient_10" x1="1248.19" x2="1283.31" y1="196.711" y2="195.843">
<stop offset="0" stop-color="#074d98"/>
<stop offset="1" stop-color="#6ab0fa"/>
</linearGradient>
<linearGradient gradientTransform="matrix(0.00719955 -0.881704 0.142876 0.00116665 198.947 1217.96)" gradientUnits="userSpaceOnUse" id="LinearGradient_11" x1="1248.19" x2="1283.31" y1="196.711" y2="195.843">
<stop offset="0" stop-color="#074d98"/>
<stop offset="1" stop-color="#6ab0fa"/>
</linearGradient>
<linearGradient gradientTransform="matrix(0.00498968 -0.61107 0.144492 0.00117985 214.144 880.174)" gradientUnits="userSpaceOnUse" id="LinearGradient_12" x1="1248.19" x2="1283.31" y1="196.711" y2="195.843">
<stop offset="0" stop-color="#074d98"/>
<stop offset="1" stop-color="#6ab0fa"/>
</linearGradient>
<linearGradient gradientTransform="matrix(0.00338417 -0.414448 0.144492 0.00117985 228.878 634.565)" gradientUnits="userSpaceOnUse" id="LinearGradient_13" x1="1248.19" x2="1283.31" y1="196.711" y2="195.843">
<stop offset="0" stop-color="#074d98"/>
<stop offset="1" stop-color="#6ab0fa"/>
</linearGradient>
<linearGradient gradientTransform="matrix(0.00212151 -0.259815 0.144492 0.00117985 243.175 441.406)" gradientUnits="userSpaceOnUse" id="LinearGradient_14" x1="1248.19" x2="1283.31" y1="196.711" y2="195.843">
<stop offset="0" stop-color="#074d98"/>
<stop offset="1" stop-color="#6ab0fa"/>
</linearGradient>
<linearGradient gradientTransform="matrix(0.00122724 -0.150296 0.144492 0.00117985 257.001 304.601)" gradientUnits="userSpaceOnUse" id="LinearGradient_15" x1="1248.19" x2="1283.31" y1="196.711" y2="195.843">
<stop offset="0" stop-color="#074d98"/>
<stop offset="1" stop-color="#6ab0fa"/>
</linearGradient>
<linearGradient gradientTransform="matrix(0.000782654 -0.0958491 0.144492 0.00117985 270.255 236.589)" gradientUnits="userSpaceOnUse" id="LinearGradient_16" x1="1248.19" x2="1283.31" y1="196.711" y2="195.843">
<stop offset="0" stop-color="#074d98"/>
<stop offset="1" stop-color="#6ab0fa"/>
</linearGradient>
<linearGradient gradientTransform="matrix(0.000233571 -0.0286047 0.144492 0.00117985 296.328 152.591)" gradientUnits="userSpaceOnUse" id="LinearGradient_17" x1="1248.19" x2="1283.31" y1="196.711" y2="195.843">
<stop offset="0" stop-color="#074d98"/>
<stop offset="1" stop-color="#6ab0fa"/>
</linearGradient>
<linearGradient gradientTransform="matrix(0.00038124 -0.0466892 0.144492 0.00117985 283.453 175.181)" gradientUnits="userSpaceOnUse" id="LinearGradient_18" x1="1248.19" x2="1283.31" y1="196.711" y2="195.843">
<stop offset="0" stop-color="#074d98"/>
<stop offset="1" stop-color="#6ab0fa"/>
</linearGradient>
<linearGradient gradientTransform="matrix(0.00467147 -0.572099 0.144492 0.00117985 62.3129 831.247)" gradientUnits="userSpaceOnUse" id="LinearGradient_19" x1="1248.19" x2="1283.31" y1="196.711" y2="195.843">
<stop offset="0" stop-color="#074d98"/>
<stop offset="1" stop-color="#6ab0fa"/>
</linearGradient>
<linearGradient gradientTransform="matrix(0.00311725 -0.38176 0.144492 0.00117985 51.6083 593.51)" gradientUnits="userSpaceOnUse" id="LinearGradient_20" x1="1248.19" x2="1283.31" y1="196.711" y2="195.843">
<stop offset="0" stop-color="#074d98"/>
<stop offset="1" stop-color="#6ab0fa"/>
</linearGradient>
<linearGradient gradientTransform="matrix(0.00195877 -0.239884 0.144492 0.00117985 40.3991 416.304)" gradientUnits="userSpaceOnUse" id="LinearGradient_21" x1="1248.19" x2="1283.31" y1="196.711" y2="195.843">
<stop offset="0" stop-color="#074d98"/>
<stop offset="1" stop-color="#6ab0fa"/>
</linearGradient>
<linearGradient gradientTransform="matrix(0.00121926 -0.149319 0.144492 0.00117985 28.6556 303.187)" gradientUnits="userSpaceOnUse" id="LinearGradient_22" x1="1248.19" x2="1283.31" y1="196.711" y2="195.843">
<stop offset="0" stop-color="#074d98"/>
<stop offset="1" stop-color="#6ab0fa"/>
</linearGradient>
<linearGradient gradientTransform="matrix(0.000785732 -0.096226 0.144492 0.00117985 16.522 236.873)" gradientUnits="userSpaceOnUse" id="LinearGradient_23" x1="1248.19" x2="1283.31" y1="196.711" y2="195.843">
<stop offset="0" stop-color="#074d98"/>
<stop offset="1" stop-color="#6ab0fa"/>
</linearGradient>
<linearGradient gradientTransform="matrix(0.000539196 -0.0660336 0.144492 0.00117985 4.14988 199.163)" gradientUnits="userSpaceOnUse" id="LinearGradient_24" x1="1248.19" x2="1283.31" y1="196.711" y2="195.843">
<stop offset="0" stop-color="#074d98"/>
<stop offset="1" stop-color="#6ab0fa"/>
</linearGradient>
<linearGradient gradientTransform="matrix(0.000281033 -0.0344172 0.144492 0.00117985 -8.20737 159.673)" gradientUnits="userSpaceOnUse" id="LinearGradient_25" x1="1248.19" x2="1283.31" y1="196.711" y2="195.843">
<stop offset="0" stop-color="#074d98"/>
<stop offset="1" stop-color="#6ab0fa"/>
</linearGradient>
<linearGradient gradientTransform="matrix(0.00082928 -0.101559 0.144492 0.00117985 -21.5929 243.48)" gradientUnits="userSpaceOnUse" id="LinearGradient_26" x1="1248.19" x2="1283.31" y1="196.711" y2="195.843">
<stop offset="0" stop-color="#074d98"/>
<stop offset="1" stop-color="#6ab0fa"/>
</linearGradient>
</defs>
<clipPath id="ArtboardFrame">
<rect height="130" width="330" x="0" y="0"/>
</clipPath>
<g clip-path="url(#ArtboardFrame)" id="Layer-1">
<g opacity="1">
<path d="M1.00166 90.7527L329.973 90.7527" fill="none" opacity="1" stroke="#8b8b8b" stroke-linecap="butt" stroke-linejoin="miter" stroke-width="0.5"/>
<path d="M1.00166 117.132L329.973 117.132" fill="none" opacity="1" stroke="#8b8b8b" stroke-linecap="butt" stroke-linejoin="miter" stroke-width="0.5"/>
<path d="M1.00166 37.994L329.973 37.994" fill="none" opacity="1" stroke="#8b8b8b" stroke-linecap="butt" stroke-linejoin="miter" stroke-width="0.5"/>
<path d="M2.60422 12.546L2.06948 12.546L2.06948 9.13857C1.94074 9.26136 1.77191 9.38415 1.56296 9.50694C1.35402 9.62973 1.16636 9.72183 1 9.78322L1 9.26631C1.29906 9.12569 1.56049 8.95537 1.78428 8.75534C2.00808 8.5553 2.16652 8.36121 2.25961 8.17306L2.60422 8.17306L2.60422 12.546Z" fill="#000000" fill-rule="nonzero" opacity="1" stroke="none"/>
<path d="M3.97374 10.3982C3.97374 9.88324 4.02672 9.46882 4.13268 9.15491C4.23864 8.84099 4.39609 8.59888 4.60503 8.42855C4.81398 8.25823 5.07689 8.17306 5.39377 8.17306C5.62747 8.17306 5.83246 8.2201 6.00872 8.31418C6.18499 8.40825 6.33056 8.54392 6.44543 8.72117C6.5603 8.89843 6.65041 9.1143 6.71577 9.3688C6.78112 9.6233 6.8138 9.96642 6.8138 10.3982C6.8138 10.9091 6.76132 11.3216 6.65635 11.6355C6.55138 11.9494 6.39443 12.192 6.18548 12.3633C5.97654 12.5347 5.71264 12.6203 5.39377 12.6203C4.9739 12.6203 4.64415 12.4698 4.40451 12.1688C4.11733 11.8063 3.97374 11.2161 3.97374 10.3982ZM4.52334 10.3982C4.52334 11.1131 4.60701 11.589 4.77437 11.8256C4.94172 12.0623 5.14819 12.1806 5.39377 12.1806C5.63936 12.1806 5.84583 12.0618 6.01318 11.8241C6.18053 11.5865 6.26421 11.1112 6.26421 10.3982C6.26421 9.68123 6.18053 9.20491 6.01318 8.96923C5.84583 8.73355 5.63738 8.61571 5.38783 8.61571C5.14225 8.61571 4.94618 8.71969 4.79962 8.92764C4.61543 9.19303 4.52334 9.68321 4.52334 10.3982Z" fill="#000000" fill-rule="nonzero" opacity="1" stroke="none"/>
<path d="M7.45846 9.2366C7.45846 8.92566 7.53669 8.66126 7.69315 8.44341C7.84961 8.22555 8.07638 8.11662 8.37346 8.11662C8.64677 8.11662 8.87304 8.21416 9.05228 8.40924C9.23152 8.60432 9.32113 8.891 9.32113 9.26928C9.32113 9.63766 9.23053 9.92136 9.04931 10.1204C8.86809 10.3194 8.64479 10.419 8.3794 10.419C8.11599 10.419 7.89665 10.3209 7.72137 10.1249C7.5461 9.92879 7.45846 9.6327 7.45846 9.2366ZM8.38831 8.485C8.25562 8.485 8.1452 8.54243 8.05707 8.6573C7.96894 8.77217 7.92487 8.9831 7.92487 9.29008C7.92487 9.56933 7.96943 9.76589 8.05856 9.87977C8.14768 9.99365 8.2576 10.0506 8.38831 10.0506C8.52299 10.0506 8.63439 9.99316 8.72252 9.87829C8.81066 9.76342 8.85472 9.55348 8.85472 9.24848C8.85472 8.96725 8.81016 8.7697 8.72104 8.65582C8.63191 8.54194 8.52101 8.485 8.38831 8.485ZM8.39128 12.7065L10.7738 8.11662L11.2076 8.11662L8.83393 12.7065L8.39128 12.7065ZM10.2748 11.5241C10.2748 11.2112 10.353 10.9463 10.5094 10.7294C10.6659 10.5125 10.8937 10.4041 11.1927 10.4041C11.466 10.4041 11.6923 10.5017 11.8715 10.6967C12.0508 10.8918 12.1404 11.1785 12.1404 11.5568C12.1404 11.9252 12.0498 12.2089 11.8686 12.4079C11.6874 12.6069 11.4631 12.7065 11.1957 12.7065C10.9323 12.7065 10.7129 12.6079 10.5377 12.4109C10.3624 12.2138 10.2748 11.9182 10.2748 11.5241ZM11.2076 10.7725C11.0729 10.7725 10.9615 10.8299 10.8734 10.9448C10.7852 11.0597 10.7412 11.2706 10.7412 11.5776C10.7412 11.8548 10.7857 12.0509 10.8748 12.1658C10.964 12.2807 11.0739 12.3381 11.2046 12.3381C11.3413 12.3381 11.4537 12.2807 11.5418 12.1658C11.6299 12.0509 11.674 11.841 11.674 11.536C11.674 11.2547 11.6294 11.0572 11.5403 10.9433C11.4512 10.8294 11.3403 10.7725 11.2076 10.7725Z" fill="#000000" fill-rule="nonzero" opacity="1" stroke="none"/>
<path d="M15.2608 11.6147L329.973 11.6147" fill="none" opacity="1" stroke="#8b8b8b" stroke-linecap="butt" stroke-linejoin="miter" stroke-width="0.5"/>
<path d="M12.2871 64.3734L329.973 64.3734" fill="none" opacity="1" stroke="#8b8b8b" stroke-linecap="butt" stroke-linejoin="miter" stroke-width="0.5"/>
<path d="M1 64.1462L1.56148 64.0987C1.60307 64.372 1.69962 64.5775 1.85113 64.7151C2.00264 64.8528 2.18534 64.9216 2.39923 64.9216C2.6567 64.9216 2.87456 64.8245 3.0528 64.6304C3.23105 64.4364 3.32017 64.1789 3.32017 63.858C3.32017 63.553 3.23452 63.3124 3.0632 63.1361C2.89189 62.9599 2.66759 62.8717 2.39032 62.8717C2.21802 62.8717 2.06255 62.9109 1.92391 62.9891C1.78527 63.0673 1.67635 63.1688 1.59713 63.2936L1.09506 63.2282L1.51691 60.9913L3.68261 60.9913L3.68261 61.5022L1.94471 61.5022L1.71001 62.6727C1.97144 62.4905 2.24574 62.3994 2.53292 62.3994C2.91318 62.3994 3.23402 62.5311 3.49545 62.7945C3.75688 63.0579 3.88759 63.3966 3.88759 63.8105C3.88759 64.2046 3.77272 64.5453 3.54298 64.8325C3.26373 65.185 2.88248 65.3613 2.39923 65.3613C2.00313 65.3613 1.67981 65.2503 1.42928 65.0285C1.17874 64.8067 1.03565 64.5126 1 64.1462Z" fill="#000000" fill-rule="nonzero" opacity="1" stroke="none"/>
<path d="M4.48472 61.9775C4.48472 61.6666 4.56295 61.4022 4.71941 61.1844C4.87587 60.9665 5.10264 60.8576 5.39971 60.8576C5.67303 60.8576 5.8993 60.9551 6.07854 61.1502C6.25777 61.3453 6.34739 61.6319 6.34739 62.0102C6.34739 62.3786 6.25678 62.6623 6.07557 62.8614C5.89435 63.0604 5.67104 63.1599 5.40566 63.1599C5.14225 63.1599 4.92291 63.0619 4.74763 62.8658C4.57235 62.6697 4.48472 62.3736 4.48472 61.9775ZM5.41457 61.2259C5.28187 61.2259 5.17146 61.2834 5.08333 61.3982C4.99519 61.5131 4.95113 61.724 4.95113 62.031C4.95113 62.3103 4.99569 62.5068 5.08481 62.6207C5.17394 62.7346 5.28385 62.7915 5.41457 62.7915C5.54924 62.7915 5.66065 62.7341 5.74878 62.6192C5.83691 62.5044 5.88098 62.2944 5.88098 61.9894C5.88098 61.7082 5.83642 61.5106 5.74729 61.3968C5.65817 61.2829 5.54726 61.2259 5.41457 61.2259ZM5.41754 65.4474L7.8001 60.8576L8.23383 60.8576L5.86018 65.4474L5.41754 65.4474ZM7.30101 64.265C7.30101 63.9521 7.37924 63.6872 7.5357 63.4704C7.69216 63.2535 7.91992 63.1451 8.21898 63.1451C8.49229 63.1451 8.71856 63.2426 8.8978 63.4377C9.07704 63.6328 9.16665 63.9194 9.16665 64.2977C9.16665 64.6661 9.07605 64.9498 8.89483 65.1488C8.71361 65.3479 8.48932 65.4474 8.22195 65.4474C7.95854 65.4474 7.7392 65.3489 7.56392 65.1518C7.38865 64.9548 7.30101 64.6592 7.30101 64.265ZM8.23383 63.5134C8.09916 63.5134 7.98775 63.5709 7.89962 63.6857C7.81149 63.8006 7.76742 64.0115 7.76742 64.3185C7.76742 64.5958 7.81198 64.7919 7.9011 64.9067C7.99023 65.0216 8.10015 65.079 8.23086 65.079C8.36752 65.079 8.47991 65.0216 8.56804 64.9067C8.65618 64.7919 8.70024 64.5819 8.70024 64.2769C8.70024 63.9957 8.65568 63.7981 8.56656 63.6843C8.47743 63.5704 8.36653 63.5134 8.23383 63.5134Z" fill="#000000" fill-rule="nonzero" opacity="1" stroke="none"/>
<path d="M105.042 125.208L104.418 125.208L104.418 121.232C104.268 121.375 104.071 121.519 103.827 121.662C103.584 121.805 103.365 121.913 103.171 121.984L103.171 121.381C103.519 121.217 103.824 121.018 104.086 120.785C104.347 120.552 104.532 120.325 104.64 120.106L105.042 120.106L105.042 125.208Z" fill="#000000" fill-rule="nonzero" opacity="1" stroke="none"/>
<path d="M106.643 123.866L107.267 123.783C107.339 124.137 107.461 124.391 107.633 124.547C107.805 124.703 108.015 124.781 108.262 124.781C108.555 124.781 108.803 124.68 109.005 124.476C109.208 124.273 109.309 124.021 109.309 123.721C109.309 123.434 109.215 123.198 109.028 123.012C108.841 122.826 108.603 122.733 108.314 122.733C108.196 122.733 108.049 122.756 107.874 122.802L107.943 122.255C107.985 122.259 108.018 122.262 108.044 122.262C108.309 122.262 108.548 122.192 108.761 122.054C108.974 121.915 109.08 121.701 109.08 121.412C109.08 121.184 109.003 120.994 108.848 120.844C108.693 120.694 108.493 120.619 108.248 120.619C108.006 120.619 107.803 120.695 107.642 120.847C107.48 121 107.376 121.229 107.33 121.534L106.706 121.423C106.782 121.005 106.955 120.681 107.226 120.451C107.496 120.221 107.832 120.106 108.234 120.106C108.512 120.106 108.767 120.165 109 120.284C109.234 120.403 109.412 120.566 109.536 120.771C109.659 120.977 109.721 121.195 109.721 121.426C109.721 121.646 109.662 121.846 109.544 122.026C109.427 122.206 109.252 122.349 109.021 122.456C109.321 122.525 109.555 122.669 109.721 122.887C109.887 123.106 109.971 123.379 109.971 123.707C109.971 124.151 109.809 124.527 109.485 124.835C109.162 125.143 108.753 125.298 108.259 125.298C107.813 125.298 107.442 125.165 107.148 124.899C106.853 124.633 106.685 124.289 106.643 123.866Z" fill="#000000" fill-rule="nonzero" opacity="1" stroke="none"/>
<path d="M110.588 122.702C110.588 122.101 110.649 121.618 110.773 121.251C110.897 120.885 111.08 120.603 111.324 120.404C111.568 120.205 111.875 120.106 112.244 120.106C112.517 120.106 112.756 120.161 112.962 120.27C113.167 120.38 113.337 120.538 113.471 120.745C113.605 120.952 113.71 121.204 113.787 121.501C113.863 121.798 113.901 122.198 113.901 122.702C113.901 123.298 113.84 123.779 113.717 124.145C113.595 124.512 113.412 124.795 113.168 124.994C112.924 125.194 112.616 125.294 112.244 125.294C111.754 125.294 111.37 125.119 111.09 124.767C110.755 124.345 110.588 123.656 110.588 122.702ZM111.229 122.702C111.229 123.536 111.326 124.091 111.522 124.367C111.717 124.643 111.958 124.781 112.244 124.781C112.531 124.781 112.772 124.643 112.967 124.365C113.162 124.088 113.26 123.534 113.26 122.702C113.26 121.865 113.162 121.31 112.967 121.035C112.772 120.76 112.529 120.622 112.237 120.622C111.951 120.622 111.722 120.744 111.551 120.986C111.336 121.296 111.229 121.868 111.229 122.702Z" fill="#000000" fill-rule="nonzero" opacity="1" stroke="none"/>
<path d="M115.548 117.247L115.401 57.5478L126.633 57.569L126.78 117.268L115.548 117.247Z" fill="url(#LinearGradient)" fill-rule="nonzero" opacity="1" stroke="none"/>
<path d="M102.619 116.957L102.619 76.1889L114.189 76.1889L114.189 116.957L102.619 116.957Z" fill="url(#LinearGradient_2)" fill-rule="nonzero" opacity="1" stroke="none"/>
<path d="M79.9281 125.208L79.3042 125.208L79.3042 121.232C79.154 121.375 78.957 121.519 78.7133 121.662C78.4695 121.805 78.2506 121.913 78.0565 121.984L78.0565 121.381C78.4054 121.217 78.7104 121.018 78.9715 120.785C79.2326 120.552 79.4174 120.325 79.526 120.106L79.9281 120.106L79.9281 125.208Z" fill="#000000" fill-rule="nonzero" opacity="1" stroke="none"/>
<path d="M83.3489 125.208L82.725 125.208L82.725 121.232C82.5748 121.375 82.3779 121.519 82.1341 121.662C81.8903 121.805 81.6714 121.913 81.4773 121.984L81.4773 121.381C81.8262 121.217 82.1312 121.018 82.3923 120.785C82.6534 120.552 82.8383 120.325 82.9469 120.106L83.3489 120.106L83.3489 125.208Z" fill="#000000" fill-rule="nonzero" opacity="1" stroke="none"/>
<path d="M84.9467 122.702C84.9467 122.101 85.0085 121.618 85.1321 121.251C85.2557 120.885 85.4394 120.603 85.6832 120.404C85.9269 120.205 86.2337 120.106 86.6034 120.106C86.876 120.106 87.1152 120.161 87.3208 120.27C87.5265 120.38 87.6963 120.538 87.8303 120.745C87.9643 120.952 88.0695 121.204 88.1457 121.501C88.222 121.798 88.2601 122.198 88.2601 122.702C88.2601 123.298 88.1988 123.779 88.0764 124.145C87.9539 124.512 87.7708 124.795 87.527 124.994C87.2833 125.194 86.9754 125.294 86.6034 125.294C86.1135 125.294 85.7288 125.119 85.4492 124.767C85.1142 124.345 84.9467 123.656 84.9467 122.702ZM85.5879 122.702C85.5879 123.536 85.6855 124.091 85.8807 124.367C86.076 124.643 86.3169 124.781 86.6034 124.781C86.8899 124.781 87.1308 124.643 87.326 124.365C87.5213 124.088 87.6189 123.534 87.6189 122.702C87.6189 121.865 87.5213 121.31 87.326 121.035C87.1308 120.76 86.8876 120.622 86.5964 120.622C86.3099 120.622 86.0812 120.744 85.9102 120.986C85.6953 121.296 85.5879 121.868 85.5879 122.702Z" fill="#000000" fill-rule="nonzero" opacity="1" stroke="none"/>
<path d="M54.0047 124.033L54.6043 123.977C54.6551 124.259 54.7521 124.464 54.8954 124.591C55.0386 124.718 55.2223 124.781 55.4465 124.781C55.6382 124.781 55.8063 124.737 55.9508 124.65C56.0952 124.562 56.2136 124.445 56.306 124.298C56.3984 124.151 56.4758 123.953 56.5382 123.703C56.6006 123.454 56.6318 123.2 56.6318 122.941C56.6318 122.913 56.6306 122.872 56.6283 122.816C56.5036 123.015 56.3332 123.176 56.1171 123.3C55.9011 123.423 55.6671 123.485 55.4153 123.485C54.9947 123.485 54.6389 123.333 54.3478 123.028C54.0566 122.723 53.9111 122.321 53.9111 121.821C53.9111 121.306 54.063 120.891 54.3668 120.577C54.6707 120.263 55.0514 120.106 55.5089 120.106C55.8393 120.106 56.1414 120.195 56.4152 120.373C56.689 120.551 56.8969 120.804 57.039 121.133C57.1812 121.463 57.2522 121.939 57.2522 122.563C57.2522 123.212 57.1817 123.729 57.0408 124.114C56.8998 124.499 56.6901 124.792 56.4117 124.993C56.1333 125.194 55.8069 125.294 55.4326 125.294C55.0352 125.294 54.7105 125.184 54.4587 124.963C54.2068 124.743 54.0555 124.432 54.0047 124.033ZM56.559 121.79C56.559 121.432 56.4637 121.148 56.2731 120.938C56.0825 120.727 55.8531 120.622 55.5851 120.622C55.3078 120.622 55.0664 120.735 54.8607 120.962C54.6551 121.188 54.5523 121.482 54.5523 121.842C54.5523 122.166 54.6499 122.429 54.8451 122.631C55.0404 122.833 55.2813 122.934 55.5678 122.934C55.8566 122.934 56.094 122.833 56.28 122.631C56.466 122.429 56.559 122.148 56.559 121.79Z" fill="#000000" fill-rule="nonzero" opacity="1" stroke="none"/>
<path d="M57.8587 122.702C57.8587 122.101 57.9205 121.618 58.0442 121.251C58.1678 120.885 58.3515 120.603 58.5952 120.404C58.839 120.205 59.1457 120.106 59.5154 120.106C59.7881 120.106 60.0272 120.161 60.2329 120.27C60.4385 120.38 60.6083 120.538 60.7424 120.745C60.8764 120.952 60.9815 121.204 61.0578 121.501C61.134 121.798 61.1721 122.198 61.1721 122.702C61.1721 123.298 61.1109 123.779 60.9884 124.145C60.866 124.512 60.6829 124.795 60.4391 124.994C60.1953 125.194 59.8874 125.294 59.5154 125.294C59.0256 125.294 58.6409 125.119 58.3613 124.767C58.0263 124.345 57.8587 123.656 57.8587 122.702ZM58.4999 122.702C58.4999 123.536 58.5975 124.091 58.7928 124.367C58.988 124.643 59.2289 124.781 59.5154 124.781C59.8019 124.781 60.0428 124.643 60.2381 124.365C60.4333 124.088 60.5309 123.534 60.5309 122.702C60.5309 121.865 60.4333 121.31 60.2381 121.035C60.0428 120.76 59.7996 120.622 59.5085 120.622C59.222 120.622 58.9932 120.744 58.8223 120.986C58.6074 121.296 58.4999 121.868 58.4999 122.702Z" fill="#000000" fill-rule="nonzero" opacity="1" stroke="none"/>
<path d="M28.5751 120.792L28.5751 120.192L31.8643 120.192L31.8643 120.678C31.5408 121.022 31.2202 121.479 30.9025 122.05C30.5848 122.621 30.3393 123.208 30.166 123.811C30.0412 124.236 29.9615 124.702 29.9268 125.208L29.2857 125.208C29.2926 124.808 29.3711 124.325 29.5213 123.759C29.6715 123.193 29.887 122.647 30.1677 122.121C30.4485 121.596 30.7471 121.152 31.0637 120.792L28.5751 120.792Z" fill="#000000" fill-rule="nonzero" opacity="1" stroke="none"/>
<path d="M32.4812 122.702C32.4812 122.101 32.543 121.618 32.6666 121.251C32.7903 120.885 32.974 120.603 33.2177 120.404C33.4615 120.205 33.7682 120.106 34.1379 120.106C34.4106 120.106 34.6497 120.161 34.8554 120.27C35.061 120.38 35.2308 120.538 35.3648 120.745C35.4989 120.952 35.604 121.204 35.6802 121.501C35.7565 121.798 35.7946 122.198 35.7946 122.702C35.7946 123.298 35.7334 123.779 35.6109 124.145C35.4885 124.512 35.3053 124.795 35.0616 124.994C34.8178 125.194 34.5099 125.294 34.1379 125.294C33.6481 125.294 33.2634 125.119 32.9838 124.767C32.6487 124.345 32.4812 123.656 32.4812 122.702ZM33.1224 122.702C33.1224 123.536 33.22 124.091 33.4153 124.367C33.6105 124.643 33.8514 124.781 34.1379 124.781C34.4244 124.781 34.6653 124.643 34.8606 124.365C35.0558 124.088 35.1534 123.534 35.1534 122.702C35.1534 121.865 35.0558 121.31 34.8606 121.035C34.6653 120.76 34.4221 120.622 34.131 120.622C33.8445 120.622 33.6157 120.744 33.4447 120.986C33.2298 121.296 33.1224 121.868 33.1224 122.702Z" fill="#000000" fill-rule="nonzero" opacity="1" stroke="none"/>
<path d="M3.15603 123.877L3.81109 123.821C3.85961 124.14 3.97225 124.38 4.14901 124.54C4.32578 124.701 4.53893 124.781 4.78847 124.781C5.08885 124.781 5.34302 124.668 5.55097 124.442C5.75893 124.215 5.8629 123.915 5.8629 123.541C5.8629 123.185 5.76297 122.904 5.5631 122.698C5.36324 122.493 5.10156 122.39 4.77808 122.39C4.57705 122.39 4.39567 122.435 4.23393 122.527C4.07219 122.618 3.9451 122.736 3.85268 122.882L3.26694 122.806L3.7591 120.196L6.28574 120.196L6.28574 120.792L4.25819 120.792L3.98438 122.158C4.28938 121.945 4.6094 121.839 4.94444 121.839C5.38807 121.839 5.76239 121.992 6.06739 122.3C6.37239 122.607 6.52489 123.002 6.52489 123.485C6.52489 123.945 6.39088 124.342 6.12285 124.677C5.79705 125.089 5.35226 125.294 4.78847 125.294C4.32635 125.294 3.94915 125.165 3.65686 124.906C3.36457 124.647 3.19762 124.304 3.15603 123.877Z" fill="#000000" fill-rule="nonzero" opacity="1" stroke="none"/>
<path d="M7.1037 122.702C7.1037 122.101 7.1655 121.618 7.28912 121.251C7.41274 120.885 7.59643 120.603 7.8402 120.404C8.08397 120.205 8.3907 120.106 8.7604 120.106C9.03305 120.106 9.27219 120.161 9.47784 120.27C9.68348 120.38 9.85331 120.538 9.98733 120.745C10.1213 120.952 10.2265 121.204 10.3027 121.501C10.379 121.798 10.4171 122.198 10.4171 122.702C10.4171 123.298 10.3559 123.779 10.2334 124.145C10.1109 124.512 9.92783 124.795 9.68406 124.994C9.44029 125.194 9.1324 125.294 8.7604 125.294C8.27055 125.294 7.88583 125.119 7.60625 124.767C7.27121 124.345 7.1037 123.656 7.1037 122.702ZM7.74489 122.702C7.74489 123.536 7.84251 124.091 8.03776 124.367C8.233 124.643 8.47388 124.781 8.7604 124.781C9.04691 124.781 9.28779 124.643 9.48304 124.365C9.67828 124.088 9.77591 123.534 9.77591 122.702C9.77591 121.865 9.67828 121.31 9.48304 121.035C9.28779 120.76 9.0446 120.622 8.75346 120.622C8.46695 120.622 8.2382 120.744 8.06722 120.986C7.85233 121.296 7.74489 121.868 7.74489 122.702Z" fill="#000000" fill-rule="nonzero" opacity="1" stroke="none"/>
<path d="M130.42 125.208L129.796 125.208L129.796 121.232C129.646 121.375 129.449 121.519 129.205 121.662C128.961 121.805 128.742 121.913 128.548 121.984L128.548 121.381C128.897 121.217 129.202 121.018 129.463 120.785C129.724 120.552 129.909 120.325 130.018 120.106L130.42 120.106L130.42 125.208Z" fill="#000000" fill-rule="nonzero" opacity="1" stroke="none"/>
<path d="M132.017 123.877L132.673 123.821C132.721 124.14 132.834 124.38 133.01 124.54C133.187 124.701 133.4 124.781 133.65 124.781C133.95 124.781 134.204 124.668 134.412 124.442C134.62 124.215 134.724 123.915 134.724 123.541C134.724 123.185 134.624 122.904 134.425 122.698C134.225 122.493 133.963 122.39 133.64 122.39C133.438 122.39 133.257 122.435 133.095 122.527C132.934 122.618 132.807 122.736 132.714 122.882L132.128 122.806L132.621 120.196L135.147 120.196L135.147 120.792L133.12 120.792L132.846 122.158C133.151 121.945 133.471 121.839 133.806 121.839C134.25 121.839 134.624 121.992 134.929 122.3C135.234 122.607 135.386 123.002 135.386 123.485C135.386 123.945 135.252 124.342 134.984 124.677C134.658 125.089 134.214 125.294 133.65 125.294C133.188 125.294 132.811 125.165 132.518 124.906C132.226 124.647 132.059 124.304 132.017 123.877Z" fill="#000000" fill-rule="nonzero" opacity="1" stroke="none"/>
<path d="M135.965 122.702C135.965 122.101 136.027 121.618 136.151 121.251C136.274 120.885 136.458 120.603 136.702 120.404C136.945 120.205 137.252 120.106 137.622 120.106C137.894 120.106 138.134 120.161 138.339 120.27C138.545 120.38 138.715 120.538 138.849 120.745C138.983 120.952 139.088 121.204 139.164 121.501C139.24 121.798 139.279 122.198 139.279 122.702C139.279 123.298 139.217 123.779 139.095 124.145C138.972 124.512 138.789 124.795 138.545 124.994C138.302 125.194 137.994 125.294 137.622 125.294C137.132 125.294 136.747 125.119 136.468 124.767C136.133 124.345 135.965 123.656 135.965 122.702ZM136.606 122.702C136.606 123.536 136.704 124.091 136.899 124.367C137.094 124.643 137.335 124.781 137.622 124.781C137.908 124.781 138.149 124.643 138.344 124.365C138.54 124.088 138.637 123.534 138.637 122.702C138.637 121.865 138.54 121.31 138.344 121.035C138.149 120.76 137.906 120.622 137.615 120.622C137.328 120.622 137.1 120.744 136.929 120.986C136.714 121.296 136.606 121.868 136.606 122.702Z" fill="#000000" fill-rule="nonzero" opacity="1" stroke="none"/>
<path d="M155.797 125.208L155.173 125.208L155.173 121.232C155.023 121.375 154.826 121.519 154.582 121.662C154.339 121.805 154.12 121.913 153.926 121.984L153.926 121.381C154.275 121.217 154.58 121.018 154.841 120.785C155.102 120.552 155.287 120.325 155.395 120.106L155.797 120.106L155.797 125.208Z" fill="#000000" fill-rule="nonzero" opacity="1" stroke="none"/>
<path d="M157.437 120.792L157.437 120.192L160.726 120.192L160.726 120.678C160.402 121.022 160.082 121.479 159.764 122.05C159.446 122.621 159.201 123.208 159.027 123.811C158.903 124.236 158.823 124.702 158.788 125.208L158.147 125.208C158.154 124.808 158.233 124.325 158.383 123.759C158.533 123.193 158.748 122.647 159.029 122.121C159.31 121.596 159.609 121.152 159.925 120.792L157.437 120.792Z" fill="#000000" fill-rule="nonzero" opacity="1" stroke="none"/>
<path d="M161.343 122.702C161.343 122.101 161.404 121.618 161.528 121.251C161.652 120.885 161.835 120.603 162.079 120.404C162.323 120.205 162.63 120.106 162.999 120.106C163.272 120.106 163.511 120.161 163.717 120.27C163.922 120.38 164.092 120.538 164.226 120.745C164.36 120.952 164.465 121.204 164.542 121.501C164.618 121.798 164.656 122.198 164.656 122.702C164.656 123.298 164.595 123.779 164.472 124.145C164.35 124.512 164.167 124.795 163.923 124.994C163.679 125.194 163.371 125.294 162.999 125.294C162.509 125.294 162.125 125.119 161.845 124.767C161.51 124.345 161.343 123.656 161.343 122.702ZM161.984 122.702C161.984 123.536 162.081 124.091 162.277 124.367C162.472 124.643 162.713 124.781 162.999 124.781C163.286 124.781 163.527 124.643 163.722 124.365C163.917 124.088 164.015 123.534 164.015 122.702C164.015 121.865 163.917 121.31 163.722 121.035C163.527 120.76 163.284 120.622 162.992 120.622C162.706 120.622 162.477 120.744 162.306 120.986C162.091 121.296 161.984 121.868 161.984 122.702Z" fill="#000000" fill-rule="nonzero" opacity="1" stroke="none"/>
<path d="M181.175 125.208L180.551 125.208L180.551 121.232C180.401 121.375 180.204 121.519 179.96 121.662C179.716 121.805 179.497 121.913 179.303 121.984L179.303 121.381C179.652 121.217 179.957 121.018 180.218 120.785C180.479 120.552 180.664 120.325 180.773 120.106L181.175 120.106L181.175 125.208Z" fill="#000000" fill-rule="nonzero" opacity="1" stroke="none"/>
<path d="M182.866 124.033L183.466 123.977C183.517 124.259 183.614 124.464 183.757 124.591C183.9 124.718 184.084 124.781 184.308 124.781C184.5 124.781 184.668 124.737 184.812 124.65C184.957 124.562 185.075 124.445 185.167 124.298C185.26 124.151 185.337 123.953 185.4 123.703C185.462 123.454 185.493 123.2 185.493 122.941C185.493 122.913 185.492 122.872 185.49 122.816C185.365 123.015 185.195 123.176 184.979 123.3C184.763 123.423 184.529 123.485 184.277 123.485C183.856 123.485 183.5 123.333 183.209 123.028C182.918 122.723 182.772 122.321 182.772 121.821C182.772 121.306 182.924 120.891 183.228 120.577C183.532 120.263 183.913 120.106 184.37 120.106C184.701 120.106 185.003 120.195 185.277 120.373C185.55 120.551 185.758 120.804 185.9 121.133C186.043 121.463 186.114 121.939 186.114 122.563C186.114 123.212 186.043 123.729 185.902 124.114C185.761 124.499 185.552 124.792 185.273 124.993C184.995 125.194 184.668 125.294 184.294 125.294C183.897 125.294 183.572 125.184 183.32 124.963C183.068 124.743 182.917 124.432 182.866 124.033ZM185.42 121.79C185.42 121.432 185.325 121.148 185.135 120.938C184.944 120.727 184.715 120.622 184.447 120.622C184.169 120.622 183.928 120.735 183.722 120.962C183.517 121.188 183.414 121.482 183.414 121.842C183.414 122.166 183.511 122.429 183.707 122.631C183.902 122.833 184.143 122.934 184.429 122.934C184.718 122.934 184.955 122.833 185.141 122.631C185.327 122.429 185.42 122.148 185.42 121.79Z" fill="#000000" fill-rule="nonzero" opacity="1" stroke="none"/>
<path d="M186.72 122.702C186.72 122.101 186.782 121.618 186.906 121.251C187.029 120.885 187.213 120.603 187.457 120.404C187.7 120.205 188.007 120.106 188.377 120.106C188.65 120.106 188.889 120.161 189.094 120.27C189.3 120.38 189.47 120.538 189.604 120.745C189.738 120.952 189.843 121.204 189.919 121.501C189.995 121.798 190.034 122.198 190.034 122.702C190.034 123.298 189.972 123.779 189.85 124.145C189.727 124.512 189.544 124.795 189.301 124.994C189.057 125.194 188.749 125.294 188.377 125.294C187.887 125.294 187.502 125.119 187.223 124.767C186.888 124.345 186.72 123.656 186.72 122.702ZM187.361 122.702C187.361 123.536 187.459 124.091 187.654 124.367C187.849 124.643 188.09 124.781 188.377 124.781C188.663 124.781 188.904 124.643 189.1 124.365C189.295 124.088 189.392 123.534 189.392 122.702C189.392 121.865 189.295 121.31 189.1 121.035C188.904 120.76 188.661 120.622 188.37 120.622C188.083 120.622 187.855 120.744 187.684 120.986C187.469 121.296 187.361 121.868 187.361 122.702Z" fill="#000000" fill-rule="nonzero" opacity="1" stroke="none"/>
<path d="M207.481 124.608L207.481 125.208L204.123 125.208C204.118 125.057 204.142 124.913 204.195 124.774C204.281 124.546 204.418 124.32 204.606 124.099C204.794 123.877 205.067 123.62 205.422 123.329C205.975 122.876 206.348 122.517 206.542 122.253C206.736 121.988 206.833 121.738 206.833 121.503C206.833 121.255 206.745 121.047 206.568 120.877C206.391 120.707 206.161 120.622 205.876 120.622C205.576 120.622 205.336 120.712 205.155 120.893C204.975 121.073 204.884 121.322 204.882 121.641L204.24 121.575C204.284 121.097 204.45 120.733 204.736 120.482C205.023 120.231 205.407 120.106 205.89 120.106C206.378 120.106 206.764 120.241 207.048 120.511C207.332 120.782 207.474 121.117 207.474 121.516C207.474 121.72 207.433 121.92 207.349 122.116C207.266 122.312 207.128 122.519 206.935 122.736C206.742 122.954 206.422 123.252 205.973 123.631C205.599 123.945 205.359 124.158 205.253 124.27C205.146 124.382 205.058 124.495 204.989 124.608L207.481 124.608Z" fill="#000000" fill-rule="nonzero" opacity="1" stroke="none"/>
<path d="M210.5 125.208L209.876 125.208L209.876 121.232C209.726 121.375 209.529 121.519 209.285 121.662C209.041 121.805 208.822 121.913 208.628 121.984L208.628 121.381C208.977 121.217 209.282 121.018 209.543 120.785C209.804 120.552 209.989 120.325 210.098 120.106L210.5 120.106L210.5 125.208Z" fill="#000000" fill-rule="nonzero" opacity="1" stroke="none"/>
<path d="M212.098 122.702C212.098 122.101 212.159 121.618 212.283 121.251C212.407 120.885 212.59 120.603 212.834 120.404C213.078 120.205 213.385 120.106 213.754 120.106C214.027 120.106 214.266 120.161 214.472 120.27C214.677 120.38 214.847 120.538 214.981 120.745C215.115 120.952 215.22 121.204 215.297 121.501C215.373 121.798 215.411 122.198 215.411 122.702C215.411 123.298 215.35 123.779 215.227 124.145C215.105 124.512 214.922 124.795 214.678 124.994C214.434 125.194 214.126 125.294 213.754 125.294C213.265 125.294 212.88 125.119 212.6 124.767C212.265 124.345 212.098 123.656 212.098 122.702ZM212.739 122.702C212.739 123.536 212.836 124.091 213.032 124.367C213.227 124.643 213.468 124.781 213.754 124.781C214.041 124.781 214.282 124.643 214.477 124.365C214.672 124.088 214.77 123.534 214.77 122.702C214.77 121.865 214.672 121.31 214.477 121.035C214.282 120.76 214.039 120.622 213.747 120.622C213.461 120.622 213.232 120.744 213.061 120.986C212.846 121.296 212.739 121.868 212.739 122.702Z" fill="#000000" fill-rule="nonzero" opacity="1" stroke="none"/>
<path d="M232.859 124.608L232.859 125.208L229.5 125.208C229.496 125.057 229.52 124.913 229.573 124.774C229.658 124.546 229.795 124.32 229.984 124.099C230.172 123.877 230.444 123.62 230.8 123.329C231.352 122.876 231.725 122.517 231.919 122.253C232.113 121.988 232.21 121.738 232.21 121.503C232.21 121.255 232.122 121.047 231.945 120.877C231.769 120.707 231.538 120.622 231.254 120.622C230.954 120.622 230.713 120.712 230.533 120.893C230.353 121.073 230.262 121.322 230.259 121.641L229.618 121.575C229.662 121.097 229.827 120.733 230.114 120.482C230.4 120.231 230.785 120.106 231.268 120.106C231.755 120.106 232.141 120.241 232.425 120.511C232.71 120.782 232.852 121.117 232.852 121.516C232.852 121.72 232.81 121.92 232.727 122.116C232.644 122.312 232.506 122.519 232.313 122.736C232.12 122.954 231.799 123.252 231.351 123.631C230.977 123.945 230.736 124.158 230.63 124.27C230.524 124.382 230.436 124.495 230.367 124.608L232.859 124.608Z" fill="#000000" fill-rule="nonzero" opacity="1" stroke="none"/>
<path d="M233.531 123.866L234.155 123.783C234.226 124.137 234.348 124.391 234.521 124.547C234.693 124.703 234.902 124.781 235.15 124.781C235.443 124.781 235.691 124.68 235.893 124.476C236.095 124.273 236.196 124.021 236.196 123.721C236.196 123.434 236.103 123.198 235.916 123.012C235.728 122.826 235.49 122.733 235.202 122.733C235.084 122.733 234.937 122.756 234.761 122.802L234.831 122.255C234.872 122.259 234.906 122.262 234.931 122.262C235.197 122.262 235.436 122.192 235.649 122.054C235.861 121.915 235.968 121.701 235.968 121.412C235.968 121.184 235.89 120.994 235.735 120.844C235.581 120.694 235.381 120.619 235.136 120.619C234.893 120.619 234.691 120.695 234.529 120.847C234.367 121 234.263 121.229 234.217 121.534L233.593 121.423C233.67 121.005 233.843 120.681 234.113 120.451C234.384 120.221 234.72 120.106 235.122 120.106C235.399 120.106 235.654 120.165 235.888 120.284C236.121 120.403 236.3 120.566 236.423 120.771C236.547 120.977 236.609 121.195 236.609 121.426C236.609 121.646 236.55 121.846 236.432 122.026C236.314 122.206 236.14 122.349 235.909 122.456C236.209 122.525 236.442 122.669 236.609 122.887C236.775 123.106 236.858 123.379 236.858 123.707C236.858 124.151 236.697 124.527 236.373 124.835C236.05 125.143 235.641 125.298 235.146 125.298C234.7 125.298 234.33 125.165 234.035 124.899C233.741 124.633 233.573 124.289 233.531 123.866Z" fill="#000000" fill-rule="nonzero" opacity="1" stroke="none"/>
<path d="M237.475 122.702C237.475 122.101 237.537 121.618 237.661 121.251C237.784 120.885 237.968 120.603 238.212 120.404C238.455 120.205 238.762 120.106 239.132 120.106C239.405 120.106 239.644 120.161 239.849 120.27C240.055 120.38 240.225 120.538 240.359 120.745C240.493 120.952 240.598 121.204 240.674 121.501C240.75 121.798 240.789 122.198 240.789 122.702C240.789 123.298 240.727 123.779 240.605 124.145C240.482 124.512 240.299 124.795 240.056 124.994C239.812 125.194 239.504 125.294 239.132 125.294C238.642 125.294 238.257 125.119 237.978 124.767C237.643 124.345 237.475 123.656 237.475 122.702ZM238.116 122.702C238.116 123.536 238.214 124.091 238.409 124.367C238.605 124.643 238.845 124.781 239.132 124.781C239.418 124.781 239.659 124.643 239.855 124.365C240.05 124.088 240.147 123.534 240.147 122.702C240.147 121.865 240.05 121.31 239.855 121.035C239.659 120.76 239.416 120.622 239.125 120.622C238.838 120.622 238.61 120.744 238.439 120.986C238.224 121.296 238.116 121.868 238.116 122.702Z" fill="#000000" fill-rule="nonzero" opacity="1" stroke="none"/>
<path d="M258.236 124.608L258.236 125.208L254.878 125.208C254.873 125.057 254.897 124.913 254.95 124.774C255.036 124.546 255.173 124.32 255.361 124.099C255.549 123.877 255.822 123.62 256.177 123.329C256.73 122.876 257.103 122.517 257.297 122.253C257.491 121.988 257.588 121.738 257.588 121.503C257.588 121.255 257.5 121.047 257.323 120.877C257.146 120.707 256.916 120.622 256.631 120.622C256.331 120.622 256.091 120.712 255.911 120.893C255.73 121.073 255.639 121.322 255.637 121.641L254.996 121.575C255.039 121.097 255.205 120.733 255.491 120.482C255.778 120.231 256.162 120.106 256.645 120.106C257.133 120.106 257.519 120.241 257.803 120.511C258.087 120.782 258.229 121.117 258.229 121.516C258.229 121.72 258.188 121.92 258.104 122.116C258.021 122.312 257.883 122.519 257.69 122.736C257.497 122.954 257.177 123.252 256.728 123.631C256.354 123.945 256.114 124.158 256.008 124.27C255.901 124.382 255.813 124.495 255.744 124.608L258.236 124.608Z" fill="#000000" fill-rule="nonzero" opacity="1" stroke="none"/>
<path d="M258.905 123.877L259.56 123.821C259.609 124.14 259.721 124.38 259.898 124.54C260.075 124.701 260.288 124.781 260.537 124.781C260.838 124.781 261.092 124.668 261.3 124.442C261.508 124.215 261.612 123.915 261.612 123.541C261.612 123.185 261.512 122.904 261.312 122.698C261.112 122.493 260.851 122.39 260.527 122.39C260.326 122.39 260.145 122.435 259.983 122.527C259.821 122.618 259.694 122.736 259.602 122.882L259.016 122.806L259.508 120.196L262.035 120.196L262.035 120.792L260.007 120.792L259.733 122.158C260.038 121.945 260.358 121.839 260.693 121.839C261.137 121.839 261.511 121.992 261.816 122.3C262.121 122.607 262.274 123.002 262.274 123.485C262.274 123.945 262.14 124.342 261.872 124.677C261.546 125.089 261.101 125.294 260.537 125.294C260.075 125.294 259.698 125.165 259.406 124.906C259.114 124.647 258.947 124.304 258.905 123.877Z" fill="#000000" fill-rule="nonzero" opacity="1" stroke="none"/>
<path d="M262.853 122.702C262.853 122.101 262.915 121.618 263.038 121.251C263.162 120.885 263.345 120.603 263.589 120.404C263.833 120.205 264.14 120.106 264.509 120.106C264.782 120.106 265.021 120.161 265.227 120.27C265.433 120.38 265.602 120.538 265.736 120.745C265.87 120.952 265.975 121.204 266.052 121.501C266.128 121.798 266.166 122.198 266.166 122.702C266.166 123.298 266.105 123.779 265.982 124.145C265.86 124.512 265.677 124.795 265.433 124.994C265.189 125.194 264.881 125.294 264.509 125.294C264.02 125.294 263.635 125.119 263.355 124.767C263.02 124.345 262.853 123.656 262.853 122.702ZM263.494 122.702C263.494 123.536 263.592 124.091 263.787 124.367C263.982 124.643 264.223 124.781 264.509 124.781C264.796 124.781 265.037 124.643 265.232 124.365C265.427 124.088 265.525 123.534 265.525 122.702C265.525 121.865 265.427 121.31 265.232 121.035C265.037 120.76 264.794 120.622 264.502 120.622C264.216 120.622 263.987 120.744 263.816 120.986C263.601 121.296 263.494 121.868 263.494 122.702Z" fill="#000000" fill-rule="nonzero" opacity="1" stroke="none"/>
<path d="M283.614 124.608L283.614 125.208L280.255 125.208C280.251 125.057 280.275 124.913 280.328 124.774C280.413 124.546 280.55 124.32 280.739 124.099C280.927 123.877 281.199 123.62 281.555 123.329C282.107 122.876 282.48 122.517 282.674 122.253C282.868 121.988 282.966 121.738 282.966 121.503C282.966 121.255 282.877 121.047 282.7 120.877C282.524 120.707 282.293 120.622 282.009 120.622C281.709 120.622 281.468 120.712 281.288 120.893C281.108 121.073 281.017 121.322 281.014 121.641L280.373 121.575C280.417 121.097 280.582 120.733 280.869 120.482C281.155 120.231 281.54 120.106 282.023 120.106C282.51 120.106 282.896 120.241 283.18 120.511C283.465 120.782 283.607 121.117 283.607 121.516C283.607 121.72 283.565 121.92 283.482 122.116C283.399 122.312 283.261 122.519 283.068 122.736C282.875 122.954 282.554 123.252 282.106 123.631C281.732 123.945 281.491 124.158 281.385 124.27C281.279 124.382 281.191 124.495 281.122 124.608L283.614 124.608Z" fill="#000000" fill-rule="nonzero" opacity="1" stroke="none"/>
<path d="M284.324 120.792L284.324 120.192L287.613 120.192L287.613 120.678C287.29 121.022 286.969 121.479 286.652 122.05C286.334 122.621 286.088 123.208 285.915 123.811C285.79 124.236 285.711 124.702 285.676 125.208L285.035 125.208C285.042 124.808 285.12 124.325 285.27 123.759C285.421 123.193 285.636 122.647 285.917 122.121C286.197 121.596 286.496 121.152 286.813 120.792L284.324 120.792Z" fill="#000000" fill-rule="nonzero" opacity="1" stroke="none"/>
<path d="M288.23 122.702C288.23 122.101 288.292 121.618 288.416 121.251C288.539 120.885 288.723 120.603 288.967 120.404C289.211 120.205 289.517 120.106 289.887 120.106C290.16 120.106 290.399 120.161 290.604 120.27C290.81 120.38 290.98 120.538 291.114 120.745C291.248 120.952 291.353 121.204 291.429 121.501C291.506 121.798 291.544 122.198 291.544 122.702C291.544 123.298 291.482 123.779 291.36 124.145C291.237 124.512 291.054 124.795 290.811 124.994C290.567 125.194 290.259 125.294 289.887 125.294C289.397 125.294 289.012 125.119 288.733 124.767C288.398 124.345 288.23 123.656 288.23 122.702ZM288.871 122.702C288.871 123.536 288.969 124.091 289.164 124.367C289.36 124.643 289.6 124.781 289.887 124.781C290.173 124.781 290.414 124.643 290.61 124.365C290.805 124.088 290.902 123.534 290.902 122.702C290.902 121.865 290.805 121.31 290.61 121.035C290.414 120.76 290.171 120.622 289.88 120.622C289.593 120.622 289.365 120.744 289.194 120.986C288.979 121.296 288.871 121.868 288.871 122.702Z" fill="#000000" fill-rule="nonzero" opacity="1" stroke="none"/>
<path d="M308.991 124.608L308.991 125.208L305.633 125.208C305.628 125.057 305.652 124.913 305.706 124.774C305.791 124.546 305.928 124.32 306.116 124.099C306.305 123.877 306.577 123.62 306.932 123.329C307.485 122.876 307.858 122.517 308.052 122.253C308.246 121.988 308.343 121.738 308.343 121.503C308.343 121.255 308.255 121.047 308.078 120.877C307.901 120.707 307.671 120.622 307.386 120.622C307.086 120.622 306.846 120.712 306.666 120.893C306.485 121.073 306.394 121.322 306.392 121.641L305.751 121.575C305.794 121.097 305.96 120.733 306.246 120.482C306.533 120.231 306.917 120.106 307.4 120.106C307.888 120.106 308.274 120.241 308.558 120.511C308.842 120.782 308.984 121.117 308.984 121.516C308.984 121.72 308.943 121.92 308.859 122.116C308.776 122.312 308.638 122.519 308.445 122.736C308.252 122.954 307.932 123.252 307.484 123.631C307.109 123.945 306.869 124.158 306.763 124.27C306.656 124.382 306.569 124.495 306.499 124.608L308.991 124.608Z" fill="#000000" fill-rule="nonzero" opacity="1" stroke="none"/>
<path d="M309.754 124.033L310.353 123.977C310.404 124.259 310.501 124.464 310.644 124.591C310.788 124.718 310.971 124.781 311.195 124.781C311.387 124.781 311.555 124.737 311.7 124.65C311.844 124.562 311.963 124.445 312.055 124.298C312.147 124.151 312.225 123.953 312.287 123.703C312.35 123.454 312.381 123.2 312.381 122.941C312.381 122.913 312.38 122.872 312.377 122.816C312.253 123.015 312.082 123.176 311.866 123.3C311.65 123.423 311.416 123.485 311.164 123.485C310.744 123.485 310.388 123.333 310.097 123.028C309.806 122.723 309.66 122.321 309.66 121.821C309.66 121.306 309.812 120.891 310.116 120.577C310.42 120.263 310.8 120.106 311.258 120.106C311.588 120.106 311.89 120.195 312.164 120.373C312.438 120.551 312.646 120.804 312.788 121.133C312.93 121.463 313.001 121.939 313.001 122.563C313.001 123.212 312.931 123.729 312.79 124.114C312.649 124.499 312.439 124.792 312.161 124.993C311.882 125.194 311.556 125.294 311.182 125.294C310.784 125.294 310.46 125.184 310.208 124.963C309.956 124.743 309.805 124.432 309.754 124.033ZM312.308 121.79C312.308 121.432 312.213 121.148 312.022 120.938C311.831 120.727 311.602 120.622 311.334 120.622C311.057 120.622 310.815 120.735 310.61 120.962C310.404 121.188 310.301 121.482 310.301 121.842C310.301 122.166 310.399 122.429 310.594 122.631C310.789 122.833 311.03 122.934 311.317 122.934C311.606 122.934 311.843 122.833 312.029 122.631C312.215 122.429 312.308 122.148 312.308 121.79Z" fill="#000000" fill-rule="nonzero" opacity="1" stroke="none"/>
<path d="M313.608 122.702C313.608 122.101 313.67 121.618 313.793 121.251C313.917 120.885 314.1 120.603 314.344 120.404C314.588 120.205 314.895 120.106 315.264 120.106C315.537 120.106 315.776 120.161 315.982 120.27C316.188 120.38 316.357 120.538 316.491 120.745C316.625 120.952 316.731 121.204 316.807 121.501C316.883 121.798 316.921 122.198 316.921 122.702C316.921 123.298 316.86 123.779 316.737 124.145C316.615 124.512 316.432 124.795 316.188 124.994C315.944 125.194 315.636 125.294 315.264 125.294C314.775 125.294 314.39 125.119 314.11 124.767C313.775 124.345 313.608 123.656 313.608 122.702ZM314.249 122.702C314.249 123.536 314.347 124.091 314.542 124.367C314.737 124.643 314.978 124.781 315.264 124.781C315.551 124.781 315.792 124.643 315.987 124.365C316.182 124.088 316.28 123.534 316.28 122.702C316.28 121.865 316.182 121.31 315.987 121.035C315.792 120.76 315.549 120.622 315.258 120.622C314.971 120.622 314.742 120.744 314.571 120.986C314.356 121.296 314.249 121.868 314.249 122.702Z" fill="#000000" fill-rule="nonzero" opacity="1" stroke="none"/>
<path d="M128.137 117.268L128.137 43.7045L139.417 43.7045L139.417 117.268L128.137 117.268Z" fill="url(#LinearGradient_3)" fill-rule="nonzero" opacity="1" stroke="none"/>
<path d="M140.877 117.268L140.877 29.3791L152.05 29.3791L152.05 117.268L140.877 117.268Z" fill="url(#LinearGradient_4)" fill-rule="nonzero" opacity="1" stroke="none"/>
<path d="M153.61 117.268L153.61 16.6953L164.69 16.6953L164.69 117.268L153.61 117.268Z" fill="url(#LinearGradient_5)" fill-rule="nonzero" opacity="1" stroke="none"/>
<path d="M166.319 117.268L166.319 10.4095L177.354 10.4095L177.354 117.268L166.319 117.268Z" fill="url(#LinearGradient_6)" fill-rule="nonzero" opacity="1" stroke="none"/>
<path d="M178.987 117.268L178.987 15.4758L190.058 15.3231L190.058 117.268L178.987 117.268Z" fill="url(#LinearGradient_7)" fill-rule="nonzero" opacity="1" stroke="none"/>
<path d="M191.651 117.268L191.651 21.7245L202.767 21.7245L202.767 117.268L191.651 117.268Z" fill="url(#LinearGradient_8)" fill-rule="nonzero" opacity="1" stroke="none"/>
<path d="M204.288 117.268L204.288 35.2062L215.504 35.2062L215.504 117.268L204.288 117.268Z" fill="url(#LinearGradient_9)" fill-rule="nonzero" opacity="1" stroke="none"/>
<path d="M216.904 117.268L216.904 53.7084L228.26 53.7084L228.26 117.268L216.904 117.268Z" fill="url(#LinearGradient_10)" fill-rule="nonzero" opacity="1" stroke="none"/>
<path d="M229.524 116.977L229.524 70.8112L241.013 70.8112L241.013 116.977L229.524 116.977Z" fill="url(#LinearGradient_11)" fill-rule="nonzero" opacity="1" stroke="none"/>
<path d="M242.153 117.205L242.153 85.2063L253.757 85.2063L253.757 117.205L242.153 117.205Z" fill="url(#LinearGradient_12)" fill-rule="nonzero" opacity="1" stroke="none"/>
<path d="M254.797 117.182L254.797 95.4478L266.486 95.4478L266.486 117.182L254.797 117.182Z" fill="url(#LinearGradient_13)" fill-rule="nonzero" opacity="1" stroke="none"/>
<path d="M267.451 117.163L267.451 103.502L279.205 103.502L279.205 117.163L267.451 117.163Z" fill="url(#LinearGradient_14)" fill-rule="nonzero" opacity="1" stroke="none"/>
<path d="M280.114 117.15L280.114 109.207L291.915 109.207L291.915 117.15L280.114 117.15Z" fill="url(#LinearGradient_15)" fill-rule="nonzero" opacity="1" stroke="none"/>
<path d="M292.789 117.144L292.789 112.043L304.613 112.043L304.613 117.144L292.789 117.144Z" fill="url(#LinearGradient_16)" fill-rule="nonzero" opacity="1" stroke="none"/>
<path d="M318.147 117.136L318.147 115.545L330 115.545L330 117.136L318.147 117.136Z" fill="url(#LinearGradient_17)" fill-rule="nonzero" opacity="1" stroke="none"/>
<path d="M305.464 117.138L305.464 114.603L317.31 114.603L317.31 117.138L305.464 117.138Z" fill="url(#LinearGradient_18)" fill-rule="nonzero" opacity="1" stroke="none"/>
<path d="M89.907 116.953L89.907 86.989L101.528 86.989L101.528 116.953L89.907 116.953Z" fill="url(#LinearGradient_19)" fill-rule="nonzero" opacity="1" stroke="none"/>
<path d="M77.18 116.955L77.18 96.9276L88.8824 96.9276L88.8824 116.955L77.18 116.955Z" fill="url(#LinearGradient_20)" fill-rule="nonzero" opacity="1" stroke="none"/>
<path d="M64.4633 116.956L64.4633 104.336L76.2262 104.336L76.2262 116.956L64.4633 116.956Z" fill="url(#LinearGradient_21)" fill-rule="nonzero" opacity="1" stroke="none"/>
<path d="M51.7576 116.957L51.7576 109.065L63.5591 109.065L63.5591 116.957L51.7576 116.957Z" fill="url(#LinearGradient_22)" fill-rule="nonzero" opacity="1" stroke="none"/>
<path d="M39.0598 116.957L39.0598 111.837L50.8839 111.837L50.8839 116.957L39.0598 116.957Z" fill="url(#LinearGradient_23)" fill-rule="nonzero" opacity="1" stroke="none"/>
<path d="M26.367 116.958L26.367 113.413L38.2039 113.413L38.2039 116.958L26.367 116.958Z" fill="url(#LinearGradient_24)" fill-rule="nonzero" opacity="1" stroke="none"/>
<path d="M13.6738 116.958L13.6738 115.064L25.5242 115.064L25.5242 116.958L13.6738 116.958Z" fill="url(#LinearGradient_25)" fill-rule="nonzero" opacity="1" stroke="none"/>
<path d="M1.00166 116.902L1.00166 111.503L12.8235 111.503L12.8235 116.902L1.00166 116.902Z" fill="url(#LinearGradient_26)" fill-rule="nonzero" opacity="1" stroke="none"/>
</g>
</g>
</svg>
