<?xml version="1.0" encoding="UTF-8" standalone="no"?>
<!DOCTYPE svg PUBLIC "-//W3C//DTD SVG 1.1//EN" "http://www.w3.org/Graphics/SVG/1.1/DTD/svg11.dtd">
<!-- Created with Vectornator (http://vectornator.io/) -->
<svg height="100%" stroke-miterlimit="10" style="fill-rule:nonzero;clip-rule:evenodd;stroke-linecap:round;stroke-linejoin:round;" version="1.1" viewBox="0 0 330 130" width="100%" xml:space="preserve" xmlns="http://www.w3.org/2000/svg" xmlns:vectornator="http://vectornator.io" xmlns:xlink="http://www.w3.org/1999/xlink">
<defs>
<linearGradient gradientTransform="matrix(0.0246632 -3.02042 0.356034 0.00290719 140.517 3893.22)" gradientUnits="userSpaceOnUse" id="LinearGradient" x1="1249.21" x2="1283.31" y1="196.61" y2="195.843">
<stop offset="0" stop-color="#f97409"/>
<stop offset="1" stop-color="#f5c043"/>
</linearGradient>
<linearGradient gradientTransform="matrix(0.0046148 -0.56516 0.293669 0.00239795 78.43 826.19)" gradientUnits="userSpaceOnUse" id="LinearGradient_2" x1="1248.19" x2="1283.31" y1="196.711" y2="195.843">
<stop offset="0" stop-color="#074d98"/>
<stop offset="1" stop-color="#6ab0fa"/>
</linearGradient>
<linearGradient gradientTransform="matrix(0.00256973 -0.314706 0.293669 0.00239795 55.6083 513.321)" gradientUnits="userSpaceOnUse" id="LinearGradient_3" x1="1248.19" x2="1283.31" y1="196.711" y2="195.843">
<stop offset="0" stop-color="#074d98"/>
<stop offset="1" stop-color="#6ab0fa"/>
</linearGradient>
<linearGradient gradientTransform="matrix(0.00141995 -0.173896 0.293669 0.00239795 31.6451 337.418)" gradientUnits="userSpaceOnUse" id="LinearGradient_4" x1="1248.19" x2="1283.31" y1="196.711" y2="195.843">
<stop offset="0" stop-color="#074d98"/>
<stop offset="1" stop-color="#6ab0fa"/>
</linearGradient>
<linearGradient gradientTransform="matrix(0.000828186 -0.101425 0.293669 0.00239795 6.97022 246.887)" gradientUnits="userSpaceOnUse" id="LinearGradient_5" x1="1248.19" x2="1283.31" y1="196.711" y2="195.843">
<stop offset="0" stop-color="#074d98"/>
<stop offset="1" stop-color="#6ab0fa"/>
</linearGradient>
<linearGradient gradientTransform="matrix(0.00047025 -0.0575899 0.293669 0.00239795 -18.0028 192.127)" gradientUnits="userSpaceOnUse" id="LinearGradient_6" x1="1248.19" x2="1283.31" y1="196.711" y2="195.843">
<stop offset="0" stop-color="#074d98"/>
<stop offset="1" stop-color="#6ab0fa"/>
</linearGradient>
<linearGradient gradientTransform="matrix(0.000312708 -0.0382964 0.293669 0.00239795 -43.2313 168.026)" gradientUnits="userSpaceOnUse" id="LinearGradient_7" x1="1248.19" x2="1283.31" y1="196.711" y2="195.843">
<stop offset="0" stop-color="#074d98"/>
<stop offset="1" stop-color="#6ab0fa"/>
</linearGradient>
<linearGradient gradientTransform="matrix(0.018591 -2.27677 0.293669 0.00239795 136.897 2963.86)" gradientUnits="userSpaceOnUse" id="LinearGradient_8" x1="1248.19" x2="1283.31" y1="196.711" y2="195.843">
<stop offset="0" stop-color="#074d98"/>
<stop offset="1" stop-color="#6ab0fa"/>
</linearGradient>
<linearGradient gradientTransform="matrix(0.012956 -1.58667 0.293669 0.00239795 118.653 2101.99)" gradientUnits="userSpaceOnUse" id="LinearGradient_9" x1="1248.19" x2="1283.31" y1="196.711" y2="195.843">
<stop offset="0" stop-color="#074d98"/>
<stop offset="1" stop-color="#6ab0fa"/>
</linearGradient>
<linearGradient gradientTransform="matrix(0.00798454 -0.977839 0.293669 0.00239795 99.5626 1341.61)" gradientUnits="userSpaceOnUse" id="LinearGradient_10" x1="1248.19" x2="1283.31" y1="196.711" y2="195.843">
<stop offset="0" stop-color="#074d98"/>
<stop offset="1" stop-color="#6ab0fa"/>
</linearGradient>
<linearGradient gradientTransform="matrix(0.00912026 -1.11693 0.293669 0.00239795 199.832 1515.31)" gradientUnits="userSpaceOnUse" id="LinearGradient_11" x1="1248.19" x2="1283.31" y1="196.711" y2="195.843">
<stop offset="0" stop-color="#074d98"/>
<stop offset="1" stop-color="#6ab0fa"/>
</linearGradient>
<linearGradient gradientTransform="matrix(0.000586537 -0.0718312 0.293669 0.00239795 261.572 209.918)" gradientUnits="userSpaceOnUse" id="LinearGradient_12" x1="1248.19" x2="1283.31" y1="196.711" y2="195.843">
<stop offset="0" stop-color="#074d98"/>
<stop offset="1" stop-color="#6ab0fa"/>
</linearGradient>
<linearGradient gradientTransform="matrix(0.00188655 -0.23104 0.293669 0.00239795 234.485 408.804)" gradientUnits="userSpaceOnUse" id="LinearGradient_13" x1="1248.19" x2="1283.31" y1="196.711" y2="195.843">
<stop offset="0" stop-color="#074d98"/>
<stop offset="1" stop-color="#6ab0fa"/>
</linearGradient>
</defs>
<clipPath id="ArtboardFrame">
<rect height="130" width="330" x="0" y="0"/>
</clipPath>
<g clip-path="url(#ArtboardFrame)" id="Layer-1" vectornator:layerName="Layer 1">
<g opacity="1">
<path d="M0 94.4999L330 94.4999" fill="none" opacity="1" stroke="#8b8b8b" stroke-linecap="butt" stroke-linejoin="miter" stroke-width="0.5"/>
<path d="M0 68.5517L330 68.5517" fill="none" opacity="1" stroke="#8b8b8b" stroke-linecap="butt" stroke-linejoin="miter" stroke-width="0.5"/>
<path d="M0 42.6036L330 42.6036" fill="none" opacity="1" stroke="#8b8b8b" stroke-linecap="butt" stroke-linejoin="miter" stroke-width="0.5"/>
<path d="M0 16.6555L330 16.6555" fill="none" opacity="1" stroke="#8b8b8b" stroke-linecap="butt" stroke-linejoin="miter" stroke-width="0.5"/>
</g>
<path d="M8.33995 129.473L8.33995 128.455L6.49497 128.455L6.49497 127.976L8.43568 125.22L8.86212 125.22L8.86212 127.976L9.4365 127.976L9.4365 128.455L8.86212 128.455L8.86212 129.473L8.33995 129.473ZM8.33995 127.976L8.33995 126.059L7.00843 127.976L8.33995 127.976Z" fill="#1f0c0c" fill-rule="nonzero" opacity="1" stroke="none"/>
<path d="M10.2604 126.987L10.2604 126.392L10.855 126.392L10.855 126.987L10.2604 126.987ZM10.2604 129.473L10.2604 128.878L10.855 128.878L10.855 129.473L10.2604 129.473Z" fill="#1f0c0c" fill-rule="nonzero" opacity="1" stroke="none"/>
<path d="M11.6209 127.376C11.6209 126.873 11.6726 126.468 11.7761 126.162C11.8796 125.855 12.0333 125.619 12.2373 125.452C12.4414 125.286 12.6981 125.203 13.0075 125.203C13.2357 125.203 13.4359 125.249 13.608 125.341C13.7801 125.433 13.9223 125.565 14.0345 125.738C14.1466 125.911 14.2346 126.122 14.2984 126.371C14.3623 126.619 14.3942 126.954 14.3942 127.376C14.3942 127.875 14.3429 128.277 14.2404 128.584C14.1379 128.891 13.9847 129.127 13.7806 129.295C13.5766 129.462 13.3189 129.546 13.0075 129.546C12.5975 129.546 12.2755 129.399 12.0415 129.105C11.7611 128.751 11.6209 128.174 11.6209 127.376ZM12.1576 127.376C12.1576 128.074 12.2393 128.539 12.4027 128.77C12.5661 129.001 12.7677 129.116 13.0075 129.116C13.2473 129.116 13.449 129 13.6124 128.768C13.7758 128.536 13.8575 128.072 13.8575 127.376C13.8575 126.676 13.7758 126.211 13.6124 125.98C13.449 125.75 13.2454 125.635 13.0017 125.635C12.7619 125.635 12.5705 125.737 12.4273 125.94C12.2475 126.199 12.1576 126.678 12.1576 127.376Z" fill="#1f0c0c" fill-rule="nonzero" opacity="1" stroke="none"/>
<path d="M14.925 127.376C14.925 126.873 14.9768 126.468 15.0802 126.162C15.1837 125.855 15.3375 125.619 15.5415 125.452C15.7455 125.286 16.0022 125.203 16.3117 125.203C16.5399 125.203 16.74 125.249 16.9122 125.341C17.0843 125.433 17.2264 125.565 17.3386 125.738C17.4508 125.911 17.5388 126.122 17.6026 126.371C17.6664 126.619 17.6983 126.954 17.6983 127.376C17.6983 127.875 17.6471 128.277 17.5446 128.584C17.4421 128.891 17.2888 129.127 17.0848 129.295C16.8807 129.462 16.623 129.546 16.3117 129.546C15.9017 129.546 15.5797 129.399 15.3457 129.105C15.0652 128.751 14.925 128.174 14.925 127.376ZM15.4617 127.376C15.4617 128.074 15.5434 128.539 15.7068 128.77C15.8703 129.001 16.0719 129.116 16.3117 129.116C16.5515 129.116 16.7531 129 16.9165 128.768C17.0799 128.536 17.1616 128.072 17.1616 127.376C17.1616 126.676 17.0799 126.211 16.9165 125.98C16.7531 125.75 16.5496 125.635 16.3059 125.635C16.0661 125.635 15.8746 125.737 15.7315 125.94C15.5516 126.199 15.4617 126.678 15.4617 127.376Z" fill="#1f0c0c" fill-rule="nonzero" opacity="1" stroke="none"/>
<path d="M237.561 129.473L237.039 129.473L237.039 126.146C236.913 126.266 236.748 126.386 236.544 126.505C236.34 126.625 236.157 126.715 235.995 126.775L235.995 126.271C236.287 126.133 236.542 125.967 236.76 125.772C236.979 125.576 237.134 125.387 237.225 125.203L237.561 125.203L237.561 129.473Z" fill="#1f0c0c" fill-rule="nonzero" opacity="1" stroke="none"/>
<path d="M239.188 126.987L239.188 126.392L239.783 126.392L239.783 126.987L239.188 126.987ZM239.188 129.473L239.188 128.878L239.783 128.878L239.783 129.473L239.188 129.473Z" fill="#1f0c0c" fill-rule="nonzero" opacity="1" stroke="none"/>
<path d="M242.223 129.473L242.223 128.455L240.378 128.455L240.378 127.976L242.319 125.22L242.745 125.22L242.745 127.976L243.319 127.976L243.319 128.455L242.745 128.455L242.745 129.473L242.223 129.473ZM242.223 127.976L242.223 126.059L240.891 127.976L242.223 127.976Z" fill="#1f0c0c" fill-rule="nonzero" opacity="1" stroke="none"/>
<path d="M243.853 128.359L244.401 128.313C244.442 128.58 244.536 128.78 244.684 128.915C244.832 129.049 245.011 129.116 245.219 129.116C245.471 129.116 245.684 129.022 245.858 128.832C246.032 128.642 246.119 128.391 246.119 128.078C246.119 127.78 246.035 127.545 245.868 127.373C245.701 127.201 245.482 127.115 245.211 127.115C245.043 127.115 244.891 127.153 244.755 127.229C244.62 127.306 244.514 127.405 244.436 127.527L243.946 127.463L244.358 125.278L246.473 125.278L246.473 125.777L244.776 125.777L244.546 126.92C244.802 126.742 245.07 126.653 245.35 126.653C245.721 126.653 246.035 126.782 246.29 127.039C246.545 127.296 246.673 127.627 246.673 128.031C246.673 128.416 246.561 128.749 246.336 129.029C246.064 129.374 245.691 129.546 245.219 129.546C244.833 129.546 244.517 129.437 244.272 129.221C244.028 129.004 243.888 128.717 243.853 128.359Z" fill="#1f0c0c" fill-rule="nonzero" opacity="1" stroke="none"/>
<path d="M262.997 129.473L262.475 129.473L262.475 126.146C262.35 126.266 262.185 126.386 261.981 126.505C261.777 126.625 261.593 126.715 261.431 126.775L261.431 126.271C261.723 126.133 261.978 125.967 262.197 125.772C262.415 125.576 262.57 125.387 262.661 125.203L262.997 125.203L262.997 129.473Z" fill="#1f0c0c" fill-rule="nonzero" opacity="1" stroke="none"/>
<path d="M264.625 126.987L264.625 126.392L265.22 126.392L265.22 126.987L264.625 126.987ZM264.625 129.473L264.625 128.878L265.22 128.878L265.22 129.473L264.625 129.473Z" fill="#1f0c0c" fill-rule="nonzero" opacity="1" stroke="none"/>
<path d="M265.988 128.35L266.511 128.281C266.57 128.577 266.672 128.79 266.817 128.92C266.961 129.051 267.136 129.116 267.343 129.116C267.589 129.116 267.796 129.031 267.965 128.861C268.135 128.691 268.219 128.48 268.219 128.229C268.219 127.989 268.141 127.791 267.984 127.635C267.828 127.48 267.628 127.402 267.387 127.402C267.288 127.402 267.165 127.421 267.018 127.46L267.076 127.002C267.111 127.005 267.139 127.007 267.16 127.007C267.383 127.007 267.583 126.949 267.761 126.833C267.939 126.717 268.028 126.538 268.028 126.297C268.028 126.105 267.963 125.947 267.833 125.821C267.704 125.695 267.536 125.632 267.331 125.632C267.128 125.632 266.959 125.696 266.824 125.824C266.688 125.951 266.601 126.143 266.563 126.398L266.041 126.305C266.104 125.955 266.249 125.684 266.476 125.492C266.702 125.299 266.983 125.203 267.32 125.203C267.552 125.203 267.766 125.253 267.961 125.352C268.156 125.452 268.306 125.588 268.409 125.76C268.513 125.932 268.564 126.115 268.564 126.308C268.564 126.492 268.515 126.659 268.416 126.81C268.318 126.961 268.172 127.081 267.978 127.17C268.23 127.228 268.425 127.348 268.564 127.531C268.704 127.714 268.773 127.942 268.773 128.217C268.773 128.588 268.638 128.903 268.367 129.161C268.096 129.419 267.754 129.549 267.34 129.549C266.967 129.549 266.657 129.437 266.41 129.215C266.164 128.993 266.023 128.704 265.988 128.35Z" fill="#1f0c0c" fill-rule="nonzero" opacity="1" stroke="none"/>
<path d="M269.29 127.376C269.29 126.873 269.341 126.468 269.445 126.162C269.548 125.855 269.702 125.619 269.906 125.452C270.11 125.286 270.367 125.203 270.676 125.203C270.904 125.203 271.105 125.249 271.277 125.341C271.449 125.433 271.591 125.565 271.703 125.738C271.815 125.911 271.903 126.122 271.967 126.371C272.031 126.619 272.063 126.954 272.063 127.376C272.063 127.875 272.012 128.277 271.909 128.584C271.807 128.891 271.653 129.127 271.449 129.295C271.245 129.462 270.988 129.546 270.676 129.546C270.266 129.546 269.944 129.399 269.71 129.105C269.43 128.751 269.29 128.174 269.29 127.376ZM269.826 127.376C269.826 128.074 269.908 128.539 270.071 128.77C270.235 129.001 270.436 129.116 270.676 129.116C270.916 129.116 271.118 129 271.281 128.768C271.444 128.536 271.526 128.072 271.526 127.376C271.526 126.676 271.444 126.211 271.281 125.98C271.118 125.75 270.914 125.635 270.67 125.635C270.431 125.635 270.239 125.737 270.096 125.94C269.916 126.199 269.826 126.678 269.826 127.376Z" fill="#1f0c0c" fill-rule="nonzero" opacity="1" stroke="none"/>
<path d="M288.434 129.473L287.912 129.473L287.912 126.146C287.786 126.266 287.621 126.386 287.417 126.505C287.213 126.625 287.03 126.715 286.867 126.775L286.867 126.271C287.159 126.133 287.415 125.967 287.633 125.772C287.852 125.576 288.007 125.387 288.097 125.203L288.434 125.203L288.434 129.473Z" fill="#1f0c0c" fill-rule="nonzero" opacity="1" stroke="none"/>
<path d="M290.061 126.987L290.061 126.392L290.656 126.392L290.656 126.987L290.061 126.987ZM290.061 129.473L290.061 128.878L290.656 128.878L290.656 129.473L290.061 129.473Z" fill="#1f0c0c" fill-rule="nonzero" opacity="1" stroke="none"/>
<path d="M293.389 129.473L292.867 129.473L292.867 126.146C292.741 126.266 292.576 126.386 292.372 126.505C292.168 126.625 291.985 126.715 291.822 126.775L291.822 126.271C292.114 126.133 292.37 125.967 292.588 125.772C292.807 125.576 292.961 125.387 293.052 125.203L293.389 125.203L293.389 129.473Z" fill="#1f0c0c" fill-rule="nonzero" opacity="1" stroke="none"/>
<path d="M294.726 128.359L295.274 128.313C295.315 128.58 295.409 128.78 295.557 128.915C295.705 129.049 295.884 129.116 296.092 129.116C296.344 129.116 296.557 129.022 296.731 128.832C296.905 128.642 296.992 128.391 296.992 128.078C296.992 127.78 296.908 127.545 296.741 127.373C296.573 127.201 296.354 127.115 296.084 127.115C295.915 127.115 295.764 127.153 295.628 127.229C295.493 127.306 295.386 127.405 295.309 127.527L294.819 127.463L295.231 125.278L297.346 125.278L297.346 125.777L295.649 125.777L295.419 126.92C295.675 126.742 295.942 126.653 296.223 126.653C296.594 126.653 296.908 126.782 297.163 127.039C297.418 127.296 297.546 127.627 297.546 128.031C297.546 128.416 297.434 128.749 297.209 129.029C296.937 129.374 296.564 129.546 296.092 129.546C295.706 129.546 295.39 129.437 295.145 129.221C294.901 129.004 294.761 128.717 294.726 128.359Z" fill="#1f0c0c" fill-rule="nonzero" opacity="1" stroke="none"/>
<path d="M313.87 129.473L313.348 129.473L313.348 126.146C313.223 126.266 313.058 126.386 312.854 126.505C312.65 126.625 312.466 126.715 312.304 126.775L312.304 126.271C312.596 126.133 312.851 125.967 313.07 125.772C313.288 125.576 313.443 125.387 313.534 125.203L313.87 125.203L313.87 129.473Z" fill="#1f0c0c" fill-rule="nonzero" opacity="1" stroke="none"/>
<path d="M315.498 126.987L315.498 126.392L316.093 126.392L316.093 126.987L315.498 126.987ZM315.498 129.473L315.498 128.878L316.093 128.878L316.093 129.473L315.498 129.473Z" fill="#1f0c0c" fill-rule="nonzero" opacity="1" stroke="none"/>
<path d="M316.858 127.376C316.858 126.873 316.91 126.468 317.014 126.162C317.117 125.855 317.271 125.619 317.475 125.452C317.679 125.286 317.936 125.203 318.245 125.203C318.473 125.203 318.673 125.249 318.845 125.341C319.018 125.433 319.16 125.565 319.272 125.738C319.384 125.911 319.472 126.122 319.536 126.371C319.6 126.619 319.632 126.954 319.632 127.376C319.632 127.875 319.58 128.277 319.478 128.584C319.375 128.891 319.222 129.127 319.018 129.295C318.814 129.462 318.556 129.546 318.245 129.546C317.835 129.546 317.513 129.399 317.279 129.105C316.999 128.751 316.858 128.174 316.858 127.376ZM317.395 127.376C317.395 128.074 317.477 128.539 317.64 128.77C317.804 129.001 318.005 129.116 318.245 129.116C318.485 129.116 318.686 129 318.85 128.768C319.013 128.536 319.095 128.072 319.095 127.376C319.095 126.676 319.013 126.211 318.85 125.98C318.686 125.75 318.483 125.635 318.239 125.635C317.999 125.635 317.808 125.737 317.665 125.94C317.485 126.199 317.395 126.678 317.395 127.376Z" fill="#1f0c0c" fill-rule="nonzero" opacity="1" stroke="none"/>
<path d="M320.162 127.376C320.162 126.873 320.214 126.468 320.318 126.162C320.421 125.855 320.575 125.619 320.779 125.452C320.983 125.286 321.24 125.203 321.549 125.203C321.777 125.203 321.978 125.249 322.15 125.341C322.322 125.433 322.464 125.565 322.576 125.738C322.688 125.911 322.776 126.122 322.84 126.371C322.904 126.619 322.936 126.954 322.936 127.376C322.936 127.875 322.885 128.277 322.782 128.584C322.68 128.891 322.526 129.127 322.322 129.295C322.118 129.462 321.86 129.546 321.549 129.546C321.139 129.546 320.817 129.399 320.583 129.105C320.303 128.751 320.162 128.174 320.162 127.376ZM320.699 127.376C320.699 128.074 320.781 128.539 320.944 128.77C321.108 129.001 321.309 129.116 321.549 129.116C321.789 129.116 321.991 129 322.154 128.768C322.317 128.536 322.399 128.072 322.399 127.376C322.399 126.676 322.317 126.211 322.154 125.98C321.991 125.75 321.787 125.635 321.543 125.635C321.304 125.635 321.112 125.737 320.969 125.94C320.789 126.199 320.699 126.678 320.699 127.376Z" fill="#1f0c0c" fill-rule="nonzero" opacity="1" stroke="none"/>
<path d="M136.593 128.971L136.593 129.473L133.782 129.473C133.778 129.347 133.798 129.227 133.843 129.111C133.914 128.919 134.029 128.73 134.186 128.545C134.344 128.359 134.572 128.144 134.87 127.901C135.332 127.522 135.644 127.222 135.807 127C135.969 126.779 136.05 126.569 136.05 126.372C136.05 126.165 135.976 125.991 135.828 125.848C135.68 125.706 135.487 125.635 135.25 125.635C134.998 125.635 134.797 125.711 134.646 125.861C134.495 126.012 134.419 126.221 134.417 126.488L133.88 126.433C133.917 126.033 134.055 125.728 134.295 125.518C134.535 125.308 134.857 125.203 135.261 125.203C135.669 125.203 135.992 125.316 136.23 125.542C136.468 125.769 136.587 126.049 136.587 126.384C136.587 126.554 136.552 126.721 136.482 126.885C136.413 127.05 136.297 127.223 136.136 127.405C135.974 127.587 135.706 127.836 135.331 128.153C135.017 128.416 134.816 128.595 134.727 128.688C134.638 128.782 134.565 128.876 134.507 128.971L136.593 128.971Z" fill="#1f0c0c" fill-rule="nonzero" opacity="1" stroke="none"/>
<path d="M137.443 126.987L137.443 126.392L138.037 126.392L138.037 126.987L137.443 126.987ZM137.443 129.473L137.443 128.878L138.037 128.878L138.037 129.473L137.443 129.473Z" fill="#1f0c0c" fill-rule="nonzero" opacity="1" stroke="none"/>
<path d="M140.477 129.473L140.477 128.455L138.632 128.455L138.632 127.976L140.573 125.22L140.999 125.22L140.999 127.976L141.574 127.976L141.574 128.455L140.999 128.455L140.999 129.473L140.477 129.473ZM140.477 127.976L140.477 126.059L139.145 127.976L140.477 127.976Z" fill="#1f0c0c" fill-rule="nonzero" opacity="1" stroke="none"/>
<path d="M142.107 128.359L142.656 128.313C142.696 128.58 142.79 128.78 142.938 128.915C143.086 129.049 143.265 129.116 143.474 129.116C143.725 129.116 143.938 129.022 144.112 128.832C144.286 128.642 144.373 128.391 144.373 128.078C144.373 127.78 144.289 127.545 144.122 127.373C143.955 127.201 143.736 127.115 143.465 127.115C143.297 127.115 143.145 127.153 143.009 127.229C142.874 127.306 142.768 127.405 142.69 127.527L142.2 127.463L142.612 125.278L144.727 125.278L144.727 125.777L143.03 125.777L142.801 126.92C143.056 126.742 143.324 126.653 143.604 126.653C143.976 126.653 144.289 126.782 144.544 127.039C144.799 127.296 144.927 127.627 144.927 128.031C144.927 128.416 144.815 128.749 144.59 129.029C144.318 129.374 143.946 129.546 143.474 129.546C143.087 129.546 142.771 129.437 142.526 129.221C142.282 129.004 142.142 128.717 142.107 128.359Z" fill="#1f0c0c" fill-rule="nonzero" opacity="1" stroke="none"/>
<path d="M162.029 128.971L162.029 129.473L159.218 129.473C159.214 129.347 159.235 129.227 159.279 129.111C159.351 128.919 159.465 128.73 159.623 128.545C159.78 128.359 160.008 128.144 160.306 127.901C160.768 127.522 161.081 127.222 161.243 127C161.405 126.779 161.487 126.569 161.487 126.372C161.487 126.165 161.413 125.991 161.265 125.848C161.117 125.706 160.924 125.635 160.686 125.635C160.435 125.635 160.233 125.711 160.083 125.861C159.932 126.012 159.855 126.221 159.853 126.488L159.317 126.433C159.354 126.033 159.492 125.728 159.732 125.518C159.971 125.308 160.293 125.203 160.698 125.203C161.106 125.203 161.429 125.316 161.667 125.542C161.904 125.769 162.023 126.049 162.023 126.384C162.023 126.554 161.989 126.721 161.919 126.885C161.849 127.05 161.734 127.223 161.572 127.405C161.411 127.587 161.142 127.836 160.767 128.153C160.454 128.416 160.253 128.595 160.164 128.688C160.075 128.782 160.001 128.876 159.943 128.971L162.029 128.971Z" fill="#1f0c0c" fill-rule="nonzero" opacity="1" stroke="none"/>
<path d="M162.879 126.987L162.879 126.392L163.474 126.392L163.474 126.987L162.879 126.987ZM162.879 129.473L162.879 128.878L163.474 128.878L163.474 129.473L162.879 129.473Z" fill="#1f0c0c" fill-rule="nonzero" opacity="1" stroke="none"/>
<path d="M164.243 128.35L164.765 128.281C164.825 128.577 164.927 128.79 165.071 128.92C165.215 129.051 165.39 129.116 165.597 129.116C165.843 129.116 166.05 129.031 166.219 128.861C166.389 128.691 166.473 128.48 166.473 128.229C166.473 127.989 166.395 127.791 166.238 127.635C166.082 127.48 165.883 127.402 165.641 127.402C165.542 127.402 165.419 127.421 165.272 127.46L165.33 127.002C165.365 127.005 165.393 127.007 165.414 127.007C165.637 127.007 165.837 126.949 166.015 126.833C166.193 126.717 166.282 126.538 166.282 126.297C166.282 126.105 166.217 125.947 166.088 125.821C165.958 125.695 165.791 125.632 165.586 125.632C165.383 125.632 165.213 125.696 165.078 125.824C164.943 125.951 164.856 126.143 164.817 126.398L164.295 126.305C164.359 125.955 164.504 125.684 164.73 125.492C164.956 125.299 165.238 125.203 165.574 125.203C165.806 125.203 166.02 125.253 166.215 125.352C166.41 125.452 166.56 125.588 166.663 125.76C166.767 125.932 166.819 126.115 166.819 126.308C166.819 126.492 166.769 126.659 166.671 126.81C166.572 126.961 166.426 127.081 166.233 127.17C166.484 127.228 166.679 127.348 166.819 127.531C166.958 127.714 167.027 127.942 167.027 128.217C167.027 128.588 166.892 128.903 166.621 129.161C166.351 129.419 166.008 129.549 165.594 129.549C165.221 129.549 164.911 129.437 164.665 129.215C164.418 128.993 164.277 128.704 164.243 128.35Z" fill="#1f0c0c" fill-rule="nonzero" opacity="1" stroke="none"/>
<path d="M167.544 127.376C167.544 126.873 167.595 126.468 167.699 126.162C167.802 125.855 167.956 125.619 168.16 125.452C168.364 125.286 168.621 125.203 168.93 125.203C169.159 125.203 169.359 125.249 169.531 125.341C169.703 125.433 169.845 125.565 169.957 125.738C170.069 125.911 170.157 126.122 170.221 126.371C170.285 126.619 170.317 126.954 170.317 127.376C170.317 127.875 170.266 128.277 170.163 128.584C170.061 128.891 169.908 129.127 169.703 129.295C169.499 129.462 169.242 129.546 168.93 129.546C168.52 129.546 168.198 129.399 167.964 129.105C167.684 128.751 167.544 128.174 167.544 127.376ZM168.08 127.376C168.08 128.074 168.162 128.539 168.326 128.77C168.489 129.001 168.691 129.116 168.93 129.116C169.17 129.116 169.372 129 169.535 128.768C169.699 128.536 169.78 128.072 169.78 127.376C169.78 126.676 169.699 126.211 169.535 125.98C169.372 125.75 169.168 125.635 168.925 125.635C168.685 125.635 168.493 125.737 168.35 125.94C168.17 126.199 168.08 126.678 168.08 127.376Z" fill="#1f0c0c" fill-rule="nonzero" opacity="1" stroke="none"/>
<path d="M187.466 128.971L187.466 129.473L184.655 129.473C184.651 129.347 184.671 129.227 184.716 129.111C184.787 128.919 184.902 128.73 185.059 128.545C185.217 128.359 185.445 128.144 185.742 127.901C186.205 127.522 186.517 127.222 186.679 127C186.842 126.779 186.923 126.569 186.923 126.372C186.923 126.165 186.849 125.991 186.701 125.848C186.553 125.706 186.36 125.635 186.122 125.635C185.871 125.635 185.67 125.711 185.519 125.861C185.368 126.012 185.292 126.221 185.29 126.488L184.753 126.433C184.79 126.033 184.928 125.728 185.168 125.518C185.408 125.308 185.73 125.203 186.134 125.203C186.542 125.203 186.865 125.316 187.103 125.542C187.341 125.769 187.46 126.049 187.46 126.384C187.46 126.554 187.425 126.721 187.355 126.885C187.286 127.05 187.17 127.223 187.009 127.405C186.847 127.587 186.579 127.836 186.204 128.153C185.89 128.416 185.689 128.595 185.6 128.688C185.511 128.782 185.438 128.876 185.38 128.971L187.466 128.971Z" fill="#1f0c0c" fill-rule="nonzero" opacity="1" stroke="none"/>
<path d="M188.316 126.987L188.316 126.392L188.91 126.392L188.91 126.987L188.316 126.987ZM188.316 129.473L188.316 128.878L188.91 128.878L188.91 129.473L188.316 129.473Z" fill="#1f0c0c" fill-rule="nonzero" opacity="1" stroke="none"/>
<path d="M191.643 129.473L191.121 129.473L191.121 126.146C190.995 126.266 190.83 126.386 190.626 126.505C190.422 126.625 190.239 126.715 190.076 126.775L190.076 126.271C190.368 126.133 190.624 125.967 190.842 125.772C191.061 125.576 191.215 125.387 191.306 125.203L191.643 125.203L191.643 129.473Z" fill="#1f0c0c" fill-rule="nonzero" opacity="1" stroke="none"/>
<path d="M192.98 128.359L193.528 128.313C193.569 128.58 193.663 128.78 193.811 128.915C193.959 129.049 194.138 129.116 194.347 129.116C194.598 129.116 194.811 129.022 194.985 128.832C195.159 128.642 195.246 128.391 195.246 128.078C195.246 127.78 195.162 127.545 194.995 127.373C194.828 127.201 194.609 127.115 194.338 127.115C194.17 127.115 194.018 127.153 193.882 127.229C193.747 127.306 193.641 127.405 193.563 127.527L193.073 127.463L193.485 125.278L195.6 125.278L195.6 125.777L193.903 125.777L193.674 126.92C193.929 126.742 194.197 126.653 194.477 126.653C194.848 126.653 195.162 126.782 195.417 127.039C195.672 127.296 195.8 127.627 195.8 128.031C195.8 128.416 195.688 128.749 195.463 129.029C195.191 129.374 194.818 129.546 194.347 129.546C193.96 129.546 193.644 129.437 193.399 129.221C193.155 129.004 193.015 128.717 192.98 128.359Z" fill="#1f0c0c" fill-rule="nonzero" opacity="1" stroke="none"/>
<path d="M212.902 128.971L212.902 129.473L210.091 129.473C210.087 129.347 210.107 129.227 210.152 129.111C210.224 128.919 210.338 128.73 210.496 128.545C210.653 128.359 210.881 128.144 211.179 127.901C211.641 127.522 211.953 127.222 212.116 127C212.278 126.779 212.36 126.569 212.36 126.372C212.36 126.165 212.286 125.991 212.138 125.848C211.99 125.706 211.797 125.635 211.559 125.635C211.307 125.635 211.106 125.711 210.956 125.861C210.805 126.012 210.728 126.221 210.726 126.488L210.19 126.433C210.226 126.033 210.365 125.728 210.605 125.518C210.844 125.308 211.166 125.203 211.571 125.203C211.979 125.203 212.302 125.316 212.539 125.542C212.777 125.769 212.896 126.049 212.896 126.384C212.896 126.554 212.861 126.721 212.792 126.885C212.722 127.05 212.607 127.223 212.445 127.405C212.284 127.587 212.015 127.836 211.64 128.153C211.327 128.416 211.126 128.595 211.037 128.688C210.948 128.782 210.874 128.876 210.816 128.971L212.902 128.971Z" fill="#1f0c0c" fill-rule="nonzero" opacity="1" stroke="none"/>
<path d="M213.752 126.987L213.752 126.392L214.347 126.392L214.347 126.987L213.752 126.987ZM213.752 129.473L213.752 128.878L214.347 128.878L214.347 129.473L213.752 129.473Z" fill="#1f0c0c" fill-rule="nonzero" opacity="1" stroke="none"/>
<path d="M215.113 127.376C215.113 126.873 215.164 126.468 215.268 126.162C215.371 125.855 215.525 125.619 215.729 125.452C215.933 125.286 216.19 125.203 216.499 125.203C216.727 125.203 216.928 125.249 217.1 125.341C217.272 125.433 217.414 125.565 217.526 125.738C217.638 125.911 217.726 126.122 217.79 126.371C217.854 126.619 217.886 126.954 217.886 127.376C217.886 127.875 217.835 128.277 217.732 128.584C217.63 128.891 217.476 129.127 217.272 129.295C217.068 129.462 216.811 129.546 216.499 129.546C216.089 129.546 215.767 129.399 215.533 129.105C215.253 128.751 215.113 128.174 215.113 127.376ZM215.649 127.376C215.649 128.074 215.731 128.539 215.894 128.77C216.058 129.001 216.259 129.116 216.499 129.116C216.739 129.116 216.941 129 217.104 128.768C217.267 128.536 217.349 128.072 217.349 127.376C217.349 126.676 217.267 126.211 217.104 125.98C216.941 125.75 216.737 125.635 216.493 125.635C216.254 125.635 216.062 125.737 215.919 125.94C215.739 126.199 215.649 126.678 215.649 127.376Z" fill="#1f0c0c" fill-rule="nonzero" opacity="1" stroke="none"/>
<path d="M218.417 127.376C218.417 126.873 218.468 126.468 218.572 126.162C218.675 125.855 218.829 125.619 219.033 125.452C219.237 125.286 219.494 125.203 219.803 125.203C220.032 125.203 220.232 125.249 220.404 125.341C220.576 125.433 220.718 125.565 220.83 125.738C220.942 125.911 221.03 126.122 221.094 126.371C221.158 126.619 221.19 126.954 221.19 127.376C221.19 127.875 221.139 128.277 221.036 128.584C220.934 128.891 220.78 129.127 220.576 129.295C220.372 129.462 220.115 129.546 219.803 129.546C219.393 129.546 219.071 129.399 218.837 129.105C218.557 128.751 218.417 128.174 218.417 127.376ZM218.953 127.376C218.953 128.074 219.035 128.539 219.198 128.77C219.362 129.001 219.564 129.116 219.803 129.116C220.043 129.116 220.245 129 220.408 128.768C220.572 128.536 220.653 128.072 220.653 127.376C220.653 126.676 220.572 126.211 220.408 125.98C220.245 125.75 220.041 125.635 219.798 125.635C219.558 125.635 219.366 125.737 219.223 125.94C219.043 126.199 218.953 126.678 218.953 127.376Z" fill="#1f0c0c" fill-rule="nonzero" opacity="1" stroke="none"/>
<path d="M32.1055 128.35L32.6276 128.281C32.6876 128.577 32.7896 128.79 32.9337 128.92C33.0778 129.051 33.2533 129.116 33.4602 129.116C33.7058 129.116 33.9132 129.031 34.0825 128.861C34.2517 128.691 34.3363 128.48 34.3363 128.229C34.3363 127.989 34.258 127.791 34.1013 127.635C33.9447 127.48 33.7455 127.402 33.5037 127.402C33.4051 127.402 33.2823 127.421 33.1353 127.46L33.1933 127.002C33.2281 127.005 33.2562 127.007 33.2774 127.007C33.4999 127.007 33.7 126.949 33.8779 126.833C34.0559 126.717 34.1448 126.538 34.1448 126.297C34.1448 126.105 34.08 125.947 33.9505 125.821C33.8209 125.695 33.6536 125.632 33.4486 125.632C33.2455 125.632 33.0763 125.696 32.9409 125.824C32.8056 125.951 32.7185 126.143 32.6799 126.398L32.1577 126.305C32.2215 125.955 32.3666 125.684 32.5928 125.492C32.8191 125.299 33.1005 125.203 33.437 125.203C33.6691 125.203 33.8828 125.253 34.0781 125.352C34.2734 125.452 34.4228 125.588 34.5263 125.76C34.6298 125.932 34.6815 126.115 34.6815 126.308C34.6815 126.492 34.6322 126.659 34.5335 126.81C34.4349 126.961 34.2889 127.081 34.0955 127.17C34.3469 127.228 34.5422 127.348 34.6815 127.531C34.8207 127.714 34.8904 127.942 34.8904 128.217C34.8904 128.588 34.755 128.903 34.4842 129.161C34.2135 129.419 33.8712 129.549 33.4573 129.549C33.0841 129.549 32.7741 129.437 32.5276 129.215C32.281 128.993 32.1403 128.704 32.1055 128.35Z" fill="#1f0c0c" fill-rule="nonzero" opacity="1" stroke="none"/>
<path d="M35.6968 126.987L35.6968 126.392L36.2915 126.392L36.2915 126.987L35.6968 126.987ZM35.6968 129.473L35.6968 128.878L36.2915 128.878L36.2915 129.473L35.6968 129.473Z" fill="#1f0c0c" fill-rule="nonzero" opacity="1" stroke="none"/>
<path d="M38.7312 129.473L38.7312 128.455L36.8862 128.455L36.8862 127.976L38.8269 125.22L39.2533 125.22L39.2533 127.976L39.8277 127.976L39.8277 128.455L39.2533 128.455L39.2533 129.473L38.7312 129.473ZM38.7312 127.976L38.7312 126.059L37.3997 127.976L38.7312 127.976Z" fill="#1f0c0c" fill-rule="nonzero" opacity="1" stroke="none"/>
<path d="M40.3615 128.359L40.9098 128.313C40.9504 128.58 41.0447 128.78 41.1926 128.915C41.3406 129.049 41.519 129.116 41.7278 129.116C41.9792 129.116 42.192 129.022 42.366 128.832C42.5401 128.642 42.6271 128.391 42.6271 128.078C42.6271 127.78 42.5435 127.545 42.3762 127.373C42.2089 127.201 41.9899 127.115 41.7191 127.115C41.5509 127.115 41.3991 127.153 41.2637 127.229C41.1283 127.306 41.0219 127.405 40.9446 127.527L40.4543 127.463L40.8663 125.278L42.981 125.278L42.981 125.777L41.284 125.777L41.0548 126.92C41.3101 126.742 41.5779 126.653 41.8584 126.653C42.2297 126.653 42.543 126.782 42.7983 127.039C43.0535 127.296 43.1812 127.627 43.1812 128.031C43.1812 128.416 43.069 128.749 42.8447 129.029C42.572 129.374 42.1997 129.546 41.7278 129.546C41.341 129.546 41.0253 129.437 40.7807 129.221C40.536 129.004 40.3963 128.717 40.3615 128.359Z" fill="#1f0c0c" fill-rule="nonzero" opacity="1" stroke="none"/>
<path d="M57.5419 128.35L58.0641 128.281C58.1241 128.577 58.2261 128.79 58.3701 128.92C58.5142 129.051 58.6897 129.116 58.8967 129.116C59.1423 129.116 59.3497 129.031 59.5189 128.861C59.6881 128.691 59.7727 128.48 59.7727 128.229C59.7727 127.989 59.6944 127.791 59.5378 127.635C59.3811 127.48 59.1819 127.402 58.9402 127.402C58.8415 127.402 58.7187 127.421 58.5718 127.46L58.6298 127.002C58.6646 127.005 58.6926 127.007 58.7139 127.007C58.9363 127.007 59.1365 126.949 59.3144 126.833C59.4923 126.717 59.5813 126.538 59.5813 126.297C59.5813 126.105 59.5165 125.947 59.3869 125.821C59.2573 125.695 59.0901 125.632 58.8851 125.632C58.682 125.632 58.5128 125.696 58.3774 125.824C58.242 125.951 58.155 126.143 58.1163 126.398L57.5941 126.305C57.658 125.955 57.803 125.684 58.0293 125.492C58.2556 125.299 58.5369 125.203 58.8735 125.203C59.1055 125.203 59.3192 125.253 59.5146 125.352C59.7099 125.452 59.8593 125.588 59.9627 125.76C60.0662 125.932 60.1179 126.115 60.1179 126.308C60.1179 126.492 60.0686 126.659 59.97 126.81C59.8714 126.961 59.7254 127.081 59.532 127.17C59.7834 127.228 59.9787 127.348 60.1179 127.531C60.2572 127.714 60.3268 127.942 60.3268 128.217C60.3268 128.588 60.1914 128.903 59.9207 129.161C59.6499 129.419 59.3076 129.549 58.8938 129.549C58.5205 129.549 58.2106 129.437 57.964 129.215C57.7174 128.993 57.5767 128.704 57.5419 128.35Z" fill="#1f0c0c" fill-rule="nonzero" opacity="1" stroke="none"/>
<path d="M61.1333 126.987L61.1333 126.392L61.728 126.392L61.728 126.987L61.1333 126.987ZM61.1333 129.473L61.1333 128.878L61.728 128.878L61.728 129.473L61.1333 129.473Z" fill="#1f0c0c" fill-rule="nonzero" opacity="1" stroke="none"/>
<path d="M62.4967 128.35L63.0189 128.281C63.0788 128.577 63.1808 128.79 63.3249 128.92C63.469 129.051 63.6445 129.116 63.8514 129.116C64.097 129.116 64.3045 129.031 64.4737 128.861C64.6429 128.691 64.7275 128.48 64.7275 128.229C64.7275 127.989 64.6492 127.791 64.4925 127.635C64.3359 127.48 64.1367 127.402 63.8949 127.402C63.7963 127.402 63.6735 127.421 63.5265 127.46L63.5845 127.002C63.6194 127.005 63.6474 127.007 63.6687 127.007C63.8911 127.007 64.0912 126.949 64.2692 126.833C64.4471 126.717 64.536 126.538 64.536 126.297C64.536 126.105 64.4713 125.947 64.3417 125.821C64.2121 125.695 64.0448 125.632 63.8398 125.632C63.6368 125.632 63.4675 125.696 63.3322 125.824C63.1968 125.951 63.1098 126.143 63.0711 126.398L62.5489 126.305C62.6127 125.955 62.7578 125.684 62.9841 125.492C63.2103 125.299 63.4917 125.203 63.8282 125.203C64.0603 125.203 64.274 125.253 64.4693 125.352C64.6647 125.452 64.8141 125.588 64.9175 125.76C65.021 125.932 65.0727 126.115 65.0727 126.308C65.0727 126.492 65.0234 126.659 64.9248 126.81C64.8261 126.961 64.6801 127.081 64.4867 127.17C64.7381 127.228 64.9335 127.348 65.0727 127.531C65.212 127.714 65.2816 127.942 65.2816 128.217C65.2816 128.588 65.1462 128.903 64.8755 129.161C64.6047 129.419 64.2624 129.549 63.8485 129.549C63.4753 129.549 63.1654 129.437 62.9188 129.215C62.6722 128.993 62.5315 128.704 62.4967 128.35Z" fill="#1f0c0c" fill-rule="nonzero" opacity="1" stroke="none"/>
<path d="M65.7979 127.376C65.7979 126.873 65.8497 126.468 65.9531 126.162C66.0566 125.855 66.2104 125.619 66.4144 125.452C66.6184 125.286 66.8752 125.203 67.1846 125.203C67.4128 125.203 67.613 125.249 67.7851 125.341C67.9572 125.433 68.0993 125.565 68.2115 125.738C68.3237 125.911 68.4117 126.122 68.4755 126.371C68.5393 126.619 68.5712 126.954 68.5712 127.376C68.5712 127.875 68.52 128.277 68.4175 128.584C68.315 128.891 68.1617 129.127 67.9577 129.295C67.7536 129.462 67.496 129.546 67.1846 129.546C66.7746 129.546 66.4526 129.399 66.2186 129.105C65.9382 128.751 65.7979 128.174 65.7979 127.376ZM66.3346 127.376C66.3346 128.074 66.4163 128.539 66.5797 128.77C66.7432 129.001 66.9448 129.116 67.1846 129.116C67.4244 129.116 67.626 129 67.7894 128.768C67.9528 128.536 68.0346 128.072 68.0346 127.376C68.0346 126.676 67.9528 126.211 67.7894 125.98C67.626 125.75 67.4225 125.635 67.1788 125.635C66.939 125.635 66.7475 125.737 66.6044 125.94C66.4245 126.199 66.3346 126.678 66.3346 127.376Z" fill="#1f0c0c" fill-rule="nonzero" opacity="1" stroke="none"/>
<path d="M82.9784 128.35L83.5006 128.281C83.5605 128.577 83.6625 128.79 83.8066 128.92C83.9507 129.051 84.1262 129.116 84.3331 129.116C84.5787 129.116 84.7861 129.031 84.9554 128.861C85.1246 128.691 85.2092 128.48 85.2092 128.229C85.2092 127.989 85.1309 127.791 84.9742 127.635C84.8176 127.48 84.6184 127.402 84.3766 127.402C84.278 127.402 84.1552 127.421 84.0082 127.46L84.0662 127.002C84.101 127.005 84.1291 127.007 84.1504 127.007C84.3728 127.007 84.5729 126.949 84.7508 126.833C84.9288 126.717 85.0177 126.538 85.0177 126.297C85.0177 126.105 84.9529 125.947 84.8234 125.821C84.6938 125.695 84.5265 125.632 84.3215 125.632C84.1184 125.632 83.9492 125.696 83.8139 125.824C83.6785 125.951 83.5914 126.143 83.5528 126.398L83.0306 126.305C83.0944 125.955 83.2395 125.684 83.4657 125.492C83.692 125.299 83.9734 125.203 84.3099 125.203C84.542 125.203 84.7557 125.253 84.951 125.352C85.1463 125.452 85.2957 125.588 85.3992 125.76C85.5027 125.932 85.5544 126.115 85.5544 126.308C85.5544 126.492 85.5051 126.659 85.4065 126.81C85.3078 126.961 85.1618 127.081 84.9684 127.17C85.2198 127.228 85.4152 127.348 85.5544 127.531C85.6936 127.714 85.7633 127.942 85.7633 128.217C85.7633 128.588 85.6279 128.903 85.3571 129.161C85.0864 129.419 84.7441 129.549 84.3302 129.549C83.957 129.549 83.647 129.437 83.4005 129.215C83.1539 128.993 83.0132 128.704 82.9784 128.35Z" fill="#1f0c0c" fill-rule="nonzero" opacity="1" stroke="none"/>
<path d="M86.5697 126.987L86.5697 126.392L87.1644 126.392L87.1644 126.987L86.5697 126.987ZM86.5697 129.473L86.5697 128.878L87.1644 128.878L87.1644 129.473L86.5697 129.473Z" fill="#1f0c0c" fill-rule="nonzero" opacity="1" stroke="none"/>
<path d="M89.8971 129.473L89.3749 129.473L89.3749 126.146C89.2492 126.266 89.0843 126.386 88.8803 126.505C88.6763 126.625 88.493 126.715 88.3306 126.775L88.3306 126.271C88.6226 126.133 88.8779 125.967 89.0964 125.772C89.315 125.576 89.4697 125.387 89.5606 125.203L89.8971 125.203L89.8971 129.473Z" fill="#1f0c0c" fill-rule="nonzero" opacity="1" stroke="none"/>
<path d="M91.2344 128.359L91.7827 128.313C91.8233 128.58 91.9176 128.78 92.0655 128.915C92.2135 129.049 92.3919 129.116 92.6007 129.116C92.8521 129.116 93.0649 129.022 93.2389 128.832C93.413 128.642 93.5 128.391 93.5 128.078C93.5 127.78 93.4164 127.545 93.2491 127.373C93.0818 127.201 92.8628 127.115 92.592 127.115C92.4238 127.115 92.272 127.153 92.1366 127.229C92.0012 127.306 91.8948 127.405 91.8175 127.527L91.3272 127.463L91.7392 125.278L93.8539 125.278L93.8539 125.777L92.1569 125.777L91.9277 126.92C92.183 126.742 92.4509 126.653 92.7313 126.653C93.1026 126.653 93.4159 126.782 93.6712 127.039C93.9265 127.296 94.0541 127.627 94.0541 128.031C94.0541 128.416 93.9419 128.749 93.7176 129.029C93.4449 129.374 93.0726 129.546 92.6007 129.546C92.2139 129.546 91.8982 129.437 91.6536 129.221C91.4089 129.004 91.2692 128.717 91.2344 128.359Z" fill="#1f0c0c" fill-rule="nonzero" opacity="1" stroke="none"/>
<path d="M108.415 128.35L108.937 128.281C108.997 128.577 109.099 128.79 109.243 128.92C109.387 129.051 109.563 129.116 109.77 129.116C110.015 129.116 110.223 129.031 110.392 128.861C110.561 128.691 110.646 128.48 110.646 128.229C110.646 127.989 110.567 127.791 110.411 127.635C110.254 127.48 110.055 127.402 109.813 127.402C109.714 127.402 109.592 127.421 109.445 127.46L109.503 127.002C109.537 127.005 109.566 127.007 109.587 127.007C109.809 127.007 110.009 126.949 110.187 126.833C110.365 126.717 110.454 126.538 110.454 126.297C110.454 126.105 110.389 125.947 110.26 125.821C110.13 125.695 109.963 125.632 109.758 125.632C109.555 125.632 109.386 125.696 109.25 125.824C109.115 125.951 109.028 126.143 108.989 126.398L108.467 126.305C108.531 125.955 108.676 125.684 108.902 125.492C109.128 125.299 109.41 125.203 109.746 125.203C109.978 125.203 110.192 125.253 110.387 125.352C110.583 125.452 110.732 125.588 110.836 125.76C110.939 125.932 110.991 126.115 110.991 126.308C110.991 126.492 110.942 126.659 110.843 126.81C110.744 126.961 110.598 127.081 110.405 127.17C110.656 127.228 110.852 127.348 110.991 127.531C111.13 127.714 111.2 127.942 111.2 128.217C111.2 128.588 111.064 128.903 110.794 129.161C110.523 129.419 110.181 129.549 109.767 129.549C109.393 129.549 109.084 129.437 108.837 129.215C108.59 128.993 108.45 128.704 108.415 128.35Z" fill="#1f0c0c" fill-rule="nonzero" opacity="1" stroke="none"/>
<path d="M112.006 126.987L112.006 126.392L112.601 126.392L112.601 126.987L112.006 126.987ZM112.006 129.473L112.006 128.878L112.601 128.878L112.601 129.473L112.006 129.473Z" fill="#1f0c0c" fill-rule="nonzero" opacity="1" stroke="none"/>
<path d="M113.367 127.376C113.367 126.873 113.418 126.468 113.522 126.162C113.625 125.855 113.779 125.619 113.983 125.452C114.187 125.286 114.444 125.203 114.753 125.203C114.982 125.203 115.182 125.249 115.354 125.341C115.526 125.433 115.668 125.565 115.78 125.738C115.892 125.911 115.98 126.122 116.044 126.371C116.108 126.619 116.14 126.954 116.14 127.376C116.14 127.875 116.089 128.277 115.986 128.584C115.884 128.891 115.73 129.127 115.526 129.295C115.322 129.462 115.065 129.546 114.753 129.546C114.343 129.546 114.021 129.399 113.787 129.105C113.507 128.751 113.367 128.174 113.367 127.376ZM113.903 127.376C113.903 128.074 113.985 128.539 114.149 128.77C114.312 129.001 114.514 129.116 114.753 129.116C114.993 129.116 115.195 129 115.358 128.768C115.522 128.536 115.603 128.072 115.603 127.376C115.603 126.676 115.522 126.211 115.358 125.98C115.195 125.75 114.991 125.635 114.748 125.635C114.508 125.635 114.316 125.737 114.173 125.94C113.993 126.199 113.903 126.678 113.903 127.376Z" fill="#1f0c0c" fill-rule="nonzero" opacity="1" stroke="none"/>
<path d="M116.671 127.376C116.671 126.873 116.723 126.468 116.826 126.162C116.93 125.855 117.083 125.619 117.287 125.452C117.491 125.286 117.748 125.203 118.057 125.203C118.286 125.203 118.486 125.249 118.658 125.341C118.83 125.433 118.972 125.565 119.084 125.738C119.197 125.911 119.285 126.122 119.348 126.371C119.412 126.619 119.444 126.954 119.444 127.376C119.444 127.875 119.393 128.277 119.29 128.584C119.188 128.891 119.035 129.127 118.831 129.295C118.627 129.462 118.369 129.546 118.057 129.546C117.647 129.546 117.325 129.399 117.091 129.105C116.811 128.751 116.671 128.174 116.671 127.376ZM117.208 127.376C117.208 128.074 117.289 128.539 117.453 128.77C117.616 129.001 117.818 129.116 118.057 129.116C118.297 129.116 118.499 129 118.662 128.768C118.826 128.536 118.907 128.072 118.907 127.376C118.907 126.676 118.826 126.211 118.662 125.98C118.499 125.75 118.295 125.635 118.052 125.635C117.812 125.635 117.62 125.737 117.477 125.94C117.297 126.199 117.208 126.678 117.208 127.376Z" fill="#1f0c0c" fill-rule="nonzero" opacity="1" stroke="none"/>
<g opacity="1">
<path d="M229.859 120.548L230.844 0L253.777 0.187262L252.793 120.736L229.859 120.548Z" fill="url(#LinearGradient)" fill-rule="nonzero" opacity="1" stroke="none"/>
<path d="M128.631 120.72L128.609 91.2526L151.57 91.2684L151.592 120.736L128.631 120.72Z" fill="url(#LinearGradient_2)" fill-rule="nonzero" opacity="1" stroke="none"/>
<path d="M103.255 120.644L103.126 104.234L126.087 104.326L126.216 120.736L103.255 120.644Z" fill="url(#LinearGradient_3)" fill-rule="nonzero" opacity="1" stroke="none"/>
<path d="M77.8559 120.601L77.6672 111.533L100.627 111.667L100.816 120.736L77.8559 120.601Z" fill="url(#LinearGradient_4)" fill-rule="nonzero" opacity="1" stroke="none"/>
<path d="M52.442 120.579L52.2224 115.289L75.1825 115.446L75.4021 120.736L52.442 120.579Z" fill="url(#LinearGradient_5)" fill-rule="nonzero" opacity="1" stroke="none"/>
<path d="M27.0219 120.566L26.7837 117.561L49.7438 117.731L49.982 120.736L27.0219 120.566Z" fill="url(#LinearGradient_6)" fill-rule="nonzero" opacity="1" stroke="none"/>
<path d="M1.59667 120.56L1.35025 118.561L24.3102 118.737L24.5566 120.736L1.59667 120.56Z" fill="url(#LinearGradient_7)" fill-rule="nonzero" opacity="1" stroke="none"/>
<path d="M204.553 120.736L205.259 2.03194L228.225 1.52776L227.518 120.231L204.553 120.736Z" fill="url(#LinearGradient_8)" fill-rule="nonzero" opacity="1" stroke="none"/>
<path d="M179.271 120.736L179.684 38.0108L202.648 37.7163L202.235 120.441L179.271 120.736Z" fill="url(#LinearGradient_9)" fill-rule="nonzero" opacity="1" stroke="none"/>
<path d="M153.972 120.736L154.126 69.753L177.088 69.6434L176.934 120.626L153.972 120.736Z" fill="url(#LinearGradient_10)" fill-rule="nonzero" opacity="1" stroke="none"/>
<path d="M255.66 120.736L255.873 62.5015L278.835 62.3496L278.622 120.584L255.66 120.736Z" fill="url(#LinearGradient_11)" fill-rule="nonzero" opacity="1" stroke="none"/>
<path d="M306.742 120.57L306.51 116.823L329.47 116.988L329.702 120.736L306.742 120.57Z" fill="url(#LinearGradient_12)" fill-rule="nonzero" opacity="1" stroke="none"/>
<path d="M281.279 120.618L281.115 108.571L304.075 108.688L304.239 120.736L281.279 120.618Z" fill="url(#LinearGradient_13)" fill-rule="nonzero" opacity="1" stroke="none"/>
</g>
</g>
</svg>
