<?xml version="1.0" encoding="UTF-8" standalone="no"?>
<!DOCTYPE svg PUBLIC "-//W3C//DTD SVG 1.1//EN" "http://www.w3.org/Graphics/SVG/1.1/DTD/svg11.dtd">
<!-- Created with Vectornator (http://vectornator.io/) -->
<svg height="100%" stroke-miterlimit="10" style="fill-rule:nonzero;clip-rule:evenodd;stroke-linecap:round;stroke-linejoin:round;" version="1.1" viewBox="0 0 340 150" width="100%" xml:space="preserve" xmlns="http://www.w3.org/2000/svg" xmlns:vectornator="http://vectornator.io" xmlns:xlink="http://www.w3.org/1999/xlink">
<defs/>
<g id="Untitled-copy" vectornator:layerName="Untitled copy">
<g opacity="1">
<path d="M1 72.1477C1 48.118 20.4798 28.64 44.5077 28.64C68.5375 28.64 88.0136 48.118 88.0136 72.1477C88.0136 96.1756 68.5375 115.655 44.5077 115.655C20.4798 115.655 1 96.1756 1 72.1477" fill="#000000" fill-rule="nonzero" opacity="1" stroke="none" vectornator:layerName="path"/>
<path d="M61.131 89.4697C45.7922 103.689 41.7267 109.681 41.7267 109.681C41.7267 109.681 38.6081 103.823 25.0855 89.4623C15.4699 79.2554 13.7384 71.9811 14.5452 63.504C15.3226 55.3473 22.2616 47.8556 30.877 47.8556C39.4997 47.8556 45.6779 54.1205 45.024 63.504C30.6817 57.3772 24.0576 78.246 43.9796 78.246C49.1023 78.246 65.3475 76.3616 76.7075 46.1941C76.2212 59.5251 79.7377 72.2114 61.131 89.4697" fill="#ffffff" fill-rule="nonzero" opacity="1" stroke="none" vectornator:layerName="path"/>
</g>
<g opacity="1">
<path d="M96.2173 94.4807L103.811 94.4807C105.977 94.4807 107.407 92.1574 107.407 88.3507C107.407 85.7858 106.893 85.1453 105.536 85.1453L97.4281 85.1453L96.2173 94.4807ZM105.865 80.8583C109.68 80.8583 111.295 83.1816 111.295 87.5108C111.295 92.7979 109.385 95.6437 107.407 96.6045C108.837 97.5653 109.314 99.1694 109.314 100.892C109.314 101.333 109.314 101.813 109.238 102.254L108.323 109.305L104.581 109.305L105.426 102.653C105.499 102.055 105.572 101.532 105.536 101.091C105.536 99.2481 104.803 98.7677 103.224 98.7677L95.6302 98.7677L94.2733 109.305L90.5678 109.305L94.2367 80.8583L105.865 80.8583Z" fill="#000000" fill-rule="nonzero" opacity="1" stroke="none" vectornator:layerName="path"/>
<path d="M117.788 101.373C117.715 101.892 117.678 102.333 117.678 102.696C117.678 104.539 118.448 105.019 119.805 105.019L125.491 105.019C127.106 105.019 128.168 103.777 128.5 101.373L130.188 88.152C130.225 87.871 130.225 87.5901 130.225 87.3513C130.225 85.6264 129.306 85.0645 127.584 85.0645L122.887 85.0645C120.906 85.0645 119.732 86.1096 119.476 88.152L117.788 101.373ZM127.693 80.859C132.023 80.859 134 82.6232 134 86.6687C134 87.2698 133.93 87.9497 133.854 88.6717L132.315 100.811C131.582 106.62 129.16 109.306 124.207 109.306L120.027 109.306C115.771 109.306 113.936 107.382 113.936 103.294C113.936 102.536 114.009 101.732 114.119 100.811L115.661 88.6717C116.358 83.2216 118.853 80.859 123.878 80.859L127.693 80.859Z" fill="#000000" fill-rule="nonzero" opacity="1" stroke="none" vectornator:layerName="path"/>
<path d="M155.17 80.859L154.619 85.146L147.464 85.146L144.348 109.306L140.68 109.306L143.798 85.146L137.23 85.146L137.78 80.859L155.17 80.859Z" fill="#000000" fill-rule="nonzero" opacity="1" stroke="none" vectornator:layerName="path"/>
<path d="M161.772 80.859L160.196 92.9194L170.539 92.9194L172.115 80.859L175.784 80.859L172.115 109.306L168.446 109.306L169.989 97.2457L159.645 97.2457L158.105 109.306L154.363 109.306L158.03 80.859L161.772 80.859Z" fill="#000000" fill-rule="nonzero" opacity="1" stroke="none" vectornator:layerName="path"/>
<path d="M123.837 39.9977L122.927 45.8664L109.445 45.8664C107.532 45.8664 106.385 46.7007 106.147 48.3639L104.042 62.0761C103.995 62.4273 103.947 62.7756 103.947 63.0847C103.947 64.4837 104.571 65.1411 105.812 65.1411L119.772 65.1411L118.864 71.0996L105.908 71.0996C100.076 71.0996 97.5894 68.9084 97.5894 64.2646C97.5894 63.433 97.685 62.5144 97.8282 61.5058L99.7414 48.8471C100.649 42.6694 104.09 39.9977 110.88 39.9977L123.837 39.9977Z" fill="#000000" fill-rule="nonzero" opacity="1" stroke="none" vectornator:layerName="path"/>
<path d="M133.4 39.9977L131.487 52.5244L142.629 52.5244L144.539 39.9977L150.756 39.9977L145.975 71.0996L139.761 71.0996L141.674 58.5701L130.532 58.5701L128.619 71.0996L122.309 71.0996L127.091 39.9977L133.4 39.9977Z" fill="#000000" fill-rule="nonzero" opacity="1" stroke="none" vectornator:layerName="path"/>
<path d="M160.75 57.9138L167.015 57.9138L165.723 46.2607L160.75 57.9138ZM171.268 39.9988L174.999 71.0979L168.495 71.0979L167.588 63.347L158.55 63.347L155.3 71.0979L148.749 71.0979L162.04 39.9988L171.268 39.9988Z" fill="#000000" fill-rule="nonzero" opacity="1" stroke="none" vectornator:layerName="path"/>
<path d="M188.769 40.1285L185.423 62.0749C185.375 62.4261 185.328 62.7772 185.328 63.0835C185.328 64.4404 185.949 65.1427 187.238 65.1427L201.2 65.1427L200.29 71.0984L187.336 71.0984C181.501 71.0984 179.015 68.91 179.015 64.2662C179.015 63.4318 179.111 62.5132 179.254 61.5046L182.504 40.1285L188.769 40.1285Z" fill="#000000" fill-rule="nonzero" opacity="1" stroke="none" vectornator:layerName="path"/>
<path d="M213.202 40.1285L209.854 62.0749C209.809 62.4261 209.761 62.7772 209.761 63.0835C209.761 64.4404 210.382 65.1427 211.671 65.1427L225.634 65.1427L224.723 71.0984L211.767 71.0984C205.935 71.0984 203.448 68.91 203.448 64.2662C203.448 63.4318 203.544 62.5132 203.687 61.5046L206.938 40.1285L213.202 40.1285Z" fill="#000000" fill-rule="nonzero" opacity="1" stroke="none" vectornator:layerName="path"/>
<path d="M254.464 39.9977L253.554 45.8664L239.738 45.8664C237.827 45.8664 236.678 46.7007 236.44 48.3639L235.819 52.5244L251.453 52.5244L250.495 58.5701L234.861 58.5701L234.335 62.0761C234.288 62.4273 234.24 62.7756 234.24 63.0847C234.24 64.4837 234.861 65.1411 236.105 65.1411L250.641 65.1411L249.73 71.0996L236.201 71.0996C230.366 71.0996 227.882 68.9084 227.882 64.2224C227.882 63.3909 227.978 62.5144 228.121 61.5058L230.034 48.8471C230.942 42.6694 234.479 39.9977 241.221 39.9977L254.464 39.9977Z" fill="#000000" fill-rule="nonzero" opacity="1" stroke="none" vectornator:layerName="path"/>
<path d="M264.458 39.9977L272.538 60.6293L275.693 39.9977L281.91 39.9977L277.129 71.0996L269.861 71.0996L262.45 51.5637L259.438 71.0996L253.221 71.0996L258.003 39.9977L264.458 39.9977Z" fill="#000000" fill-rule="nonzero" opacity="1" stroke="none" vectornator:layerName="path"/>
<path d="M310.598 39.9977L309.688 45.9563L294.725 45.9563C293.051 45.9563 292.048 46.7007 291.809 48.3217L289.61 62.6885C289.562 62.9526 289.511 63.2139 289.511 63.433C289.511 64.6607 290.183 65.1411 291.186 65.1411L300.892 65.1411L301.895 58.5701L295.346 58.5701L296.302 52.4823L309.258 52.4823L306.39 71.0996L290.899 71.0996C285.401 71.0996 283.058 69.0404 283.058 64.7478C283.058 64.0033 283.106 63.2139 283.252 62.3374L285.401 48.4959C286.264 42.8464 290.04 39.9977 296.686 39.9977L310.598 39.9977Z" fill="#000000" fill-rule="nonzero" opacity="1" stroke="none" vectornator:layerName="path"/>
<path d="M339 39.9977L338.09 45.8664L324.274 45.8664C322.363 45.8664 321.214 46.7007 320.975 48.3639L320.355 52.5244L335.988 52.5244L335.03 58.5701L319.397 58.5701L318.871 62.0761C318.823 62.4273 318.776 62.7756 318.776 63.0847C318.776 64.4837 319.397 65.1411 320.641 65.1411L335.174 65.1411L334.266 71.0996L320.737 71.0996C314.902 71.0996 312.418 68.9084 312.418 64.2224C312.418 63.3909 312.514 62.5144 312.657 61.5058L314.567 48.8471C315.478 42.6694 319.015 39.9977 325.757 39.9977L339 39.9977Z" fill="#000000" fill-rule="nonzero" opacity="1" stroke="none" vectornator:layerName="path"/>
</g>
<g opacity="1">
<path d="M286.979 98.6128L287.477 98.6128C287.857 96.6499 289.557 95.2534 291.588 95.2534C293.541 95.2534 295.016 96.5229 295.016 98.2124C295.016 99.7163 294.312 100.654 291.139 103.388L284.996 108.691L284.908 109.101L293.902 109.101L294 108.642L285.787 108.642L285.797 108.593L291.432 103.749C294.742 100.898 295.504 99.8432 295.504 98.1831C295.504 96.2885 293.795 94.8042 291.598 94.8042C289.293 94.8042 287.408 96.3667 286.979 98.6128Z" fill="#adadad" fill-rule="nonzero" opacity="1" stroke="none"/>
<path d="M301.393 109.306C304.889 109.306 307.75 105.087 307.75 99.9116C307.75 96.8745 306.1 94.8042 303.688 94.8042C300.211 94.8042 297.33 99.0424 297.33 104.218C297.33 107.246 298.98 109.306 301.393 109.306ZM297.818 104.13C297.818 99.3549 300.523 95.2534 303.639 95.2534C305.846 95.2534 307.271 97.1381 307.271 99.9995C307.271 104.765 304.576 108.857 301.441 108.857C299.234 108.857 297.818 106.992 297.818 104.13Z" fill="#adadad" fill-rule="nonzero" opacity="1" stroke="none"/>
<path d="M310.533 98.6128L311.031 98.6128C311.412 96.6499 313.111 95.2534 315.143 95.2534C317.096 95.2534 318.57 96.5229 318.57 98.2124C318.57 99.7163 317.867 100.654 314.693 103.388L308.551 108.691L308.463 109.101L317.457 109.101L317.555 108.642L309.342 108.642L309.352 108.593L314.986 103.749C318.297 100.898 319.059 99.8432 319.059 98.1831C319.059 96.2885 317.35 94.8042 315.152 94.8042C312.848 94.8042 310.963 96.3667 310.533 98.6128Z" fill="#adadad" fill-rule="nonzero" opacity="1" stroke="none"/>
<path d="M324.176 102.011L325.709 102.011C328.053 102.011 329.576 103.222 329.576 105.136C329.576 107.294 327.633 108.857 324.986 108.857C322.76 108.857 321.08 107.539 321.08 105.79C321.08 105.624 321.09 105.419 321.139 105.156L320.68 105.156C320.631 105.263 320.592 105.585 320.592 105.869C320.592 107.822 322.486 109.306 324.957 109.306C327.916 109.306 330.064 107.539 330.064 105.087C330.064 103.369 328.951 102.158 327.115 101.865L327.125 101.816C329.342 101.562 330.807 100.156 330.807 98.2612C330.807 96.2885 329.137 94.8042 326.92 94.8042C324.84 94.8042 323.131 96.0151 322.545 97.8803L323.053 97.8803C323.609 96.2885 325.113 95.2534 326.881 95.2534C328.883 95.2534 330.318 96.5424 330.318 98.3393C330.318 100.185 328.541 101.552 326.197 101.552L324.273 101.552L324.176 102.011Z" fill="#adadad" fill-rule="nonzero" opacity="1" stroke="none"/>
</g>
</g>
</svg>
