<?xml version="1.0" encoding="UTF-8" standalone="no"?>
<!DOCTYPE svg PUBLIC "-//W3C//DTD SVG 1.1//EN" "http://www.w3.org/Graphics/SVG/1.1/DTD/svg11.dtd">
<!-- Created with Vectornator (http://vectornator.io/) -->
<svg height="35.0px" stroke-miterlimit="10" style="fill-rule:nonzero;clip-rule:evenodd;stroke-linecap:round;stroke-linejoin:round;" version="1.1" viewBox="0 0 340 35" width="340.0px" xml:space="preserve" xmlns="http://www.w3.org/2000/svg" xmlns:xlink="http://www.w3.org/1999/xlink">
<defs/>
<clipPath id="ArtboardFrame">
<rect height="35" width="340" x="0" y="0"/>
</clipPath>
<g clip-path="url(#ArtboardFrame)" id="Layer-1">
<path d="M195.066 15.1948L195.285 15.1948C195.533 15.1919 195.737 15.1065 195.737 14.9048C195.737 14.723 195.602 14.6046 195.312 14.6054C195.193 14.6083 195.109 14.6178 195.063 14.6316L195.066 15.1948ZM195.065 16.2949L194.608 16.2993L194.597 14.3482C194.775 14.3073 195.027 14.2723 195.347 14.2723C195.716 14.2686 195.889 14.3285 196.033 14.422C196.141 14.5053 196.224 14.6609 196.227 14.8398C196.227 15.0707 196.058 15.2357 195.821 15.3103L195.821 15.3307C196.012 15.3943 196.124 15.5469 196.184 15.8099C196.244 16.1108 196.28 16.2285 196.332 16.2869L195.841 16.2883C195.781 16.2197 195.746 16.0509 195.682 15.8252C195.643 15.6076 195.521 15.5141 195.274 15.5184L195.058 15.5184L195.065 16.2949ZM195.345 13.7083C194.481 13.7142 193.842 14.4242 193.845 15.2832C193.852 16.1591 194.502 16.8486 195.389 16.8442C196.251 16.8515 196.88 16.1393 196.876 15.262C196.865 14.4081 196.232 13.7018 195.356 13.7083L195.345 13.7083ZM195.366 13.3132C196.494 13.308 197.369 14.1751 197.375 15.262C197.384 16.3775 196.516 17.246 195.382 17.2504C194.257 17.2591 193.35 16.4023 193.343 15.2891C193.339 14.2014 194.231 13.3219 195.356 13.3132L195.366 13.3132Z" fill="#000000" fill-rule="nonzero" opacity="1" stroke="none"/>
<g opacity="1">
<path d="M151.487 34.2918L145.459 34.2918L151.674 19.2457L145 19.2457L145 13.5765L158.954 13.5765L151.487 34.2918Z" fill="#000000" fill-rule="nonzero" opacity="1" stroke="none"/>
<path d="M165.939 19.6106C164.395 19.6624 163.894 21.9627 163.894 23.8962C163.894 25.8283 164.375 28.1804 166.062 28.1519C167.649 28.1001 168.005 25.539 167.962 23.5551C167.921 21.7523 167.503 19.5857 165.939 19.6106M166.062 34.8123C160.704 34.8664 158.015 29.561 158.079 23.7903C158.159 18.1489 160.85 13.1072 165.983 13.1072C171.174 13.1072 173.822 17.8355 173.864 23.504C173.924 29.2747 171.007 34.7853 166.062 34.8123" fill="#000000" fill-rule="nonzero" opacity="1" stroke="none"/>
<path d="M176.721 34.5787C174.946 34.5517 173.51 32.6977 173.51 30.5049C173.531 28.3361 174.927 26.5589 176.679 26.5326C178.45 26.4807 179.954 28.3069 179.954 30.5589C179.954 32.7496 178.474 34.5787 176.721 34.5787" fill="#000000" fill-rule="nonzero" opacity="1" stroke="none"/>
<path d="M188.045 34.8664C180.704 34.7086 180.934 28.9635 180.725 27.317L186.44 27.317C186.293 28.5194 187.085 29.6691 188.129 29.6421C188.983 29.6421 189.671 28.8824 189.714 27.786C189.755 25.3842 187.294 25.8283 187.316 25.8013L187.316 21.2833C187.378 21.3111 189.193 21.4397 189.172 19.7939C189.172 18.8523 188.565 18.1752 187.858 18.1752C187.085 18.1752 186.479 19.0379 186.544 20.0036L181.309 20.0036C181.329 16.2672 183.458 13.132 188.088 13.0276C191.549 12.9501 194.741 14.5966 194.842 18.6434C194.947 22.4587 191.986 23.0328 192.01 23.1636C193.802 23.5807 195.471 25.0694 195.471 28.0752C195.448 32.6195 191.59 34.9701 188.045 34.8664" fill="#000000" fill-rule="nonzero" opacity="1" stroke="none"/>
</g>
<g opacity="1">
<path d="M206.41 15.0798L212.207 30.3515L218.056 15.0798L221.357 15.0798L213.764 33.867L210.489 33.867L203 15.0798L206.41 15.0798Z" fill="#000000" fill-rule="nonzero" opacity="1" stroke="none"/>
<path d="M228.015 33.866L224.848 33.866L224.848 15.0789L228.015 15.0789L228.015 33.866Z" fill="#000000" fill-rule="nonzero" opacity="1" stroke="none"/>
<path d="M242.266 17.8178C238.509 17.8178 235.557 20.7157 235.557 24.42C235.557 28.1243 238.509 31.0478 242.266 31.0478C244.144 31.0478 246.077 30.1901 247.498 28.8204L249.378 30.9149C247.473 32.7935 244.762 34 242.104 34C236.603 34 232.335 29.8413 232.335 24.4472C232.335 19.106 236.657 15 242.211 15C244.869 15 247.526 16.1009 249.351 17.8978L247.498 20.2068C246.13 18.7299 244.172 17.8178 242.266 17.8178" fill="#000000" fill-rule="nonzero" opacity="1" stroke="none"/>
<path d="M266.367 15.0798L266.367 17.9249L260.41 17.9249L260.41 33.867L257.242 33.867L257.242 17.9249L251.311 17.9249L251.311 15.0798L266.367 15.0798Z" fill="#000000" fill-rule="nonzero" opacity="1" stroke="none"/>
<path d="M270.554 24.4728C270.554 28.2043 273.641 31.1566 277.318 31.1566C280.995 31.1566 284 28.2043 284 24.4728C284 20.7429 280.995 17.845 277.318 17.845C273.614 17.845 270.554 20.7429 270.554 24.4728M287.247 24.4728C287.247 29.8412 282.9 34 277.291 34C271.683 34 267.335 29.8412 267.335 24.4728C267.335 19.0787 271.683 15 277.291 15C282.9 15 287.247 19.1059 287.247 24.4728" fill="#000000" fill-rule="nonzero" opacity="1" stroke="none"/>
<path d="M299.192 25.3591C302.09 25.3591 303.754 24.1254 303.754 21.5748C303.754 19.1058 302.09 17.9249 299.192 17.9249L294.737 17.9249L294.737 25.3591L299.192 25.3591ZM303.485 33.867L300.051 28.1769C299.782 28.2041 299.486 28.2041 299.192 28.2041L294.737 28.2041L294.737 33.867L291.569 33.867L291.569 15.0798L299.192 15.0798C303.995 15.0798 306.759 17.416 306.759 21.4948C306.759 24.4998 305.363 26.62 302.867 27.5865L307.082 33.867L303.485 33.867Z" fill="#000000" fill-rule="nonzero" opacity="1" stroke="none"/>
<path d="M315.081 33.866L311.914 33.866L311.914 15.0789L315.081 15.0789L315.081 33.866Z" fill="#000000" fill-rule="nonzero" opacity="1" stroke="none"/>
<path d="M331.882 26.8083L328.339 18.462L324.796 26.8083L331.882 26.8083ZM333.088 29.6262L323.615 29.6262L321.817 33.8665L318.516 33.8665L326.809 15.0794L330.056 15.0794L338.269 33.8665L334.888 33.8665L333.088 29.6262Z" fill="#000000" fill-rule="nonzero" opacity="1" stroke="none"/>
</g>
<g opacity="1">
<path d="M10.2961 34.8679L2 34.8679L2 13.5202L10.2909 13.5202L10.2961 34.8679Z" fill="#000000" fill-rule="nonzero" opacity="1" stroke="none"/>
<path d="M21.5802 20.9126C21.0987 21.1859 20.4864 21.1475 20.0669 21.163L20.0669 18.1948L21.0743 18.2494C21.0743 18.2494 21.5765 18.5552 21.5802 18.5589C22.4258 19.3425 21.7767 20.8011 21.5802 20.9126M30.2655 25.6467C30.1134 25.2257 29.8652 24.8136 29.5373 24.4717C28.8911 23.7988 28.332 23.6319 27.9398 23.2944C28.8091 22.7915 29.3696 22.609 29.9878 21.417C30.6953 20.0463 30.6599 18.1541 30.4066 16.6807C30.2433 15.7509 29.6488 14.8454 29.0048 14.1867L28.5853 13.8528L27.9125 13.6003L27.0189 13.5205L11.6682 13.5205L11.6593 34.8682L20.0905 34.8682C20.0846 32.0159 20.0905 26.0536 20.0905 26.0344C20.0905 26.044 20.9103 26.0278 20.9916 26.0389C22.3372 26.2648 22.0337 28.0329 22.0278 29.318C22.0189 30.804 22.0314 34.8682 22.03 34.8682L30.408 34.8682C30.4147 34.8682 30.3881 29.8874 30.3881 29.4598C30.3859 28.2058 30.6909 26.8261 30.2655 25.6467" fill="#000000" fill-rule="nonzero" opacity="1" stroke="none"/>
<path d="M42.1302 28.9108C42.1302 29.6014 41.5275 30.1627 40.7838 30.1627C40.0401 30.1627 39.4389 29.6014 39.4389 28.9108L39.4389 19.3725C39.4389 18.6768 40.0401 18.1155 40.7838 18.1155C41.5275 18.1155 42.1302 18.6768 42.1302 19.3725L42.1302 28.9108ZM44.5962 13.5203L37.5135 13.5203C32.6805 13.4161 31.5439 16.0335 31.5439 18.9176L31.5439 29.7166C31.4442 33.1191 33.7447 34.9337 37.5135 34.868L44.5962 34.868C49.5467 34.9337 50.5637 32.6043 50.5637 29.7166L50.5637 18.9176C50.5637 16.0335 49.3798 13.4161 44.5962 13.5203" fill="#000000" fill-rule="nonzero" opacity="1" stroke="none"/>
<path d="M62.6623 13.5203L62.6623 19.278L62.3639 19.2374L60.1365 13.5203L51.7739 13.5203L51.7643 34.868L59.5892 34.868L59.5929 27.0941L59.8861 27.0941L62.6918 34.868L70.6142 34.868L70.6031 13.5203L62.6623 13.5203Z" fill="#000000" fill-rule="nonzero" opacity="1" stroke="none"/>
<path d="M129.949 13.5203L129.954 19.9228L127.313 13.5203L119.152 13.5203L119.086 34.868L126.893 34.868L126.882 26.6886L127.138 26.6886L130.228 34.868L137.894 34.868L137.895 13.5203L129.949 13.5203Z" fill="#000000" fill-rule="nonzero" opacity="1" stroke="none"/>
<path d="M107.277 25.0834L107.841 19.74L108.134 19.74L108.718 25.0834L107.277 25.0834ZM109.858 34.8632L118.432 34.8632L114.649 13.5207L101.146 13.5207L97.6694 34.8632L106.41 34.8632L106.88 29.796L109.151 29.796L109.858 34.8632Z" fill="#000000" fill-rule="nonzero" opacity="1" stroke="none"/>
<path d="M78.2352 6.10926C78.2352 2.73558 81.0166 0 84.4796 0C87.9294 0 90.7307 2.73558 90.7307 6.10926C90.7307 9.49106 87.9294 12.2348 84.4796 12.2348C81.0166 12.2348 78.2352 9.49106 78.2352 6.10926" fill="#000000" fill-rule="nonzero" opacity="1" stroke="none"/>
<path d="M82.2576 34.8679L79.3721 26.9315L79.3721 34.8679L71.8226 34.8679L71.7938 13.5202L97.0566 13.5202L97.0846 34.8679L89.5928 34.8679L89.5913 26.9256L86.8498 34.8679L82.2576 34.8679Z" fill="#000000" fill-rule="nonzero" opacity="1" stroke="none"/>
</g>
<path d="M333.926 89.7631L333.926 87.6594L334.111 87.6594C334.316 87.6594 334.468 87.6754 334.558 87.7146C334.656 87.7555 334.746 87.8215 334.831 87.9283C334.909 88.0263 335.064 88.2703 335.312 88.6658L335.959 89.7631L337.033 89.7631L336.484 88.7887C336.263 88.3897 336.098 88.1189 335.969 87.9586C335.845 87.8036 335.684 87.6683 335.488 87.5382C335.862 87.4812 336.151 87.3298 336.359 87.084C336.557 86.8471 336.659 86.5282 336.659 86.1346C336.659 85.8228 336.593 85.5592 336.461 85.3383C336.333 85.1139 336.158 84.9625 335.951 84.8627C335.741 84.7754 335.403 84.7273 334.922 84.7273L333.041 84.7273L333.041 89.7631L333.926 89.7631ZM333.926 85.5806L334.628 85.5806C335.031 85.5806 335.271 85.5877 335.355 85.6162C335.471 85.6536 335.568 85.7213 335.634 85.8175C335.704 85.9155 335.731 86.0419 335.731 86.204C335.731 86.3679 335.704 86.5033 335.634 86.6084C335.568 86.7028 335.472 86.774 335.36 86.8043C335.257 86.8364 334.995 86.8542 334.592 86.8542L333.926 86.8542L333.926 85.5806Z" fill="#000000" fill-rule="nonzero" opacity="0" stroke="none"/>
</g>
</svg>
