<?xml version="1.0" encoding="UTF-8" standalone="no"?>
<!DOCTYPE svg PUBLIC "-//W3C//DTD SVG 1.1//EN" "http://www.w3.org/Graphics/SVG/1.1/DTD/svg11.dtd">
<!-- Created with Vectornator (http://vectornator.io/) -->
<svg height="100%" stroke-miterlimit="10" style="fill-rule:nonzero;clip-rule:evenodd;stroke-linecap:round;stroke-linejoin:round;" version="1.1" viewBox="0 0 340 150" width="100%" xml:space="preserve" xmlns="http://www.w3.org/2000/svg" xmlns:xlink="http://www.w3.org/1999/xlink">
<defs/>
<g id="Layer-1">
<g opacity="1">
<path d="M330.615 87.2019C330.615 89.5224 332.497 91.4114 334.812 91.4114C337.118 91.4114 339 89.5224 339 87.2019C339 84.8713 337.118 82.9789 334.812 82.9789C332.497 82.9789 330.615 84.8713 330.615 87.2019M331.568 87.2019C331.568 85.3969 333.021 83.9377 334.812 83.9377C336.589 83.9377 338.046 85.3969 338.046 87.2019C338.046 88.9969 336.589 90.456 334.812 90.456C333.021 90.456 331.568 88.9969 331.568 87.2019" fill="#000000" fill-rule="nonzero" opacity="1" stroke="none"/>
<path d="M333.942 85.4873L334.642 85.4873C335.043 85.4873 335.283 85.4957 335.366 85.5243C335.483 85.5612 335.58 85.6284 335.646 85.7241C335.715 85.8215 335.742 85.9474 335.742 86.1086C335.742 86.2732 335.715 86.4075 335.646 86.5133C335.58 86.6073 335.485 86.6778 335.372 86.7097C335.268 86.7399 335.008 86.7584 334.607 86.7584L333.942 86.7584L333.942 85.4873ZM333.942 89.6582L333.942 87.5594L334.126 87.5594C334.33 87.5594 334.481 87.5778 334.573 87.6148C334.67 87.6567 334.758 87.7222 334.843 87.828C334.922 87.9271 335.077 88.1705 335.324 88.5635L335.968 89.6582L337.04 89.6582L336.494 88.686C336.272 88.2881 336.108 88.0194 335.978 87.8582C335.854 87.7054 335.695 87.5694 335.498 87.4401C335.873 87.383 336.16 87.2319 336.368 86.9868C336.564 86.7517 336.665 86.4327 336.665 86.0398C336.665 85.7308 336.601 85.4672 336.469 85.2455C336.341 85.0222 336.167 84.8711 335.962 84.772C335.75 84.6864 335.413 84.6377 334.936 84.6377L333.058 84.6377L333.058 89.6582L333.942 89.6582Z" fill="#000000" fill-rule="nonzero" opacity="1" stroke="none"/>
<path d="M310.01 40.0058L310.022 55.4049L303.672 40.0058L284.043 40.0058L283.885 91.3497L302.663 91.3497L302.636 71.6772L303.249 71.6772L310.684 91.3497L329.119 91.3497L329.12 40.0058L310.01 40.0058Z" fill="#000000" fill-rule="nonzero" opacity="1" stroke="none"/>
<path d="M261.69 91.3374L282.313 91.3374L273.212 40.0052L240.736 40.0052L232.374 91.3374L253.397 91.3374L254.527 79.1504L259.989 79.1504L261.69 91.3374ZM255.482 67.8164L256.837 54.9644L257.543 54.9644L258.948 67.8164L255.482 67.8164Z" fill="#000000" fill-rule="nonzero" opacity="1" stroke="none"/>
<path d="M195.308 91.3487L188.369 72.2606L188.367 91.3487L170.211 91.3487L170.142 40.0048L230.902 40.0048L230.969 91.3487L212.949 91.3487L212.946 72.2472L206.352 91.3487L195.308 91.3487Z" fill="#000000" fill-rule="nonzero" opacity="1" stroke="none"/>
<path d="M185.633 22.1813C185.633 14.0661 192.323 7.48736 200.653 7.48736C208.95 7.48736 215.686 14.0661 215.686 22.1813C215.686 30.3149 208.95 36.9138 200.653 36.9138C192.323 36.9138 185.633 30.3149 185.633 22.1813" fill="#000000" fill-rule="nonzero" opacity="1" stroke="none"/>
<path d="M148.179 40.0058L148.179 53.8534L147.462 53.756L142.104 40.0058L121.991 40.0058L121.97 91.3497L140.787 91.3497L140.796 72.6511L141.503 72.6511L148.251 91.3497L167.304 91.3497L167.279 40.0058L148.179 40.0058Z" fill="#000000" fill-rule="nonzero" opacity="1" stroke="none"/>
<path d="M104.729 40.0058L87.6944 40.0058C76.0699 39.7556 73.3363 46.0506 73.3363 52.9853L73.3363 78.9595C73.0962 87.1418 78.6306 91.5075 87.6944 91.3497L104.729 91.3497C116.634 91.5075 119.08 85.906 119.08 78.9595L119.08 52.9853C119.08 46.0506 116.234 39.7556 104.729 40.0058M98.7967 77.0218C98.7967 78.6824 97.3476 80.0324 95.5577 80.0324C93.7695 80.0324 92.3237 78.6824 92.3237 77.0218L92.3237 54.0801C92.3237 52.4077 93.7695 51.0577 95.5577 51.0577C97.3476 51.0577 98.7967 52.4077 98.7967 54.0801L98.7967 77.0218Z" fill="#000000" fill-rule="nonzero" opacity="1" stroke="none"/>
<path d="M70.2624 69.1702C69.8964 68.1594 69.2986 67.167 68.5094 66.3442C66.9562 64.7256 65.6113 64.326 64.6693 63.5149C66.7598 62.3043 68.1081 61.8644 69.5924 58.9981C71.2951 55.7004 71.2111 51.15 70.5999 47.607C70.2087 45.3704 68.7797 43.1926 67.2299 41.6076L66.2208 40.8049L64.6021 40.1971L62.4528 40.0057L25.5325 40.0057L25.5107 91.3479L45.7893 91.3479C45.7742 84.4887 45.7893 70.1508 45.7893 70.1038C45.7893 70.1273 47.7623 70.087 47.9554 70.1139C51.1927 70.6562 50.4623 74.9111 50.4489 78.0006C50.4287 81.5738 50.4573 91.3479 50.4539 91.3479L70.6033 91.3479C70.6217 91.3479 70.5562 79.3691 70.5562 78.3415C70.5495 75.3258 71.285 72.0079 70.2624 69.1702M49.3726 57.7841C48.2156 58.4407 46.7414 58.35 45.7339 58.3869L45.7339 51.2473L48.1569 51.38C48.1569 51.38 49.3625 52.1154 49.3726 52.1255C51.406 54.0078 49.8461 57.5172 49.3726 57.7841" fill="#000000" fill-rule="nonzero" opacity="1" stroke="none"/>
<path d="M22.2327 91.3487L2.27982 91.3487L2.27982 40.0048L22.221 40.0048L22.2327 91.3487Z" fill="#000000" fill-rule="nonzero" opacity="1" stroke="none"/>
<path d="M104.95 117.824L96.3714 117.824L94.7427 121.664L91.7539 121.664L99.2629 104.651L102.205 104.651L109.641 121.664L106.579 121.664L104.95 117.824ZM103.857 115.272L100.65 107.714L97.441 115.272L103.857 115.272Z" fill="#000000" fill-rule="nonzero" opacity="1" stroke="none"/>
<path d="M91.3448 113.157C91.3448 118.067 87.6256 121.664 82.4724 121.664L75.5713 121.664L75.5713 104.651L82.5463 104.651C87.6508 104.651 91.3448 108.224 91.3448 113.157M88.4517 113.181C88.4517 109.707 85.8525 107.227 82.4976 107.227L78.4392 107.227L78.4392 119.088L82.6202 119.088C85.9247 119.088 88.4517 116.633 88.4517 113.181" fill="#000000" fill-rule="nonzero" opacity="1" stroke="none"/>
<path d="M68.6239 117.824L60.0453 117.824L58.4166 121.664L55.4278 121.664L62.9368 104.651L65.8786 104.651L73.3154 121.664L70.2527 121.664L68.6239 117.824ZM67.5308 115.272L64.322 107.714L61.1149 115.272L67.5308 115.272Z" fill="#000000" fill-rule="nonzero" opacity="1" stroke="none"/>
<path d="M41.2144 104.651L50.3287 116.877L50.3287 104.651L53.1479 104.651L53.1479 121.664L50.3287 121.664L41.2631 109.463L41.2631 121.664L38.3952 121.664L38.3952 104.651L41.2144 104.651Z" fill="#000000" fill-rule="nonzero" opacity="1" stroke="none"/>
<path d="M31.4482 117.824L22.8696 117.824L21.2409 121.664L18.2521 121.664L25.7611 104.651L28.7029 104.651L36.1397 121.664L33.077 121.664L31.4482 117.824ZM30.3551 115.272L27.148 107.714L23.9392 115.272L30.3551 115.272Z" fill="#000000" fill-rule="nonzero" opacity="1" stroke="none"/>
<path d="M11.2319 107.13C7.82998 107.13 5.15515 109.754 5.15515 113.109C5.15515 116.462 7.82998 119.112 11.2319 119.112C12.9328 119.112 14.6824 118.335 15.972 117.095L17.6729 118.989C15.9468 120.692 13.4919 121.785 11.0858 121.785C6.10385 121.785 2.23853 118.019 2.23853 113.133C2.23853 108.297 6.15254 104.578 11.1832 104.578C13.5893 104.578 15.9955 105.575 17.6494 107.202L15.972 109.293C14.7311 107.956 12.9563 107.13 11.2319 107.13" fill="#000000" fill-rule="nonzero" opacity="1" stroke="none"/>
<path d="M322.366 107.13C318.964 107.13 316.29 109.754 316.29 113.109C316.29 116.462 318.964 119.112 322.366 119.112C324.067 119.112 325.817 118.335 327.106 117.095L328.807 118.989C327.081 120.692 324.626 121.785 322.22 121.785C317.238 121.785 313.375 118.019 313.375 113.133C313.375 108.297 317.287 104.578 322.318 104.578C324.724 104.578 327.13 105.575 328.784 107.202L327.106 109.293C325.865 107.956 324.091 107.13 322.366 107.13" fill="#000000" fill-rule="nonzero" opacity="1" stroke="none"/>
<path d="M310.728 108.904C310.728 110.823 309.587 112.257 307.74 112.696C310.023 113.085 311.385 114.712 311.385 116.998C311.385 119.914 309.028 121.664 305.187 121.664L297.628 121.664L297.628 104.651L305.016 104.651C308.541 104.651 310.728 106.255 310.728 108.904M307.788 109.415C307.788 107.981 306.694 107.203 304.872 107.203L300.496 107.203L300.496 111.698L304.872 111.698C306.694 111.698 307.788 110.849 307.788 109.415M308.443 116.633C308.443 115.125 307.108 114.227 304.872 114.227L300.496 114.227L300.496 119.112L304.872 119.112C307.108 119.112 308.443 118.237 308.443 116.633" fill="#000000" fill-rule="nonzero" opacity="1" stroke="none"/>
<path d="M128.734 128.528L129.021 121.349L128.877 121.215L128.59 121.071L128.034 121.071L122.179 122.209L122.946 120.38L122.946 119.806L122.946 119.521L122.659 119.093L115.74 113.901L117.294 113.335L117.444 113.182L117.718 112.761L117.718 112.341L116.451 108.261L119.843 108.828L120.261 108.828L120.688 108.685L121.103 108.12L121.595 106.728L124.558 110.255L124.745 110.405L124.896 110.497L125.055 110.532L125.275 110.517L125.418 110.457L125.542 110.348L125.604 110.223L125.638 110.032L125.584 109.799L124.107 102.065L126.043 103.346L126.756 103.489L127.176 103.195L127.466 102.928L129.585 98.1288L131.567 102.928L131.852 103.195L132.274 103.489L132.994 103.346L134.925 102.065L133.451 109.799L133.39 110.032L133.432 110.223L133.479 110.348L133.607 110.457L133.753 110.517L133.971 110.532L134.143 110.497L134.292 110.405L134.468 110.255L137.439 106.728L137.927 108.12L138.352 108.685L138.772 108.828L139.193 108.828L142.58 108.261L141.319 112.341L141.319 112.761L141.589 113.182L141.732 113.335L143.294 113.901L136.376 119.093L136.08 119.521L136.08 119.806L136.08 120.38L136.849 122.209L130.991 121.071L130.445 121.071L130.151 121.215L130.007 121.349L130.302 128.528L128.734 128.528Z" fill="#000000" fill-rule="nonzero" opacity="1" stroke="none"/>
<path d="M274.935 104.651L284.049 116.877L284.049 104.651L286.868 104.651L286.868 121.664L284.049 121.664L274.983 109.463L274.983 121.664L272.115 121.664L272.115 104.651L274.935 104.651Z" fill="#000000" fill-rule="nonzero" opacity="1" stroke="none"/>
<path d="M269.059 113.157C269.059 118.018 265.121 121.785 260.042 121.785C254.963 121.785 251.025 118.018 251.025 113.157C251.025 108.273 254.963 104.577 260.042 104.577C265.121 104.577 269.059 108.296 269.059 113.157M253.94 113.157C253.94 116.536 256.736 119.209 260.066 119.209C263.395 119.209 266.117 116.536 266.117 113.157C266.117 109.779 263.395 107.155 260.066 107.155C256.712 107.155 253.94 109.779 253.94 113.157" fill="#000000" fill-rule="nonzero" opacity="1" stroke="none"/>
<path d="M251.004 104.651L251.004 107.227L245.609 107.227L245.609 121.664L242.741 121.664L242.741 107.227L237.37 107.227L237.37 104.651L251.004 104.651Z" fill="#000000" fill-rule="nonzero" opacity="1" stroke="none"/>
<path d="M230.034 107.13C226.632 107.13 223.957 109.754 223.957 113.109C223.957 116.462 226.632 119.112 230.034 119.112C231.735 119.112 233.484 118.335 234.774 117.095L236.475 118.989C234.749 120.692 232.294 121.785 229.888 121.785C224.906 121.785 221.042 118.019 221.042 113.133C221.042 108.297 224.955 104.578 229.985 104.578C232.391 104.578 234.797 105.575 236.45 107.202L234.774 109.293C233.533 107.956 231.758 107.13 230.034 107.13" fill="#000000" fill-rule="nonzero" opacity="1" stroke="none"/>
<path d="M217.981 121.663L215.113 121.663L215.113 104.65L217.981 104.65L217.981 121.663Z" fill="#000000" fill-rule="nonzero" opacity="1" stroke="none"/>
<path d="M212.662 104.651L212.662 107.227L207.267 107.227L207.267 121.664L204.399 121.664L204.399 107.227L199.028 107.227L199.028 104.651L212.662 104.651Z" fill="#000000" fill-rule="nonzero" opacity="1" stroke="none"/>
<path d="M184.62 104.651L193.734 116.877L193.734 104.651L196.553 104.651L196.553 121.664L193.734 121.664L184.669 109.463L184.669 121.664L181.801 121.664L181.801 104.651L184.62 104.651Z" fill="#000000" fill-rule="nonzero" opacity="1" stroke="none"/>
<path d="M178.013 104.651L178.013 107.227L168.729 107.227L168.729 111.821L177.041 111.821L177.041 114.397L168.729 114.397L168.729 119.088L178.305 119.088L178.305 121.664L165.861 121.664L165.861 104.651L178.013 104.651Z" fill="#000000" fill-rule="nonzero" opacity="1" stroke="none"/>
<path d="M163.023 110.46C163.023 114.3 160.568 116.535 156.29 116.535L152.377 116.535L152.377 121.664L149.509 121.664L149.509 104.652L156.29 104.652C160.568 104.652 163.023 106.766 163.023 110.46M160.276 110.532C160.276 108.297 158.793 107.227 156.169 107.227L152.377 107.227L152.377 113.959L156.169 113.959C158.793 113.959 160.276 112.842 160.276 110.532" fill="#000000" fill-rule="nonzero" opacity="1" stroke="none"/>
<path d="M130.5 128.717L128.537 128.717L128.829 121.43L128.767 121.373L128.544 121.26L128.033 121.26L121.866 122.462L122.756 120.343L122.756 119.579L122.519 119.225L115.346 113.842L117.189 113.172L117.309 113.049L117.529 112.705L117.529 112.369L116.179 108.024L119.874 108.642L120.229 108.64L120.569 108.526L120.932 108.03L121.527 106.351L124.703 110.134L124.967 110.319L125.068 110.341L125.231 110.329L125.316 110.294L125.389 110.23L125.422 110.163L125.444 110.037L125.399 109.841L123.835 101.658L126.116 103.168L126.713 103.287L127.066 103.038L127.309 102.815L129.591 97.6468L131.725 102.817L131.982 103.055L132.317 103.287L132.921 103.168L135.195 101.657L133.586 110.035L133.638 110.233L133.707 110.294L133.797 110.329L133.959 110.341L134.073 110.317L134.192 110.244L134.345 110.111L137.507 106.351L138.096 108.029L138.467 108.526L138.803 108.638L139.192 108.638L142.851 108.024L141.508 112.369L141.508 112.705L141.748 113.08L141.837 113.172L143.689 113.842L136.514 119.225L136.269 119.581L136.269 120.343L137.161 122.462L130.955 121.257L130.488 121.26L130.26 121.373L130.199 121.43L130.5 128.717ZM128.931 128.338L130.105 128.338L129.813 121.27L130.068 121.045L130.444 120.882L130.992 120.882L136.536 121.955L135.89 120.382L135.89 119.462L136.262 118.941L142.9 113.959L141.594 113.464L141.451 113.311L141.13 112.816L141.137 112.284L142.309 108.497L139.224 109.016L138.741 109.018L138.235 108.846L137.748 108.183L137.369 107.104L134.612 110.378L134.415 110.549L134.182 110.682L133.984 110.724L133.68 110.692L133.485 110.601L133.302 110.415L133.255 110.291L133.196 110.029L133.269 109.752L134.654 102.471L133.032 103.532L132.233 103.69L131.744 103.349L131.391 103L129.58 98.6106L127.595 103.067L127.303 103.334L126.799 103.69L125.938 103.504L124.378 102.471L125.83 110.027L125.775 110.309L125.667 110.489L125.491 110.631L125.288 110.705L125.041 110.724L124.796 110.658L124.646 110.566L124.44 110.405L121.663 107.102L121.255 108.232L120.803 108.846L120.26 109.018L119.842 109.018L116.723 108.497L117.908 112.341L117.908 112.818L117.604 113.286L117.357 113.513L116.133 113.959L122.816 118.987L123.135 119.464L123.12 120.454L122.49 121.955L127.998 120.886L128.634 120.882L129.005 121.077L129.214 121.27L128.931 128.338Z" fill="#000000" fill-rule="nonzero" opacity="1" stroke="none"/>
<path d="M102.562 28.058L88.825 28.058L86.2173 34.2069L81.4302 34.2069L93.456 6.96495L98.1642 6.96495L110.072 34.2069L105.169 34.2069L102.562 28.058ZM100.811 23.971L95.6741 11.8696L90.536 23.971L100.811 23.971Z" fill="#000000" fill-rule="nonzero" opacity="0" stroke="none"/>
<path d="M130.968 34.2067L125.986 25.9573C125.598 25.9959 125.17 25.9959 124.742 25.9959L118.281 25.9959L118.281 34.2067L113.688 34.2067L113.688 6.96483L124.742 6.96483C131.707 6.96483 135.715 10.3516 135.715 16.2654C135.715 20.6244 133.692 23.6989 130.073 25.1009L136.182 34.2067L130.968 34.2067ZM124.742 21.8703C128.945 21.8703 131.358 20.0804 131.358 16.383C131.358 12.8031 128.945 11.0904 124.742 11.0904L118.281 11.0904L118.281 21.8703L124.742 21.8703Z" fill="#000000" fill-rule="nonzero" opacity="0" stroke="none"/>
<path d="M153.186 30.2762C157.622 30.2762 160.384 27.5527 160.384 22.9217L160.384 6.96513L164.977 6.96513L164.977 22.9217C164.977 30.0429 160.502 34.4018 153.147 34.4018C145.791 34.4018 141.278 30.0429 141.278 22.9217L141.278 6.96513L145.87 6.96513L145.87 22.9217C145.87 27.5124 148.711 30.2762 153.186 30.2762" fill="#000000" fill-rule="nonzero" opacity="0" stroke="none"/>
<path d="M78.4751 13.7757C78.4751 16.8501 76.6465 19.1471 73.688 19.8473C77.3467 20.4686 79.5262 23.0763 79.5262 26.7351C79.5262 31.4047 75.7516 34.2071 69.6027 34.2071L57.4996 34.2071L57.4996 6.96519L69.3307 6.96519C74.9725 6.96519 78.4751 9.53423 78.4751 13.7757M73.7669 14.5934C73.7669 12.298 72.0156 11.0521 69.0956 11.0521L62.092 11.0521L62.092 18.2522L69.0956 18.2522C72.0156 18.2522 73.7669 16.8887 73.7669 14.5934M74.818 26.1507C74.818 23.7378 72.6771 22.2988 69.0956 22.2988L62.092 22.2988L62.092 30.1201L69.0956 30.1201C72.6771 30.1201 74.818 28.7198 74.818 26.1507" fill="#000000" fill-rule="nonzero" opacity="0" stroke="none"/>
<path d="M39.1343 30.2762C43.5706 30.2762 46.3344 27.5527 46.3344 22.9217L46.3344 6.96513L50.9251 6.96513L50.9251 22.9217C50.9251 30.0429 46.4502 34.4018 39.0957 34.4018C31.7412 34.4018 27.2261 30.0429 27.2261 22.9217L27.2261 6.96513L31.8185 6.96513L31.8185 22.9217C31.8185 27.5124 34.6595 30.2762 39.1343 30.2762" fill="#000000" fill-rule="nonzero" opacity="0" stroke="none"/>
<path d="M12.1678 11.0904C9.48288 11.0904 7.73156 12.1029 7.73156 13.9314C7.73156 19.8855 22.4423 16.6936 22.4036 26.5013C22.4036 31.3656 18.1219 34.3629 12.1292 34.3629C7.8491 34.3629 3.80076 32.6115 1 30.0425L2.98303 26.0731C5.78547 28.6421 9.2881 30.0425 12.2064 30.0425C15.3984 30.0425 17.3059 28.8369 17.3059 26.7346C17.3059 20.663 2.59516 24.0497 2.59516 14.3596C2.59516 9.68998 6.6032 6.77 12.5187 6.77C16.06 6.77 19.5223 7.90004 22.0527 9.57244L20.1452 13.6208C17.1883 11.8292 14.2314 11.0904 12.1678 11.0904" fill="#000000" fill-rule="nonzero" opacity="0" stroke="none"/>
</g>
</g>
<g id="Layer-2">
<g opacity="1">
<g opacity="1">
<path d="M15.6073 12.0919C15.7464 12.1733 15.8767 12.2537 15.9973 12.3612C16.1394 12.4641 16.2809 12.5033 16.4478 12.5523C17.0432 12.7394 17.4986 13.0465 17.8692 13.5497C17.8911 13.579 17.9131 13.6083 17.9357 13.6384C18.1591 13.9374 18.3772 14.2402 18.5945 14.5437C18.66 14.635 18.726 14.726 18.7921 14.8169C19.0149 15.1236 19.2347 15.4318 19.4485 15.7448C19.5939 15.9575 19.7411 16.169 19.889 16.38C19.9126 16.4136 19.9361 16.4472 19.9604 16.4818C20.0084 16.5503 20.0564 16.6187 20.1044 16.6871C20.2197 16.8515 20.3349 17.0159 20.4501 17.1804C20.4728 17.2129 20.4956 17.2454 20.519 17.2789C20.6994 17.5366 20.879 17.7948 21.0585 18.0532C21.3023 18.4039 21.5476 18.7536 21.7945 19.1022C21.8525 19.1842 21.9101 19.2664 21.9677 19.3486C22.2681 19.777 22.5759 20.1997 22.8888 20.6191C22.907 20.6436 22.9252 20.668 22.9439 20.6933C23.1963 21.0316 23.4664 21.3515 23.7458 21.6676C23.8015 21.7306 23.8569 21.7939 23.9123 21.8571C24.0553 22.0189 24.1934 22.1628 24.365 22.2948C24.762 21.9681 25.0811 21.5768 25.4023 21.1776C25.4407 21.1306 25.479 21.0835 25.5174 21.0364C25.7655 20.7307 26.0002 20.4186 26.2264 20.0965C26.3053 19.985 26.3859 19.8747 26.4663 19.7642C26.6935 19.4519 26.9144 19.1358 27.1316 18.8164C27.2554 18.6344 27.3808 18.4537 27.5094 18.2751C27.7677 17.9163 28.0187 17.5524 28.2708 17.1892C28.5112 16.8428 28.7521 16.4966 28.9931 16.1505C29.0175 16.1155 29.0419 16.0805 29.067 16.0444C29.335 15.6596 29.605 15.2766 29.8805 14.8972C30.0069 14.7231 30.1314 14.5478 30.2546 14.3714C30.488 14.0374 30.7307 13.7136 30.988 13.3976C31.0154 13.3631 31.0427 13.3286 31.0709 13.293C31.4034 12.8923 31.8522 12.6838 32.3386 12.5219C32.5812 12.4409 32.7658 12.3369 32.9718 12.1856C33.1443 12.0628 33.2765 11.999 33.4941 12.0062C33.6213 12.0411 33.6213 12.0411 33.701 12.1608C33.7361 12.4307 33.6348 12.6468 33.534 12.8939C33.515 12.9413 33.496 12.9886 33.4765 13.0374C32.3694 15.7824 31.1367 18.4869 29.8714 21.1623C29.7762 21.3637 29.6817 21.5654 29.5874 21.7672C29.3238 22.3309 29.0569 22.8921 28.7764 23.4476C28.644 23.7101 28.5154 23.974 28.3897 24.2398C25.9179 29.4476 25.9179 29.4476 24.4448 30C23.9534 29.9795 23.5672 29.5751 23.2511 29.2338C22.0925 27.9293 21.3358 26.2589 20.5642 24.7127C20.5044 24.5929 20.4445 24.4732 20.3845 24.3535C20.0983 23.7818 19.8176 23.2079 19.5434 22.6304C19.4588 22.4528 19.3727 22.276 19.2867 22.099C19.0156 21.5403 18.7512 20.9787 18.4915 20.4146C18.4417 20.3065 18.3918 20.1984 18.3419 20.0904C17.9616 19.2682 17.5881 18.4433 17.2219 17.6147C17.1308 17.4085 17.0391 17.2027 16.947 16.997C16.4188 15.8157 15.9086 14.6268 15.4105 13.4325C15.3979 13.4024 15.3853 13.3722 15.3723 13.3412C15.3368 13.256 15.3014 13.1708 15.266 13.0856C15.2461 13.0378 15.2263 12.9899 15.2058 12.9406C14.9757 12.3708 14.9757 12.3708 15.029 12.1209C15.2017 11.9429 15.4004 11.9863 15.6073 12.0919ZM15.2285 12.2007C15.2469 12.3889 15.3188 12.4679 15.4504 12.5997C15.6695 12.8301 15.8314 13.0801 15.9865 13.3577C16.0039 13.3887 16.0213 13.4197 16.0391 13.4517C16.3118 13.9411 16.5723 14.4367 16.8301 14.934C16.9 15.0688 16.9704 15.2033 17.0418 15.3373C17.2734 15.7726 17.4953 16.2125 17.7139 16.6544C17.8297 16.8878 17.9471 17.1199 18.0695 17.3499C18.3364 17.8517 18.5897 18.3601 18.8431 18.8687C18.9067 18.9963 18.9704 19.1238 19.0341 19.2513C19.2089 19.6015 19.3836 19.9517 19.5583 20.302C19.7187 20.6237 19.8792 20.9454 20.0398 21.267C20.1028 21.393 20.1657 21.5191 20.2285 21.6452C20.4973 22.1848 20.7688 22.7224 21.0522 23.2545C21.1182 23.3789 21.1831 23.5038 21.2482 23.6287C21.5861 24.2732 21.9467 24.8982 22.3301 25.5166C22.4058 25.6393 22.4804 25.7626 22.5545 25.8863C23.2745 27.2221 23.2745 27.2221 24.2852 28.3193C24.389 28.3452 24.389 28.3452 24.4847 28.2794C25.3235 27.6403 25.8607 26.3996 26.3956 25.5068C26.4762 25.3723 26.5577 25.2382 26.6392 25.1041C27.2063 24.1656 27.7132 23.1943 28.1975 22.2109C28.3022 21.9987 28.4089 21.7882 28.5201 21.5794C28.7934 21.0653 29.0528 20.5442 29.3124 20.0232C29.3782 19.8911 29.4442 19.7591 29.5101 19.6271C29.677 19.2929 29.8438 18.9585 30.0105 18.6242C30.1907 18.2629 30.3709 17.9016 30.5513 17.5405C30.6165 17.4099 30.6816 17.2794 30.7467 17.1489C31.0067 16.6269 31.2682 16.1061 31.5422 15.5913C31.6284 15.4293 31.7122 15.2661 31.7955 15.1026C31.8096 15.0749 31.8237 15.0472 31.8383 15.0187C31.8508 14.9941 31.8634 14.9695 31.8763 14.9441C32.1069 14.4921 32.34 14.0419 32.5889 13.5996C32.6087 13.5643 32.6284 13.5289 32.6488 13.4926C32.8592 13.1237 33.0946 12.7954 33.389 12.489C33.4602 12.4019 33.486 12.3504 33.5016 12.2406C33.3885 12.1887 33.3885 12.1887 33.3057 12.2306C33.2631 12.2553 33.2631 12.2553 33.2198 12.2805C33.1715 12.3083 33.1715 12.3083 33.1222 12.3367C33.0251 12.3987 32.9367 12.4667 32.8457 12.5373C32.6625 12.6701 32.481 12.732 32.2672 12.7966C31.6137 12.9981 31.2206 13.4574 30.8314 13.9973C30.809 14.0284 30.7866 14.0594 30.7635 14.0914C30.4907 14.4729 30.2346 14.8653 29.9781 15.2578C29.9009 15.3755 29.8237 15.493 29.7465 15.6106C29.6962 15.6872 29.646 15.7638 29.5957 15.8404C29.3449 16.2228 29.0913 16.6033 28.837 16.9834C28.7374 17.1326 28.638 17.2819 28.5387 17.4313C27.7505 18.6162 27.7505 18.6162 27.3573 19.1828C27.3352 19.2147 27.313 19.2467 27.2902 19.2796C26.8071 19.9752 26.3144 20.6635 25.8013 21.3372C25.7829 21.3615 25.7645 21.3858 25.7456 21.4108C24.892 22.533 24.892 22.533 24.4049 22.7461C23.988 22.7027 23.6336 22.2368 23.3814 21.9281C23.2888 21.8119 23.1986 21.6939 23.1087 21.5756C23.0444 21.4916 22.979 21.4084 22.9134 21.3254C22.6196 20.9528 22.3394 20.5732 22.0689 20.1835C21.9932 20.0748 21.9166 19.9667 21.84 19.8586C21.7586 19.7437 21.6777 19.6286 21.5967 19.5135C21.5538 19.4527 21.5108 19.3919 21.4677 19.3312C20.9372 18.5841 20.4378 17.8164 19.9352 17.0505C19.8036 16.8501 19.6713 16.6501 19.538 16.4509C19.378 16.2117 19.2202 15.9713 19.0627 15.7305C18.9884 15.6172 18.9141 15.5038 18.8398 15.3904C18.7896 15.3138 18.7395 15.2371 18.6894 15.1604C18.3758 14.6797 18.0537 14.2104 17.7021 13.7567C17.6687 13.7131 17.6353 13.6696 17.6018 13.626C17.2723 13.2007 16.9028 12.9124 16.383 12.7742C16.0959 12.691 15.8767 12.541 15.636 12.3699C15.4483 12.2346 15.4483 12.2346 15.2285 12.2007Z" fill="#221e1f" fill-opacity="0.917647" fill-rule="nonzero" opacity="1" stroke="none"/>
<path d="M16.5052 12.9587C17.7221 13.3813 18.6443 15.7906 19.2806 16.8817C19.5009 17.2592 19.7254 17.6338 19.9532 18.0068C20.1892 18.3936 20.4213 18.7827 20.652 19.1728C20.8519 19.5106 21.0517 19.8481 21.262 20.1796C21.4105 20.4142 21.5537 20.652 21.6973 20.8897C22.3003 21.887 22.9128 22.8555 23.6867 23.7311C23.7138 23.7635 23.7409 23.7959 23.7687 23.8293C24.0146 24.1263 24.0146 24.1263 24.3613 24.2649C24.5175 24.2457 24.5697 24.1964 24.6817 24.0877C24.7163 24.0544 24.7508 24.0212 24.7864 23.987C24.8185 23.9552 24.8506 23.9234 24.8837 23.8907C24.9075 23.8688 24.9314 23.8469 24.956 23.8243C25.1782 23.616 25.3588 23.3704 25.5432 23.1292C25.6001 23.0551 25.6577 22.9817 25.7154 22.9084C26.0738 22.448 26.376 21.9548 26.6791 21.4569C26.7061 21.4126 26.7331 21.3684 26.7609 21.3227C26.9173 21.0665 27.073 20.8098 27.2283 20.553C27.3272 20.3894 27.4264 20.226 27.5258 20.0627C27.8945 19.4567 28.2606 18.8491 28.625 18.2405C28.7192 18.0833 28.8136 17.9262 28.9082 17.7692C29.1429 17.3794 29.3758 16.9887 29.6049 16.5956C30.063 15.8093 30.5426 15.0389 31.0454 14.2803C31.0621 14.255 31.0788 14.2297 31.096 14.2036C31.8465 13.0686 31.8465 13.0686 32.1544 12.9701C32.1893 12.9645 32.1893 12.9645 32.2248 12.9587C32.2089 13.2276 32.1001 13.4253 31.973 13.6594C31.9516 13.6997 31.9301 13.7399 31.9081 13.7814C31.7433 14.0899 31.5754 14.3968 31.407 14.7033C31.2639 14.9645 31.1251 15.2278 30.988 15.4922C30.7941 15.8661 30.5946 16.2364 30.392 16.6056C30.3083 16.7582 30.2252 16.9112 30.1427 17.0644C29.9113 17.4939 29.6766 17.9211 29.4354 18.3451C29.2732 18.6306 29.1145 18.9179 28.9566 19.2057C28.7224 19.6327 28.4826 20.0556 28.2354 20.4752C28.0838 20.7333 27.9382 20.994 27.7962 21.2574C27.5867 21.6456 27.3665 22.0267 27.1427 22.4068C27.0452 22.5727 26.9495 22.7395 26.855 22.9071C26.298 23.8934 25.6796 24.8444 24.951 25.7135C24.9323 25.736 24.9137 25.7586 24.8944 25.7818C24.7647 25.933 24.6263 26.0772 24.4448 26.1648C24.2015 26.1682 24.0825 26.0386 23.9143 25.8792C23.7141 25.6689 23.541 25.4397 23.3676 25.2073C23.3319 25.1603 23.2962 25.1134 23.2605 25.0664C22.5753 24.1565 22.0183 23.1611 21.4525 22.1751C21.4257 22.1284 21.3989 22.0817 21.3721 22.035C21.0192 21.4203 20.6702 20.8035 20.3248 20.1845C20.2294 20.0137 20.1338 19.8432 20.0382 19.6726C19.8263 19.2945 19.6149 18.9162 19.4048 18.5372C19.3235 18.3906 19.2418 18.2441 19.1601 18.0977C18.8381 17.5205 18.5216 16.9406 18.2095 16.358C18.1422 16.2326 18.0747 16.1075 18.0071 15.9824C17.7095 15.4316 17.4154 14.8791 17.1228 14.3257C17.1085 14.2987 17.0943 14.2718 17.0796 14.244C17.0512 14.1903 17.0229 14.1365 16.9946 14.0827C16.9186 13.9383 16.8415 13.7946 16.7627 13.6517C16.7461 13.6211 16.7294 13.5905 16.7123 13.5591C16.6803 13.5004 16.6479 13.4419 16.6152 13.3835C16.5356 13.2367 16.4845 13.1273 16.5052 12.9587Z" fill="#221e1f" fill-opacity="0.92549" fill-rule="nonzero" opacity="1" stroke="none"/>
</g>
<g opacity="1">
<path d="M74.5521 15.3961C75.531 15.3961 76.51 15.3961 77.5186 15.3961C77.6441 15.7977 77.7696 16.1993 77.8989 16.6131C78.3913 17.4435 79.0765 18.0706 79.8434 18.6455C80.2902 18.9836 80.6714 19.3479 81.0936 19.7318C81.1188 18.301 81.1439 16.8702 81.1697 15.3961C82.1236 15.3961 83.0774 15.3961 84.0602 15.3961C84.0602 19.2617 84.0602 23.1273 84.0602 27.1101C83.1314 27.1101 82.2027 27.1101 81.2458 27.1101C81.2379 26.8842 81.2301 26.6582 81.222 26.4255C81.1395 24.6275 80.6314 23.1403 79.3103 21.8779C79.0297 21.6346 78.7386 21.4053 78.4417 21.1822C78.0973 20.9209 77.8322 20.6539 77.5186 20.3403C77.4935 22.5743 77.4684 24.8083 77.4425 27.1101C76.4887 27.1101 75.5348 27.1101 74.5521 27.1101C74.5521 23.2445 74.5521 19.3788 74.5521 15.3961Z" fill="#231f1f" fill-opacity="0.960784" fill-rule="nonzero" opacity="1" stroke="none"/>
<path d="M109.694 15.3961C110.15 15.3904 110.606 15.3863 111.062 15.3836C111.217 15.3824 111.372 15.3809 111.527 15.3789C111.751 15.3761 111.974 15.3748 112.197 15.3738C112.266 15.3726 112.335 15.3714 112.406 15.3702C112.926 15.3701 113.276 15.46 113.702 15.7764C114.112 16.3088 114.256 17.0588 114.452 17.6956C114.478 17.7775 114.503 17.8595 114.529 17.9439C114.613 18.2149 114.697 18.4861 114.781 18.7572C114.825 18.8999 114.869 19.0427 114.913 19.1854C115.416 20.809 115.914 22.4338 116.412 24.0589C116.468 24.2433 116.525 24.4276 116.582 24.6119C116.671 24.9033 116.76 25.1948 116.849 25.4863C116.882 25.5941 116.915 25.7018 116.948 25.8096C116.994 25.9576 117.039 26.1057 117.084 26.2538C117.109 26.337 117.135 26.4201 117.161 26.5058C117.217 26.7047 117.26 26.9073 117.3 27.1101C116.121 27.1101 114.941 27.1101 113.725 27.1101C113.5 26.1813 113.274 25.2526 113.041 24.2957C112.819 24.5812 112.819 24.5812 112.675 24.8281C112.493 25.0772 112.336 25.244 112.052 25.3606C111.746 25.4043 111.443 25.4066 111.134 25.4081C110.972 25.4101 110.809 25.4126 110.647 25.4158C110.575 25.4163 110.504 25.4167 110.43 25.4172C110.206 25.4386 110.045 25.4836 109.846 25.5888C109.751 25.7794 109.68 25.9498 109.613 26.1497C109.471 26.565 109.346 26.9039 108.933 27.1101C108.728 27.1167 108.525 27.1189 108.319 27.1175C108.229 27.1173 108.229 27.1173 108.136 27.1172C107.942 27.1167 107.748 27.1158 107.555 27.1148C107.423 27.1144 107.292 27.1141 107.161 27.1138C106.839 27.1129 106.517 27.1116 106.195 27.1101C106.238 26.6854 106.317 26.3022 106.447 25.8962C106.473 25.8099 106.473 25.8099 106.501 25.7219C106.56 25.5319 106.62 25.3421 106.68 25.1523C106.722 25.0169 106.764 24.8815 106.806 24.7461C106.896 24.4582 106.986 24.1705 107.077 23.8828C107.218 23.4343 107.358 22.9855 107.498 22.5367C107.521 22.4622 107.544 22.3877 107.568 22.311C107.615 22.1606 107.662 22.0101 107.709 21.8597C107.779 21.6337 107.85 21.4078 107.921 21.1819C108.332 19.8651 108.736 18.5463 109.138 17.2264C109.181 17.0829 109.181 17.0829 109.226 16.9365C109.382 16.4231 109.538 15.9096 109.694 15.3961ZM111.52 19.4275C111.193 20.532 110.867 21.6364 110.531 22.7744C110.581 22.7995 110.631 22.8246 110.683 22.8504C110.796 22.8128 110.796 22.8128 110.911 22.7744C111.04 22.7631 111.17 22.7555 111.299 22.7503C111.374 22.7471 111.449 22.7439 111.526 22.7406C111.604 22.7377 111.682 22.7347 111.762 22.7316C111.841 22.7283 111.92 22.725 112.001 22.7216C112.195 22.7136 112.39 22.7058 112.584 22.6983C112.431 22.1467 112.277 21.5953 112.122 21.0442C112.078 20.8898 112.035 20.7354 111.992 20.5809C111.941 20.3991 111.89 20.2176 111.838 20.036C111.823 19.9825 111.809 19.9289 111.793 19.8737C111.757 19.7489 111.715 19.626 111.672 19.5036C111.621 19.4785 111.571 19.4534 111.52 19.4275Z" fill="#221e1f" fill-opacity="0.960784" fill-rule="nonzero" opacity="1" stroke="none"/>
<path d="M44.2022 15.3961C44.5825 15.3904 44.9627 15.3863 45.3429 15.3836C45.4721 15.3824 45.6013 15.3809 45.7305 15.3789C45.9168 15.3761 46.1032 15.3748 46.2896 15.3738C46.3753 15.372 46.3753 15.372 46.4627 15.3702C46.8471 15.3701 47.1303 15.433 47.473 15.6243C47.7208 15.8924 47.8454 16.141 47.9616 16.4853C47.9937 16.5796 48.0259 16.6739 48.059 16.771C48.0919 16.8705 48.1248 16.97 48.1576 17.0695C48.1898 17.166 48.2221 17.2625 48.2543 17.359C48.3382 17.6112 48.4209 17.8638 48.5031 18.1166C48.557 18.2824 48.6111 18.448 48.6653 18.6137C48.819 19.0837 48.9723 19.5538 49.1255 20.024C49.2199 20.3138 49.3146 20.6036 49.4094 20.8932C49.4452 21.0029 49.481 21.1127 49.5167 21.2224C49.5663 21.3751 49.6162 21.5278 49.6662 21.6804C49.6944 21.767 49.7227 21.8537 49.7518 21.943C49.8177 22.1284 49.8898 22.2973 49.9832 22.4701C50.0048 22.4033 50.0048 22.4033 50.027 22.3351C50.3283 21.4099 50.6453 20.494 50.991 19.5844C51.5139 18.1997 51.7205 16.9716 51.8087 15.4722C52.8379 15.4722 53.867 15.4722 54.9274 15.4722C54.9274 17.2341 54.9274 17.2341 54.7788 17.7693C54.7621 17.8341 54.7454 17.899 54.7282 17.9658C54.4987 18.8203 54.1874 19.6488 53.8815 20.4782C53.7851 20.7421 53.6891 21.0062 53.5931 21.2703C53.5275 21.4504 53.4619 21.6305 53.3962 21.8105C53.1695 22.4323 52.9482 23.0558 52.7301 23.6806C52.7007 23.7647 52.6712 23.8489 52.6409 23.9356C52.5275 24.2598 52.4141 24.5841 52.3018 24.9087C52.2253 25.13 52.148 25.3509 52.0705 25.5718C52.0484 25.6365 52.0262 25.7012 52.0034 25.7679C51.804 26.3327 51.5828 26.7268 51.0481 27.034C50.7718 27.1261 50.5193 27.1195 50.2319 27.1175C50.1748 27.1174 50.1177 27.1173 50.0589 27.1172C49.8768 27.1167 49.6946 27.1158 49.5125 27.1148C49.389 27.1144 49.2654 27.1141 49.1418 27.1138C48.8391 27.1129 48.5364 27.1116 48.2337 27.1101C47.9689 26.3748 47.7042 25.6395 47.4397 24.9042C47.4199 24.8491 47.4001 24.794 47.3797 24.7372C46.7934 23.1071 46.2102 21.4759 45.6346 19.8419C45.391 19.151 45.1448 18.4612 44.8919 17.7737C44.8447 17.645 44.7975 17.5163 44.7503 17.3877C44.6637 17.1515 44.5761 16.9157 44.4879 16.6801C44.4496 16.5759 44.4113 16.4718 44.3731 16.3677C44.3399 16.2786 44.3067 16.1895 44.2725 16.0977C44.2018 15.8508 44.1883 15.6514 44.2022 15.3961Z" fill="#221e1f" fill-opacity="0.960784" fill-rule="nonzero" opacity="1" stroke="none"/>
<path d="M131.33 16.2518C131.693 16.6415 131.924 17.0728 131.948 17.6115C131.921 18.089 131.756 18.4432 131.41 18.7715C131.348 18.8123 131.285 18.853 131.22 18.8951C131.173 18.9264 131.126 18.9578 131.078 18.9901C130.845 19.0723 130.628 19.0566 130.384 19.0472C130.355 18.9656 130.327 18.884 130.298 18.8C130.129 18.4099 129.85 18.2723 129.466 18.1154C128.967 17.992 128.354 17.9704 127.864 18.1392C127.577 18.3327 127.507 18.4871 127.417 18.819C127.417 19.1216 127.459 19.2361 127.658 19.4656C127.887 19.6674 128.075 19.7632 128.358 19.8738C128.404 19.8923 128.451 19.9107 128.498 19.9297C128.644 19.9883 128.791 20.0455 128.938 20.1026C130.273 20.6247 131.64 21.1655 132.285 22.5462C132.59 23.2865 132.493 24.1558 132.238 24.8938C131.852 25.7711 131.18 26.4116 130.308 26.7963C128.919 27.3188 127.402 27.2226 126.049 26.6216C125.254 26.2056 124.476 25.7047 124.192 24.8149C124.097 24.3671 124.123 23.9096 124.132 23.4542C124.133 23.351 124.134 23.2479 124.135 23.1447C124.138 22.8945 124.142 22.6443 124.146 22.394C124.391 22.509 124.583 22.649 124.79 22.8224C125.939 23.7774 127.189 24.4259 128.71 24.2957C128.963 24.2247 128.963 24.2247 129.167 24.1435C129.232 23.8458 129.26 23.6592 129.157 23.3686C128.889 22.9659 128.51 22.7742 128.083 22.5699C127.974 22.5167 127.866 22.4633 127.757 22.4098C127.673 22.3686 127.673 22.3686 127.588 22.3265C124.776 20.9348 124.776 20.9348 124.222 19.4275C124.037 18.6447 124.169 17.7991 124.558 17.098C125.16 16.1961 126.089 15.7441 127.127 15.5108C128.605 15.2443 130.075 15.3515 131.33 16.2518Z" fill="#221f1f" fill-opacity="0.952941" fill-rule="nonzero" opacity="1" stroke="none"/>
<path d="M92.8076 15.3961C95.0918 15.3961 97.3761 15.3961 99.7295 15.3961C99.7295 16.2997 99.7295 17.2034 99.7295 18.1344C98.5246 18.1344 97.3198 18.1344 96.0784 18.1344C96.0784 18.7369 96.0784 19.3393 96.0784 19.96C97.1578 19.96 98.2371 19.96 99.3492 19.96C99.3492 21.5757 99.3492 21.5757 98.9831 22.1563C98.5499 22.5772 98.0406 22.6328 97.4601 22.6297C97.3792 22.6294 97.2983 22.6292 97.2149 22.6289C97.1317 22.6283 97.0484 22.6277 96.9627 22.627C96.8776 22.6267 96.7926 22.6263 96.705 22.626C96.4962 22.6251 96.2873 22.6238 96.0784 22.6222C96.0786 22.6773 96.0787 22.7324 96.0789 22.7892C96.0804 23.3075 96.0816 23.8257 96.0823 24.344C96.0827 24.6104 96.0833 24.8769 96.0841 25.1434C96.0851 25.4494 96.0855 25.7554 96.0858 26.0615C96.0862 26.1576 96.0866 26.2537 96.087 26.3527C96.087 26.4411 96.087 26.5294 96.087 26.6204C96.0872 26.6986 96.0874 26.7768 96.0876 26.8574C96.0784 27.034 96.0784 27.034 96.0023 27.1101C94.9481 27.1101 93.8938 27.1101 92.8076 27.1101C92.8076 23.2445 92.8076 19.3788 92.8076 15.3961Z" fill="#231f20" fill-opacity="0.956863" fill-rule="nonzero" opacity="1" stroke="none"/>
<path d="M148.335 14.8636C148.372 16.8714 148.372 16.8714 147.936 17.4071C147.623 17.7293 147.324 17.8737 146.89 17.9823C146.312 17.9823 145.735 17.9823 145.14 17.9823C145.14 20.9945 145.14 24.0066 145.14 27.1101C144.061 27.1101 142.981 27.1101 141.869 27.1101C141.869 24.0979 141.869 21.0857 141.869 17.9823C140.966 17.9823 140.062 17.9823 139.131 17.9823C139.131 17.1288 139.131 16.2754 139.131 15.3961C139.449 15.3944 139.449 15.3944 139.774 15.3927C140.479 15.3889 141.185 15.3838 141.891 15.3782C142.318 15.3748 142.745 15.3718 143.172 15.3697C143.586 15.3677 143.999 15.3647 144.412 15.3609C144.569 15.3596 144.726 15.3587 144.882 15.3582C146.049 15.3543 147.253 14.8636 148.335 14.8636Z" fill="#231e1f" fill-opacity="0.956863" fill-rule="nonzero" opacity="1" stroke="none"/>
<path d="M62.686 15.3961C64.9679 15.3961 64.9679 15.3961 65.5004 15.6243C65.8515 15.9847 65.8903 16.2666 65.8898 16.7555C65.8899 16.8468 65.8901 16.9381 65.8902 17.0322C65.8898 17.182 65.8898 17.182 65.8893 17.3349C65.8893 17.4414 65.8893 17.5478 65.8894 17.6543C65.8894 17.9431 65.8889 18.232 65.8884 18.5208C65.8879 18.8227 65.8879 19.1246 65.8878 19.4265C65.8876 19.9982 65.8869 20.5698 65.8862 21.1414C65.8853 21.7923 65.8849 22.4431 65.8845 23.0939C65.8837 24.4326 65.8823 25.7713 65.8807 27.1101C64.8264 27.1101 63.7722 27.1101 62.686 27.1101C62.686 23.2445 62.686 19.3788 62.686 15.3961Z" fill="#231f20" fill-opacity="0.952941" fill-rule="nonzero" opacity="1" stroke="none"/>
</g>
</g>
</g>
</svg>
