<?xml version="1.0" encoding="UTF-8" standalone="no"?>
<!DOCTYPE svg PUBLIC "-//W3C//DTD SVG 1.1//EN" "http://www.w3.org/Graphics/SVG/1.1/DTD/svg11.dtd">
<!-- Created with Vectornator (http://vectornator.io/) -->
<svg height="35.0px" stroke-miterlimit="10" style="fill-rule:nonzero;clip-rule:evenodd;stroke-linecap:round;stroke-linejoin:round;" version="1.1" viewBox="0 0 340 35" width="340.0px" xml:space="preserve" xmlns="http://www.w3.org/2000/svg" xmlns:xlink="http://www.w3.org/1999/xlink">
<defs/>
<clipPath id="ArtboardFrame">
<rect height="35" width="340" x="0" y="0"/>
</clipPath>
<g clip-path="url(#ArtboardFrame)" id="Layer-1">
<path d="M195.066 15.1948L195.285 15.1948C195.533 15.1919 195.737 15.1065 195.737 14.9048C195.737 14.723 195.602 14.6046 195.312 14.6054C195.193 14.6083 195.109 14.6178 195.063 14.6316L195.066 15.1948ZM195.065 16.2949L194.608 16.2993L194.597 14.3482C194.775 14.3073 195.027 14.2723 195.347 14.2723C195.716 14.2686 195.889 14.3285 196.033 14.422C196.141 14.5053 196.224 14.6609 196.227 14.8398C196.227 15.0707 196.058 15.2357 195.821 15.3103L195.821 15.3307C196.012 15.3943 196.124 15.5469 196.184 15.8099C196.244 16.1108 196.28 16.2285 196.332 16.2869L195.841 16.2883C195.781 16.2197 195.746 16.0509 195.682 15.8252C195.643 15.6076 195.521 15.5141 195.274 15.5184L195.058 15.5184L195.065 16.2949ZM195.345 13.7083C194.481 13.7142 193.842 14.4242 193.845 15.2832C193.852 16.1591 194.502 16.8486 195.389 16.8442C196.251 16.8515 196.88 16.1393 196.876 15.262C196.865 14.4081 196.232 13.7018 195.356 13.7083L195.345 13.7083ZM195.366 13.3132C196.494 13.308 197.369 14.1751 197.375 15.262C197.384 16.3775 196.516 17.246 195.382 17.2504C194.257 17.2591 193.35 16.4023 193.343 15.2891C193.339 14.2014 194.231 13.3219 195.356 13.3132L195.366 13.3132Z" fill="#000000" fill-rule="nonzero" opacity="1" stroke="none"/>
<path d="M149.487 34.2918L143.459 34.2918L149.674 19.2457L143 19.2457L143 13.5765L156.954 13.5765L149.487 34.2918Z" fill="#000000" fill-rule="nonzero" opacity="1" stroke="none"/>
<path d="M163.939 19.6106C162.395 19.6624 161.894 21.9627 161.894 23.8962C161.894 25.8283 162.375 28.1804 164.062 28.1519C165.649 28.1001 166.005 25.539 165.962 23.5551C165.921 21.7523 165.503 19.5857 163.939 19.6106M164.062 34.8123C158.704 34.8664 156.015 29.561 156.079 23.7903C156.159 18.1489 158.85 13.1072 163.983 13.1072C169.174 13.1072 171.822 17.8355 171.864 23.504C171.924 29.2747 169.007 34.7853 164.062 34.8123" fill="#000000" fill-rule="nonzero" opacity="1" stroke="none"/>
<path d="M174.721 34.5787C172.946 34.5517 171.51 32.6977 171.51 30.5049C171.531 28.3361 172.927 26.5589 174.679 26.5326C176.45 26.4807 177.954 28.3069 177.954 30.5589C177.954 32.7496 176.474 34.5787 174.721 34.5787" fill="#000000" fill-rule="nonzero" opacity="1" stroke="none"/>
<path d="M186.045 34.8664C178.704 34.7086 178.934 28.9635 178.725 27.317L184.44 27.317C184.293 28.5194 185.085 29.6691 186.129 29.6421C186.983 29.6421 187.671 28.8824 187.714 27.786C187.755 25.3842 185.294 25.8283 185.316 25.8013L185.316 21.2833C185.378 21.3111 187.193 21.4397 187.172 19.7939C187.172 18.8523 186.565 18.1752 185.858 18.1752C185.085 18.1752 184.479 19.0379 184.544 20.0036L179.309 20.0036C179.329 16.2672 181.458 13.132 186.088 13.0276C189.549 12.9501 192.741 14.5966 192.842 18.6434C192.947 22.4587 189.986 23.0328 190.01 23.1636C191.802 23.5807 193.471 25.0694 193.471 28.0752C193.448 32.6195 189.59 34.9701 186.045 34.8664" fill="#000000" fill-rule="nonzero" opacity="1" stroke="none"/>
<path d="M214.23 16.9453L219.723 31.4132L225.263 16.9453L228.391 16.9453L221.198 34.7437L218.094 34.7437L211 16.9453L214.23 16.9453Z" fill="#000000" fill-rule="nonzero" opacity="1" stroke="none"/>
<path d="M234.698 34.7428L231.698 34.7428L231.698 16.9444L234.698 16.9444L234.698 34.7428Z" fill="#000000" fill-rule="nonzero" opacity="1" stroke="none"/>
<path d="M248.199 19.5392C244.64 19.5392 241.843 22.2846 241.843 25.7939C241.843 29.3032 244.64 32.0728 248.199 32.0728C249.979 32.0728 251.81 31.2603 253.156 29.9627L254.937 31.947C253.132 33.7267 250.564 34.8697 248.046 34.8697C242.834 34.8697 238.791 30.9298 238.791 25.8197C238.791 20.7595 242.886 16.8697 248.148 16.8697C250.666 16.8697 253.182 17.9126 254.912 19.615L253.156 21.8025C251.86 20.4033 250.005 19.5392 248.199 19.5392" fill="#000000" fill-rule="nonzero" opacity="1" stroke="none"/>
<path d="M271.032 16.9453L271.032 19.6406L265.388 19.6406L265.388 34.7437L262.387 34.7437L262.387 19.6406L256.769 19.6406L256.769 16.9453L271.032 16.9453Z" fill="#000000" fill-rule="nonzero" opacity="1" stroke="none"/>
<path d="M274.999 25.8439C274.999 29.379 277.923 32.1759 281.407 32.1759C284.89 32.1759 287.737 29.379 287.737 25.8439C287.737 22.3103 284.89 19.565 281.407 19.565C277.897 19.565 274.999 22.3103 274.999 25.8439M290.813 25.8439C290.813 30.9298 286.694 34.8697 281.381 34.8697C276.068 34.8697 271.949 30.9298 271.949 25.8439C271.949 20.7338 276.068 16.8697 281.381 16.8697C286.694 16.8697 290.813 20.7595 290.813 25.8439" fill="#000000" fill-rule="nonzero" opacity="1" stroke="none"/>
<path d="M302.129 26.6836C304.874 26.6836 306.451 25.5148 306.451 23.0984C306.451 20.7594 304.874 19.6406 302.129 19.6406L297.909 19.6406L297.909 26.6836L302.129 26.6836ZM306.196 34.7437L302.943 29.3531C302.688 29.3789 302.408 29.3789 302.129 29.3789L297.909 29.3789L297.909 34.7437L294.907 34.7437L294.907 16.9453L302.129 16.9453C306.68 16.9453 309.298 19.1586 309.298 23.0226C309.298 25.8695 307.976 27.8781 305.611 28.7937L309.604 34.7437L306.196 34.7437Z" fill="#000000" fill-rule="nonzero" opacity="1" stroke="none"/>
<path d="M317.182 34.7428L314.182 34.7428L314.182 16.9444L317.182 16.9444L317.182 34.7428Z" fill="#000000" fill-rule="nonzero" opacity="1" stroke="none"/>
<path d="M333.098 28.0565L329.742 20.1495L326.386 28.0565L333.098 28.0565ZM334.241 30.7261L325.267 30.7261L323.563 34.7433L320.436 34.7433L328.293 16.9449L331.369 16.9449L339.15 34.7433L335.947 34.7433L334.241 30.7261Z" fill="#000000" fill-rule="nonzero" opacity="1" stroke="none"/>
<path d="M8.29609 34.8679L0 34.8679L0 13.5202L8.29092 13.5202L8.29609 34.8679Z" fill="#000000" fill-rule="nonzero" opacity="1" stroke="none"/>
<path d="M19.5802 20.9126C19.0987 21.1859 18.4864 21.1475 18.0669 21.163L18.0669 18.1948L19.0743 18.2494C19.0743 18.2494 19.5765 18.5552 19.5802 18.5589C20.4258 19.3425 19.7767 20.8011 19.5802 20.9126M28.2655 25.6467C28.1134 25.2257 27.8652 24.8136 27.5373 24.4717C26.8911 23.7988 26.332 23.6319 25.9398 23.2944C26.8091 22.7915 27.3696 22.609 27.9878 21.417C28.6953 20.0463 28.6599 18.1541 28.4066 16.6807C28.2433 15.7509 27.6488 14.8454 27.0048 14.1867L26.5853 13.8528L25.9125 13.6003L25.0189 13.5205L9.66816 13.5205L9.6593 34.8682L18.0905 34.8682C18.0846 32.0159 18.0905 26.0536 18.0905 26.0344C18.0905 26.044 18.9103 26.0278 18.9916 26.0389C20.3372 26.2648 20.0337 28.0329 20.0278 29.318C20.0189 30.804 20.0314 34.8682 20.03 34.8682L28.408 34.8682C28.4147 34.8682 28.3881 29.8874 28.3881 29.4598C28.3859 28.2058 28.6909 26.8261 28.2655 25.6467" fill="#000000" fill-rule="nonzero" opacity="1" stroke="none"/>
<path d="M40.1302 28.9108C40.1302 29.6014 39.5275 30.1627 38.7838 30.1627C38.0401 30.1627 37.4389 29.6014 37.4389 28.9108L37.4389 19.3725C37.4389 18.6768 38.0401 18.1155 38.7838 18.1155C39.5275 18.1155 40.1302 18.6768 40.1302 19.3725L40.1302 28.9108ZM42.5962 13.5203L35.5135 13.5203C30.6805 13.4161 29.5439 16.0335 29.5439 18.9176L29.5439 29.7166C29.4442 33.1191 31.7447 34.9337 35.5135 34.868L42.5962 34.868C47.5467 34.9337 48.5637 32.6043 48.5637 29.7166L48.5637 18.9176C48.5637 16.0335 47.3798 13.4161 42.5962 13.5203" fill="#000000" fill-rule="nonzero" opacity="1" stroke="none"/>
<path d="M60.6623 13.5203L60.6623 19.278L60.3639 19.2374L58.1365 13.5203L49.7739 13.5203L49.7643 34.868L57.5892 34.868L57.5929 27.0941L57.8861 27.0941L60.6918 34.868L68.6142 34.868L68.6031 13.5203L60.6623 13.5203Z" fill="#000000" fill-rule="nonzero" opacity="1" stroke="none"/>
<path d="M127.949 13.5203L127.954 19.9228L125.313 13.5203L117.152 13.5203L117.086 34.868L124.893 34.868L124.882 26.6886L125.138 26.6886L128.228 34.868L135.894 34.868L135.895 13.5203L127.949 13.5203Z" fill="#000000" fill-rule="nonzero" opacity="1" stroke="none"/>
<path d="M105.277 25.0834L105.841 19.74L106.134 19.74L106.718 25.0834L105.277 25.0834ZM107.858 34.8632L116.432 34.8632L112.649 13.5207L99.1457 13.5207L95.6694 34.8632L104.41 34.8632L104.88 29.796L107.151 29.796L107.858 34.8632Z" fill="#000000" fill-rule="nonzero" opacity="1" stroke="none"/>
<path d="M76.2352 6.10926C76.2352 2.73558 79.0166 0 82.4796 0C85.9294 0 88.7307 2.73558 88.7307 6.10926C88.7307 9.49106 85.9294 12.2348 82.4796 12.2348C79.0166 12.2348 76.2352 9.49106 76.2352 6.10926" fill="#000000" fill-rule="nonzero" opacity="1" stroke="none"/>
<path d="M80.2576 34.8679L77.3721 26.9315L77.3721 34.8679L69.8226 34.8679L69.7938 13.5202L95.0566 13.5202L95.0846 34.8679L87.5928 34.8679L87.5913 26.9256L84.8498 34.8679L80.2576 34.8679Z" fill="#000000" fill-rule="nonzero" opacity="1" stroke="none"/>
<path d="M333.926 89.7631L333.926 87.6594L334.111 87.6594C334.316 87.6594 334.468 87.6754 334.558 87.7146C334.656 87.7555 334.746 87.8215 334.831 87.9283C334.909 88.0263 335.064 88.2703 335.312 88.6658L335.959 89.7631L337.033 89.7631L336.484 88.7887C336.263 88.3897 336.098 88.1189 335.969 87.9586C335.845 87.8036 335.684 87.6683 335.488 87.5382C335.862 87.4812 336.151 87.3298 336.359 87.084C336.557 86.8471 336.659 86.5282 336.659 86.1346C336.659 85.8228 336.593 85.5592 336.461 85.3383C336.333 85.1139 336.158 84.9625 335.951 84.8627C335.741 84.7754 335.403 84.7273 334.922 84.7273L333.041 84.7273L333.041 89.7631L333.926 89.7631ZM333.926 85.5806L334.628 85.5806C335.031 85.5806 335.271 85.5877 335.355 85.6162C335.471 85.6536 335.568 85.7213 335.634 85.8175C335.704 85.9155 335.731 86.0419 335.731 86.204C335.731 86.3679 335.704 86.5033 335.634 86.6084C335.568 86.7028 335.472 86.774 335.36 86.8043C335.257 86.8364 334.995 86.8542 334.592 86.8542L333.926 86.8542L333.926 85.5806Z" fill="#000000" fill-rule="nonzero" opacity="0" stroke="none"/>
</g>
</svg>
