<?xml version="1.0" encoding="UTF-8" standalone="no"?>
<!DOCTYPE svg PUBLIC "-//W3C//DTD SVG 1.1//EN" "http://www.w3.org/Graphics/SVG/1.1/DTD/svg11.dtd">
<!-- Created with Vectornator (http://vectornator.io/) -->
<svg height="100%" stroke-miterlimit="10" style="fill-rule:nonzero;clip-rule:evenodd;stroke-linecap:round;stroke-linejoin:round;" version="1.1" viewBox="0 0 340 150" width="100%" xml:space="preserve" xmlns="http://www.w3.org/2000/svg" xmlns:xlink="http://www.w3.org/1999/xlink">
<defs/>
<g id="Layer-1">
<path d="M21.3363 91.4582L1.32688 91.4582L1.32688 39.9695L21.3238 39.9695L21.3363 91.4582Z" fill="#000000" fill-rule="nonzero" opacity="1" stroke="none"/>
<path d="M48.5525 57.7993C47.3911 58.4583 45.9144 58.3657 44.9026 58.4031L44.9026 51.2441L47.3323 51.3759C47.3323 51.3759 48.5436 52.1133 48.5525 52.1222C50.5921 54.0122 49.0263 57.5303 48.5525 57.7993M69.5007 69.2174C69.1337 68.2021 68.5352 67.2081 67.7443 66.3834C66.1857 64.7606 64.8372 64.358 63.8913 63.544C65.9879 62.3309 67.3399 61.8909 68.8309 59.0159C70.5374 55.7098 70.4519 51.1461 69.8409 47.5924C69.4472 45.3497 68.0133 43.1658 66.46 41.5769L65.4482 40.7718L63.8254 40.1625L61.67 39.9702L24.6456 39.9702L24.6242 91.4588L44.9596 91.4588C44.9454 84.5794 44.9596 70.1989 44.9596 70.1526C44.9596 70.1758 46.9369 70.1366 47.1328 70.1633C50.3783 70.7084 49.6462 74.9728 49.632 78.0723C49.6106 81.6563 49.6409 91.4588 49.6373 91.4588L69.8445 91.4588C69.8605 91.4588 69.7964 79.4457 69.7964 78.4143C69.791 75.3897 70.5267 72.0622 69.5007 69.2174" fill="#000000" fill-rule="nonzero" opacity="1" stroke="none"/>
<path d="M98.1172 77.0903C98.1172 78.7558 96.6636 80.1096 94.8699 80.1096C93.0761 80.1096 91.6261 78.7558 91.6261 77.0903L91.6261 54.0847C91.6261 52.4067 93.0761 51.0529 94.8699 51.0529C96.6636 51.0529 98.1172 52.4067 98.1172 54.0847L98.1172 77.0903ZM104.065 39.9697L86.9822 39.9697C75.3254 39.7185 72.5839 46.0314 72.5839 52.9874L72.5839 79.0337C72.3435 87.2402 77.8922 91.6168 86.9822 91.4583L104.065 91.4583C116.005 91.6168 118.458 85.9986 118.458 79.0337L118.458 52.9874C118.458 46.0314 115.602 39.7185 104.065 39.9697" fill="#000000" fill-rule="nonzero" opacity="1" stroke="none"/>
<path d="M147.639 39.9698L147.639 53.8568L146.919 53.7589L141.547 39.9698L121.377 39.9698L121.354 91.4584L140.227 91.4584L140.236 72.7084L140.943 72.7084L147.71 91.4584L166.818 91.4584L166.791 39.9698L147.639 39.9698Z" fill="#000000" fill-rule="nonzero" opacity="1" stroke="none"/>
<path d="M309.927 39.9698L309.939 55.4119L303.571 39.9698L283.886 39.9698L283.728 91.4584L302.558 91.4584L302.531 71.7305L303.147 71.7305L310.602 91.4584L329.09 91.4584L329.092 39.9698L309.927 39.9698Z" fill="#000000" fill-rule="nonzero" opacity="1" stroke="none"/>
<path d="M255.246 67.8588L256.605 54.971L257.312 54.971L258.721 67.8588L255.246 67.8588ZM261.47 91.4468L282.15 91.4468L273.025 39.9707L240.457 39.9707L232.073 91.4468L253.154 91.4468L254.287 79.2253L259.765 79.2253L261.47 91.4468Z" fill="#000000" fill-rule="nonzero" opacity="1" stroke="none"/>
<path d="M185.199 22.095C185.199 13.958 191.908 7.36 200.26 7.36C208.581 7.36 215.337 13.958 215.337 22.095C215.337 30.2516 208.581 36.8691 200.26 36.8691C191.908 36.8691 185.199 30.2516 185.199 22.095" fill="#000000" fill-rule="nonzero" opacity="1" stroke="none"/>
<path d="M194.901 91.4582L187.941 72.3162L187.941 91.4582L169.733 91.4582L169.663 39.9695L230.595 39.9695L230.662 91.4582L212.593 91.4582L212.589 72.302L205.977 91.4582L194.901 91.4582Z" fill="#000000" fill-rule="nonzero" opacity="1" stroke="none"/>
<path d="M127.968 102.021L128.501 102.021C129.106 102.014 129.603 101.806 129.603 101.314C129.603 100.871 129.274 100.582 128.566 100.584C128.278 100.591 128.073 100.614 127.961 100.648L127.968 102.021ZM127.964 104.704L126.851 104.715L126.824 99.9568C127.257 99.857 127.872 99.7715 128.652 99.7715C129.553 99.7626 129.974 99.9087 130.325 100.137C130.588 100.34 130.791 100.719 130.798 101.156C130.798 101.718 130.385 102.121 129.808 102.303L129.808 102.353C130.275 102.508 130.547 102.88 130.693 103.521C130.839 104.255 130.927 104.542 131.055 104.684L129.858 104.688C129.71 104.52 129.625 104.109 129.47 103.559C129.375 103.028 129.078 102.8 128.474 102.81L127.947 102.81L127.964 104.704ZM128.647 98.3963C126.539 98.4106 124.983 100.142 124.99 102.237C125.006 104.373 126.593 106.054 128.755 106.043C130.857 106.061 132.391 104.325 132.382 102.185C132.354 100.103 130.811 98.3803 128.673 98.3963L128.647 98.3963ZM128.698 97.4327C131.449 97.4202 133.583 99.5346 133.599 102.185C133.62 104.905 131.504 107.023 128.738 107.034C125.994 107.055 123.784 104.966 123.766 102.251C123.755 99.5987 125.932 97.454 128.673 97.4327L128.698 97.4327Z" fill="#000000" fill-rule="nonzero" opacity="1" stroke="none"/>
<g opacity="1">
<path d="M16.8198 148.591L2.12044 148.591L17.2758 111.9L1 111.9L1 98.0748L35.0283 98.0748L16.8198 148.591Z" fill="#000000" fill-rule="nonzero" opacity="1" stroke="none"/>
<path d="M52.061 112.789C48.2953 112.916 47.0751 118.525 47.0751 123.24C47.0751 127.952 48.2472 133.688 52.362 133.618C56.231 133.492 57.0985 127.246 56.9952 122.408C56.8954 118.012 55.8748 112.729 52.061 112.789M52.362 149.86C39.2944 149.992 32.7391 137.054 32.8941 122.982C33.0901 109.225 39.6506 96.9304 52.1679 96.9304C64.8276 96.9304 71.2848 108.461 71.3881 122.284C71.5342 136.356 64.4197 149.794 52.362 149.86" fill="#000000" fill-rule="nonzero" opacity="1" stroke="none"/>
<path d="M78.3552 149.29C74.0248 149.224 70.5246 144.704 70.5246 139.356C70.5744 134.067 73.9785 129.733 78.2519 129.669C82.5698 129.543 86.2375 133.996 86.2375 139.488C86.2375 144.83 82.6285 149.29 78.3552 149.29" fill="#000000" fill-rule="nonzero" opacity="1" stroke="none"/>
<path d="M105.968 149.992C88.0674 149.607 88.6285 135.597 88.1191 131.582L102.054 131.582C101.696 134.514 103.627 137.318 106.173 137.252C108.257 137.252 109.935 135.4 110.04 132.726C110.14 126.869 104.137 127.952 104.19 127.886L104.19 116.869C104.341 116.936 108.768 117.25 108.718 113.237C108.718 110.94 107.238 109.289 105.514 109.289C103.627 109.289 102.15 111.393 102.309 113.748L89.5423 113.748C89.5904 104.636 94.7829 96.991 106.073 96.7363C114.513 96.5474 122.297 100.563 122.545 110.431C122.799 119.735 115.58 121.135 115.637 121.454C120.008 122.471 124.078 126.101 124.078 133.431C124.021 144.513 114.614 150.245 105.968 149.992" fill="#000000" fill-rule="nonzero" opacity="1" stroke="none"/>
</g>
<path d="M140.428 109.414L146.882 126.415L153.393 109.414L157.068 109.414L148.615 130.328L144.969 130.328L136.632 109.414L140.428 109.414Z" fill="#000000" fill-rule="nonzero" opacity="1" stroke="none"/>
<path d="M164.479 130.327L160.954 130.327L160.954 109.413L164.479 109.413L164.479 130.327Z" fill="#000000" fill-rule="nonzero" opacity="1" stroke="none"/>
<path d="M180.344 112.462C176.162 112.462 172.875 115.688 172.875 119.812C172.875 123.935 176.162 127.19 180.344 127.19C182.435 127.19 184.587 126.235 186.169 124.71L188.262 127.042C186.14 129.133 183.123 130.476 180.164 130.476C174.04 130.476 169.289 125.847 169.289 119.842C169.289 113.896 174.101 109.325 180.284 109.325C183.242 109.325 186.199 110.551 188.232 112.551L186.169 115.121C184.646 113.477 182.466 112.462 180.344 112.462" fill="#000000" fill-rule="nonzero" opacity="1" stroke="none"/>
<path d="M207.174 109.414L207.174 112.581L200.542 112.581L200.542 130.328L197.015 130.328L197.015 112.581L190.414 112.581L190.414 109.414L207.174 109.414Z" fill="#000000" fill-rule="nonzero" opacity="1" stroke="none"/>
<path d="M211.836 119.87C211.836 124.024 215.272 127.311 219.365 127.311C223.459 127.311 226.804 124.024 226.804 119.87C226.804 115.718 223.459 112.492 219.365 112.492C215.241 112.492 211.836 115.718 211.836 119.87M230.418 119.87C230.418 125.847 225.578 130.476 219.335 130.476C213.091 130.476 208.252 125.847 208.252 119.87C208.252 113.866 213.091 109.325 219.335 109.325C225.578 109.325 230.418 113.896 230.418 119.87" fill="#000000" fill-rule="nonzero" opacity="1" stroke="none"/>
<path d="M243.715 120.857C246.941 120.857 248.794 119.484 248.794 116.644C248.794 113.896 246.941 112.581 243.715 112.581L238.756 112.581L238.756 120.857L243.715 120.857ZM248.495 130.328L244.672 123.994C244.373 124.024 244.043 124.024 243.715 124.024L238.756 124.024L238.756 130.328L235.229 130.328L235.229 109.414L243.715 109.414C249.063 109.414 252.139 112.015 252.139 116.555C252.139 119.9 250.586 122.261 247.807 123.337L252.499 130.328L248.495 130.328Z" fill="#000000" fill-rule="nonzero" opacity="1" stroke="none"/>
<path d="M261.404 130.327L257.878 130.327L257.878 109.413L261.404 109.413L261.404 130.327Z" fill="#000000" fill-rule="nonzero" opacity="1" stroke="none"/>
<path d="M280.106 122.47L276.163 113.179L272.219 122.47L280.106 122.47ZM281.45 125.607L270.904 125.607L268.902 130.328L265.227 130.328L274.46 109.413L278.074 109.413L287.217 130.328L283.454 130.328L281.45 125.607Z" fill="#000000" fill-rule="nonzero" opacity="1" stroke="none"/>
<path d="M147.908 144.207C147.908 143.64 147.406 143.302 146.567 143.302L144.925 143.302L144.925 145.137L146.567 145.137C147.406 145.137 147.908 144.809 147.908 144.207M147.661 141.497C147.661 140.958 147.251 140.667 146.567 140.667L144.925 140.667L144.925 142.354L146.567 142.354C147.251 142.354 147.661 142.035 147.661 141.497M148.765 141.305C148.765 142.026 148.338 142.564 147.645 142.728C148.502 142.874 149.013 143.485 149.013 144.342C149.013 145.438 148.128 146.095 146.686 146.095L143.849 146.095L143.849 139.709L146.622 139.709C147.944 139.709 148.765 140.311 148.765 141.305" fill="#000000" fill-rule="nonzero" opacity="1" stroke="none"/>
<path d="M153.273 143.203C154.258 143.203 154.822 142.782 154.822 141.917C154.822 141.078 154.258 140.675 153.273 140.675L151.757 140.675L151.757 143.203L153.273 143.203ZM154.733 146.096L153.565 144.161C153.472 144.17 153.372 144.17 153.273 144.17L151.757 144.17L151.757 146.096L150.681 146.096L150.681 139.708L153.273 139.708C154.906 139.708 155.845 140.502 155.845 141.888C155.845 142.911 155.371 143.632 154.523 143.962L155.955 146.096L154.733 146.096Z" fill="#000000" fill-rule="nonzero" opacity="1" stroke="none"/>
<path d="M158.745 146.095L157.667 146.095L157.667 139.707L158.745 139.707L158.745 146.095Z" fill="#000000" fill-rule="nonzero" opacity="1" stroke="none"/>
<path d="M165.178 139.709L165.178 140.676L163.151 140.676L163.151 146.096L162.075 146.096L162.075 140.676L160.059 140.676L160.059 139.709L165.178 139.709Z" fill="#000000" fill-rule="nonzero" opacity="1" stroke="none"/>
<path d="M167.566 146.095L166.49 146.095L166.49 139.707L167.566 139.707L167.566 146.095Z" fill="#000000" fill-rule="nonzero" opacity="1" stroke="none"/>
<path d="M171.653 140.676C171.023 140.676 170.613 140.913 170.613 141.342C170.613 142.737 174.063 141.99 174.053 144.288C174.053 145.43 173.05 146.132 171.644 146.132C170.641 146.132 169.692 145.722 169.035 145.118L169.5 144.188C170.157 144.79 170.978 145.118 171.664 145.118C172.412 145.118 172.857 144.837 172.857 144.343C172.857 142.92 169.409 143.715 169.409 141.442C169.409 140.348 170.349 139.662 171.735 139.662C172.565 139.662 173.378 139.928 173.971 140.319L173.524 141.269C172.831 140.848 172.138 140.676 171.653 140.676" fill="#000000" fill-rule="nonzero" opacity="1" stroke="none"/>
<path d="M176.78 139.709L176.78 142.482L180.167 142.482L180.167 139.709L181.243 139.709L181.243 146.096L180.167 146.096L180.167 143.449L176.78 143.449L176.78 146.096L175.704 146.096L175.704 139.709L176.78 139.709Z" fill="#000000" fill-rule="nonzero" opacity="1" stroke="none"/>
<path d="M188.904 140.639C187.627 140.639 186.624 141.624 186.624 142.883C186.624 144.142 187.627 145.136 188.904 145.136C189.544 145.136 190.201 144.846 190.684 144.379L191.324 145.092C190.675 145.731 189.754 146.141 188.849 146.141C186.981 146.141 185.529 144.727 185.529 142.892C185.529 141.077 186.998 139.682 188.887 139.682C189.79 139.682 190.695 140.056 191.315 140.667L190.684 141.451C190.219 140.949 189.553 140.639 188.904 140.639" fill="#000000" fill-rule="nonzero" opacity="1" stroke="none"/>
<path d="M193.239 142.901C193.239 144.17 194.288 145.174 195.536 145.174C196.787 145.174 197.809 144.17 197.809 142.901C197.809 141.633 196.787 140.648 195.536 140.648C194.279 140.648 193.239 141.633 193.239 142.901M198.912 142.901C198.912 144.727 197.435 146.142 195.529 146.142C193.622 146.142 192.143 144.727 192.143 142.901C192.143 141.067 193.622 139.681 195.529 139.681C197.435 139.681 198.912 141.077 198.912 142.901" fill="#000000" fill-rule="nonzero" opacity="1" stroke="none"/>
<path d="M201.53 139.709L201.53 145.118L204.295 145.118L204.295 146.096L200.454 146.096L200.454 139.709L201.53 139.709Z" fill="#000000" fill-rule="nonzero" opacity="1" stroke="none"/>
<path d="M208.382 145.174C209.422 145.174 210.07 144.536 210.07 143.448L210.07 139.709L211.146 139.709L211.146 143.448C211.146 145.119 210.097 146.141 208.373 146.141C206.648 146.141 205.59 145.119 205.59 143.448L205.59 139.709L206.666 139.709L206.666 143.448C206.666 144.527 207.332 145.174 208.382 145.174" fill="#000000" fill-rule="nonzero" opacity="1" stroke="none"/>
<path d="M214.357 139.709L216.464 143.952L218.563 139.709L219.831 139.709L219.831 146.096L218.837 146.096L218.826 141.322L216.812 145.43L216.108 145.43L214.092 141.322L214.092 146.096L213.08 146.096L213.08 139.709L214.357 139.709Z" fill="#000000" fill-rule="nonzero" opacity="1" stroke="none"/>
<path d="M225.97 144.207C225.97 143.64 225.468 143.302 224.629 143.302L222.986 143.302L222.986 145.137L224.629 145.137C225.468 145.137 225.97 144.809 225.97 144.207M225.724 141.497C225.724 140.958 225.315 140.667 224.629 140.667L222.986 140.667L222.986 142.354L224.629 142.354C225.315 142.354 225.724 142.035 225.724 141.497M226.829 141.305C226.829 142.026 226.399 142.564 225.706 142.728C226.563 142.874 227.075 143.485 227.075 144.342C227.075 145.438 226.189 146.095 224.748 146.095L221.911 146.095L221.911 139.709L224.684 139.709C226.008 139.709 226.829 140.311 226.829 141.305" fill="#000000" fill-rule="nonzero" opacity="1" stroke="none"/>
<path d="M229.819 146.095L228.742 146.095L228.742 139.707L229.819 139.707L229.819 146.095Z" fill="#000000" fill-rule="nonzero" opacity="1" stroke="none"/>
<path d="M235.604 143.695L234.398 140.858L233.194 143.695L235.604 143.695ZM236.014 144.652L232.793 144.652L232.182 146.095L231.06 146.095L233.878 139.709L234.983 139.709L237.776 146.095L236.625 146.095L236.014 144.652Z" fill="#000000" fill-rule="nonzero" opacity="1" stroke="none"/>
<path d="M239.727 145.575C239.727 145.757 239.665 145.912 239.563 146.058L239.043 146.842L238.505 146.842L238.851 146.049C238.687 145.94 238.605 145.766 238.605 145.575C238.605 145.237 238.842 144.991 239.17 144.991C239.464 144.991 239.727 145.21 239.727 145.575" fill="#000000" fill-rule="nonzero" opacity="1" stroke="none"/>
<path d="M246.952 140.639C245.675 140.639 244.672 141.624 244.672 142.883C244.672 144.142 245.675 145.136 246.952 145.136C247.591 145.136 248.249 144.846 248.731 144.379L249.371 145.092C248.722 145.731 247.801 146.141 246.896 146.141C245.028 146.141 243.576 144.727 243.576 142.892C243.576 141.077 245.046 139.682 246.934 139.682C247.837 139.682 248.742 140.056 249.362 140.667L248.731 141.451C248.266 140.949 247.6 140.639 246.952 140.639" fill="#000000" fill-rule="nonzero" opacity="1" stroke="none"/>
<path d="M254.524 143.695L253.32 140.858L252.116 143.695L254.524 143.695ZM254.936 144.652L251.715 144.652L251.102 146.095L249.982 146.095L252.8 139.709L253.904 139.709L256.697 146.095L255.547 146.095L254.936 144.652Z" fill="#000000" fill-rule="nonzero" opacity="1" stroke="none"/>
<path d="M258.993 139.709L262.415 144.297L262.415 139.709L263.475 139.709L263.475 146.096L262.415 146.096L259.011 141.515L259.011 146.096L257.935 146.096L257.935 139.709L258.993 139.709Z" fill="#000000" fill-rule="nonzero" opacity="1" stroke="none"/>
<path d="M269.267 143.695L268.061 140.858L266.857 143.695L269.267 143.695ZM269.677 144.652L266.456 144.652L265.845 146.095L264.723 146.095L267.541 139.709L268.645 139.709L271.438 146.095L270.288 146.095L269.677 144.652Z" fill="#000000" fill-rule="nonzero" opacity="1" stroke="none"/>
<path d="M277.514 142.911C277.514 141.607 276.538 140.676 275.279 140.676L273.754 140.676L273.754 145.129L275.325 145.129C276.565 145.129 277.514 144.206 277.514 142.911M278.599 142.902C278.599 144.746 277.204 146.096 275.268 146.096L272.678 146.096L272.678 139.708L275.296 139.708C277.213 139.708 278.599 141.05 278.599 142.902" fill="#000000" fill-rule="nonzero" opacity="1" stroke="none"/>
<path d="M283.69 143.695L282.484 140.858L281.28 143.695L283.69 143.695ZM284.1 144.652L280.879 144.652L280.268 146.095L279.146 146.095L281.964 139.709L283.068 139.709L285.861 146.095L284.711 146.095L284.1 144.652Z" fill="#000000" fill-rule="nonzero" opacity="1" stroke="none"/>
<g opacity="1">
<path d="M292.92 146.261C291.504 141.269 293.674 137.521 294.42 136.433C291.853 123.716 298.373 116.409 299.39 115.362C299.721 114.411 299.06 111.887 297.979 110.836C297.096 109.952 296.789 109.329 296.946 108.744C297.057 108.328 297.379 108.103 297.643 108.032C298.177 107.872 298.74 107.786 299.296 107.786C302.258 107.786 304.287 110.116 305.263 111.236C305.749 111.794 306.075 111.944 306.186 111.963C309.221 111.208 312.114 110.823 314.784 110.823C320.276 110.823 323.498 112.441 324.711 113.05C326.774 114.083 329.353 116.81 329.462 116.926C329.733 117.179 329.893 117.565 329.879 117.977C329.849 118.914 328.935 119.732 328.657 119.961L328.607 120L328.554 120.031C325.753 121.671 321.409 122.847 317.166 123.975C315.333 126.832 314.946 127.27 314.729 127.452L314.576 127.571C313.352 128.533 311.546 129.81 309.999 129.81C309.914 129.81 309.828 129.807 309.747 129.799C309.216 129.73 308.772 129.383 308.501 128.845C308.175 128.193 308.129 127.352 308.35 126.44C305.997 127.234 304.413 128.006 303.526 128.788C300.851 131.223 299.392 134.333 298.865 135.624C301.681 137.342 302.272 139.142 302.333 139.354L302.625 140.363L301.576 140.379C300.774 140.391 299.974 140.899 299.392 141.271C298.98 141.531 298.683 141.722 298.36 141.782L298.284 141.797L298.147 141.802C298.045 141.802 297.949 141.789 297.855 141.768C297.639 142.172 297.295 142.582 296.766 142.935C295.993 143.45 294.915 145.322 294.417 146.382L293.506 148.323L292.92 146.261Z" fill="#ffffff" fill-rule="nonzero" opacity="1" stroke="none"/>
<path d="M293.692 146.042C293.692 146.042 295.074 143.097 296.321 142.267C297.568 141.437 297.356 140.344 297.356 140.344C297.356 140.344 297.675 141.053 298.209 140.997C298.733 140.894 300.026 139.603 301.565 139.578C301.565 139.578 301.018 137.686 297.876 135.979C297.876 135.979 299.329 131.524 302.995 128.184C304.315 127.023 306.757 126.052 309.718 125.163C308.471 127.402 309.125 128.908 309.823 129C311.394 129.152 313.74 127.201 314.214 126.838C314.565 126.544 315.995 124.315 316.658 123.28C321.017 122.123 325.377 120.963 328.149 119.34C328.149 119.34 329.599 118.152 328.878 117.475C328.878 117.475 326.311 114.748 324.351 113.766C322.392 112.783 316.845 110.133 306.369 112.744C306.369 112.744 305.737 113.001 304.689 111.798C303.638 110.594 301.239 107.79 297.851 108.806C297.851 108.806 297.247 108.968 298.539 110.261C299.825 111.511 300.685 114.566 300.065 115.82C300.065 115.82 292.414 123.195 295.275 136.617C295.275 136.617 292.131 140.536 293.692 146.042" fill="#010101" fill-rule="nonzero" opacity="1" stroke="none"/>
<path d="M297.956 130.535C298.626 129.77 299.497 128.876 299.759 128.826C300.24 128.732 300.705 129.731 300.705 129.731C300.705 129.731 302.577 127.211 304.645 126.402C304.645 126.402 302.459 126.598 301.643 125.894C300.856 125.214 298.943 124.724 297.263 127.025C297.124 127.216 297.01 127.424 296.914 127.64C296.691 128.139 296.324 129.088 296.299 129.947C296.321 130.759 297.402 131.187 297.956 130.535" fill="#ffffff" fill-rule="nonzero" opacity="1" stroke="none"/>
<path d="M302.759 115.206C302.444 115.238 301.439 115.704 300.764 116.032C300.313 116.249 299.918 116.561 299.601 116.948C298.815 117.906 298.129 118.957 298.129 118.957C299.15 118.084 299.228 119.222 299.592 119.698C299.955 120.172 300.32 119.26 301.491 118.036C302.745 116.819 303.292 115.149 302.759 115.206" fill="#ffffff" fill-rule="nonzero" opacity="1" stroke="none"/>
<path d="M327.34 119.31C328.129 118.927 328.65 118.088 328.65 118.088C325.937 119.581 320.992 118.458 318.421 119.046C316.588 119.445 315.122 120.329 314.445 120.829C314.244 120.959 314.305 121.271 314.506 121.371C315.039 121.594 315.368 121.827 315.951 122.098C316.738 122.461 317.812 122.502 318.644 122.262C322.903 121.022 326.583 119.666 327.34 119.31" fill="#ffffff" fill-rule="nonzero" opacity="1" stroke="none"/>
<path d="M318.741 116.436C317.298 115.403 314.663 115.998 313.963 116.133C313.256 116.224 312.606 116.849 313.53 116.943C314.499 117.027 315.467 117.567 315.467 117.567C317.636 118.465 319.231 117.793 319.353 117.497C319.462 117.113 318.99 116.614 318.741 116.436" fill="#ffffff" fill-rule="nonzero" opacity="1" stroke="none"/>
</g>
<path d="M331.547 87.2995C331.547 85.4897 333.002 84.0273 334.798 84.0273C336.581 84.0273 338.043 85.4897 338.043 87.2995C338.043 89.0987 336.581 90.5629 334.798 90.5629C333.002 90.5629 331.547 89.0987 331.547 87.2995M330.59 87.2995C330.59 89.6259 332.477 91.5212 334.798 91.5212C337.112 91.5212 339 89.6259 339 87.2995C339 84.9625 337.112 83.0654 334.798 83.0654C332.477 83.0654 330.59 84.9625 330.59 87.2995" fill="#000000" fill-rule="nonzero" opacity="1" stroke="none"/>
<path d="M333.926 89.7631L333.926 87.6594L334.111 87.6594C334.316 87.6594 334.468 87.6754 334.558 87.7146C334.656 87.7555 334.746 87.8215 334.831 87.9283C334.909 88.0263 335.064 88.2703 335.312 88.6658L335.959 89.7631L337.033 89.7631L336.484 88.7887C336.263 88.3897 336.098 88.1189 335.969 87.9586C335.845 87.8036 335.684 87.6683 335.488 87.5382C335.862 87.4812 336.151 87.3298 336.359 87.084C336.557 86.8471 336.659 86.5282 336.659 86.1346C336.659 85.8228 336.593 85.5592 336.461 85.3383C336.333 85.1139 336.158 84.9625 335.951 84.8627C335.741 84.7754 335.403 84.7273 334.922 84.7273L333.041 84.7273L333.041 89.7631L333.926 89.7631ZM333.926 85.5806L334.628 85.5806C335.031 85.5806 335.271 85.5877 335.355 85.6162C335.471 85.6536 335.568 85.7213 335.634 85.8175C335.704 85.9155 335.731 86.0419 335.731 86.204C335.731 86.3679 335.704 86.5033 335.634 86.6084C335.568 86.7028 335.472 86.774 335.36 86.8043C335.257 86.8364 334.995 86.8542 334.592 86.8542L333.926 86.8542L333.926 85.5806Z" fill="#000000" fill-rule="nonzero" opacity="1" stroke="none"/>
</g>
</svg>
