<?xml version="1.0" encoding="UTF-8" standalone="no"?>
<!DOCTYPE svg PUBLIC "-//W3C//DTD SVG 1.1//EN" "http://www.w3.org/Graphics/SVG/1.1/DTD/svg11.dtd">
<!-- Created with Vectornator (http://vectornator.io/) -->
<svg height="100%" stroke-miterlimit="10" style="fill-rule:nonzero;clip-rule:evenodd;stroke-linecap:round;stroke-linejoin:round;" version="1.1" viewBox="0 0 340 150" width="100%" xml:space="preserve" xmlns="http://www.w3.org/2000/svg" xmlns:vectornator="http://vectornator.io" xmlns:xlink="http://www.w3.org/1999/xlink">
<defs/>
<g id="Layer-1" vectornator:layerName="Layer 1">
<g opacity="1">
<path d="M21.0269 91.5406L1 91.5406L1 40.0017L21.0129 40.0017L21.0269 91.5406Z" fill="#000000" fill-rule="nonzero" opacity="1" stroke="none" vectornator:layerName="path"/>
<path d="M48.2694 57.8492C47.1072 58.5073 45.6285 58.4177 44.6147 58.4541L44.6147 51.2874L47.0484 51.419C47.0484 51.419 48.261 52.1584 48.2694 52.1668C50.311 54.06 48.7427 57.5803 48.2694 57.8492M69.2373 69.2783C68.8704 68.2617 68.2711 67.2675 67.4813 66.4413C65.9214 64.817 64.5687 64.4137 63.625 63.6015C65.7226 62.3861 67.0753 61.9436 68.568 59.0674C70.2763 55.7571 70.1895 51.1894 69.579 47.6327C69.1841 45.3866 67.7502 43.2022 66.1959 41.6114L65.1821 40.8049L63.5577 40.1944L61.3985 40.0039L24.3386 40.0039L24.3162 91.54L44.6735 91.54C44.6567 84.6562 44.6735 70.2613 44.6735 70.2165C44.6735 70.2389 46.6535 70.1969 46.8467 70.2249C50.0954 70.771 49.3645 75.0391 49.3504 78.1421C49.328 81.7296 49.3588 91.54 49.356 91.54L69.5818 91.54C69.5986 91.54 69.5342 79.5172 69.5342 78.4838C69.5286 75.4563 70.2651 72.1265 69.2373 69.2783" fill="#000000" fill-rule="nonzero" opacity="1" stroke="none" vectornator:layerName="path"/>
<path d="M97.8824 77.1591C97.8824 78.8283 96.4261 80.181 94.6309 80.181C92.8357 80.181 91.385 78.8283 91.385 77.1591L91.385 54.1301C91.385 52.4525 92.8357 51.097 94.6309 51.097C96.4261 51.097 97.8824 52.4525 97.8824 54.1301L97.8824 77.1591ZM103.836 40.0012L86.7361 40.0012C75.0689 39.7519 72.3244 46.07 72.3244 53.0322L72.3244 79.1055C72.0835 87.3196 77.6398 91.6997 86.7361 91.5401L103.836 91.5401C115.786 91.6997 118.243 86.0762 118.243 79.1055L118.243 53.0322C118.243 46.07 115.386 39.7519 103.836 40.0012" fill="#000000" fill-rule="nonzero" opacity="1" stroke="none" vectornator:layerName="path"/>
<path d="M147.452 40.0022L147.452 53.9014L146.732 53.8034L141.355 40.0022L121.165 40.0022L121.143 91.5411L140.033 91.5411L140.041 72.7717L140.75 72.7717L147.524 91.5411L166.65 91.5411L166.624 40.0022L147.452 40.0022Z" fill="#000000" fill-rule="nonzero" opacity="1" stroke="none" vectornator:layerName="path"/>
<path d="M309.899 40.0022L309.91 55.4585L303.536 40.0022L283.834 40.0022L283.674 91.5411L302.522 91.5411L302.497 71.7943L303.113 71.7943L310.574 91.5411L329.08 91.5411L329.083 40.0022L309.899 40.0022Z" fill="#000000" fill-rule="nonzero" opacity="1" stroke="none" vectornator:layerName="path"/>
<path d="M255.164 67.9187L256.525 55.0192L257.233 55.0192L258.642 67.9187L255.164 67.9187ZM261.395 91.5303L282.097 91.5303L272.961 40.0026L240.36 40.0026L231.967 91.5303L253.072 91.5303L254.203 79.2974L259.687 79.2974L261.395 91.5303Z" fill="#000000" fill-rule="nonzero" opacity="1" stroke="none" vectornator:layerName="path"/>
<path d="M331.539 87.3784C331.539 85.5664 332.996 84.1017 334.794 84.1017C336.578 84.1017 338.042 85.5664 338.042 87.3784C338.042 89.1792 336.578 90.6439 334.794 90.6439C332.996 90.6439 331.539 89.1792 331.539 87.3784M330.581 87.3784C330.581 89.7085 332.472 91.6044 334.794 91.6044C337.11 91.6044 339 89.7085 339 87.3784C339 85.0371 337.11 83.1383 334.794 83.1383C332.472 83.1383 330.581 85.0371 330.581 87.3784" fill="#000000" fill-rule="nonzero" opacity="1" stroke="none" vectornator:layerName="path"/>
<path d="M333.921 89.8439L333.921 87.7379L334.106 87.7379C334.31 87.7379 334.462 87.7547 334.554 87.7939C334.652 87.8331 334.742 87.9003 334.826 88.0068C334.907 88.1048 335.061 88.3484 335.307 88.7461L335.957 89.8439L337.033 89.8439L336.484 88.8693C336.262 88.4688 336.094 88.1972 335.966 88.0376C335.84 87.8835 335.68 87.7463 335.484 87.6175C335.859 87.5615 336.148 87.4074 336.358 87.1638C336.554 86.9257 336.655 86.6065 336.655 86.2116C336.655 85.9007 336.59 85.6347 336.458 85.4134C336.33 85.1894 336.153 85.0381 335.949 84.9401C335.736 84.8505 335.397 84.8029 334.918 84.8029L333.033 84.8029L333.033 89.8439L333.921 89.8439ZM333.921 85.6571L334.624 85.6571C335.027 85.6571 335.268 85.6655 335.352 85.6935C335.467 85.7299 335.565 85.7971 335.632 85.8951C335.7 85.9931 335.728 86.1192 335.728 86.2816C335.728 86.444 335.7 86.5813 335.632 86.6877C335.565 86.7801 335.47 86.8529 335.355 86.8837C335.251 86.9145 334.991 86.9313 334.588 86.9313L333.921 86.9313L333.921 85.6571Z" fill="#000000" fill-rule="nonzero" opacity="1" stroke="none" vectornator:layerName="path"/>
<path d="M185.049 22.1106C185.049 13.9665 191.764 7.36 200.124 7.36C208.453 7.36 215.216 13.9665 215.216 22.1106C215.216 30.2743 208.453 36.8976 200.124 36.8976C191.764 36.8976 185.049 30.2743 185.049 22.1106" fill="#000000" fill-rule="nonzero" opacity="1" stroke="none" vectornator:layerName="path"/>
<path d="M194.761 91.5406L187.796 72.3819L187.793 91.5406L169.567 91.5406L169.499 40.0017L230.487 40.0017L230.557 91.5406L212.469 91.5406L212.466 72.3679L205.848 91.5406L194.761 91.5406Z" fill="#000000" fill-rule="nonzero" opacity="1" stroke="none" vectornator:layerName="path"/>
<g opacity="1">
<path d="M177.937 105.844C178.094 105.858 178.228 105.898 178.343 105.956C178.228 105.898 178.094 105.858 177.937 105.844" fill="none" opacity="1" stroke="#18171c" stroke-linecap="butt" stroke-linejoin="miter" stroke-width="0.66" vectornator:layerName="path"/>
<path d="M178.271 107.732C178.274 107.776 178.279 107.818 178.282 107.86C178.285 107.905 178.285 107.942 178.285 107.984C178.285 107.942 178.285 107.905 178.282 107.86C178.279 107.818 178.274 107.776 178.271 107.732" fill="none" opacity="1" stroke="#18171c" stroke-linecap="butt" stroke-linejoin="miter" stroke-width="0.66" vectornator:layerName="path"/>
<path d="M179.235 107.706C179.26 107.659 179.285 107.614 179.308 107.575C179.327 107.533 179.35 107.496 179.364 107.468C179.35 107.496 179.327 107.533 179.308 107.575C179.285 107.614 179.26 107.659 179.235 107.706" fill="none" opacity="1" stroke="#18171c" stroke-linecap="butt" stroke-linejoin="miter" stroke-width="0.66" vectornator:layerName="path"/>
<path d="M185.045 106.647L179.732 106.261L179.729 106.905L179.727 107.275L185.025 107.647L185.263 107.667L185.277 107.667L185.787 107.297L186.084 106.723L185.283 106.664L185.045 106.647Z" fill="none" opacity="1" stroke="#18171c" stroke-linecap="butt" stroke-linejoin="miter" stroke-width="0.66" vectornator:layerName="path"/>
<path d="M157.379 105.876C157.494 105.817 157.625 105.778 157.785 105.766C157.625 105.778 157.494 105.817 157.379 105.876" fill="none" opacity="1" stroke="#18171c" stroke-linecap="butt" stroke-linejoin="miter" stroke-width="0.66" vectornator:layerName="path"/>
<path d="M157.42 107.903C157.42 107.861 157.42 107.822 157.423 107.78C157.426 107.738 157.431 107.696 157.434 107.651C157.431 107.696 157.426 107.738 157.423 107.78C157.42 107.822 157.42 107.861 157.42 107.903" fill="none" opacity="1" stroke="#18171c" stroke-linecap="butt" stroke-linejoin="miter" stroke-width="0.66" vectornator:layerName="path"/>
<path d="M156.344 107.378C156.361 107.409 156.38 107.446 156.4 107.485C156.422 107.527 156.448 107.572 156.473 107.619C156.448 107.572 156.422 107.527 156.4 107.485C156.38 107.446 156.361 107.409 156.344 107.378" fill="none" opacity="1" stroke="#18171c" stroke-linecap="butt" stroke-linejoin="miter" stroke-width="0.66" vectornator:layerName="path"/>
<path d="M166.72 103.934L166.72 103.934L166.72 103.937L166.72 103.934Z" fill="none" opacity="1" stroke="#18171c" stroke-linecap="butt" stroke-linejoin="miter" stroke-width="0.66" vectornator:layerName="path"/>
<path d="M159.948 111.192L159.928 116.472L159.926 116.676L159.671 116.662L157.133 116.516L156.909 116.502L156.909 116.323L156.929 111.181L156.932 110.988L157.17 110.991L159.71 110.999L159.948 110.999L159.948 111.192ZM167.568 106.555L159.962 107.134L159.956 108.759L159.956 108.952L159.718 108.952L159.307 108.949L159.083 108.949L159.069 108.767L159.01 107.947C158.915 107.823 158.668 107.487 158.517 107.174L158.352 107.017C158.307 106.972 158.234 106.922 158.15 106.922C158.066 106.922 157.962 106.966 157.853 107.056C157.685 107.19 157.624 107.865 157.671 108.414L157.733 109.145L157.57 109.134L157.38 109.131L156.907 109.131L156.652 109.128L156.669 108.924L156.699 108.538C156.599 108.344 156.173 107.546 156.086 107.381C156.083 107.378 156.083 107.372 156.08 107.37L156.002 107.375L150.684 107.709L150.591 131.833L156.736 133.23L156.764 125.778C156.764 125.778 158.007 125.271 159.284 126.195C159.279 127.427 159.256 133.283 159.254 133.804L167.456 135.667L167.568 106.555Z" fill="none" opacity="1" stroke="#18171c" stroke-linecap="butt" stroke-linejoin="miter" stroke-width="0.66" vectornator:layerName="path"/>
<path d="M157.618 141.834L155.308 141.137C155.308 141.137 156.218 136.381 156.613 134.617C158.086 134.247 158.82 135.169 158.82 135.169L157.618 141.834ZM150.592 132.217L148.502 139.994L167.417 145.923L167.454 136.11L150.592 132.217Z" fill="none" opacity="1" stroke="#18171c" stroke-linecap="butt" stroke-linejoin="miter" stroke-width="0.66" vectornator:layerName="path"/>
<path d="M175.743 139.158L175.39 136.45L177.459 135.973L177.776 138.589L175.743 139.158ZM170.475 140.516L170.122 137.808L172.192 137.332L172.511 139.95L170.475 140.516ZM168.033 136.113L167.994 145.924L186.956 140.141L184.926 132.349L168.033 136.113Z" fill="none" opacity="1" stroke="#18171c" stroke-linecap="butt" stroke-linejoin="miter" stroke-width="0.66" vectornator:layerName="path"/>
<path d="M178.269 108.507C178.269 108.507 178.815 107.563 178.863 106.969C178.874 106.869 178.865 106.751 178.837 106.633C178.818 106.541 178.787 106.451 178.742 106.364C178.711 106.306 178.678 106.25 178.636 106.196C178.596 106.146 178.549 106.098 178.498 106.056C178.493 106.054 178.493 106.051 178.487 106.051C178.445 106.014 178.395 105.984 178.342 105.956C178.23 105.897 178.095 105.858 177.938 105.844C177.91 105.844 177.885 105.844 177.86 105.846C177.843 105.849 177.824 105.849 177.81 105.852C177.79 105.855 177.773 105.863 177.756 105.869C177.739 105.874 177.725 105.877 177.711 105.886C177.692 105.891 177.678 105.902 177.664 105.911C177.65 105.919 177.636 105.928 177.622 105.939C177.608 105.95 177.594 105.961 177.58 105.975C177.569 105.984 177.555 105.998 177.543 106.009C177.529 106.02 177.518 106.037 177.507 106.054C177.496 106.065 177.485 106.079 177.473 106.093C177.462 106.107 177.451 106.126 177.443 106.143C177.431 106.157 177.423 106.171 177.415 106.188C177.403 106.205 177.395 106.224 177.387 106.241C177.378 106.258 177.37 106.272 177.361 106.289C177.353 106.308 177.347 106.325 177.336 106.348C177.331 106.362 177.325 106.378 177.317 106.393C177.311 106.412 177.305 106.435 177.297 106.454C177.291 106.468 177.286 106.485 177.28 106.499C177.275 106.519 177.269 106.538 177.263 106.558C177.258 106.572 177.255 106.586 177.249 106.603C177.247 106.622 177.241 106.639 177.235 106.659C177.233 106.673 177.23 106.687 177.227 106.698C177.221 106.717 177.219 106.734 177.216 106.751C177.213 106.762 177.21 106.773 177.207 106.785C177.205 106.801 177.202 106.818 177.199 106.835C177.199 106.843 177.196 106.852 177.193 106.857C177.182 106.922 177.179 106.964 177.179 106.964C177.196 106.947 177.219 106.927 177.244 106.911C177.244 106.911 177.247 106.908 177.249 106.905C177.269 106.891 177.291 106.877 177.317 106.866C177.319 106.863 177.325 106.863 177.328 106.86C177.331 106.857 177.333 106.857 177.336 106.855C177.367 106.841 177.401 106.829 177.437 106.821L177.44 106.818C177.479 106.81 177.518 106.804 177.56 106.804L177.563 106.804L177.569 106.804C177.599 106.804 177.63 106.807 177.661 106.813C177.664 106.813 177.667 106.815 177.669 106.815C177.7 106.821 177.734 106.832 177.768 106.843C177.776 106.846 177.782 106.849 177.787 106.852C177.824 106.866 177.857 106.883 177.894 106.905C177.899 106.908 177.905 106.913 177.913 106.916C177.952 106.939 177.989 106.967 178.031 107C178.118 107.07 178.176 107.202 178.216 107.356C178.246 107.471 178.26 107.602 178.272 107.731C178.274 107.776 178.28 107.818 178.283 107.86C178.283 107.905 178.283 107.941 178.286 107.983C178.286 108.025 178.286 108.067 178.286 108.106C178.286 108.336 178.269 108.507 178.269 108.507" fill="none" opacity="1" stroke="#18171c" stroke-linecap="butt" stroke-linejoin="miter" stroke-width="0.66" vectornator:layerName="path"/>
<path d="M176.286 106.675L176.289 106.048L168.15 105.252L168.148 106.364L175.802 107L176.286 106.675Z" fill="none" opacity="1" stroke="#18171c" stroke-linecap="butt" stroke-linejoin="miter" stroke-width="0.66" vectornator:layerName="path"/>
<path d="M176.739 107.567C176.703 107.623 176.669 107.673 176.636 107.721C176.669 107.673 176.703 107.623 176.739 107.567M175.63 104.069L175.627 104.399L175.627 104.478L175.997 104.478L175.997 104.634L175.991 105.827L176.35 105.861L176.56 105.881L176.56 106.054L176.557 106.693L176.557 106.771L176.484 106.827L176.073 107.152L175.991 107.217L175.986 107.217L175.98 108.821L176.389 108.824L176.459 107.956C176.459 107.956 176.538 107.858 176.636 107.721C176.669 107.673 176.703 107.623 176.739 107.567C176.756 107.539 176.776 107.513 176.792 107.483C176.832 107.424 176.868 107.365 176.902 107.303L176.941 106.948C176.963 106.729 177.123 105.648 177.899 105.651C177.921 105.651 177.941 105.651 177.96 105.654C178.459 105.693 179.176 106.08 179.103 106.981C179.052 107.603 178.509 108.55 178.487 108.589L178.316 108.88L178.316 109.02L178.789 109.023L178.758 108.589C178.758 108.589 178.862 108.396 178.988 108.163C179.041 108.062 179.1 107.956 179.153 107.855C179.1 107.956 179.041 108.062 178.988 108.163C179.041 108.062 179.1 107.956 179.153 107.855C179.181 107.802 179.209 107.754 179.234 107.707C179.26 107.659 179.285 107.614 179.307 107.575C179.33 107.533 179.346 107.497 179.363 107.469C179.38 107.435 179.394 107.413 179.402 107.393C179.425 107.354 179.439 107.189 179.447 106.953C179.447 106.92 179.447 106.88 179.45 106.844C179.45 106.81 179.45 106.777 179.45 106.735C179.45 106.777 179.45 106.81 179.45 106.844C179.45 106.81 179.45 106.777 179.45 106.735C179.453 106.659 179.453 106.578 179.453 106.494C179.453 106.329 179.453 106.147 179.45 105.968C179.453 106.147 179.453 106.329 179.453 106.494C179.453 106.329 179.453 106.147 179.45 105.968C179.45 105.878 179.447 105.785 179.447 105.696C179.444 105.651 179.444 105.609 179.444 105.564C179.442 105.519 179.442 105.475 179.442 105.433C179.442 105.388 179.439 105.346 179.439 105.304C179.436 105.209 179.436 105.116 179.433 105.029C179.43 105.004 179.43 104.979 179.43 104.954C179.43 104.912 179.428 104.872 179.428 104.836C179.422 104.578 179.416 104.41 179.416 104.41L176.577 104.072L175.63 104.069Z" fill="none" opacity="1" stroke="#18171c" stroke-linecap="butt" stroke-linejoin="miter" stroke-width="0.66" vectornator:layerName="path"/>
<path d="M179.412 101.492L179.367 104.203L179.686 104.239L179.728 106.076L185.15 106.477L185.296 102.477L184.243 102.301L184.133 105.118L180.837 104.771L180.848 101.733L179.412 101.492Z" fill="none" opacity="1" stroke="#18171c" stroke-linecap="butt" stroke-linejoin="miter" stroke-width="0.66" vectornator:layerName="path"/>
<path d="M175.73 104.666L175.36 104.663L175.363 103.848L175.536 103.848L175.55 100.829L174.021 100.568L174.007 104.153L169.857 103.736L169.874 99.8795L168.174 99.6219L168.151 105.094L175.724 105.803L175.73 104.666Z" fill="none" opacity="1" stroke="#18171c" stroke-linecap="butt" stroke-linejoin="miter" stroke-width="0.66" vectornator:layerName="path"/>
<path d="M168.179 97.8906L168.174 99.2461L187.422 102.512L187.425 101.982L188.052 101.543L168.179 97.8906Z" fill="none" opacity="1" stroke="#18171c" stroke-linecap="butt" stroke-linejoin="miter" stroke-width="0.66" vectornator:layerName="path"/>
<path d="M157.42 107.903C157.42 107.861 157.42 107.822 157.423 107.78C157.426 107.738 157.431 107.696 157.434 107.651C157.445 107.522 157.462 107.393 157.493 107.276C157.532 107.121 157.594 106.993 157.684 106.92C157.723 106.889 157.762 106.861 157.801 106.839C157.807 106.833 157.812 106.83 157.821 106.827C157.854 106.805 157.891 106.788 157.924 106.774C157.933 106.771 157.938 106.771 157.944 106.769C157.978 106.755 158.011 106.746 158.042 106.738C158.048 106.738 158.05 106.738 158.05 106.738C158.084 106.732 158.112 106.729 158.14 106.729L158.148 106.729L158.154 106.729C158.196 106.729 158.235 106.735 158.272 106.743C158.274 106.743 158.274 106.746 158.274 106.746C158.314 106.755 158.344 106.769 158.375 106.783C158.378 106.783 158.381 106.785 158.386 106.785C158.389 106.788 158.392 106.791 158.398 106.791C158.42 106.805 158.442 106.819 158.462 106.833C158.465 106.836 158.468 106.836 158.47 106.839C158.493 106.855 158.515 106.875 158.535 106.892C158.535 106.892 158.529 106.85 158.518 106.785C158.518 106.777 158.515 106.771 158.515 106.763C158.512 106.746 158.51 106.732 158.507 106.713C158.504 106.701 158.501 106.69 158.498 106.679C158.496 106.662 158.493 106.645 158.487 106.626C158.484 106.612 158.482 106.601 158.479 106.587C158.473 106.567 158.47 106.55 158.465 106.531C158.462 106.517 158.456 106.5 158.451 106.486C158.445 106.466 158.44 106.447 158.434 106.427C158.431 106.41 158.426 106.396 158.42 106.379C158.412 106.36 158.406 106.34 158.398 106.321C158.392 106.304 158.386 106.29 158.378 106.273C158.372 106.253 158.364 106.234 158.356 106.214C158.347 106.2 158.339 106.183 158.333 106.169C158.322 106.15 158.314 106.13 158.305 106.113C158.297 106.096 158.286 106.082 158.277 106.068C158.266 106.052 158.258 106.035 158.244 106.018C158.235 106.004 158.224 105.99 158.213 105.979C158.202 105.962 158.188 105.948 158.176 105.934C158.165 105.92 158.151 105.909 158.14 105.898C158.126 105.886 158.112 105.872 158.098 105.864C158.087 105.853 158.07 105.844 158.059 105.836C158.042 105.828 158.028 105.816 158.011 105.808C157.997 105.802 157.98 105.797 157.966 105.791C157.947 105.786 157.93 105.78 157.913 105.777C157.896 105.772 157.877 105.772 157.86 105.769C157.835 105.769 157.812 105.763 157.784 105.766C157.627 105.777 157.493 105.819 157.378 105.875C157.325 105.903 157.275 105.934 157.23 105.968C157.227 105.97 157.224 105.973 157.221 105.973C157.171 106.018 157.123 106.063 157.084 106.113C157.042 106.166 157.006 106.223 156.975 106.279C156.93 106.365 156.899 106.458 156.877 106.547C156.849 106.665 156.841 106.783 156.849 106.883C156.891 107.477 157.431 108.427 157.431 108.427C157.431 108.427 157.417 108.256 157.417 108.026C157.417 107.987 157.417 107.945 157.42 107.903" fill="none" opacity="1" stroke="#18171c" stroke-linecap="butt" stroke-linejoin="miter" stroke-width="0.66" vectornator:layerName="path"/>
<path d="M159.428 106.61L159.913 106.938L167.57 106.363L167.575 105.252L159.431 105.983L159.428 106.61Z" fill="none" opacity="1" stroke="#18171c" stroke-linecap="butt" stroke-linejoin="miter" stroke-width="0.66" vectornator:layerName="path"/>
<path d="M159.071 107.651C159.038 107.604 159.004 107.553 158.968 107.497C159.004 107.553 159.038 107.604 159.071 107.651M157.382 108.94L157.382 108.8L157.214 108.506C157.192 108.466 156.654 107.517 156.609 106.895C156.545 105.993 157.262 105.613 157.763 105.576C157.783 105.573 157.803 105.573 157.822 105.573C158.601 105.576 158.752 106.66 158.772 106.876L158.808 107.234C158.842 107.296 158.878 107.355 158.914 107.416C158.931 107.444 158.951 107.469 158.968 107.497C159.004 107.553 159.038 107.604 159.071 107.651C159.169 107.791 159.245 107.889 159.245 107.889L159.309 108.758L159.718 108.76L159.724 107.153L159.718 107.153L159.64 107.088L159.228 106.761L159.158 106.705L159.158 106.624L159.158 105.985L159.161 105.814L159.371 105.795L159.729 105.764L159.735 104.571L159.735 104.414L160.102 104.417L160.102 104.338L160.105 104.008L159.158 104.005L156.315 104.322C156.315 104.322 156.31 104.49 156.301 104.747C156.299 104.784 156.299 104.823 156.296 104.865C156.296 104.89 156.296 104.915 156.296 104.94C156.29 105.027 156.29 105.12 156.285 105.215C156.285 105.257 156.285 105.299 156.282 105.344C156.282 105.386 156.282 105.431 156.279 105.475C156.279 105.52 156.276 105.562 156.276 105.607C156.273 105.697 156.271 105.789 156.271 105.879C156.268 106.058 156.265 106.237 156.262 106.405C156.265 106.237 156.268 106.058 156.271 105.879C156.268 106.058 156.265 106.237 156.262 106.405C156.262 106.489 156.262 106.57 156.262 106.646C156.262 106.685 156.265 106.719 156.265 106.755C156.265 106.792 156.265 106.831 156.268 106.864C156.271 107.097 156.282 107.265 156.304 107.304C156.315 107.324 156.327 107.349 156.343 107.377C156.327 107.349 156.315 107.324 156.304 107.304C156.315 107.324 156.327 107.349 156.343 107.377C156.36 107.411 156.38 107.444 156.402 107.486C156.422 107.525 156.447 107.57 156.472 107.618C156.497 107.665 156.523 107.716 156.551 107.769C156.579 107.819 156.607 107.87 156.635 107.923C156.663 107.976 156.688 108.027 156.716 108.077C156.688 108.027 156.663 107.976 156.635 107.923C156.663 107.976 156.688 108.027 156.716 108.077C156.839 108.312 156.943 108.506 156.943 108.506L156.906 108.937L157.382 108.94Z" fill="none" opacity="1" stroke="#18171c" stroke-linecap="butt" stroke-linejoin="miter" stroke-width="0.66" vectornator:layerName="path"/>
<path d="M150.67 106.515L150.432 106.532L149.631 106.582L149.922 107.159L150.429 107.531L150.443 107.531L150.684 107.515L155.983 107.184L155.983 106.814L155.986 106.17L150.67 106.515Z" fill="none" opacity="1" stroke="#18171c" stroke-linecap="butt" stroke-linejoin="miter" stroke-width="0.66" vectornator:layerName="path"/>
<path d="M156.31 101.408L154.904 101.635L154.89 104.671L151.591 104.993L151.507 102.203L150.452 102.329L150.566 106.343L155.991 105.984L156.05 104.147L156.366 104.113L156.31 101.408Z" fill="none" opacity="1" stroke="#18171c" stroke-linecap="butt" stroke-linejoin="miter" stroke-width="0.66" vectornator:layerName="path"/>
<path d="M166.72 103.934L166.72 103.937L166.72 103.934ZM165.88 103.721L161.727 104.105L161.741 100.515L160.212 100.764L160.2 103.789L160.371 103.791L160.368 104.606L160.002 104.606L159.996 105.743L167.574 105.091L167.597 99.6382L165.894 99.8539L165.88 103.721Z" fill="none" opacity="1" stroke="#18171c" stroke-linecap="butt" stroke-linejoin="miter" stroke-width="0.66" vectornator:layerName="path"/>
<path d="M148.326 101.831L148.323 102.363L167.596 99.2436L167.602 97.8881L147.704 101.386L148.326 101.831Z" fill="none" opacity="1" stroke="#18171c" stroke-linecap="butt" stroke-linejoin="miter" stroke-width="0.66" vectornator:layerName="path"/>
<path d="M178.749 111.265L178.73 116.407L178.73 116.589L178.506 116.6L175.966 116.723L175.711 116.737L175.711 116.533L175.73 111.254L175.733 111.06L175.971 111.063L178.749 111.072L178.749 111.265ZM179.707 107.467L179.626 107.462C179.626 107.462 179.626 107.467 179.623 107.473C179.534 107.635 179.102 108.431 178.999 108.624L179.029 109.01L179.043 109.215L178.789 109.215L178.315 109.212L178.125 109.212L177.962 109.223L178.03 108.492C178.083 107.946 178.027 107.269 177.862 107.134C177.75 107.044 177.646 106.997 177.562 106.997C177.478 106.997 177.405 107.047 177.36 107.089L177.192 107.246C177.038 107.557 176.789 107.893 176.694 108.016L176.629 108.837L176.613 109.016L176.389 109.016L175.98 109.013L175.742 109.013L175.742 108.82L175.747 107.196L168.146 106.557L168.034 135.669L184.927 131.964L185.02 107.843L179.707 107.467Z" fill="none" opacity="1" stroke="#18171c" stroke-linecap="butt" stroke-linejoin="miter" stroke-width="0.66" vectornator:layerName="path"/>
</g>
<g opacity="1">
<path d="M11.8754 103.906L11.8754 139.906L2.51726 139.906L2.51726 103.906L11.8754 103.906Z" fill="#000000" fill-rule="nonzero" opacity="1" stroke="none"/>
<path d="M33.0743 111.832L33.0743 139.906L23.7162 139.906L23.7162 111.832L16.0292 111.832L16.0292 103.906L40.7613 103.906L40.7613 111.832L33.0743 111.832Z" fill="#000000" fill-rule="nonzero" opacity="1" stroke="none"/>
<path d="M62.8197 126.537L58.6181 114.553L54.4165 126.537L62.8197 126.537ZM65.3024 133.651L51.9337 133.651L49.7852 139.906L39.8064 139.906L53.5093 103.906L63.7268 103.906L77.4297 139.906L67.451 139.906L65.3024 133.651Z" fill="#000000" fill-rule="nonzero" opacity="1" stroke="none"/>
<path d="M90.8939 103.906L90.8939 131.98L102.114 131.98L102.114 139.906L81.5358 139.906L81.5358 103.906L90.8939 103.906Z" fill="#000000" fill-rule="nonzero" opacity="1" stroke="none"/>
<path d="M111.997 122.622L98.8674 103.906L110.04 103.906L116.724 113.742L123.361 103.906L134.533 103.906L121.355 122.622L121.355 139.906L111.997 139.906L111.997 122.622Z" fill="#000000" fill-rule="nonzero" opacity="1" stroke="none"/>
</g>
<g opacity="1">
<path d="M209.443 107.632L204.213 107.632L204.213 110.46L209.151 110.46L209.151 114.185L204.213 114.185L204.213 117.103L209.443 117.103L209.443 120.829L199.814 120.829L199.814 103.906L209.443 103.906L209.443 107.632Z" fill="#000000" fill-rule="nonzero" opacity="1" stroke="none"/>
<path d="M211.844 120.829L214.717 103.906L219.071 103.906L222.46 112.928L225.827 103.906L230.181 103.906L233.054 120.829L228.677 120.829L227.218 111.088L223.223 120.829L221.473 120.829L217.68 111.088L216.221 120.829L211.844 120.829Z" fill="#000000" fill-rule="nonzero" opacity="1" stroke="none"/>
<path d="M240.236 103.906L240.236 120.829L235.837 120.829L235.837 103.906L240.236 103.906Z" fill="#000000" fill-rule="nonzero" opacity="1" stroke="none"/>
<path d="M248.181 103.906L248.181 117.103L253.455 117.103L253.455 120.829L243.782 120.829L243.782 103.906L248.181 103.906Z" fill="#000000" fill-rule="nonzero" opacity="1" stroke="none"/>
<path d="M260.121 103.906L260.121 120.829L255.722 120.829L255.722 103.906L260.121 103.906Z" fill="#000000" fill-rule="nonzero" opacity="1" stroke="none"/>
<path d="M272.869 114.544L270.894 108.911L268.919 114.544L272.869 114.544ZM274.036 117.888L267.752 117.888L266.742 120.829L262.051 120.829L268.492 103.906L273.295 103.906L279.737 120.829L275.046 120.829L274.036 117.888Z" fill="#000000" fill-rule="nonzero" opacity="1" stroke="none"/>
<path d="M204.213 130.076L205.044 130.076C205.912 130.076 206.577 129.896 207.041 129.537C207.505 129.178 207.737 128.662 207.737 127.988C207.737 127.315 207.505 126.799 207.041 126.44C206.577 126.081 205.912 125.901 205.044 125.901L204.213 125.901L204.213 130.076ZM213.887 139.435L208.41 139.435L204.213 132.926L204.213 139.435L199.814 139.435L199.814 122.512L206.66 122.512C207.602 122.512 208.425 122.65 209.128 122.927C209.832 123.204 210.411 123.582 210.868 124.061C211.324 124.539 211.668 125.093 211.9 125.721C212.132 126.35 212.248 127.023 212.248 127.741C212.248 129.028 211.938 130.072 211.317 130.872C210.696 131.673 209.779 132.215 208.567 132.5L213.887 139.435Z" fill="#000000" fill-rule="nonzero" opacity="1" stroke="none"/>
<path d="M219.251 130.973C219.251 131.647 219.378 132.268 219.632 132.836C219.887 133.405 220.231 133.899 220.665 134.317C221.098 134.736 221.603 135.062 222.18 135.294C222.756 135.526 223.365 135.642 224.009 135.642C224.652 135.642 225.262 135.526 225.838 135.294C226.414 135.062 226.923 134.736 227.364 134.317C227.805 133.899 228.153 133.405 228.408 132.836C228.662 132.268 228.789 131.647 228.789 130.973C228.789 130.3 228.662 129.679 228.408 129.11C228.153 128.542 227.805 128.048 227.364 127.629C226.923 127.21 226.414 126.885 225.838 126.653C225.262 126.421 224.652 126.305 224.009 126.305C223.365 126.305 222.756 126.421 222.18 126.653C221.603 126.885 221.098 127.21 220.665 127.629C220.231 128.048 219.887 128.542 219.632 129.11C219.378 129.679 219.251 130.3 219.251 130.973ZM214.65 130.973C214.65 129.716 214.882 128.546 215.345 127.461C215.809 126.376 216.453 125.43 217.276 124.622C218.099 123.814 219.082 123.182 220.227 122.725C221.372 122.269 222.632 122.041 224.009 122.041C225.37 122.041 226.627 122.269 227.779 122.725C228.931 123.182 229.923 123.814 230.753 124.622C231.583 125.43 232.231 126.376 232.694 127.461C233.158 128.546 233.39 129.716 233.39 130.973C233.39 132.23 233.158 133.401 232.694 134.486C232.231 135.571 231.583 136.517 230.753 137.325C229.923 138.133 228.931 138.765 227.779 139.221C226.627 139.678 225.37 139.906 224.009 139.906C222.632 139.906 221.372 139.678 220.227 139.221C219.082 138.765 218.099 138.133 217.276 137.325C216.453 136.517 215.809 135.571 215.345 134.486C214.882 133.401 214.65 132.23 214.65 130.973Z" fill="#000000" fill-rule="nonzero" opacity="1" stroke="none"/>
<path d="M235.41 139.435L238.283 122.512L242.637 122.512L246.026 131.534L249.393 122.512L253.747 122.512L256.62 139.435L252.243 139.435L250.784 129.694L246.789 139.435L245.039 139.435L241.246 129.694L239.787 139.435L235.41 139.435Z" fill="#000000" fill-rule="nonzero" opacity="1" stroke="none"/>
<path d="M268.605 133.15L266.63 127.517L264.654 133.15L268.605 133.15ZM269.772 136.495L263.487 136.495L262.477 139.435L257.787 139.435L264.228 122.512L269.031 122.512L275.472 139.435L270.782 139.435L269.772 136.495Z" fill="#000000" fill-rule="nonzero" opacity="1" stroke="none"/>
<path d="M285.101 129.963L293.831 129.963C293.831 130.861 293.794 131.677 293.719 132.41C293.644 133.143 293.495 133.824 293.27 134.452C292.956 135.335 292.53 136.117 291.991 136.797C291.452 137.478 290.82 138.047 290.095 138.503C289.369 138.96 288.572 139.307 287.704 139.547C286.836 139.786 285.924 139.906 284.966 139.906C283.649 139.906 282.449 139.689 281.364 139.255C280.279 138.821 279.348 138.211 278.57 137.426C277.792 136.64 277.186 135.698 276.752 134.598C276.318 133.498 276.101 132.283 276.101 130.951C276.101 129.634 276.314 128.426 276.74 127.326C277.167 126.226 277.773 125.288 278.558 124.51C279.344 123.731 280.29 123.125 281.398 122.692C282.505 122.258 283.739 122.041 285.101 122.041C286.866 122.041 288.415 122.422 289.747 123.185C291.078 123.948 292.133 125.13 292.911 126.731L288.737 128.46C288.348 127.532 287.843 126.866 287.222 126.462C286.601 126.058 285.894 125.856 285.101 125.856C284.442 125.856 283.844 125.98 283.305 126.226C282.767 126.473 282.307 126.825 281.925 127.281C281.543 127.738 281.244 128.288 281.027 128.931C280.81 129.574 280.702 130.293 280.702 131.086C280.702 131.804 280.795 132.47 280.982 133.083C281.169 133.697 281.45 134.228 281.824 134.677C282.198 135.125 282.662 135.473 283.215 135.72C283.769 135.967 284.412 136.091 285.146 136.091C285.58 136.091 285.999 136.042 286.403 135.945C286.806 135.847 287.169 135.69 287.491 135.473C287.813 135.256 288.078 134.976 288.288 134.632C288.497 134.288 288.639 133.869 288.714 133.375L285.101 133.375L285.101 129.963Z" fill="#000000" fill-rule="nonzero" opacity="1" stroke="none"/>
<path d="M296.614 139.435L296.614 122.512L301.013 122.512L309.138 132.859L309.138 122.512L313.515 122.512L313.515 139.435L309.138 139.435L301.013 129.088L301.013 139.435L296.614 139.435Z" fill="#000000" fill-rule="nonzero" opacity="1" stroke="none"/>
<path d="M326.308 133.15L324.333 127.517L322.357 133.15L326.308 133.15ZM327.475 136.495L321.19 136.495L320.18 139.435L315.49 139.435L321.931 122.512L326.734 122.512L333.175 139.435L328.485 139.435L327.475 136.495Z" fill="#000000" fill-rule="nonzero" opacity="1" stroke="none"/>
</g>
</g>
</g>
</svg>
