<?xml version="1.0" encoding="UTF-8" standalone="no"?>
<!DOCTYPE svg PUBLIC "-//W3C//DTD SVG 1.1//EN" "http://www.w3.org/Graphics/SVG/1.1/DTD/svg11.dtd">
<!-- Created with Vectornator (http://vectornator.io/) -->
<svg height="175.0px" stroke-miterlimit="10" style="fill-rule:nonzero;clip-rule:evenodd;stroke-linecap:round;stroke-linejoin:round;" version="1.1" viewBox="0 0 340 175" width="340.0px" xml:space="preserve" xmlns="http://www.w3.org/2000/svg" xmlns:xlink="http://www.w3.org/1999/xlink">
<defs/>
<g id="Layer-1">
<g opacity="1">
<path d="M21.3363 91.4582L1.32688 91.4582L1.32688 39.9695L21.3238 39.9695L21.3363 91.4582Z" fill="#000000" fill-rule="nonzero" opacity="1" stroke="none"/>
<path d="M48.5525 57.7993C47.3911 58.4583 45.9144 58.3657 44.9026 58.4031L44.9026 51.2441L47.3323 51.3759C47.3323 51.3759 48.5436 52.1133 48.5525 52.1222C50.5921 54.0122 49.0263 57.5303 48.5525 57.7993M69.5007 69.2174C69.1337 68.2021 68.5352 67.2081 67.7443 66.3834C66.1857 64.7606 64.8372 64.358 63.8913 63.544C65.9879 62.3309 67.3399 61.8909 68.8309 59.0159C70.5374 55.7098 70.4519 51.1461 69.8409 47.5924C69.4472 45.3497 68.0133 43.1658 66.46 41.5769L65.4482 40.7718L63.8254 40.1625L61.67 39.9702L24.6456 39.9702L24.6242 91.4588L44.9596 91.4588C44.9454 84.5794 44.9596 70.1989 44.9596 70.1526C44.9596 70.1758 46.9369 70.1366 47.1328 70.1633C50.3783 70.7084 49.6462 74.9728 49.632 78.0723C49.6106 81.6563 49.6409 91.4588 49.6373 91.4588L69.8445 91.4588C69.8605 91.4588 69.7964 79.4457 69.7964 78.4143C69.791 75.3897 70.5267 72.0622 69.5007 69.2174" fill="#000000" fill-rule="nonzero" opacity="1" stroke="none"/>
<path d="M98.1172 77.0903C98.1172 78.7558 96.6636 80.1096 94.8699 80.1096C93.0761 80.1096 91.6261 78.7558 91.6261 77.0903L91.6261 54.0847C91.6261 52.4067 93.0761 51.0529 94.8699 51.0529C96.6636 51.0529 98.1172 52.4067 98.1172 54.0847L98.1172 77.0903ZM104.065 39.9697L86.9822 39.9697C75.3254 39.7185 72.5839 46.0314 72.5839 52.9874L72.5839 79.0337C72.3435 87.2402 77.8922 91.6168 86.9822 91.4583L104.065 91.4583C116.005 91.6168 118.458 85.9986 118.458 79.0337L118.458 52.9874C118.458 46.0314 115.602 39.7185 104.065 39.9697" fill="#000000" fill-rule="nonzero" opacity="1" stroke="none"/>
<path d="M147.639 39.9698L147.639 53.8568L146.919 53.7589L141.547 39.9698L121.377 39.9698L121.354 91.4584L140.227 91.4584L140.236 72.7084L140.943 72.7084L147.71 91.4584L166.818 91.4584L166.791 39.9698L147.639 39.9698Z" fill="#000000" fill-rule="nonzero" opacity="1" stroke="none"/>
<path d="M309.927 39.9698L309.939 55.4119L303.571 39.9698L283.886 39.9698L283.728 91.4584L302.558 91.4584L302.531 71.7305L303.147 71.7305L310.602 91.4584L329.09 91.4584L329.092 39.9698L309.927 39.9698Z" fill="#000000" fill-rule="nonzero" opacity="1" stroke="none"/>
<path d="M255.246 67.8588L256.605 54.971L257.312 54.971L258.721 67.8588L255.246 67.8588ZM261.47 91.4468L282.15 91.4468L273.025 39.9707L240.457 39.9707L232.073 91.4468L253.154 91.4468L254.287 79.2253L259.765 79.2253L261.47 91.4468Z" fill="#000000" fill-rule="nonzero" opacity="1" stroke="none"/>
<path d="M185.199 22.095C185.199 13.958 191.908 7.36 200.26 7.36C208.581 7.36 215.337 13.958 215.337 22.095C215.337 30.2516 208.581 36.8691 200.26 36.8691C191.908 36.8691 185.199 30.2516 185.199 22.095" fill="#00abc8" fill-rule="nonzero" opacity="1" stroke="none"/>
<path d="M194.901 91.4582L187.941 72.3162L187.941 91.4582L169.733 91.4582L169.663 39.9695L230.595 39.9695L230.662 91.4582L212.593 91.4582L212.589 72.302L205.977 91.4582L194.901 91.4582Z" fill="#00abc8" fill-rule="nonzero" opacity="1" stroke="none"/>
<path d="M127.968 102.021L128.501 102.021C129.106 102.014 129.603 101.806 129.603 101.314C129.603 100.871 129.274 100.582 128.566 100.584C128.278 100.591 128.073 100.614 127.961 100.648L127.968 102.021ZM127.964 104.704L126.851 104.715L126.824 99.9568C127.257 99.857 127.872 99.7715 128.652 99.7715C129.553 99.7626 129.974 99.9087 130.325 100.137C130.588 100.34 130.791 100.719 130.798 101.156C130.798 101.718 130.385 102.121 129.808 102.303L129.808 102.353C130.275 102.508 130.547 102.88 130.693 103.521C130.839 104.255 130.927 104.542 131.055 104.684L129.858 104.688C129.71 104.52 129.625 104.109 129.47 103.559C129.375 103.028 129.078 102.8 128.474 102.81L127.947 102.81L127.964 104.704ZM128.647 98.3963C126.539 98.4106 124.983 100.142 124.99 102.237C125.006 104.373 126.593 106.054 128.755 106.043C130.857 106.061 132.391 104.325 132.382 102.185C132.354 100.103 130.811 98.3803 128.673 98.3963L128.647 98.3963ZM128.698 97.4327C131.449 97.4202 133.583 99.5346 133.599 102.185C133.62 104.905 131.504 107.023 128.738 107.034C125.994 107.055 123.784 104.966 123.766 102.251C123.755 99.5987 125.932 97.454 128.673 97.4327L128.698 97.4327Z" fill="#00abc8" fill-rule="nonzero" opacity="1" stroke="none"/>
<path d="M16.8198 149.903L2.12044 149.903L17.2758 113.211L1 113.211L1 99.3868L35.0283 99.3868L16.8198 149.903Z" fill="#00abc8" fill-rule="nonzero" opacity="1" stroke="none"/>
<path d="M52.061 114.101C48.2953 114.228 47.0751 119.837 47.0751 124.552C47.0751 129.264 48.2472 135 52.362 134.93C56.231 134.804 57.0985 128.558 56.9952 123.72C56.8954 119.324 55.8748 114.041 52.061 114.101M52.362 151.172C39.2944 151.304 32.7391 138.366 32.8941 124.294C33.0901 110.537 39.6506 98.2424 52.1679 98.2424C64.8276 98.2424 71.2848 109.773 71.3881 123.596C71.5342 137.668 64.4197 151.106 52.362 151.172" fill="#00abc8" fill-rule="nonzero" opacity="1" stroke="none"/>
<path d="M78.3552 150.602C74.0248 150.536 70.5246 146.015 70.5246 140.668C70.5744 135.379 73.9785 131.045 78.2519 130.981C82.5698 130.855 86.2375 135.308 86.2375 140.8C86.2375 146.142 82.6285 150.602 78.3552 150.602" fill="#00abc8" fill-rule="nonzero" opacity="1" stroke="none"/>
<path d="M105.968 151.304C88.0674 150.919 88.6285 136.909 88.1191 132.894L102.054 132.894C101.696 135.826 103.627 138.63 106.173 138.564C108.257 138.564 109.935 136.711 110.04 134.038C110.14 128.181 104.137 129.264 104.19 129.198L104.19 118.181C104.341 118.248 108.768 118.562 108.718 114.548C108.718 112.252 107.238 110.601 105.514 110.601C103.627 110.601 102.15 112.705 102.309 115.06L89.5423 115.06C89.5904 105.948 94.7829 98.3029 106.073 98.0482C114.513 97.8594 122.297 101.874 122.545 111.743C122.799 121.047 115.58 122.447 115.637 122.766C120.008 123.783 124.078 127.413 124.078 134.743C124.021 145.825 114.614 151.557 105.968 151.304" fill="#00abc8" fill-rule="nonzero" opacity="1" stroke="none"/>
<path d="M140.428 109.414L146.882 126.415L153.393 109.414L157.068 109.414L148.615 130.328L144.969 130.328L136.632 109.414L140.428 109.414Z" fill="#00abc8" fill-rule="nonzero" opacity="1" stroke="none"/>
<path d="M164.479 130.327L160.954 130.327L160.954 109.413L164.479 109.413L164.479 130.327Z" fill="#00abc8" fill-rule="nonzero" opacity="1" stroke="none"/>
<path d="M180.344 112.462C176.162 112.462 172.875 115.688 172.875 119.812C172.875 123.935 176.162 127.19 180.344 127.19C182.435 127.19 184.587 126.235 186.169 124.71L188.262 127.042C186.14 129.133 183.123 130.476 180.164 130.476C174.04 130.476 169.289 125.847 169.289 119.842C169.289 113.896 174.101 109.325 180.284 109.325C183.242 109.325 186.199 110.551 188.232 112.551L186.169 115.121C184.646 113.477 182.466 112.462 180.344 112.462" fill="#00abc8" fill-rule="nonzero" opacity="1" stroke="none"/>
<path d="M207.174 109.414L207.174 112.581L200.542 112.581L200.542 130.328L197.015 130.328L197.015 112.581L190.414 112.581L190.414 109.414L207.174 109.414Z" fill="#00abc8" fill-rule="nonzero" opacity="1" stroke="none"/>
<path d="M211.836 119.87C211.836 124.024 215.272 127.311 219.365 127.311C223.459 127.311 226.804 124.024 226.804 119.87C226.804 115.718 223.459 112.492 219.365 112.492C215.241 112.492 211.836 115.718 211.836 119.87M230.418 119.87C230.418 125.847 225.578 130.476 219.335 130.476C213.091 130.476 208.252 125.847 208.252 119.87C208.252 113.866 213.091 109.325 219.335 109.325C225.578 109.325 230.418 113.896 230.418 119.87" fill="#00abc8" fill-rule="nonzero" opacity="1" stroke="none"/>
<path d="M243.715 120.857C246.941 120.857 248.794 119.484 248.794 116.644C248.794 113.896 246.941 112.581 243.715 112.581L238.756 112.581L238.756 120.857L243.715 120.857ZM248.495 130.328L244.672 123.994C244.373 124.024 244.043 124.024 243.715 124.024L238.756 124.024L238.756 130.328L235.229 130.328L235.229 109.414L243.715 109.414C249.063 109.414 252.139 112.015 252.139 116.555C252.139 119.9 250.586 122.261 247.807 123.337L252.499 130.328L248.495 130.328Z" fill="#00abc8" fill-rule="nonzero" opacity="1" stroke="none"/>
<path d="M261.404 130.327L257.878 130.327L257.878 109.413L261.404 109.413L261.404 130.327Z" fill="#00abc8" fill-rule="nonzero" opacity="1" stroke="none"/>
<path d="M280.106 122.47L276.163 113.179L272.219 122.47L280.106 122.47ZM281.45 125.607L270.904 125.607L268.902 130.328L265.227 130.328L274.46 109.413L278.074 109.413L287.217 130.328L283.454 130.328L281.45 125.607Z" fill="#00abc8" fill-rule="nonzero" opacity="1" stroke="none"/>
<path d="M147.908 144.207C147.908 143.64 147.406 143.302 146.567 143.302L144.925 143.302L144.925 145.137L146.567 145.137C147.406 145.137 147.908 144.809 147.908 144.207M147.661 141.497C147.661 140.958 147.251 140.667 146.567 140.667L144.925 140.667L144.925 142.354L146.567 142.354C147.251 142.354 147.661 142.035 147.661 141.497M148.765 141.305C148.765 142.026 148.338 142.564 147.645 142.728C148.502 142.874 149.013 143.485 149.013 144.342C149.013 145.438 148.128 146.095 146.686 146.095L143.849 146.095L143.849 139.709L146.622 139.709C147.944 139.709 148.765 140.311 148.765 141.305" fill="#000000" fill-rule="nonzero" opacity="1" stroke="none"/>
<path d="M153.273 143.203C154.258 143.203 154.822 142.782 154.822 141.917C154.822 141.078 154.258 140.675 153.273 140.675L151.757 140.675L151.757 143.203L153.273 143.203ZM154.733 146.096L153.565 144.161C153.472 144.17 153.372 144.17 153.273 144.17L151.757 144.17L151.757 146.096L150.681 146.096L150.681 139.708L153.273 139.708C154.906 139.708 155.845 140.502 155.845 141.888C155.845 142.911 155.371 143.632 154.523 143.962L155.955 146.096L154.733 146.096Z" fill="#000000" fill-rule="nonzero" opacity="1" stroke="none"/>
<path d="M158.745 146.095L157.667 146.095L157.667 139.707L158.745 139.707L158.745 146.095Z" fill="#000000" fill-rule="nonzero" opacity="1" stroke="none"/>
<path d="M165.178 139.709L165.178 140.676L163.151 140.676L163.151 146.096L162.075 146.096L162.075 140.676L160.059 140.676L160.059 139.709L165.178 139.709Z" fill="#000000" fill-rule="nonzero" opacity="1" stroke="none"/>
<path d="M167.566 146.095L166.49 146.095L166.49 139.707L167.566 139.707L167.566 146.095Z" fill="#000000" fill-rule="nonzero" opacity="1" stroke="none"/>
<path d="M171.653 140.676C171.023 140.676 170.613 140.913 170.613 141.342C170.613 142.737 174.063 141.99 174.053 144.288C174.053 145.43 173.05 146.132 171.644 146.132C170.641 146.132 169.692 145.722 169.035 145.118L169.5 144.188C170.157 144.79 170.978 145.118 171.664 145.118C172.412 145.118 172.857 144.837 172.857 144.343C172.857 142.92 169.409 143.715 169.409 141.442C169.409 140.348 170.349 139.662 171.735 139.662C172.565 139.662 173.378 139.928 173.971 140.319L173.524 141.269C172.831 140.848 172.138 140.676 171.653 140.676" fill="#000000" fill-rule="nonzero" opacity="1" stroke="none"/>
<path d="M176.78 139.709L176.78 142.482L180.167 142.482L180.167 139.709L181.243 139.709L181.243 146.096L180.167 146.096L180.167 143.449L176.78 143.449L176.78 146.096L175.704 146.096L175.704 139.709L176.78 139.709Z" fill="#000000" fill-rule="nonzero" opacity="1" stroke="none"/>
<path d="M188.904 140.639C187.627 140.639 186.624 141.624 186.624 142.883C186.624 144.142 187.627 145.136 188.904 145.136C189.544 145.136 190.201 144.846 190.684 144.379L191.324 145.092C190.675 145.731 189.754 146.141 188.849 146.141C186.981 146.141 185.529 144.727 185.529 142.892C185.529 141.077 186.998 139.682 188.887 139.682C189.79 139.682 190.695 140.056 191.315 140.667L190.684 141.451C190.219 140.949 189.553 140.639 188.904 140.639" fill="#000000" fill-rule="nonzero" opacity="1" stroke="none"/>
<path d="M193.239 142.901C193.239 144.17 194.288 145.174 195.536 145.174C196.787 145.174 197.809 144.17 197.809 142.901C197.809 141.633 196.787 140.648 195.536 140.648C194.279 140.648 193.239 141.633 193.239 142.901M198.912 142.901C198.912 144.727 197.435 146.142 195.529 146.142C193.622 146.142 192.143 144.727 192.143 142.901C192.143 141.067 193.622 139.681 195.529 139.681C197.435 139.681 198.912 141.077 198.912 142.901" fill="#000000" fill-rule="nonzero" opacity="1" stroke="none"/>
<path d="M201.53 139.709L201.53 145.118L204.295 145.118L204.295 146.096L200.454 146.096L200.454 139.709L201.53 139.709Z" fill="#000000" fill-rule="nonzero" opacity="1" stroke="none"/>
<path d="M208.382 145.174C209.422 145.174 210.07 144.536 210.07 143.448L210.07 139.709L211.146 139.709L211.146 143.448C211.146 145.119 210.097 146.141 208.373 146.141C206.648 146.141 205.59 145.119 205.59 143.448L205.59 139.709L206.666 139.709L206.666 143.448C206.666 144.527 207.332 145.174 208.382 145.174" fill="#000000" fill-rule="nonzero" opacity="1" stroke="none"/>
<path d="M214.357 139.709L216.464 143.952L218.563 139.709L219.831 139.709L219.831 146.096L218.837 146.096L218.826 141.322L216.812 145.43L216.108 145.43L214.092 141.322L214.092 146.096L213.08 146.096L213.08 139.709L214.357 139.709Z" fill="#000000" fill-rule="nonzero" opacity="1" stroke="none"/>
<path d="M225.97 144.207C225.97 143.64 225.468 143.302 224.629 143.302L222.986 143.302L222.986 145.137L224.629 145.137C225.468 145.137 225.97 144.809 225.97 144.207M225.724 141.497C225.724 140.958 225.315 140.667 224.629 140.667L222.986 140.667L222.986 142.354L224.629 142.354C225.315 142.354 225.724 142.035 225.724 141.497M226.829 141.305C226.829 142.026 226.399 142.564 225.706 142.728C226.563 142.874 227.075 143.485 227.075 144.342C227.075 145.438 226.189 146.095 224.748 146.095L221.911 146.095L221.911 139.709L224.684 139.709C226.008 139.709 226.829 140.311 226.829 141.305" fill="#000000" fill-rule="nonzero" opacity="1" stroke="none"/>
<path d="M229.819 146.095L228.742 146.095L228.742 139.707L229.819 139.707L229.819 146.095Z" fill="#000000" fill-rule="nonzero" opacity="1" stroke="none"/>
<path d="M235.604 143.695L234.398 140.858L233.194 143.695L235.604 143.695ZM236.014 144.652L232.793 144.652L232.182 146.095L231.06 146.095L233.878 139.709L234.983 139.709L237.776 146.095L236.625 146.095L236.014 144.652Z" fill="#000000" fill-rule="nonzero" opacity="1" stroke="none"/>
<path d="M239.727 145.575C239.727 145.757 239.665 145.912 239.563 146.058L239.043 146.842L238.505 146.842L238.851 146.049C238.687 145.94 238.605 145.766 238.605 145.575C238.605 145.237 238.842 144.991 239.17 144.991C239.464 144.991 239.727 145.21 239.727 145.575" fill="#000000" fill-rule="nonzero" opacity="1" stroke="none"/>
<path d="M246.952 140.639C245.675 140.639 244.672 141.624 244.672 142.883C244.672 144.142 245.675 145.136 246.952 145.136C247.591 145.136 248.249 144.846 248.731 144.379L249.371 145.092C248.722 145.731 247.801 146.141 246.896 146.141C245.028 146.141 243.576 144.727 243.576 142.892C243.576 141.077 245.046 139.682 246.934 139.682C247.837 139.682 248.742 140.056 249.362 140.667L248.731 141.451C248.266 140.949 247.6 140.639 246.952 140.639" fill="#000000" fill-rule="nonzero" opacity="1" stroke="none"/>
<path d="M254.524 143.695L253.32 140.858L252.116 143.695L254.524 143.695ZM254.936 144.652L251.715 144.652L251.102 146.095L249.982 146.095L252.8 139.709L253.904 139.709L256.697 146.095L255.547 146.095L254.936 144.652Z" fill="#000000" fill-rule="nonzero" opacity="1" stroke="none"/>
<path d="M258.993 139.709L262.415 144.297L262.415 139.709L263.475 139.709L263.475 146.096L262.415 146.096L259.011 141.515L259.011 146.096L257.935 146.096L257.935 139.709L258.993 139.709Z" fill="#000000" fill-rule="nonzero" opacity="1" stroke="none"/>
<path d="M269.267 143.695L268.061 140.858L266.857 143.695L269.267 143.695ZM269.677 144.652L266.456 144.652L265.845 146.095L264.723 146.095L267.541 139.709L268.645 139.709L271.438 146.095L270.288 146.095L269.677 144.652Z" fill="#000000" fill-rule="nonzero" opacity="1" stroke="none"/>
<path d="M277.514 142.911C277.514 141.607 276.538 140.676 275.279 140.676L273.754 140.676L273.754 145.129L275.325 145.129C276.565 145.129 277.514 144.206 277.514 142.911M278.599 142.902C278.599 144.746 277.204 146.096 275.268 146.096L272.678 146.096L272.678 139.708L275.296 139.708C277.213 139.708 278.599 141.05 278.599 142.902" fill="#000000" fill-rule="nonzero" opacity="1" stroke="none"/>
<path d="M283.69 143.695L282.484 140.858L281.28 143.695L283.69 143.695ZM284.1 144.652L280.879 144.652L280.268 146.095L279.146 146.095L281.964 139.709L283.068 139.709L285.861 146.095L284.711 146.095L284.1 144.652Z" fill="#000000" fill-rule="nonzero" opacity="1" stroke="none"/>
<g opacity="1">
<path d="M88.201 163.263L86.3093 163.263L86.3093 166.362L88.201 166.362C89.398 166.362 90.0678 165.848 90.0678 164.795C90.0678 163.765 89.398 163.263 88.201 163.263" fill="#000000" fill-rule="nonzero" opacity="1" stroke="none"/>
<path d="M58.7769 167.092L61.7214 167.092L60.2607 163.574L58.7769 167.092Z" fill="#000000" fill-rule="nonzero" opacity="1" stroke="none"/>
<path d="M201.164 167.092L204.108 167.092L202.649 163.574L201.164 167.092Z" fill="#000000" fill-rule="nonzero" opacity="1" stroke="none"/>
<path d="M234.754 163.251C233.198 163.251 231.905 164.471 231.905 166.051C231.905 167.631 233.209 168.874 234.754 168.874C236.285 168.874 237.554 167.631 237.554 166.051C237.554 164.471 236.285 163.251 234.754 163.251" fill="#000000" fill-rule="nonzero" opacity="1" stroke="none"/>
<path d="M174.922 164.244C174.922 163.61 174.42 163.25 173.593 163.25L171.559 163.25L171.559 165.284L173.593 165.284C174.42 165.284 174.922 164.901 174.922 164.244" fill="#000000" fill-rule="nonzero" opacity="1" stroke="none"/>
<path d="M137.216 163.263L135.324 163.263L135.324 166.362L137.216 166.362C138.413 166.362 139.083 165.848 139.083 164.795C139.083 163.765 138.413 163.263 137.216 163.263" fill="#000000" fill-rule="nonzero" opacity="1" stroke="none"/>
<path d="M107.229 167.092L110.174 167.092L108.713 163.574L107.229 167.092Z" fill="#000000" fill-rule="nonzero" opacity="1" stroke="none"/>
<path d="M173.594 166.627L171.558 166.627L171.558 168.852L173.594 168.852C174.611 168.852 175.222 168.444 175.222 167.726C175.222 167.044 174.611 166.627 173.594 166.627" fill="#000000" fill-rule="nonzero" opacity="1" stroke="none"/>
<path d="M222.536 163.263L220.788 163.263L220.788 166.362L222.536 166.362C223.733 166.362 224.415 165.848 224.415 164.795C224.415 163.765 223.733 163.263 222.536 163.263" fill="#000000" fill-rule="nonzero" opacity="1" stroke="none"/>
<path d="M32.1878 163.263L30.2961 163.263L30.2961 166.362L32.1878 166.362C33.3849 166.362 34.0547 165.848 34.0547 164.795C34.0547 163.765 33.3849 163.263 32.1878 163.263" fill="#000000" fill-rule="nonzero" opacity="1" stroke="none"/>
<path d="M323.484 163.286L320.874 163.286L320.874 170.24L319.259 170.24L319.259 163.286L316.649 163.286L316.649 161.863L323.484 161.863L323.484 163.286ZM312.857 170.299C311.517 170.299 310.211 169.761 309.313 168.959L309.985 167.607C310.845 168.373 311.982 168.84 312.88 168.84C313.777 168.84 314.317 168.505 314.317 167.917C314.317 166.172 309.816 167.164 309.816 164.184C309.816 162.725 311.073 161.79 312.953 161.79C314.064 161.79 315.178 162.149 315.979 162.677L315.334 164.064C314.437 163.526 313.468 163.25 312.821 163.25C312.067 163.25 311.576 163.526 311.576 164.041C311.576 165.741 316.075 164.818 316.063 167.823C316.063 169.39 314.7 170.299 312.857 170.299M308.442 170.24L302.158 170.24L302.158 161.863L308.298 161.863L308.298 163.263L303.761 163.263L303.761 165.333L307.831 165.333L307.831 166.733L303.761 166.733L303.761 168.84L308.442 168.84L308.442 170.24ZM298.462 170.24L296.798 170.24L294.931 163.956L293.039 170.24L291.388 170.24L288.613 161.863L290.335 161.863L292.263 168.457L294.176 161.863L295.756 161.863L297.683 168.457L299.588 161.863L301.239 161.863L298.462 170.24ZM285.586 167.582L280.74 167.582L280.74 166.505L285.586 166.505L285.586 167.582ZM274.122 167.775L272.291 167.775L272.291 170.24L270.686 170.24L270.686 161.863L274.122 161.863C276.228 161.863 277.437 162.905 277.437 164.747C277.437 166.661 276.228 167.775 274.122 167.775M268.628 170.24L267.025 170.24L267.025 161.863L268.628 161.863L268.628 170.24ZM264.957 170.24L263.352 170.24L263.352 166.841L259.175 166.841L259.175 170.24L257.572 170.24L257.572 161.863L259.175 161.863L259.175 165.441L263.352 165.441L263.352 161.863L264.957 161.863L264.957 170.24ZM252.846 170.299C251.505 170.299 250.199 169.761 249.303 168.959L249.973 167.607C250.835 168.373 251.971 168.84 252.869 168.84C253.767 168.84 254.305 168.505 254.305 167.917C254.305 166.172 249.805 167.164 249.805 164.184C249.805 162.725 251.061 161.79 252.94 161.79C254.054 161.79 255.167 162.149 255.969 162.677L255.322 164.064C254.426 163.526 253.455 163.25 252.81 163.25C252.055 163.25 251.564 163.526 251.564 164.041C251.564 165.741 256.065 164.818 256.052 167.823C256.052 169.39 254.688 170.299 252.846 170.299M248.001 170.24L246.48 170.24L242.173 164.52L242.173 170.24L240.603 170.24L240.603 161.863L242.124 161.863L246.444 167.595L246.444 161.863L248.001 161.863L248.001 170.24ZM234.73 170.311C232.204 170.311 230.264 168.457 230.264 166.05C230.264 163.633 232.204 161.815 234.73 161.815C237.254 161.815 239.192 163.646 239.192 166.05C239.192 168.457 237.254 170.311 234.73 170.311M228.864 170.24L227.261 170.24L227.261 161.863L228.864 161.863L228.864 170.24ZM222.619 167.775L220.788 167.775L220.788 170.24L219.185 170.24L219.185 161.863L222.619 161.863C224.726 161.863 225.936 162.905 225.936 164.747C225.936 166.661 224.726 167.775 222.619 167.775M217.117 170.24L215.656 170.24L215.644 164.257L213.166 169.38L212.125 169.38L209.648 164.257L209.648 170.24L208.164 170.24L208.164 161.863L210.018 161.863L212.651 167.235L215.273 161.863L217.117 161.863L217.117 170.24ZM205.424 170.24L204.683 168.468L200.59 168.468L199.847 170.24L198.183 170.24L201.858 161.863L203.522 161.863L207.148 170.24L205.424 170.24ZM197.157 170.24L195.552 170.24L195.552 166.841L191.375 166.841L191.375 170.24L189.772 170.24L189.772 161.863L191.375 161.863L191.375 165.441L195.552 165.441L195.552 161.863L197.157 161.863L197.157 170.24ZM185.153 170.311C182.688 170.311 180.785 168.457 180.785 166.04C180.785 163.646 182.711 161.815 185.213 161.815C186.41 161.815 187.631 162.329 188.445 163.156L187.511 164.328C186.913 163.658 186.061 163.238 185.237 163.238C183.657 163.238 182.426 164.458 182.426 166.015C182.426 167.582 183.657 168.804 185.237 168.804C186.038 168.804 186.888 168.434 187.511 167.823L188.455 168.876C187.595 169.75 186.362 170.311 185.153 170.311M173.785 170.24L169.957 170.24L169.957 161.863L173.678 161.863C175.461 161.863 176.562 162.664 176.562 163.956C176.562 164.878 176.011 165.584 175.101 165.812C176.202 166.015 176.886 166.816 176.886 167.93C176.886 169.365 175.699 170.24 173.785 170.24M168.067 166.745C168.067 168.947 166.666 170.311 164.394 170.311C162.106 170.311 160.671 168.947 160.671 166.745L160.671 161.863L162.276 161.863L162.276 166.745C162.276 168.074 163.125 168.876 164.394 168.876C165.662 168.876 166.463 168.085 166.463 166.745L166.463 161.863L168.067 161.863L168.067 166.745ZM159.582 170.24L154.363 170.24L154.363 161.863L155.968 161.863L155.968 168.792L159.582 168.792L159.582 170.24ZM149.744 170.311C147.279 170.311 145.376 168.457 145.376 166.04C145.376 163.646 147.304 161.815 149.806 161.815C151.002 161.815 152.222 162.329 153.036 163.156L152.103 164.328C151.504 163.658 150.654 163.238 149.828 163.238C148.25 163.238 147.017 164.458 147.017 166.015C147.017 167.582 148.25 168.804 149.828 168.804C150.631 168.804 151.481 168.434 152.103 167.823L153.047 168.876C152.186 169.75 150.954 170.311 149.744 170.311M143.976 170.24L142.373 170.24L142.373 161.863L143.976 161.863L143.976 170.24ZM138.964 170.24L137.515 167.762C137.419 167.775 137.323 167.775 137.216 167.775L135.324 167.775L135.324 170.24L133.721 170.24L133.721 161.863L137.216 161.863C139.382 161.863 140.615 162.905 140.615 164.747C140.615 166.063 140.029 167.009 138.951 167.463L140.795 170.24L138.964 170.24ZM132.587 163.286L129.977 163.286L129.977 170.24L128.361 170.24L128.361 163.286L125.752 163.286L125.752 161.863L132.587 161.863L132.587 163.286ZM121.626 170.24L120.105 170.24L115.798 164.52L115.798 170.24L114.23 170.24L114.23 161.863L115.75 161.863L120.069 167.595L120.069 161.863L121.626 161.863L121.626 170.24ZM111.489 170.24L110.748 168.468L106.654 168.468L105.913 170.24L104.25 170.24L107.923 161.863L109.586 161.863L113.213 170.24L111.489 170.24ZM100.731 170.311C98.2643 170.311 96.3619 168.457 96.3619 166.04C96.3619 163.646 98.2893 161.815 100.792 161.815C101.987 161.815 103.207 162.329 104.022 163.156L103.09 164.328C102.49 163.658 101.64 163.238 100.815 163.238C99.2351 163.238 98.0025 164.458 98.0025 166.015C98.0025 167.582 99.2351 168.804 100.815 168.804C101.617 168.804 102.466 168.434 103.09 167.823L104.034 168.876C103.172 169.75 101.939 170.311 100.731 170.311M94.9618 170.24L93.3586 170.24L93.3586 161.863L94.9618 161.863L94.9618 170.24ZM89.9492 170.24L88.501 167.762C88.4048 167.775 88.3086 167.775 88.2017 167.775L86.31 167.775L86.31 170.24L84.7068 170.24L84.7068 161.863L88.2017 161.863C90.3678 161.863 91.6005 162.905 91.6005 164.747C91.6005 166.063 91.0144 167.009 89.9367 167.463L91.7804 170.24L89.9492 170.24ZM83.0805 170.24L76.7978 170.24L76.7978 161.863L82.9362 161.863L82.9362 163.263L78.401 163.263L78.401 165.333L82.4713 165.333L82.4713 166.733L78.401 166.733L78.401 168.84L83.0805 168.84L83.0805 170.24ZM74.7297 170.24L73.269 170.24L73.2566 164.257L70.7788 169.38L69.7385 169.38L67.2607 164.257L67.2607 170.24L65.7769 170.24L65.7769 161.863L67.6312 161.863L70.264 167.235L72.8861 161.863L74.7297 161.863L74.7297 170.24ZM63.0372 170.24L62.2944 168.468L58.2028 168.468L57.46 170.24L55.7962 170.24L59.471 161.863L61.1348 161.863L64.7615 170.24L63.0372 170.24ZM51.7669 170.24L50.1619 170.24L50.1619 166.841L45.9848 166.841L45.9848 170.24L44.3816 170.24L44.3816 161.863L45.9848 161.863L45.9848 165.441L50.1619 165.441L50.1619 161.863L51.7669 161.863L51.7669 170.24ZM43.2469 163.286L40.6373 163.286L40.6373 170.24L39.0217 170.24L39.0217 163.286L36.412 163.286L36.412 161.863L43.2469 161.863L43.2469 163.286ZM33.936 170.24L32.4878 167.762C32.3916 167.775 32.2954 167.775 32.1886 167.775L30.2968 167.775L30.2968 170.24L28.6936 170.24L28.6936 161.863L32.1886 161.863C34.3546 161.863 35.5873 162.905 35.5873 164.747C35.5873 166.063 35.0012 167.009 33.9236 167.463L35.7672 170.24L33.936 170.24ZM22.8189 170.311C20.293 170.311 18.3549 168.457 18.3549 166.05C18.3549 163.633 20.293 161.815 22.8189 161.815C25.3448 161.815 27.2828 163.646 27.2828 166.05C27.2828 168.457 25.3448 170.311 22.8189 170.311M16.9566 170.24L15.4372 170.24L11.1282 164.52L11.1282 170.24L9.56063 170.24L9.56063 161.863L11.0801 161.863L15.3997 167.595L15.3997 161.863L16.9566 161.863L16.9566 170.24ZM1.81729 173.878L330.465 173.878L330.465 157.171L1.81729 157.171L1.81729 173.878Z" fill="#000000" fill-rule="nonzero" opacity="1" stroke="none"/>
<path d="M22.8433 163.251C21.2864 163.251 19.995 164.471 19.995 166.051C19.995 167.631 21.2989 168.874 22.8433 168.874C24.3752 168.874 25.6435 167.631 25.6435 166.051C25.6435 164.471 24.3752 163.251 22.8433 163.251" fill="#000000" fill-rule="nonzero" opacity="1" stroke="none"/>
<path d="M274.038 163.263L272.291 163.263L272.291 166.362L274.038 166.362C275.235 166.362 275.918 165.848 275.918 164.795C275.918 163.765 275.235 163.263 274.038 163.263" fill="#000000" fill-rule="nonzero" opacity="1" stroke="none"/>
</g>
<g opacity="1">
<path d="M292.92 146.261C291.504 141.269 293.674 137.521 294.42 136.433C291.853 123.716 298.373 116.409 299.39 115.362C299.721 114.411 299.06 111.887 297.979 110.836C297.096 109.952 296.789 109.329 296.946 108.744C297.057 108.328 297.379 108.103 297.643 108.032C298.177 107.872 298.74 107.786 299.296 107.786C302.258 107.786 304.287 110.116 305.263 111.236C305.749 111.794 306.075 111.944 306.186 111.963C309.221 111.208 312.114 110.823 314.784 110.823C320.276 110.823 323.498 112.441 324.711 113.05C326.774 114.083 329.353 116.81 329.462 116.926C329.733 117.179 329.893 117.565 329.879 117.977C329.849 118.914 328.935 119.732 328.657 119.961L328.607 120L328.554 120.031C325.753 121.671 321.409 122.847 317.166 123.975C315.333 126.832 314.946 127.27 314.729 127.452L314.576 127.571C313.352 128.533 311.546 129.81 309.999 129.81C309.914 129.81 309.828 129.807 309.747 129.799C309.216 129.73 308.772 129.383 308.501 128.845C308.175 128.193 308.129 127.352 308.35 126.44C305.997 127.234 304.413 128.006 303.526 128.788C300.851 131.223 299.392 134.333 298.865 135.624C301.681 137.342 302.272 139.142 302.333 139.354L302.625 140.363L301.576 140.379C300.774 140.391 299.974 140.899 299.392 141.271C298.98 141.531 298.683 141.722 298.36 141.782L298.284 141.797L298.147 141.802C298.045 141.802 297.949 141.789 297.855 141.768C297.639 142.172 297.295 142.582 296.766 142.935C295.993 143.45 294.915 145.322 294.417 146.382L293.506 148.323L292.92 146.261Z" fill="#ffffff" fill-rule="nonzero" opacity="1" stroke="none"/>
<path d="M293.692 146.042C293.692 146.042 295.074 143.097 296.321 142.267C297.568 141.437 297.356 140.344 297.356 140.344C297.356 140.344 297.675 141.053 298.209 140.997C298.733 140.894 300.026 139.603 301.565 139.578C301.565 139.578 301.018 137.686 297.876 135.979C297.876 135.979 299.329 131.524 302.995 128.184C304.315 127.023 306.757 126.052 309.718 125.163C308.471 127.402 309.125 128.908 309.823 129C311.394 129.152 313.74 127.201 314.214 126.838C314.565 126.544 315.995 124.315 316.658 123.28C321.017 122.123 325.377 120.963 328.149 119.34C328.149 119.34 329.599 118.152 328.878 117.475C328.878 117.475 326.311 114.748 324.351 113.766C322.392 112.783 316.845 110.133 306.369 112.744C306.369 112.744 305.737 113.001 304.689 111.798C303.638 110.594 301.239 107.79 297.851 108.806C297.851 108.806 297.247 108.968 298.539 110.261C299.825 111.511 300.685 114.566 300.065 115.82C300.065 115.82 292.414 123.195 295.275 136.617C295.275 136.617 292.131 140.536 293.692 146.042" fill="#010101" fill-rule="nonzero" opacity="1" stroke="none"/>
<path d="M297.956 130.535C298.626 129.77 299.497 128.876 299.759 128.826C300.24 128.732 300.705 129.731 300.705 129.731C300.705 129.731 302.577 127.211 304.645 126.402C304.645 126.402 302.459 126.598 301.643 125.894C300.856 125.214 298.943 124.724 297.263 127.025C297.124 127.216 297.01 127.424 296.914 127.64C296.691 128.139 296.324 129.088 296.299 129.947C296.321 130.759 297.402 131.187 297.956 130.535" fill="#ffffff" fill-rule="nonzero" opacity="1" stroke="none"/>
<path d="M302.759 115.206C302.444 115.238 301.439 115.704 300.764 116.032C300.313 116.249 299.918 116.561 299.601 116.948C298.815 117.906 298.129 118.957 298.129 118.957C299.15 118.084 299.228 119.222 299.592 119.698C299.955 120.172 300.32 119.26 301.491 118.036C302.745 116.819 303.292 115.149 302.759 115.206" fill="#ffffff" fill-rule="nonzero" opacity="1" stroke="none"/>
<path d="M327.34 119.31C328.129 118.927 328.65 118.088 328.65 118.088C325.937 119.581 320.992 118.458 318.421 119.046C316.588 119.445 315.122 120.329 314.445 120.829C314.244 120.959 314.305 121.271 314.506 121.371C315.039 121.594 315.368 121.827 315.951 122.098C316.738 122.461 317.812 122.502 318.644 122.262C322.903 121.022 326.583 119.666 327.34 119.31" fill="#ffffff" fill-rule="nonzero" opacity="1" stroke="none"/>
<path d="M318.741 116.436C317.298 115.403 314.663 115.998 313.963 116.133C313.256 116.224 312.606 116.849 313.53 116.943C314.499 117.027 315.467 117.567 315.467 117.567C317.636 118.465 319.231 117.793 319.353 117.497C319.462 117.113 318.99 116.614 318.741 116.436" fill="#ffffff" fill-rule="nonzero" opacity="1" stroke="none"/>
</g>
<path d="M331.547 87.2995C331.547 85.4897 333.002 84.0273 334.798 84.0273C336.581 84.0273 338.043 85.4897 338.043 87.2995C338.043 89.0987 336.581 90.5629 334.798 90.5629C333.002 90.5629 331.547 89.0987 331.547 87.2995M330.59 87.2995C330.59 89.6259 332.477 91.5212 334.798 91.5212C337.112 91.5212 339 89.6259 339 87.2995C339 84.9625 337.112 83.0654 334.798 83.0654C332.477 83.0654 330.59 84.9625 330.59 87.2995" fill="#000000" fill-rule="nonzero" opacity="1" stroke="none"/>
<path d="M333.926 89.7631L333.926 87.6594L334.111 87.6594C334.316 87.6594 334.468 87.6754 334.558 87.7146C334.656 87.7555 334.746 87.8215 334.831 87.9283C334.909 88.0263 335.064 88.2703 335.312 88.6658L335.959 89.7631L337.033 89.7631L336.484 88.7887C336.263 88.3897 336.098 88.1189 335.969 87.9586C335.845 87.8036 335.684 87.6683 335.488 87.5382C335.862 87.4812 336.151 87.3298 336.359 87.084C336.557 86.8471 336.659 86.5282 336.659 86.1346C336.659 85.8228 336.593 85.5592 336.461 85.3383C336.333 85.1139 336.158 84.9625 335.951 84.8627C335.741 84.7754 335.403 84.7273 334.922 84.7273L333.041 84.7273L333.041 89.7631L333.926 89.7631ZM333.926 85.5806L334.628 85.5806C335.031 85.5806 335.271 85.5877 335.355 85.6162C335.471 85.6536 335.568 85.7213 335.634 85.8175C335.704 85.9155 335.731 86.0419 335.731 86.204C335.731 86.3679 335.704 86.5033 335.634 86.6084C335.568 86.7028 335.472 86.774 335.36 86.8043C335.257 86.8364 334.995 86.8542 334.592 86.8542L333.926 86.8542L333.926 85.5806Z" fill="#000000" fill-rule="nonzero" opacity="1" stroke="none"/>
</g>
</g>
</svg>
