<?xml version="1.0" encoding="UTF-8" standalone="no"?>
<!DOCTYPE svg PUBLIC "-//W3C//DTD SVG 1.1//EN" "http://www.w3.org/Graphics/SVG/1.1/DTD/svg11.dtd">
<!-- Created with Vectornator (http://vectornator.io/) -->
<svg height="100%" stroke-miterlimit="10" style="fill-rule:nonzero;clip-rule:evenodd;stroke-linecap:round;stroke-linejoin:round;" version="1.1" viewBox="0 0 340 150" width="100%" xml:space="preserve" xmlns="http://www.w3.org/2000/svg" xmlns:vectornator="http://vectornator.io" xmlns:xlink="http://www.w3.org/1999/xlink">
<defs/>
<g id="Layer-1" vectornator:layerName="Layer 1">
<g opacity="1">
<path d="M330.615 87.2019C330.615 89.5224 332.497 91.4114 334.812 91.4114C337.118 91.4114 339 89.5224 339 87.2019C339 84.8713 337.118 82.9789 334.812 82.9789C332.497 82.9789 330.615 84.8713 330.615 87.2019M331.568 87.2019C331.568 85.3969 333.021 83.9377 334.812 83.9377C336.589 83.9377 338.046 85.3969 338.046 87.2019C338.046 88.9969 336.589 90.456 334.812 90.456C333.021 90.456 331.568 88.9969 331.568 87.2019" fill="#000000" fill-rule="nonzero" opacity="1" stroke="none" vectornator:layerName="path"/>
<path d="M333.942 85.4873L334.642 85.4873C335.043 85.4873 335.283 85.4957 335.366 85.5243C335.483 85.5612 335.58 85.6284 335.646 85.7241C335.715 85.8215 335.742 85.9474 335.742 86.1086C335.742 86.2732 335.715 86.4075 335.646 86.5133C335.58 86.6073 335.485 86.6778 335.372 86.7097C335.268 86.7399 335.008 86.7584 334.607 86.7584L333.942 86.7584L333.942 85.4873ZM333.942 89.6582L333.942 87.5594L334.126 87.5594C334.33 87.5594 334.481 87.5778 334.573 87.6148C334.67 87.6567 334.758 87.7222 334.843 87.828C334.922 87.9271 335.077 88.1705 335.324 88.5635L335.968 89.6582L337.04 89.6582L336.494 88.686C336.272 88.2881 336.108 88.0194 335.978 87.8582C335.854 87.7054 335.695 87.5694 335.498 87.4401C335.873 87.383 336.16 87.2319 336.368 86.9868C336.564 86.7517 336.665 86.4327 336.665 86.0398C336.665 85.7308 336.601 85.4672 336.469 85.2455C336.341 85.0222 336.167 84.8711 335.962 84.772C335.75 84.6864 335.413 84.6377 334.936 84.6377L333.058 84.6377L333.058 89.6582L333.942 89.6582Z" fill="#000000" fill-rule="nonzero" opacity="1" stroke="none" vectornator:layerName="path"/>
<path d="M310.01 40.0058L310.022 55.4049L303.672 40.0058L284.043 40.0058L283.885 91.3497L302.663 91.3497L302.636 71.6772L303.249 71.6772L310.684 91.3497L329.119 91.3497L329.12 40.0058L310.01 40.0058Z" fill="#000000" fill-rule="nonzero" opacity="1" stroke="none" vectornator:layerName="path"/>
<path d="M261.69 91.3374L282.313 91.3374L273.212 40.0052L240.736 40.0052L232.374 91.3374L253.397 91.3374L254.527 79.1504L259.989 79.1504L261.69 91.3374ZM255.482 67.8164L256.837 54.9644L257.543 54.9644L258.948 67.8164L255.482 67.8164Z" fill="#000000" fill-rule="nonzero" opacity="1" stroke="none" vectornator:layerName="path"/>
<path d="M195.308 91.3487L188.369 72.2606L188.367 91.3487L170.211 91.3487L170.142 40.0048L230.902 40.0048L230.969 91.3487L212.949 91.3487L212.946 72.2472L206.352 91.3487L195.308 91.3487Z" fill="#000000" fill-rule="nonzero" opacity="1" stroke="none" vectornator:layerName="path"/>
<path d="M185.633 22.1813C185.633 14.0661 192.323 7.48736 200.653 7.48736C208.95 7.48736 215.686 14.0661 215.686 22.1813C215.686 30.3149 208.95 36.9138 200.653 36.9138C192.323 36.9138 185.633 30.3149 185.633 22.1813" fill="#000000" fill-rule="nonzero" opacity="1" stroke="none" vectornator:layerName="path"/>
<path d="M148.179 40.0058L148.179 53.8534L147.462 53.756L142.104 40.0058L121.991 40.0058L121.97 91.3497L140.787 91.3497L140.796 72.6511L141.503 72.6511L148.251 91.3497L167.304 91.3497L167.279 40.0058L148.179 40.0058Z" fill="#000000" fill-rule="nonzero" opacity="1" stroke="none" vectornator:layerName="path"/>
<path d="M104.729 40.0058L87.6944 40.0058C76.0699 39.7556 73.3363 46.0506 73.3363 52.9853L73.3363 78.9595C73.0962 87.1418 78.6306 91.5075 87.6944 91.3497L104.729 91.3497C116.634 91.5075 119.08 85.906 119.08 78.9595L119.08 52.9853C119.08 46.0506 116.234 39.7556 104.729 40.0058M98.7967 77.0218C98.7967 78.6824 97.3476 80.0324 95.5577 80.0324C93.7695 80.0324 92.3237 78.6824 92.3237 77.0218L92.3237 54.0801C92.3237 52.4077 93.7695 51.0577 95.5577 51.0577C97.3476 51.0577 98.7967 52.4077 98.7967 54.0801L98.7967 77.0218Z" fill="#000000" fill-rule="nonzero" opacity="1" stroke="none" vectornator:layerName="path"/>
<path d="M70.2624 69.1702C69.8964 68.1594 69.2986 67.167 68.5094 66.3442C66.9562 64.7256 65.6113 64.326 64.6693 63.5149C66.7598 62.3043 68.1081 61.8644 69.5924 58.9981C71.2951 55.7004 71.2111 51.15 70.5999 47.607C70.2087 45.3704 68.7797 43.1926 67.2299 41.6076L66.2208 40.8049L64.6021 40.1971L62.4528 40.0057L25.5325 40.0057L25.5107 91.3479L45.7893 91.3479C45.7742 84.4887 45.7893 70.1508 45.7893 70.1038C45.7893 70.1273 47.7623 70.087 47.9554 70.1139C51.1927 70.6562 50.4623 74.9111 50.4489 78.0006C50.4287 81.5738 50.4573 91.3479 50.4539 91.3479L70.6033 91.3479C70.6217 91.3479 70.5562 79.3691 70.5562 78.3415C70.5495 75.3258 71.285 72.0079 70.2624 69.1702M49.3726 57.7841C48.2156 58.4407 46.7414 58.35 45.7339 58.3869L45.7339 51.2473L48.1569 51.38C48.1569 51.38 49.3625 52.1154 49.3726 52.1255C51.406 54.0078 49.8461 57.5172 49.3726 57.7841" fill="#000000" fill-rule="nonzero" opacity="1" stroke="none" vectornator:layerName="path"/>
<path d="M22.2327 91.3487L2.27982 91.3487L2.27982 40.0048L22.221 40.0048L22.2327 91.3487Z" fill="#000000" fill-rule="nonzero" opacity="1" stroke="none" vectornator:layerName="path"/>
<path d="M104.95 117.824L96.3714 117.824L94.7427 121.664L91.7539 121.664L99.2629 104.651L102.205 104.651L109.641 121.664L106.579 121.664L104.95 117.824ZM103.857 115.272L100.65 107.714L97.441 115.272L103.857 115.272Z" fill="#000000" fill-rule="nonzero" opacity="1" stroke="none" vectornator:layerName="path"/>
<path d="M91.3448 113.157C91.3448 118.067 87.6256 121.664 82.4724 121.664L75.5713 121.664L75.5713 104.651L82.5463 104.651C87.6508 104.651 91.3448 108.224 91.3448 113.157M88.4517 113.181C88.4517 109.707 85.8525 107.227 82.4976 107.227L78.4392 107.227L78.4392 119.088L82.6202 119.088C85.9247 119.088 88.4517 116.633 88.4517 113.181" fill="#000000" fill-rule="nonzero" opacity="1" stroke="none" vectornator:layerName="path"/>
<path d="M68.6239 117.824L60.0453 117.824L58.4166 121.664L55.4278 121.664L62.9368 104.651L65.8786 104.651L73.3154 121.664L70.2527 121.664L68.6239 117.824ZM67.5308 115.272L64.322 107.714L61.1149 115.272L67.5308 115.272Z" fill="#000000" fill-rule="nonzero" opacity="1" stroke="none" vectornator:layerName="path"/>
<path d="M41.2144 104.651L50.3287 116.877L50.3287 104.651L53.1479 104.651L53.1479 121.664L50.3287 121.664L41.2631 109.463L41.2631 121.664L38.3952 121.664L38.3952 104.651L41.2144 104.651Z" fill="#000000" fill-rule="nonzero" opacity="1" stroke="none" vectornator:layerName="path"/>
<path d="M31.4482 117.824L22.8696 117.824L21.2409 121.664L18.2521 121.664L25.7611 104.651L28.7029 104.651L36.1397 121.664L33.077 121.664L31.4482 117.824ZM30.3551 115.272L27.148 107.714L23.9392 115.272L30.3551 115.272Z" fill="#000000" fill-rule="nonzero" opacity="1" stroke="none" vectornator:layerName="path"/>
<path d="M11.2319 107.13C7.82998 107.13 5.15515 109.754 5.15515 113.109C5.15515 116.462 7.82998 119.112 11.2319 119.112C12.9328 119.112 14.6824 118.335 15.972 117.095L17.6729 118.989C15.9468 120.692 13.4919 121.785 11.0858 121.785C6.10385 121.785 2.23853 118.019 2.23853 113.133C2.23853 108.297 6.15254 104.578 11.1832 104.578C13.5893 104.578 15.9955 105.575 17.6494 107.202L15.972 109.293C14.7311 107.956 12.9563 107.13 11.2319 107.13" fill="#000000" fill-rule="nonzero" opacity="1" stroke="none" vectornator:layerName="path"/>
<path d="M322.366 107.13C318.964 107.13 316.29 109.754 316.29 113.109C316.29 116.462 318.964 119.112 322.366 119.112C324.067 119.112 325.817 118.335 327.106 117.095L328.807 118.989C327.081 120.692 324.626 121.785 322.22 121.785C317.238 121.785 313.375 118.019 313.375 113.133C313.375 108.297 317.287 104.578 322.318 104.578C324.724 104.578 327.13 105.575 328.784 107.202L327.106 109.293C325.865 107.956 324.091 107.13 322.366 107.13" fill="#000000" fill-rule="nonzero" opacity="1" stroke="none" vectornator:layerName="path"/>
<path d="M310.728 108.904C310.728 110.823 309.587 112.257 307.74 112.696C310.023 113.085 311.385 114.712 311.385 116.998C311.385 119.914 309.028 121.664 305.187 121.664L297.628 121.664L297.628 104.651L305.016 104.651C308.541 104.651 310.728 106.255 310.728 108.904M307.788 109.415C307.788 107.981 306.694 107.203 304.872 107.203L300.496 107.203L300.496 111.698L304.872 111.698C306.694 111.698 307.788 110.849 307.788 109.415M308.443 116.633C308.443 115.125 307.108 114.227 304.872 114.227L300.496 114.227L300.496 119.112L304.872 119.112C307.108 119.112 308.443 118.237 308.443 116.633" fill="#000000" fill-rule="nonzero" opacity="1" stroke="none" vectornator:layerName="path"/>
<path d="M128.734 128.528L129.021 121.349L128.877 121.215L128.59 121.071L128.034 121.071L122.179 122.209L122.946 120.38L122.946 119.806L122.946 119.521L122.659 119.093L115.74 113.901L117.294 113.335L117.444 113.182L117.718 112.761L117.718 112.341L116.451 108.261L119.843 108.828L120.261 108.828L120.688 108.685L121.103 108.12L121.595 106.728L124.558 110.255L124.745 110.405L124.896 110.497L125.055 110.532L125.275 110.517L125.418 110.457L125.542 110.348L125.604 110.223L125.638 110.032L125.584 109.799L124.107 102.065L126.043 103.346L126.756 103.489L127.176 103.195L127.466 102.928L129.585 98.1288L131.567 102.928L131.852 103.195L132.274 103.489L132.994 103.346L134.925 102.065L133.451 109.799L133.39 110.032L133.432 110.223L133.479 110.348L133.607 110.457L133.753 110.517L133.971 110.532L134.143 110.497L134.292 110.405L134.468 110.255L137.439 106.728L137.927 108.12L138.352 108.685L138.772 108.828L139.193 108.828L142.58 108.261L141.319 112.341L141.319 112.761L141.589 113.182L141.732 113.335L143.294 113.901L136.376 119.093L136.08 119.521L136.08 119.806L136.08 120.38L136.849 122.209L130.991 121.071L130.445 121.071L130.151 121.215L130.007 121.349L130.302 128.528L128.734 128.528Z" fill="#000000" fill-rule="nonzero" opacity="1" stroke="none" vectornator:layerName="path"/>
<path d="M274.935 104.651L284.049 116.877L284.049 104.651L286.868 104.651L286.868 121.664L284.049 121.664L274.983 109.463L274.983 121.664L272.115 121.664L272.115 104.651L274.935 104.651Z" fill="#000000" fill-rule="nonzero" opacity="1" stroke="none" vectornator:layerName="path"/>
<path d="M269.059 113.157C269.059 118.018 265.121 121.785 260.042 121.785C254.963 121.785 251.025 118.018 251.025 113.157C251.025 108.273 254.963 104.577 260.042 104.577C265.121 104.577 269.059 108.296 269.059 113.157M253.94 113.157C253.94 116.536 256.736 119.209 260.066 119.209C263.395 119.209 266.117 116.536 266.117 113.157C266.117 109.779 263.395 107.155 260.066 107.155C256.712 107.155 253.94 109.779 253.94 113.157" fill="#000000" fill-rule="nonzero" opacity="1" stroke="none" vectornator:layerName="path"/>
<path d="M251.004 104.651L251.004 107.227L245.609 107.227L245.609 121.664L242.741 121.664L242.741 107.227L237.37 107.227L237.37 104.651L251.004 104.651Z" fill="#000000" fill-rule="nonzero" opacity="1" stroke="none" vectornator:layerName="path"/>
<path d="M230.034 107.13C226.632 107.13 223.957 109.754 223.957 113.109C223.957 116.462 226.632 119.112 230.034 119.112C231.735 119.112 233.484 118.335 234.774 117.095L236.475 118.989C234.749 120.692 232.294 121.785 229.888 121.785C224.906 121.785 221.042 118.019 221.042 113.133C221.042 108.297 224.955 104.578 229.985 104.578C232.391 104.578 234.797 105.575 236.45 107.202L234.774 109.293C233.533 107.956 231.758 107.13 230.034 107.13" fill="#000000" fill-rule="nonzero" opacity="1" stroke="none" vectornator:layerName="path"/>
<path d="M217.981 121.663L215.113 121.663L215.113 104.65L217.981 104.65L217.981 121.663Z" fill="#000000" fill-rule="nonzero" opacity="1" stroke="none" vectornator:layerName="path"/>
<path d="M212.662 104.651L212.662 107.227L207.267 107.227L207.267 121.664L204.399 121.664L204.399 107.227L199.028 107.227L199.028 104.651L212.662 104.651Z" fill="#000000" fill-rule="nonzero" opacity="1" stroke="none" vectornator:layerName="path"/>
<path d="M184.62 104.651L193.734 116.877L193.734 104.651L196.553 104.651L196.553 121.664L193.734 121.664L184.669 109.463L184.669 121.664L181.801 121.664L181.801 104.651L184.62 104.651Z" fill="#000000" fill-rule="nonzero" opacity="1" stroke="none" vectornator:layerName="path"/>
<path d="M178.013 104.651L178.013 107.227L168.729 107.227L168.729 111.821L177.041 111.821L177.041 114.397L168.729 114.397L168.729 119.088L178.305 119.088L178.305 121.664L165.861 121.664L165.861 104.651L178.013 104.651Z" fill="#000000" fill-rule="nonzero" opacity="1" stroke="none" vectornator:layerName="path"/>
<path d="M163.023 110.46C163.023 114.3 160.568 116.535 156.29 116.535L152.377 116.535L152.377 121.664L149.509 121.664L149.509 104.652L156.29 104.652C160.568 104.652 163.023 106.766 163.023 110.46M160.276 110.532C160.276 108.297 158.793 107.227 156.169 107.227L152.377 107.227L152.377 113.959L156.169 113.959C158.793 113.959 160.276 112.842 160.276 110.532" fill="#000000" fill-rule="nonzero" opacity="1" stroke="none" vectornator:layerName="path"/>
<path d="M130.5 128.717L128.537 128.717L128.829 121.43L128.767 121.373L128.544 121.26L128.033 121.26L121.866 122.462L122.756 120.343L122.756 119.579L122.519 119.225L115.346 113.842L117.189 113.172L117.309 113.049L117.529 112.705L117.529 112.369L116.179 108.024L119.874 108.642L120.229 108.64L120.569 108.526L120.932 108.03L121.527 106.351L124.703 110.134L124.967 110.319L125.068 110.341L125.231 110.329L125.316 110.294L125.389 110.23L125.422 110.163L125.444 110.037L125.399 109.841L123.835 101.658L126.116 103.168L126.713 103.287L127.066 103.038L127.309 102.815L129.591 97.6468L131.725 102.817L131.982 103.055L132.317 103.287L132.921 103.168L135.195 101.657L133.586 110.035L133.638 110.233L133.707 110.294L133.797 110.329L133.959 110.341L134.073 110.317L134.192 110.244L134.345 110.111L137.507 106.351L138.096 108.029L138.467 108.526L138.803 108.638L139.192 108.638L142.851 108.024L141.508 112.369L141.508 112.705L141.748 113.08L141.837 113.172L143.689 113.842L136.514 119.225L136.269 119.581L136.269 120.343L137.161 122.462L130.955 121.257L130.488 121.26L130.26 121.373L130.199 121.43L130.5 128.717ZM128.931 128.338L130.105 128.338L129.813 121.27L130.068 121.045L130.444 120.882L130.992 120.882L136.536 121.955L135.89 120.382L135.89 119.462L136.262 118.941L142.9 113.959L141.594 113.464L141.451 113.311L141.13 112.816L141.137 112.284L142.309 108.497L139.224 109.016L138.741 109.018L138.235 108.846L137.748 108.183L137.369 107.104L134.612 110.378L134.415 110.549L134.182 110.682L133.984 110.724L133.68 110.692L133.485 110.601L133.302 110.415L133.255 110.291L133.196 110.029L133.269 109.752L134.654 102.471L133.032 103.532L132.233 103.69L131.744 103.349L131.391 103L129.58 98.6106L127.595 103.067L127.303 103.334L126.799 103.69L125.938 103.504L124.378 102.471L125.83 110.027L125.775 110.309L125.667 110.489L125.491 110.631L125.288 110.705L125.041 110.724L124.796 110.658L124.646 110.566L124.44 110.405L121.663 107.102L121.255 108.232L120.803 108.846L120.26 109.018L119.842 109.018L116.723 108.497L117.908 112.341L117.908 112.818L117.604 113.286L117.357 113.513L116.133 113.959L122.816 118.987L123.135 119.464L123.12 120.454L122.49 121.955L127.998 120.886L128.634 120.882L129.005 121.077L129.214 121.27L128.931 128.338Z" fill="#000000" fill-rule="nonzero" opacity="1" stroke="none" vectornator:layerName="path"/>
<path d="M102.562 28.058L88.825 28.058L86.2173 34.2069L81.4302 34.2069L93.456 6.96495L98.1642 6.96495L110.072 34.2069L105.169 34.2069L102.562 28.058ZM100.811 23.971L95.6741 11.8696L90.536 23.971L100.811 23.971Z" fill="#000000" fill-rule="nonzero" opacity="1" stroke="none" vectornator:layerName="path"/>
<path d="M130.968 34.2067L125.986 25.9573C125.598 25.9959 125.17 25.9959 124.742 25.9959L118.281 25.9959L118.281 34.2067L113.688 34.2067L113.688 6.96483L124.742 6.96483C131.707 6.96483 135.715 10.3516 135.715 16.2654C135.715 20.6244 133.692 23.6989 130.073 25.1009L136.182 34.2067L130.968 34.2067ZM124.742 21.8703C128.945 21.8703 131.358 20.0804 131.358 16.383C131.358 12.8031 128.945 11.0904 124.742 11.0904L118.281 11.0904L118.281 21.8703L124.742 21.8703Z" fill="#000000" fill-rule="nonzero" opacity="1" stroke="none" vectornator:layerName="path"/>
<path d="M153.186 30.2762C157.622 30.2762 160.384 27.5527 160.384 22.9217L160.384 6.96513L164.977 6.96513L164.977 22.9217C164.977 30.0429 160.502 34.4018 153.147 34.4018C145.791 34.4018 141.278 30.0429 141.278 22.9217L141.278 6.96513L145.87 6.96513L145.87 22.9217C145.87 27.5124 148.711 30.2762 153.186 30.2762" fill="#000000" fill-rule="nonzero" opacity="1" stroke="none" vectornator:layerName="path"/>
<path d="M78.4751 13.7757C78.4751 16.8501 76.6465 19.1471 73.688 19.8473C77.3467 20.4686 79.5262 23.0763 79.5262 26.7351C79.5262 31.4047 75.7516 34.2071 69.6027 34.2071L57.4996 34.2071L57.4996 6.96519L69.3307 6.96519C74.9725 6.96519 78.4751 9.53423 78.4751 13.7757M73.7669 14.5934C73.7669 12.298 72.0156 11.0521 69.0956 11.0521L62.092 11.0521L62.092 18.2522L69.0956 18.2522C72.0156 18.2522 73.7669 16.8887 73.7669 14.5934M74.818 26.1507C74.818 23.7378 72.6771 22.2988 69.0956 22.2988L62.092 22.2988L62.092 30.1201L69.0956 30.1201C72.6771 30.1201 74.818 28.7198 74.818 26.1507" fill="#000000" fill-rule="nonzero" opacity="1" stroke="none" vectornator:layerName="path"/>
<path d="M39.1343 30.2762C43.5706 30.2762 46.3344 27.5527 46.3344 22.9217L46.3344 6.96513L50.9251 6.96513L50.9251 22.9217C50.9251 30.0429 46.4502 34.4018 39.0957 34.4018C31.7412 34.4018 27.2261 30.0429 27.2261 22.9217L27.2261 6.96513L31.8185 6.96513L31.8185 22.9217C31.8185 27.5124 34.6595 30.2762 39.1343 30.2762" fill="#000000" fill-rule="nonzero" opacity="1" stroke="none" vectornator:layerName="path"/>
<path d="M12.1678 11.0904C9.48288 11.0904 7.73156 12.1029 7.73156 13.9314C7.73156 19.8855 22.4423 16.6936 22.4036 26.5013C22.4036 31.3656 18.1219 34.3629 12.1292 34.3629C7.8491 34.3629 3.80076 32.6115 1 30.0425L2.98303 26.0731C5.78547 28.6421 9.2881 30.0425 12.2064 30.0425C15.3984 30.0425 17.3059 28.8369 17.3059 26.7346C17.3059 20.663 2.59516 24.0497 2.59516 14.3596C2.59516 9.68998 6.6032 6.77 12.5187 6.77C16.06 6.77 19.5223 7.90004 22.0527 9.57244L20.1452 13.6208C17.1883 11.8292 14.2314 11.0904 12.1678 11.0904" fill="#000000" fill-rule="nonzero" opacity="1" stroke="none" vectornator:layerName="path"/>
</g>
</g>
</svg>
