<?xml version="1.0" encoding="UTF-8" standalone="no"?> <!-- Created with Vectornator for iOS (http://vectornator.io/) --><!DOCTYPE svg PUBLIC "-//W3C//DTD SVG 1.1//EN" "http://www.w3.org/Graphics/SVG/1.1/DTD/svg11.dtd">
<svg style="fill-rule:evenodd;clip-rule:evenodd;stroke-linecap:round;stroke-linejoin:round;" xmlns:vectornator="http://vectornator.io" xmlns:xlink="http://www.w3.org/1999/xlink" xmlns="http://www.w3.org/2000/svg" xml:space="preserve" version="1.1" viewBox="0 0 14 14">
<metadata>
<vectornator:setting key="DimensionsVisible" value="1"/>
<vectornator:setting key="New" value="1"/>
<vectornator:setting key="SnapToPoints" value="0"/>
<vectornator:setting key="GuidesVisible" value="1"/>
<vectornator:setting key="RulersVisible" value="1"/>
<vectornator:setting key="CMYKEnabledKey" value="0"/>
<vectornator:setting key="SnapToEdges" value="0"/>
<vectornator:setting key="DisplayWhiteBackground" value="0"/>
<vectornator:setting key="SnapToGuides" value="1"/>
<vectornator:setting key="GridSpacing" value="36"/>
<vectornator:setting key="SnapToGrid" value="0"/>
<vectornator:setting key="Units" value="Pixels"/>
<vectornator:setting key="DynamicGuides" value="0"/>
</metadata>
<defs/>
<g id="Layer 1" vectornator:layerName="Layer 1">
<path d="M622+347C622+352.523+626.477+357+632+357C637.523+357+642+352.523+642+347C642+341.477+637.523+337+632+337C626.477+337+622+341.477+622+347ZM637+344L637+347L632+351L627+347L627+344L632+348L637+344Z" opacity="1" fill="#000000"/>
<path d="M622+347C622+352.523+626.477+357+632+357C637.523+357+642+352.523+642+347C642+341.477+637.523+337+632+337C626.477+337+622+341.477+622+347ZM637+344L637+347L632+351L627+347L627+344L632+348L637+344Z" opacity="1" fill="#000000"/>
<path d="M27.5+12C25+12+22+13+22+13L25.2812+13.3691C26.7183+13.9901+27.7493+15.3431+27.9453+16.9551C29.1133+16.7451+30+15.728+30+14.5C30+13.119+28.881+12+27.5+12ZM23.5+15C23.1317+15+22.7855+15.0856+22.4707+15.2285L22.4629+15.2246L16.4023+18.2539L16.4023+18.2559C15.5449+18.6749+15.0008+19.5456+15+20.5C15.0007+21.4189+15.5054+22.2634+16.3145+22.6992L21+25.3203L21.002+30.9238C20.9482+31.2855+21.0962+31.6476+21.3877+31.8682C21.6792+32.0888+22.0679+32.1328+22.4014+31.9829C22.7348+31.8329+22.9599+31.5129+22.9883+31.1484L23.9883+24.502C24.0404+24.1559+23.9078+23.8077+23.6387+23.584L23.5957+23.5469L20.627+20.6934L24.0195+19.3594L25.0781+21.4062L25.084+21.4023C25.2437+21.7657+25.6031+22.0002+26+22L30+22C30.3606+22.0051+30.6961+21.8156+30.8779+21.5041C31.0597+21.1926+31.0597+20.8074+30.8779+20.4959C30.6961+20.1844+30.3606+19.9949+30+20L26.7695+20L25.8848+16.75L25.8711+16.7441C25.5493+15.7354+24.6157+15+23.5+15ZM14.5+25C12.015+25+10+27.015+10+29.5C10+31.985+12.015+34+14.5+34C16.985+34+19+31.985+19+29.5C19+27.015+16.985+25+14.5+25ZM29.5+25C27.0266+25+25+27.0266+25+29.5C25+31.9734+27.0266+34+29.5+34C31.9734+34+34+31.9734+34+29.5C34+27.0266+31.9734+25+29.5+25ZM29.5+27C30.8926+27+32+28.1074+32+29.5C32+30.8926+30.8926+32+29.5+32C28.1074+32+27+30.8926+27+29.5C27+28.1074+28.1074+27+29.5+27ZM14.5+28C15.328+28+16+28.672+16+29.5C16+30.328+15.328+31+14.5+31C13.672+31+13+30.328+13+29.5C13+28.672+13.672+28+14.5+28Z" opacity="1" fill="#000000"/>
<path d="M26.5+10C25.1211+10+24+11.1211+24+12.5C24+13.8789+25.1211+15+26.5+15C27.8789+15+29+13.8789+29+12.5C29+11.1211+27.8789+10+26.5+10ZM21.375+13C20.5+13+19.5469+13.6992+18.375+14.5625C16.9375+15.6211+15.4375+16.75+14.8438+17.2812C14.5234+17.5703+14+18.1172+14+19.375C14+20.6328+14.9375+21.1094+15.9688+21.75C17.0469+22.4219+19.2188+23.7812+19.2188+23.7812L18.5938+28.7188C18.5938+28.7188+18.6016+29.8672+19.5938+30C20.5859+30.1328+20.875+29.0625+20.875+29.0625C20.875+29.0625+21.7383+24.6016+21.875+23.75C22.0156+22.8711+22.2305+22.2852+21.2188+21.5625C20.2188+20.8516+18.4688+19.9062+18.4688+19.9062C18.4688+19.9062+21.7812+17.3125+22+17.1875C22.25+17.0469+22.4688+16.8281+22.7188+17.1562C22.9766+17.4922+24.6875+19.75+24.6875+19.75C24.6875+19.75+24.9375+20+25.5938+20L30+20C30.5508+20+31+19.5508+31+19C31+18.4492+30.5508+18+30+18L25.8125+18C25.8125+18+23.6719+14.6953+23.25+13.9688C22.8125+13.2188+22.125+13+21.375+13ZM12+23C9.23828+23+7+25.2383+7+28C7+30.7617+9.23828+33+12+33C14.7617+33+17+30.7617+17+28C17+25.2383+14.7617+23+12+23ZM28+23C25.2383+23+23+25.2383+23+28C23+30.7617+25.2383+33+28+33C30.7617+33+33+30.7617+33+28C33+25.2383+30.7617+23+28+23ZM12+25C13.6523+25+15+26.3477+15+28C15+29.6523+13.6523+31+12+31C10.3477+31+9+29.6523+9+28C9+26.3477+10.3477+25+12+25ZM28+25C29.6523+25+31+26.3477+31+28C31+29.6523+29.6523+31+28+31C26.3477+31+25+29.6523+25+28C25+26.3477+26.3477+25+28+25Z" opacity="1" fill="#000000"/>
<path d="M27.5+12C25+12+22+13+22+13L25.2812+13.3691C26.7183+13.9901+27.7493+15.3431+27.9453+16.9551C29.1133+16.7451+30+15.728+30+14.5C30+13.119+28.881+12+27.5+12ZM23.5+15C23.1317+15+22.7855+15.0856+22.4707+15.2285L22.4629+15.2246L16.4023+18.2539L16.4023+18.2559C15.5449+18.6749+15.0008+19.5456+15+20.5C15.0007+21.4189+15.5054+22.2634+16.3145+22.6992L21+25.3203L21.002+30.9238C20.9482+31.2855+21.0962+31.6476+21.3877+31.8682C21.6792+32.0888+22.0679+32.1328+22.4014+31.9829C22.7348+31.8329+22.9599+31.5129+22.9883+31.1484L23.9883+24.502C24.0404+24.1559+23.9078+23.8077+23.6387+23.584L23.5957+23.5469L20.627+20.6934L24.0195+19.3594L25.0781+21.4062L25.084+21.4023C25.2437+21.7657+25.6031+22.0002+26+22L30+22C30.3606+22.0051+30.6961+21.8156+30.8779+21.5041C31.0597+21.1926+31.0597+20.8074+30.8779+20.4959C30.6961+20.1844+30.3606+19.9949+30+20L26.7695+20L25.8848+16.75L25.8711+16.7441C25.5493+15.7354+24.6157+15+23.5+15ZM14.5+25C12.015+25+10+27.015+10+29.5C10+31.985+12.015+34+14.5+34C16.985+34+19+31.985+19+29.5C19+27.015+16.985+25+14.5+25ZM29.5+25C27.0266+25+25+27.0266+25+29.5C25+31.9734+27.0266+34+29.5+34C31.9734+34+34+31.9734+34+29.5C34+27.0266+31.9734+25+29.5+25ZM29.5+27C30.8926+27+32+28.1074+32+29.5C32+30.8926+30.8926+32+29.5+32C28.1074+32+27+30.8926+27+29.5C27+28.1074+28.1074+27+29.5+27ZM14.5+28C15.328+28+16+28.672+16+29.5C16+30.328+15.328+31+14.5+31C13.672+31+13+30.328+13+29.5C13+28.672+13.672+28+14.5+28Z" opacity="1" fill="#000000"/>
<path d="M6.65923+0.511536C6.00488+0.602593+5.54691+1.20863+5.63797+1.86297C5.72903+2.51731+6.33506+2.97528+6.9894+2.88422C7.64374+2.79316+8.10171+2.18713+8.01066+1.53279C7.9196+0.878448+7.31357+0.420479+6.65923+0.511536ZM2.97129+2.68755C2.06845+2.77162+0.97487+3.63049+0.76216+4.62754C0.558347+5.5799+1.70211+5.84211+1.70211+5.84211L3.5575+2.77225C3.38148+2.70227+3.18019+2.66793+2.97129+2.68755ZM4.56964+2.76746C4.53015+2.7824+4.49354+2.8045+4.4572+2.82845C4.1555+3.03672+3.9241+3.42416+3.54877+4.01302C3.08985+4.73445+2.66806+5.43748+2.49426+5.77722C2.40069+5.9603+2.15688+6.55732+2.46657+6.99039C2.72701+7.35474+3.19773+7.46496+3.77092+7.5647C4.40441+7.67684+5.61402+7.88265+5.61402+7.88265C5.61402+7.88265+6.98592+9.97432+7.10913+10.1537C7.23235+10.3331+7.57105+10.6487+7.90632+10.4509C8.24158+10.2531+8.17+9.84734+8.08902+9.69988C8.00803+9.55243+6.94696+7.7255+6.75083+7.36166C6.49634+6.89067+6.44153+6.82271+5.96344+6.70029C5.39519+6.55451+4.56522+6.32044+4.56522+6.32044C4.56522+6.32044+5.61192+4.59511+5.68769+4.50143C5.77489+4.39482+5.79669+4.29352+5.98466+4.35429C6.2202+4.4311+9.27292+4.95485+9.27292+4.95485L9.27085+4.94002C9.33167+4.95612+9.39012+4.96877+9.455+4.95975C9.71636+4.92338+9.89987+4.68054+9.8635+4.41917C9.83383+4.206+9.66155+4.05425+9.46052+4.02176C9.46052+4.02176+6.01011+3.02995+5.64896+2.91959C5.20877+2.78433+4.84422+2.66311+4.56964+2.76746ZM10.5361+5.77675C9.2256+5.95912+8.31126+7.16907+8.49363+8.47961C8.67601+9.79015+9.88596+10.7045+11.1965+10.5221C12.507+10.3397+13.4214+9.12979+13.239+7.81926C13.0566+6.50872+11.8467+5.59438+10.5361+5.77675ZM10.6682+6.72582C11.4523+6.61671+12.1808+7.16723+12.2899+7.95133C12.399+8.73543+11.8485+9.46393+11.0644+9.57305C10.2803+9.68216+9.55182+9.13164+9.44271+8.34754C9.33359+7.56344+9.88411+6.83494+10.6682+6.72582ZM3.20769+8.73147C1.89715+8.91384+0.982813+10.1238+1.16518+11.4343C1.34756+12.7449+2.55751+13.6592+3.86805+13.4768C5.17858+13.2945+6.09293+12.0845+5.91055+10.774C5.72818+9.46344+4.51823+8.54909+3.20769+8.73147ZM3.33976+9.68054C4.12386+9.57143+4.85237+10.1219+4.96148+10.906C5.07059+11.6901+4.52007+12.4186+3.73598+12.5278C2.95188+12.6369+2.22337+12.0864+2.11426+11.3023C2.00514+10.5182+2.55566+9.78965+3.33976+9.68054Z" opacity="1" fill="#000000"/>
</g>
</svg>
