<?xml version="1.0" encoding="UTF-8" standalone="no"?>
<!DOCTYPE svg PUBLIC "-//W3C//DTD SVG 1.1//EN" "http://www.w3.org/Graphics/SVG/1.1/DTD/svg11.dtd">
<!-- Created with Vectornator (http://vectornator.io/) -->
<svg height="90.0px" stroke-miterlimit="10" style="fill-rule:nonzero;clip-rule:evenodd;stroke-linecap:round;stroke-linejoin:round;" version="1.1" viewBox="0 0 340 90" width="340.0px" xml:space="preserve" xmlns="http://www.w3.org/2000/svg" xmlns:xlink="http://www.w3.org/1999/xlink">
<defs/>
<clipPath id="ArtboardFrame">
<rect height="90" width="340" x="0" y="0"/>
</clipPath>
<g clip-path="url(#ArtboardFrame)" id="Untitled">
<g opacity="1">
<path d="M33.4436 60.3085L44.4262 60.3085C45.84 60.3085 47.0626 59.6389 48.088 58.2957C49.1107 56.9538 49.6244 55.233 49.6244 53.1341C49.6244 50.985 49.0395 49.2792 47.865 48.0091C46.6959 46.7411 45.4259 46.1054 44.0582 46.1054L33.4436 46.1054L33.4436 60.3085ZM21.4376 87.5409L21.4376 35.5626L44.8647 35.5626C47.3038 35.5626 49.5607 36.0763 51.6352 37.1024C53.7091 38.1264 55.5037 39.4677 57.0164 41.1281C58.5291 42.7879 59.7151 44.6659 60.5677 46.7655C61.421 48.8638 61.8479 50.985 61.8479 53.1341C61.8479 54.743 61.6541 56.2937 61.261 57.7827C60.8706 59.2716 60.3129 60.6745 59.5796 61.9927C58.8463 63.3096 57.9578 64.4942 56.908 65.544C55.8588 66.5918 54.6735 67.4823 53.358 68.2147L64.7764 87.5409L51.234 87.5409L41.2782 70.7752L33.4436 70.7752L33.4436 87.5409L21.4376 87.5409Z" fill="#000000" fill-rule="nonzero" opacity="1" stroke="none"/>
<path d="M188.58 77.2931C190.628 77.2931 192.36 76.8647 193.777 76.0126C195.192 75.1578 196.338 74.0236 197.218 72.6066C198.098 71.1897 198.719 69.5694 199.084 67.7387C199.451 65.9079 199.631 64.0408 199.631 62.1384L199.631 35.5626L211.64 35.5626L211.64 62.1384C211.64 65.7508 211.188 69.1192 210.284 72.2418C209.382 75.3644 207.991 78.0976 206.115 80.4396C204.232 82.7835 201.841 84.6262 198.941 85.9677C196.034 87.3118 192.58 87.9812 188.58 87.9812C184.43 87.9812 180.892 87.2734 177.964 85.8584C175.038 84.4434 172.656 82.5544 170.827 80.186C168.996 77.8169 167.653 75.0737 166.8 71.9485C165.944 68.8259 165.518 65.5556 165.518 62.1384L165.518 35.5626L177.524 35.5626L177.524 62.1384C177.524 64.1411 177.721 66.0428 178.109 67.8492C178.503 69.6542 179.136 71.2645 180.013 72.6808C180.892 74.0977 182.029 75.218 183.42 76.047C184.81 76.88 186.531 77.2931 188.58 77.2931Z" fill="#000000" fill-rule="nonzero" opacity="1" stroke="none"/>
<path d="M241.449 35.5626L253.676 72.4603L265.756 35.5626L278.418 35.5626L258.725 87.5402L248.623 87.5402L228.712 35.5626L241.449 35.5626Z" fill="#000000" fill-rule="nonzero" opacity="1" stroke="none"/>
<path d="M304.347 35.5626L315.548 59.4309L326.895 35.5626L340 35.5626L321.479 69.8263L321.479 87.5402L309.545 87.5402L309.545 69.678L291.315 35.5626L304.347 35.5626Z" fill="#000000" fill-rule="nonzero" opacity="1" stroke="none"/>
<path d="M93.5831 43.1877C97.3466 35.6663 105.1 30.5013 114.062 30.5027C126.711 30.5041 136.958 40.7873 136.955 53.4662C136.954 59.391 134.713 64.7944 131.035 68.8649C134.085 71.0519 137.332 73.3899 140.326 75.5961C145.315 69.5966 148.322 61.885 148.323 53.4696C148.326 31.0381 132.779 9.55749 102.174 4.92994C71.2761 0.254284 46.1392 0.372209-1.42109e-14 9.64694C17.9103 10.7923 30.6971 13.4646 45.2499 18.1402C58.8222 22.4933 70.5457 28.1042 88.7112 40.018L93.5831 43.1877Z" fill="#000000" fill-rule="nonzero" opacity="1" stroke="none"/>
<path d="M126.497 53.4706C126.495 60.1618 121.075 65.5758 114.389 65.5745C107.703 65.5725 102.283 60.1564 102.285 53.4658C102.286 46.78 107.708 41.3613 114.394 41.3626C121.081 41.3639 126.498 46.7841 126.497 53.4706Z" fill="#000000" fill-rule="nonzero" opacity="1" stroke="none"/>
<path d="M119.738 75.71C117.919 76.1755 116.009 76.4251 114.043 76.4251C102.161 76.4231 92.3972 67.3436 91.2643 55.7266C87.3935 53.1241 83.2731 50.5697 79.4553 48.1055C79.1805 49.8507 79.0402 51.6365 79.0402 53.4589C79.0362 72.5881 94.5412 88.0984 113.668 88.103C119.77 88.1037 125.5 86.5271 130.48 83.7595C126.935 81.099 123.279 78.2989 119.738 75.71Z" fill="#000000" fill-rule="nonzero" opacity="1" stroke="none"/>
</g>
</g>
</svg>
