<?xml version="1.0" encoding="UTF-8" standalone="no"?>
<!DOCTYPE svg PUBLIC "-//W3C//DTD SVG 1.1//EN" "http://www.w3.org/Graphics/SVG/1.1/DTD/svg11.dtd">
<!-- Created with Vectornator (http://vectornator.io/) -->
<svg height="100%" stroke-miterlimit="10" style="fill-rule:nonzero;clip-rule:evenodd;stroke-linecap:round;stroke-linejoin:round;" version="1.1" viewBox="0.685967 0 23.5294 10" width="100%" xml:space="preserve" xmlns="http://www.w3.org/2000/svg" xmlns:vectornator="http://vectornator.io" xmlns:xlink="http://www.w3.org/1999/xlink">
<defs/>
<clipPath id="ArtboardFrame">
<rect height="10" width="23.5294" x="0.685967" y="0"/>
</clipPath>
<g clip-path="url(#ArtboardFrame)" id="Layer" vectornator:layerName="Layer">
<g opacity="1" vectornator:layerName="Group 1">
<path d="M4.00029 0C4.00029 0 2.65836 2.30538 1.36803 4.89462C-0.687881 8.43011 2.55943 8.19355 2.55943 8.19355L18.1293 8.19355C22.1121 8.19355 20.6239 10 20.6239 10C20.6239 10 23.9573 9.16129 24.2153 5.29032C24.1078 2.66667 20.753 2.23656 18.6885 1.95699C17.6777 0.709677 15.5917 0.795699 15.5917 0.795699C15.5917 0.795699 6.88201 0.774194 5.72072 0.774194C4.55943 0.774194 4.00029 0 4.00029 0Z" fill="#ffffff" fill-rule="nonzero" opacity="1" stroke="none" vectornator:layerName="path"/>
<path d="M1.82825 4.8172C-0.257774 8.10753 2.68846 7.82796 2.68846 7.82796L9.69922 7.82796C9.29061 7.05376 9.59169 7.22581 10.0648 6.08602C10.0648 6.08602 9.01104 4.8172 7.74223 4.8172L1.82825 4.8172Z" fill="#000000" fill-rule="nonzero" opacity="1" stroke="none" vectornator:layerName="path"/>
<path d="M4.06481 0.602151L2.17233 4.17204L7.41965 4.17204C9.74223 4.17204 9.59169 2.16774 13.0325 2.16774C14.8992 2.32258 16.4949 3.82796 17.9143 3.41935C16.4734 4.34409 15.0541 2.55914 12.7315 2.55914C11.1186 2.55914 9.31212 4.43011 9.31212 4.43011L10.968 5.78495C9.11857 8.06452 10.968 7.87097 10.968 7.87097L17.6992 7.87097C22.9766 7.87097 20.9465 9.74194 20.9465 9.74194C20.9465 9.74194 23.3551 8.43011 23.7207 5.41935C23.7207 2.68817 18.5594 2.3871 18.5594 2.3871C18.5594 2.3871 17.7422 1.13978 15.0325 1.13978L5.48416 1.13978C4.21534 1.13978 4.06481 0.602151 4.06481 0.602151Z" fill="#000000" fill-rule="nonzero" opacity="1" stroke="none" vectornator:layerName="path"/>
<path d="M11.2261 7.44086C11.2261 7.44086 12.1293 5.63441 13.5487 5.63441L16.1508 5.63441C18.0433 5.63441 17.3551 3.48817 19.2691 3.09677C17.8196 4.28387 24.5164 2.96774 21.8067 7.67742C21.8067 7.67742 18.8175 6 14.796 6C12.6455 6 12.0003 7.44086 12.0003 7.44086L11.2261 7.44086Z" fill="#ffffff" fill-rule="nonzero" opacity="1" stroke="none" vectornator:layerName="path"/>
<path d="M12.839 7.44086C12.839 7.44086 13.2046 6.36559 15.1831 6.36559C19.1186 6.62366 21.5487 8 21.5487 8C21.5487 8 19.1401 6.90323 15.1831 6.73118C13.7852 6.73118 13.4412 7.44086 13.4412 7.44086L12.839 7.44086ZM11.2691 4.12903C12.3788 5.23871 13.2046 5.16129 13.2046 5.16129L15.6347 5.16129C16.9035 5.16129 17.2476 4.23656 17.2476 4.23656L16.5594 4.23656C16.5594 4.23656 16.1293 4.86022 15.2906 4.86022L14.4519 4.86022C14.4519 4.86022 13.011 4.86022 13.011 4.19355C13.1229 3.63871 13.4196 3.24731 13.4196 3.24731C13.4196 3.24731 12.4949 3.09677 11.2691 4.12903Z" fill="#ffffff" fill-rule="nonzero" opacity="1" stroke="none" vectornator:layerName="path"/>
<path d="M14.2368 3.41935C14.2368 3.41935 13.368 4.43011 15.0455 4.43011L15.51 4.43011C15.7508 4.43011 15.9616 4.12903 15.9616 4.12903L15.7551 3.92258C15.7551 3.92258 15.5487 4.26667 15.411 4.26667L15.1874 4.26667C14.4906 4.26667 14.7143 3.5871 14.7143 3.5871C14.7143 3.5871 14.2368 3.41935 14.2368 3.41935Z" fill="#ffffff" fill-rule="nonzero" opacity="1" stroke="none" vectornator:layerName="path"/>
</g>
</g>
</svg>
