<?xml version="1.0" encoding="UTF-8" standalone="no"?> <!-- Created with Vectornator for iOS (http://vectornator.io/) --><!DOCTYPE svg PUBLIC "-//W3C//DTD SVG 1.1//EN" "http://www.w3.org/Graphics/SVG/1.1/DTD/svg11.dtd">
<svg style="fill-rule:evenodd;clip-rule:evenodd;stroke-linecap:round;stroke-linejoin:round;" xmlns:vectornator="http://vectornator.io" xmlns:xlink="http://www.w3.org/1999/xlink" xmlns="http://www.w3.org/2000/svg" xml:space="preserve" version="1.1" viewBox="0 0 14 14">
<metadata>
<vectornator:setting key="DimensionsVisible" value="1"/>
<vectornator:setting key="New" value="1"/>
<vectornator:setting key="SnapToPoints" value="0"/>
<vectornator:setting key="GuidesVisible" value="1"/>
<vectornator:setting key="RulersVisible" value="1"/>
<vectornator:setting key="CMYKEnabledKey" value="0"/>
<vectornator:setting key="SnapToEdges" value="0"/>
<vectornator:setting key="DisplayWhiteBackground" value="0"/>
<vectornator:setting key="SnapToGuides" value="1"/>
<vectornator:setting key="GridSpacing" value="36"/>
<vectornator:setting key="SnapToGrid" value="0"/>
<vectornator:setting key="Units" value="Pixels"/>
<vectornator:setting key="DynamicGuides" value="0"/>
</metadata>
<defs/>
<g id="Layer 1" vectornator:layerName="Layer 1">
<path d="M622+347C622+352.523+626.477+357+632+357C637.523+357+642+352.523+642+347C642+341.477+637.523+337+632+337C626.477+337+622+341.477+622+347ZM637+344L637+347L632+351L627+347L627+344L632+348L637+344Z" opacity="1" fill="#000000"/>
<path d="M622+347C622+352.523+626.477+357+632+357C637.523+357+642+352.523+642+347C642+341.477+637.523+337+632+337C626.477+337+622+341.477+622+347ZM637+344L637+347L632+351L627+347L627+344L632+348L637+344Z" opacity="1" fill="#000000"/>
<path d="M27.5+12C25+12+22+13+22+13L25.2812+13.3691C26.7183+13.9901+27.7493+15.3431+27.9453+16.9551C29.1133+16.7451+30+15.728+30+14.5C30+13.119+28.881+12+27.5+12ZM23.5+15C23.1317+15+22.7855+15.0856+22.4707+15.2285L22.4629+15.2246L16.4023+18.2539L16.4023+18.2559C15.5449+18.6749+15.0008+19.5456+15+20.5C15.0007+21.4189+15.5054+22.2634+16.3145+22.6992L21+25.3203L21.002+30.9238C20.9482+31.2855+21.0962+31.6476+21.3877+31.8682C21.6792+32.0888+22.0679+32.1328+22.4014+31.9829C22.7348+31.8329+22.9599+31.5129+22.9883+31.1484L23.9883+24.502C24.0404+24.1559+23.9078+23.8077+23.6387+23.584L23.5957+23.5469L20.627+20.6934L24.0195+19.3594L25.0781+21.4062L25.084+21.4023C25.2437+21.7657+25.6031+22.0002+26+22L30+22C30.3606+22.0051+30.6961+21.8156+30.8779+21.5041C31.0597+21.1926+31.0597+20.8074+30.8779+20.4959C30.6961+20.1844+30.3606+19.9949+30+20L26.7695+20L25.8848+16.75L25.8711+16.7441C25.5493+15.7354+24.6157+15+23.5+15ZM14.5+25C12.015+25+10+27.015+10+29.5C10+31.985+12.015+34+14.5+34C16.985+34+19+31.985+19+29.5C19+27.015+16.985+25+14.5+25ZM29.5+25C27.0266+25+25+27.0266+25+29.5C25+31.9734+27.0266+34+29.5+34C31.9734+34+34+31.9734+34+29.5C34+27.0266+31.9734+25+29.5+25ZM29.5+27C30.8926+27+32+28.1074+32+29.5C32+30.8926+30.8926+32+29.5+32C28.1074+32+27+30.8926+27+29.5C27+28.1074+28.1074+27+29.5+27ZM14.5+28C15.328+28+16+28.672+16+29.5C16+30.328+15.328+31+14.5+31C13.672+31+13+30.328+13+29.5C13+28.672+13.672+28+14.5+28Z" opacity="1" fill="#000000"/>
<path d="M26.5+10C25.1211+10+24+11.1211+24+12.5C24+13.8789+25.1211+15+26.5+15C27.8789+15+29+13.8789+29+12.5C29+11.1211+27.8789+10+26.5+10ZM21.375+13C20.5+13+19.5469+13.6992+18.375+14.5625C16.9375+15.6211+15.4375+16.75+14.8438+17.2812C14.5234+17.5703+14+18.1172+14+19.375C14+20.6328+14.9375+21.1094+15.9688+21.75C17.0469+22.4219+19.2188+23.7812+19.2188+23.7812L18.5938+28.7188C18.5938+28.7188+18.6016+29.8672+19.5938+30C20.5859+30.1328+20.875+29.0625+20.875+29.0625C20.875+29.0625+21.7383+24.6016+21.875+23.75C22.0156+22.8711+22.2305+22.2852+21.2188+21.5625C20.2188+20.8516+18.4688+19.9062+18.4688+19.9062C18.4688+19.9062+21.7812+17.3125+22+17.1875C22.25+17.0469+22.4688+16.8281+22.7188+17.1562C22.9766+17.4922+24.6875+19.75+24.6875+19.75C24.6875+19.75+24.9375+20+25.5938+20L30+20C30.5508+20+31+19.5508+31+19C31+18.4492+30.5508+18+30+18L25.8125+18C25.8125+18+23.6719+14.6953+23.25+13.9688C22.8125+13.2188+22.125+13+21.375+13ZM12+23C9.23828+23+7+25.2383+7+28C7+30.7617+9.23828+33+12+33C14.7617+33+17+30.7617+17+28C17+25.2383+14.7617+23+12+23ZM28+23C25.2383+23+23+25.2383+23+28C23+30.7617+25.2383+33+28+33C30.7617+33+33+30.7617+33+28C33+25.2383+30.7617+23+28+23ZM12+25C13.6523+25+15+26.3477+15+28C15+29.6523+13.6523+31+12+31C10.3477+31+9+29.6523+9+28C9+26.3477+10.3477+25+12+25ZM28+25C29.6523+25+31+26.3477+31+28C31+29.6523+29.6523+31+28+31C26.3477+31+25+29.6523+25+28C25+26.3477+26.3477+25+28+25Z" opacity="1" fill="#000000"/>
<path d="M27.5+12C25+12+22+13+22+13L25.2812+13.3691C26.7183+13.9901+27.7493+15.3431+27.9453+16.9551C29.1133+16.7451+30+15.728+30+14.5C30+13.119+28.881+12+27.5+12ZM23.5+15C23.1317+15+22.7855+15.0856+22.4707+15.2285L22.4629+15.2246L16.4023+18.2539L16.4023+18.2559C15.5449+18.6749+15.0008+19.5456+15+20.5C15.0007+21.4189+15.5054+22.2634+16.3145+22.6992L21+25.3203L21.002+30.9238C20.9482+31.2855+21.0962+31.6476+21.3877+31.8682C21.6792+32.0888+22.0679+32.1328+22.4014+31.9829C22.7348+31.8329+22.9599+31.5129+22.9883+31.1484L23.9883+24.502C24.0404+24.1559+23.9078+23.8077+23.6387+23.584L23.5957+23.5469L20.627+20.6934L24.0195+19.3594L25.0781+21.4062L25.084+21.4023C25.2437+21.7657+25.6031+22.0002+26+22L30+22C30.3606+22.0051+30.6961+21.8156+30.8779+21.5041C31.0597+21.1926+31.0597+20.8074+30.8779+20.4959C30.6961+20.1844+30.3606+19.9949+30+20L26.7695+20L25.8848+16.75L25.8711+16.7441C25.5493+15.7354+24.6157+15+23.5+15ZM14.5+25C12.015+25+10+27.015+10+29.5C10+31.985+12.015+34+14.5+34C16.985+34+19+31.985+19+29.5C19+27.015+16.985+25+14.5+25ZM29.5+25C27.0266+25+25+27.0266+25+29.5C25+31.9734+27.0266+34+29.5+34C31.9734+34+34+31.9734+34+29.5C34+27.0266+31.9734+25+29.5+25ZM29.5+27C30.8926+27+32+28.1074+32+29.5C32+30.8926+30.8926+32+29.5+32C28.1074+32+27+30.8926+27+29.5C27+28.1074+28.1074+27+29.5+27ZM14.5+28C15.328+28+16+28.672+16+29.5C16+30.328+15.328+31+14.5+31C13.672+31+13+30.328+13+29.5C13+28.672+13.672+28+14.5+28Z" opacity="1" fill="#000000"/>
<path d="M10.2083+0.583334C8.75+0.583334+7+1.16667+7+1.16667L8.91406+1.382C9.75231+1.74425+10.3538+2.53346+10.4681+3.4738C11.1494+3.3513+11.6667+2.758+11.6667+2.04167C11.6667+1.23608+11.0139+0.583334+10.2083+0.583334ZM7.875+2.33333C7.66015+2.33333+7.4582+2.38326+7.27458+2.46663L7.27002+2.46436L3.7347+4.23145L3.7347+4.23258C3.2345+4.47703+2.91711+4.98493+2.91667+5.54167C2.91705+6.07771+3.21149+6.57034+3.68343+6.82454L6.41667+8.35352L6.41781+11.6222C6.38648+11.8332+6.47276+12.0444+6.64283+12.1731C6.81289+12.3018+7.03963+12.3275+7.23414+12.24C7.42865+12.1525+7.55993+11.9659+7.5765+11.7533L8.15983+7.87614C8.19023+7.67426+8.11288+7.47117+7.95589+7.34066L7.93083+7.31901L6.19906+5.65446L8.17806+4.8763L8.79557+6.07031L8.79899+6.06803C8.89215+6.27997+9.10182+6.41677+9.33333+6.41667L11.6667+6.41667C11.877+6.41964+12.0727+6.30911+12.1788+6.12741C12.2848+5.9457+12.2848+5.72097+12.1788+5.53926C12.0727+5.35755+11.877+5.24702+11.6667+5.25L9.78223+5.25L9.26611+3.35417L9.25814+3.35075C9.0704+2.76231+8.5258+2.33333+7.875+2.33333ZM2.625+8.16667C1.17542+8.16667+2.38419e-07+9.34208+2.38419e-07+10.7917C2.38419e-07+12.2413+1.17542+13.4167+2.625+13.4167C4.07458+13.4167+5.25+12.2413+5.25+10.7917C5.25+9.34208+4.07458+8.16667+2.625+8.16667ZM11.375+8.16667C9.93216+8.16667+8.75+9.34883+8.75+10.7917C8.75+12.2345+9.93216+13.4167+11.375+13.4167C12.8178+13.4167+14+12.2345+14+10.7917C14+9.34883+12.8178+8.16667+11.375+8.16667ZM11.375+9.33333C12.1873+9.33333+12.8333+9.97934+12.8333+10.7917C12.8333+11.604+12.1873+12.25+11.375+12.25C10.5627+12.25+9.91667+11.604+9.91667+10.7917C9.91667+9.97934+10.5627+9.33333+11.375+9.33333ZM2.625+9.91667C3.108+9.91667+3.5+10.3087+3.5+10.7917C3.5+11.2747+3.108+11.6667+2.625+11.6667C2.142+11.6667+1.75+11.2747+1.75+10.7917C1.75+10.3087+2.142+9.91667+2.625+9.91667Z" opacity="1" fill="#000000"/>
</g>
</svg>
