<?xml version="1.0" encoding="UTF-8" standalone="no"?>
<!DOCTYPE svg PUBLIC "-//W3C//DTD SVG 1.1//EN" "http://www.w3.org/Graphics/SVG/1.1/DTD/svg11.dtd">
<!-- Created with Vectornator (http://vectornator.io/) -->
<svg height="100%" stroke-miterlimit="10" style="fill-rule:nonzero;clip-rule:evenodd;stroke-linecap:round;stroke-linejoin:round;" version="1.1" viewBox="0 0 340 20" width="100%" xml:space="preserve" xmlns="http://www.w3.org/2000/svg" xmlns:vectornator="http://vectornator.io" xmlns:xlink="http://www.w3.org/1999/xlink">
<defs/>
<g id="Layer-2" vectornator:layerName="Layer 2">
<g opacity="1">
<clipPath id="ClipPath">
<path d="M0 1.04265L52.4637 1.04265L52.4637 17.8015L0 17.8015L0 1.04265Z"/>
</clipPath>
<g clip-path="url(#ClipPath)">
<path d="M41.3392 1.04265L32.6393 13.4679C31.9683 14.4249 30.65 15.2013 29.6929 15.2013L12.7773 15.2013C11.3399 15.2013 10.9912 14.0361 11.9959 12.5999L20.0899 1.04265L8.96419 1.04265L1.27777 12.0229C-0.95867 15.2139-0.183506 17.8015 3.00872 17.8015L36.6845 17.8015C38.9184 17.8015 41.9977 15.9903 43.5619 13.7576L52.4637 1.04265L41.3392 1.04265Z" fill="#000000" fill-rule="evenodd" opacity="1" stroke="none"/>
</g>
</g>
<g opacity="1">
<clipPath id="ClipPath_2">
<path d="M280.538 1L340 1L340 17.8442L280.538 17.8442L280.538 1Z"/>
</clipPath>
<g clip-path="url(#ClipPath_2)">
<path d="M311.46 1C309.863 1 306.416 2.2932 303.759 3.89119L280.538 17.8442L292.385 17.8442L311.677 6.2518C313.883 4.92725 316.748 3.85105 318.076 3.85105L327.689 3.92129L317.796 17.8442L321.183 17.8442L324.18 17.8442C326.414 17.8442 329.493 16.0317 331.056 13.7977L340 1.0138L311.46 1Z" fill="#000000" fill-rule="evenodd" opacity="1" stroke="none"/>
</g>
</g>
<path d="M63.7698 12.5999L71.8614 1.04265L60.7382 1.04265L53.0492 12.0216C50.8153 15.2139 51.5905 17.8015 54.7827 17.8015L90.4139 17.8015L92.2339 15.2001L64.55 15.2001C63.1138 15.2001 62.7626 14.0361 63.7698 12.5999" fill="#000000" fill-rule="evenodd" opacity="1" stroke="none"/>
<path d="M214.415 15.0985L196.459 15.0985C194.864 15.0985 194.475 13.8053 195.592 12.2085L200.71 4.90091C201.156 4.26246 202.036 3.74569 202.674 3.74569L234.772 3.74569L236.666 1.04265L196.253 1.04265C194.179 1.04265 191.319 2.72468 189.866 4.79931L184.808 12.0229C182.574 15.2139 183.348 17.8015 186.541 17.8015L224.932 17.8015L231.87 7.8937L224.963 7.8937L214.415 15.0985Z" fill="#000000" fill-rule="evenodd" opacity="1" stroke="none"/>
<path d="M153.264 3.74569L183.096 3.74569L184.99 1.04265L146.845 1.04265C144.77 1.04265 141.909 2.72468 140.457 4.79931L135.399 12.0229C133.165 15.2139 133.941 17.8015 137.133 17.8015L173.254 17.8015L175.147 15.0985L147.049 15.0985C145.453 15.0985 145.065 13.8053 146.183 12.2085L147.123 10.8664L178.114 10.8664L180.137 7.97774L149.147 7.97774L151.3 4.90091C151.747 4.26246 152.626 3.74569 153.264 3.74569" fill="#000000" fill-rule="evenodd" opacity="1" stroke="none"/>
<path d="M89.6951 1.04265L87.6719 3.93383L107.495 3.93383L97.7854 17.8015L108.648 17.8015L118.361 3.93383L134.076 3.93383L136.1 1.04265L89.6951 1.04265Z" fill="#000000" fill-rule="evenodd" opacity="1" stroke="none"/>
<path d="M274.499 10.4939C277.109 10.4939 281.659 8.37786 284.662 5.76764L290.098 1.04265L256.502 1.04265L254.729 1.04265L245.951 1.04265L244.058 3.74569L275.015 3.74569L272.264 5.81781C270.744 6.96551 268.582 7.8937 267.437 7.8937L241.154 7.8937L234.218 17.8015L244.769 17.8015L249.886 10.4939L260.52 10.4939L269.23 17.8015L279.781 17.8015L271.072 10.4939L274.499 10.4939Z" fill="#000000" fill-rule="evenodd" opacity="1" stroke="none"/>
</g>
</svg>
