<?xml version="1.0" encoding="UTF-8" standalone="no"?>
<!DOCTYPE svg PUBLIC "-//W3C//DTD SVG 1.1//EN" "http://www.w3.org/Graphics/SVG/1.1/DTD/svg11.dtd">
<!-- Created with Vectornator (http://vectornator.io/) -->
<svg height="100%" stroke-miterlimit="10" style="fill-rule:nonzero;clip-rule:evenodd;stroke-linecap:round;stroke-linejoin:round;" version="1.1" viewBox="0 0 106 30" width="100%" xml:space="preserve" xmlns="http://www.w3.org/2000/svg" xmlns:vectornator="http://vectornator.io" xmlns:xlink="http://www.w3.org/1999/xlink">
<defs/>
<g id="Untitled" vectornator:layerName="Untitled">
<g opacity="1" vectornator:layerName="g">
<path d="M14.534 8L8.067 20.516L6.495 8L0 8L3.576 28L9.759 28L21 8L14.534 8Z" fill="#000000" fill-rule="evenodd" opacity="1" stroke="none" vectornator:layerName="path"/>
<path d="M23.457 14.186C26.015 11.823 29.086 12.09 30.633 13.816C31.1 14.336 31.355 15.081 31.432 15.928L22.244 15.928C22.572 15.233 22.982 14.624 23.457 14.186M29.375 22.048C27.062 24.537 23.662 24.355 22.042 22.342C21.613 21.809 21.4 20.997 21.366 20.076L36.527 20.076C37.725 16.489 37.241 12.668 35.027 10.2C31.639 6.42 24.695 6.469 19.914 10.883C15.13 15.298 14.251 22.365 17.709 26.187C21.069 29.902 27.954 30.238 32.765 25.556C33.908 24.444 35.045 23.275 35.73 21.956L29.457 21.956L29.375 22.048M35.694 28.374L39.62 6.67C39.62 6.67 43.955 6.097 45.792 6.162L41.749 28.372L35.694 28.372L35.694 28.374ZM71.678 7.474L71.671 7.474C72.003 5.908 72.914 5.543 73.845 5.513C74.091 5.505 74.37 5.493 74.562 5.494L75.375 0.928C75.375 0.928 74.42 0.928 73.012 0.966C70.854 1.024 66.931 2.193 65.889 6.176C65.723 6.83582 65.5928 7.50413 65.499 8.178L63.253 8.178L63.174 8.801C63.534 9.081 63.872 9.379 64.181 9.717C67.943 13.827 67.276 20.927 62.26 25.766L61.768 28.452L67.784 28.452L70.714 12.875L73.253 12.875L74.119 8.1L71.58 8.1C71.58 8.1 71.614 7.709 71.677 7.474M81.482 8.1L77.72 28.296L71.704 28.296L75.48 8.1L81.483 8.1L81.482 8.1ZM82.137 1.705C83.195 2.875 82.964 5.047 81.497 6.39C80.031 7.732 77.857 7.698 76.827 6.568C75.767 5.405 76.037 3.256 77.503 1.913C78.969 0.571 81.097 0.556 82.137 1.705ZM77.771 28.331L87.523 17.498L82.45 8.139L89.734 8.12L91.988 13.477L96.143 8.178L103.409 8.178L94.85 17.55L100.674 28.354L93.224 28.33L90.384 22.115L85.135 28.329L77.771 28.331Z" fill="#000000" fill-rule="evenodd" opacity="1" stroke="none" vectornator:layerName="path"/>
<path d="M57.887 21.6C55.617 23.652 52.65 23.898 50.787 21.882C49.272 20.241 49.848 16.688 51.83 14.896C54.441 12.533 57.35 12.706 58.93 14.432C60.533 16.186 60.119 19.579 57.887 21.6M63.639 10.2C61.596 7.968 58.289 7.071 54.917 7.62C54.912 6.819 54.861 4.832 54.48 4.329C54 3.695 51.86 3.354 49.242 3.279C43.831 3.126 34.705 4.839 30.232 6.581C30.232 6.581 32.01 7.299 32.262 7.215C37.847 5.374 41.884 5.239 44.615 5.16C47.705 5.07 50.965 5.47 51.51 5.923C52.198 6.495 52.483 7.627 52.59 8.233C50.9753 8.82711 49.4902 9.72685 48.216 10.883C43.334 15.298 42.437 22.365 45.966 26.187C49.395 29.902 56.632 30.016 61.512 25.601C66.392 21.186 67.161 14.048 63.639 10.2" fill="#000000" fill-rule="evenodd" opacity="1" stroke="none" vectornator:layerName="path"/>
<path d="M54.316 1.886C54.871 1.819 58.097 1.728 59.26 1.948C60.42 2.167 60.74 2.679 60.721 3.066C60.669 4.183 59.103 5.512 58.548 5.918C57.868 5.838 57.257 5.82 56.494 5.763C56.857 5.378 58.17 4.163 58.267 4.036C58.355 3.92 58.526 3.768 58.512 3.49C58.502 3.27 58.359 3.214 58.102 3.128C57.846 3.043 54.586 2.162 54.316 1.886M27.628 5.36C27.628 5.36 33.621 3.279 34.073 3.137C34.313 2.682 34.921 1.62 34.841 0.065C33.35 0.548 30.117 2.45 28.071 3.357C27.294 3.701 26.964 5.087 27.628 5.36M104.732 6.758C104.869 6.758 104.986 6.758 104.986 6.607C104.986 6.484 104.869 6.484 104.732 6.484L104.437 6.484L104.437 6.758L104.732 6.758ZM105.256 7.617L104.936 7.617L104.646 7.025L104.437 7.025L104.437 7.617L104.164 7.617L104.164 6.217L104.792 6.217C105.069 6.217 105.233 6.316 105.233 6.645C105.233 6.885 105.107 7.007 104.942 7.025L105.256 7.617ZM105.596 6.918C105.596 6.323 105.208 5.932 104.678 5.932C104.138 5.932 103.761 6.322 103.761 6.918C103.761 7.514 104.139 7.908 104.678 7.908C105.208 7.908 105.595 7.514 105.595 6.918L105.596 6.918ZM103.437 6.918C103.437 6.179 103.987 5.583 104.678 5.583C105.367 5.583 105.918 6.179 105.918 6.918C105.918 7.661 105.367 8.257 104.678 8.257C103.986 8.257 103.438 7.661 103.438 6.918L103.437 6.918Z" fill="#000000" fill-rule="evenodd" opacity="1" stroke="none" vectornator:layerName="path"/>
</g>
</g>
</svg>
