<?xml version="1.0" encoding="UTF-8" standalone="no"?>
<!DOCTYPE svg PUBLIC "-//W3C//DTD SVG 1.1//EN" "http://www.w3.org/Graphics/SVG/1.1/DTD/svg11.dtd">
<!-- Created with Vectornator (http://vectornator.io/) -->
<svg height="100%" stroke-miterlimit="10" style="fill-rule:nonzero;clip-rule:evenodd;stroke-linecap:round;stroke-linejoin:round;" version="1.1" viewBox="10.4104 -1.42109e-14 317.605 150" width="100%" xml:space="preserve" xmlns="http://www.w3.org/2000/svg" xmlns:xlink="http://www.w3.org/1999/xlink">
<defs/>
<g id="Layer-2">
<path d="M19.5337 149.067C19.9223 149.534 19.9223 149.534 20.3109 150C25.9053 146.905 140.52 81.9975 140.52 81.9975L147.772 65.4404C154.922 82.5389 162.073 99.6373 162.073 99.6373L78.601 127.772L197.443 115.453C179.76 71.7066 161.17 27.6427 161.17 27.6427C90.229 89.186 90.4743 87.524 19.5337 149.067Z" fill="#007fe9" fill-rule="nonzero" opacity="1" stroke="none"/>
<path d="M10.4104 115.457L44.2298 115.457L54.2022 78.6549L64.0732 78.6549L55.1295 112.073C55.1295 112.073 83.7515 87.784 97.7266 75.2582C98.5602 74.5111 99.1295 73.4429 99.4317 72.3651C103.624 57.4127 111.177 27.6427 111.177 27.6427L77.7959 27.6228L69.3639 58.7209L59.299 58.7209L67.6463 27.6427L34.1223 27.6427L10.4104 115.457Z" fill="#000000" fill-rule="nonzero" opacity="1" stroke="none"/>
<path d="M278.931 115.357L288.823 78.5814L309.432 78.5814L314.053 61.31L293.575 61.31L297.812 45.4222L320.777 45.2332L325.522 27.6228L268.773 27.6228L245.13 115.357L278.931 115.357Z" fill="#000000" fill-rule="nonzero" opacity="1" stroke="none"/>
<path d="M237.15 115.337L242.015 97.4078L222.026 97.4078C221.942 97.037 240.576 27.6427 240.576 27.6427L206.679 27.6427L190.859 86.4306C190.859 86.4306 201.839 114.715 202.54 115.337L237.15 115.337Z" fill="#000000" fill-rule="nonzero" opacity="1" stroke="none"/>
<path d="M46.4716 17.4913L55.3929 0.772709L51.5762 0.772709L45.2306 13.3234L45.1838 13.3234L44.0832 0.772709L40.407 0.772709L42.3271 17.4913L46.4716 17.4913Z" fill="#000000" fill-rule="nonzero" opacity="1" stroke="none"/>
<path d="M86.6504 0.772709L83.1381 17.4913L86.8143 17.4913L90.35 0.772709L86.6504 0.772709Z" fill="#000000" fill-rule="nonzero" opacity="1" stroke="none"/>
<path d="M129.826 6.20509L133.502 6.20509C133.518 5.19042 133.361 4.29673 133.034 3.52402C132.706 2.75131 132.241 2.10349 131.64 1.58054C131.039 1.0576 130.325 0.663437 129.498 0.398062C128.671 0.132687 127.773-1.42109e-14 126.805-1.42109e-14C125.4-1.42109e-14 124.132 0.27318 123 0.81954C121.868 1.3659 120.908 2.10349 120.12 3.0323C119.332 3.96111 118.727 5.03431 118.305 6.25192C117.884 7.46952 117.673 8.75737 117.673 10.1155C117.673 12.5038 118.317 14.3302 119.605 15.5947C120.893 16.8591 122.723 17.4913 125.096 17.4913C126.001 17.4913 126.84 17.3781 127.613 17.1518C128.386 16.9254 129.088 16.5586 129.72 16.0513C130.353 15.5439 130.922 14.8844 131.43 14.0727C131.937 13.2609 132.378 12.2697 132.753 11.0989L129.076 11.0989C128.998 11.536 128.842 11.9575 128.608 12.3633C128.374 12.7692 128.085 13.1243 127.742 13.4287C127.398 13.7331 127.004 13.9751 126.559 14.1546C126.114 14.3341 125.642 14.4239 125.143 14.4239C124.471 14.4239 123.898 14.3068 123.422 14.0727C122.946 13.8385 122.555 13.5224 122.251 13.1243C121.946 12.7263 121.72 12.2697 121.572 11.7545C121.424 11.2394 121.349 10.693 121.349 10.1155C121.349 9.31934 121.459 8.5037 121.677 7.66855C121.896 6.8334 122.227 6.0763 122.672 5.39725C123.117 4.71821 123.687 4.16404 124.382 3.73476C125.076 3.30548 125.892 3.09084 126.829 3.09084C127.718 3.09084 128.44 3.35231 128.995 3.87525C129.549 4.3982 129.826 5.17481 129.826 6.20509Z" fill="#000000" fill-rule="nonzero" opacity="1" stroke="none"/>
<path d="M162.372 3.86354L159.515 17.4913L163.215 17.4913L166.071 3.86354L171.082 3.86354L171.738 0.772709L157.782 0.772709L157.127 3.86354L162.372 3.86354Z" fill="#000000" fill-rule="nonzero" opacity="1" stroke="none"/>
<path d="M194.999 10.1155C194.999 12.5038 195.643 14.3302 196.931 15.5947C198.219 16.8591 200.049 17.4913 202.422 17.4913C203.889 17.4913 205.188 17.2142 206.32 16.6601C207.452 16.1059 208.404 15.3527 209.177 14.4005C209.95 13.4483 210.539 12.3477 210.945 11.0989C211.351 9.85009 211.554 8.53882 211.554 7.16512C211.554 5.99435 211.378 4.96407 211.027 4.07428C210.676 3.1845 210.18 2.4352 209.54 1.8264C208.9 1.2176 208.119 0.761001 207.198 0.456601C206.277 0.1522 205.255-1.42109e-14 204.131-1.42109e-14C202.726-1.42109e-14 201.458 0.27318 200.326 0.81954C199.194 1.3659 198.234 2.10349 197.446 3.0323C196.657 3.96111 196.053 5.03431 195.631 6.25192C195.21 7.46952 194.999 8.75737 194.999 10.1155ZM198.675 10.1155C198.675 9.31934 198.784 8.5037 199.003 7.66855C199.221 6.8334 199.553 6.0763 199.998 5.39725C200.443 4.71821 201.013 4.16404 201.707 3.73476C202.402 3.30548 203.218 3.09084 204.154 3.09084C204.841 3.09084 205.419 3.20791 205.887 3.44207C206.355 3.67622 206.738 3.98843 207.034 4.37868C207.331 4.76894 207.546 5.22554 207.678 5.74849C207.811 6.27143 207.877 6.8295 207.877 7.42269C207.877 8.21881 207.764 9.03055 207.538 9.85789C207.311 10.6852 206.972 11.4384 206.519 12.1175C206.067 12.7965 205.505 13.3507 204.833 13.78C204.162 14.2093 203.374 14.4239 202.468 14.4239C201.797 14.4239 201.223 14.3068 200.747 14.0727C200.271 13.8385 199.881 13.5224 199.577 13.1243C199.272 12.7263 199.046 12.2697 198.898 11.7545C198.749 11.2394 198.675 10.693 198.675 10.1155Z" fill="#000000" fill-rule="nonzero" opacity="1" stroke="none"/>
<path d="M239.486 8.33589L240.47 3.62939L243.958 3.62939C244.317 3.62939 244.661 3.65281 244.989 3.69964C245.317 3.74647 245.605 3.84013 245.855 3.98062C246.105 4.12111 246.304 4.32795 246.452 4.60113C246.6 4.87431 246.675 5.23725 246.675 5.68995C246.675 6.15826 246.569 6.56022 246.358 6.89584C246.148 7.23146 245.867 7.50464 245.516 7.71538C245.164 7.92612 244.762 8.08222 244.31 8.18369C243.857 8.28516 243.381 8.33589 242.881 8.33589L239.486 8.33589ZM237.379 0.772709L233.89 17.4913L237.543 17.4913L238.924 10.9584L242.39 10.9584C242.749 10.9584 243.076 10.9857 243.373 11.0404C243.67 11.095 243.923 11.2004 244.134 11.3565C244.345 11.5126 244.509 11.7194 244.626 11.977C244.743 12.2346 244.801 12.5663 244.801 12.9721C244.801 13.5341 244.77 14.1 244.708 14.6698C244.645 15.2395 244.614 15.8054 244.614 16.3674C244.614 16.5547 244.63 16.7381 244.661 16.9176C244.692 17.0972 244.731 17.2884 244.778 17.4913L248.361 17.4913C248.267 17.2416 248.204 16.9489 248.173 16.6132C248.142 16.2776 248.126 15.9225 248.126 15.5478C248.126 15.0327 248.146 14.5137 248.185 13.9907C248.224 13.4678 248.243 13.019 248.243 12.6443C248.243 11.9731 248.126 11.3682 247.892 10.8296C247.658 10.2911 247.198 9.91253 246.511 9.69398L246.511 9.64715C247.073 9.5691 247.588 9.39739 248.056 9.13201C248.524 8.86664 248.93 8.53492 249.274 8.13686C249.617 7.7388 249.883 7.2822 250.07 6.76706C250.257 6.25192 250.351 5.71336 250.351 5.15139C250.351 4.33966 250.234 3.65281 250 3.09084C249.765 2.52887 249.43 2.07226 248.993 1.72103C248.556 1.3698 248.029 1.12004 247.412 0.97174C246.796 0.823442 246.113 0.757099 245.363 0.772709L237.379 0.772709Z" fill="#000000" fill-rule="nonzero" opacity="1" stroke="none"/>
<path d="M280.871 0.772709L277.358 17.4913L281.035 17.4913L284.57 0.772709L280.871 0.772709Z" fill="#000000" fill-rule="nonzero" opacity="1" stroke="none"/>
<path d="M321.459 0.772709L311.601 17.4913L315.465 17.4913L317.572 13.7683L323.824 13.7683L324.363 17.4913L328.016 17.4913L325.229 0.772709L321.459 0.772709ZM319.024 11.0287L322.63 4.37868L322.677 4.37868L323.496 11.0287L319.024 11.0287Z" fill="#000000" fill-rule="nonzero" opacity="1" stroke="none"/>
<path d="M56.6026 139.522C56.6026 141.283 57.0644 142.629 57.988 143.561C58.9117 144.494 60.2243 144.96 61.926 144.96C62.9784 144.96 63.9104 144.755 64.722 144.347C65.5337 143.938 66.2166 143.383 66.7708 142.681C67.3249 141.979 67.7476 141.168 68.0386 140.247C68.3297 139.326 68.4753 138.36 68.4753 137.347C68.4753 136.484 68.3493 135.724 68.0974 135.068C67.8455 134.412 67.4901 133.86 67.0311 133.411C66.5721 132.962 66.0123 132.625 65.3518 132.401C64.6912 132.177 63.9579 132.064 63.1519 132.064C62.1443 132.064 61.2347 132.266 60.423 132.669C59.6114 133.071 58.9228 133.615 58.3575 134.3C57.7921 134.985 57.3583 135.776 57.056 136.674C56.7538 137.571 56.6026 138.521 56.6026 139.522ZM59.2391 139.522C59.2391 138.935 59.3175 138.334 59.4742 137.718C59.631 137.102 59.8689 136.544 60.1879 136.043C60.507 135.543 60.9156 135.134 61.4138 134.818C61.912 134.501 62.497 134.343 63.1687 134.343C63.6613 134.343 64.0755 134.429 64.4114 134.602C64.7472 134.775 65.0215 135.005 65.2342 135.292C65.4469 135.58 65.6009 135.917 65.696 136.302C65.7912 136.688 65.8388 137.099 65.8388 137.537C65.8388 138.124 65.7576 138.722 65.5953 139.332C65.4329 139.942 65.1894 140.497 64.8648 140.998C64.5401 141.498 64.1371 141.907 63.6557 142.224C63.1743 142.54 62.6089 142.698 61.9596 142.698C61.4782 142.698 61.0668 142.612 60.7253 142.439C60.3838 142.267 60.104 142.034 59.8856 141.74C59.6673 141.447 59.505 141.11 59.3986 140.73C59.2923 140.35 59.2391 139.948 59.2391 139.522Z" fill="#000000" fill-rule="nonzero" opacity="1" stroke="none"/>
<path d="M71.498 132.358L68.9958 144.683L77.4259 144.683L77.8961 142.405L72.1026 142.405L74.1513 132.358L71.498 132.358Z" fill="#000000" fill-rule="nonzero" opacity="1" stroke="none"/>
<path d="M80.7174 139.902L79.7602 144.683L82.4135 144.683L83.3371 140.022L89.181 132.358L86.0743 132.358L82.3463 137.606L80.5494 132.358L77.8458 132.358L80.7174 139.902Z" fill="#000000" fill-rule="nonzero" opacity="1" stroke="none"/>
<path d="M90.1718 132.358L87.6529 144.683L90.1382 144.683L91.9351 134.878L91.9687 134.878L93.1274 144.683L95.1425 144.683L100.214 134.878L100.248 134.878L98.0645 144.683L100.533 144.683L103.069 132.358L99.3912 132.358L94.7731 141.283L94.7395 141.283L93.8159 132.358L90.1718 132.358Z" fill="#000000" fill-rule="nonzero" opacity="1" stroke="none"/>
<path d="M105.369 132.358L102.884 144.683L105.504 144.683L106.411 140.264L109.668 140.264C110.295 140.264 110.889 140.166 111.449 139.971C112.008 139.775 112.504 139.493 112.935 139.125C113.366 138.757 113.707 138.305 113.959 137.77C114.211 137.235 114.337 136.627 114.337 135.948C114.337 135.269 114.233 134.7 114.026 134.239C113.819 133.779 113.531 133.411 113.161 133.135C112.792 132.858 112.353 132.66 111.843 132.539C111.334 132.418 110.777 132.358 110.172 132.358L105.369 132.358ZM106.847 138.158L107.586 134.464L109.836 134.464C110.072 134.464 110.298 134.487 110.517 134.533C110.735 134.579 110.934 134.657 111.113 134.766C111.292 134.875 111.435 135.031 111.541 135.232C111.647 135.433 111.7 135.69 111.7 136C111.7 136.737 111.507 137.281 111.121 137.632C110.735 137.983 110.206 138.158 109.534 138.158L106.847 138.158Z" fill="#000000" fill-rule="nonzero" opacity="1" stroke="none"/>
<path d="M116.604 132.358L114.085 144.683L116.722 144.683L119.257 132.358L116.604 132.358Z" fill="#000000" fill-rule="nonzero" opacity="1" stroke="none"/>
<path d="M128.443 136.639L131.08 136.639C131.091 135.891 130.979 135.232 130.744 134.662C130.509 134.093 130.176 133.615 129.745 133.23C129.313 132.844 128.801 132.553 128.208 132.358C127.615 132.162 126.971 132.064 126.277 132.064C125.269 132.064 124.36 132.266 123.548 132.669C122.736 133.071 122.048 133.615 121.482 134.3C120.917 134.985 120.483 135.776 120.181 136.674C119.879 137.571 119.727 138.521 119.727 139.522C119.727 141.283 120.189 142.629 121.113 143.561C122.037 144.494 123.349 144.96 125.051 144.96C125.7 144.96 126.302 144.876 126.856 144.709C127.41 144.542 127.914 144.272 128.367 143.898C128.821 143.524 129.23 143.038 129.593 142.439C129.957 141.841 130.273 141.11 130.542 140.247L127.906 140.247C127.85 140.569 127.738 140.88 127.57 141.179C127.402 141.478 127.195 141.74 126.948 141.965C126.702 142.189 126.42 142.367 126.1 142.5C125.781 142.632 125.443 142.698 125.084 142.698C124.603 142.698 124.192 142.612 123.85 142.439C123.509 142.267 123.229 142.034 123.011 141.74C122.792 141.447 122.63 141.11 122.524 140.73C122.417 140.35 122.364 139.948 122.364 139.522C122.364 138.935 122.442 138.334 122.599 137.718C122.756 137.102 122.994 136.544 123.313 136.043C123.632 135.543 124.04 135.134 124.539 134.818C125.037 134.501 125.622 134.343 126.294 134.343C126.932 134.343 127.449 134.536 127.847 134.921C128.244 135.307 128.443 135.879 128.443 136.639Z" fill="#000000" fill-rule="nonzero" opacity="1" stroke="none"/>
<path d="M141.055 135.12C141.055 134.694 141.186 134.378 141.449 134.17C141.712 133.963 142.012 133.86 142.348 133.86C142.65 133.86 142.902 133.966 143.103 134.179C143.305 134.392 143.406 134.677 143.406 135.034C143.406 135.241 143.347 135.436 143.229 135.62C143.112 135.805 142.966 135.974 142.793 136.13C142.619 136.285 142.434 136.423 142.239 136.544C142.043 136.665 141.861 136.766 141.693 136.846C141.536 136.581 141.39 136.311 141.256 136.035C141.122 135.759 141.055 135.454 141.055 135.12ZM143.389 143.717L143.926 144.683L146.546 144.683L145.018 142.267C145.522 141.806 145.933 141.274 146.252 140.67C146.571 140.066 146.792 139.43 146.915 138.762L144.783 138.762C144.704 139.085 144.595 139.395 144.455 139.695C144.315 139.994 144.133 140.264 143.909 140.506L142.616 138.365C142.941 138.193 143.266 138 143.59 137.787C143.915 137.574 144.209 137.332 144.472 137.062C144.735 136.791 144.951 136.489 145.119 136.156C145.286 135.822 145.37 135.442 145.37 135.016C145.37 134.544 145.284 134.136 145.11 133.791C144.937 133.445 144.707 133.155 144.422 132.919C144.136 132.683 143.803 132.507 143.422 132.392C143.042 132.277 142.644 132.22 142.23 132.22C141.749 132.22 141.306 132.292 140.903 132.435C140.5 132.579 140.151 132.789 139.854 133.066C139.557 133.342 139.328 133.678 139.165 134.075C139.003 134.473 138.922 134.924 138.922 135.431C138.922 135.822 139.009 136.199 139.182 136.561C139.356 136.924 139.538 137.272 139.728 137.606C139.303 137.778 138.894 137.983 138.502 138.219C138.11 138.454 137.766 138.731 137.469 139.047C137.173 139.364 136.935 139.726 136.756 140.135C136.576 140.543 136.487 141.006 136.487 141.524C136.487 142.065 136.588 142.546 136.789 142.966C136.991 143.386 137.262 143.74 137.604 144.027C137.945 144.315 138.337 144.534 138.779 144.683C139.221 144.833 139.683 144.908 140.165 144.908C140.803 144.908 141.374 144.813 141.877 144.623C142.381 144.433 142.885 144.131 143.389 143.717ZM140.702 139.246L142.348 141.99C142.068 142.221 141.76 142.431 141.424 142.621C141.088 142.81 140.736 142.905 140.366 142.905C140.176 142.905 139.985 142.874 139.795 142.81C139.605 142.747 139.434 142.655 139.283 142.534C139.132 142.413 139.011 142.267 138.922 142.094C138.832 141.921 138.788 141.732 138.788 141.524C138.788 141.202 138.844 140.929 138.955 140.704C139.067 140.48 139.213 140.281 139.392 140.109C139.571 139.936 139.776 139.784 140.005 139.651C140.235 139.519 140.467 139.384 140.702 139.246Z" fill="#000000" fill-rule="nonzero" opacity="1" stroke="none"/>
<path d="M154.976 140.592L152.474 140.592C152.474 142.1 152.885 143.205 153.708 143.907C154.531 144.609 155.782 144.96 157.461 144.96C158.032 144.96 158.609 144.888 159.191 144.744C159.773 144.6 160.297 144.367 160.761 144.045C161.226 143.722 161.606 143.302 161.903 142.785C162.2 142.267 162.348 141.639 162.348 140.903C162.348 140.35 162.27 139.884 162.113 139.505C161.956 139.125 161.735 138.803 161.45 138.538C161.164 138.273 160.826 138.057 160.434 137.891C160.042 137.724 159.611 137.577 159.141 137.45C158.939 137.404 158.676 137.344 158.351 137.269C158.027 137.194 157.71 137.091 157.403 136.958C157.095 136.826 156.832 136.659 156.613 136.458C156.395 136.256 156.286 136.006 156.286 135.707C156.286 135.419 156.347 135.177 156.471 134.982C156.594 134.786 156.756 134.628 156.958 134.507C157.159 134.386 157.386 134.3 157.638 134.248C157.89 134.196 158.139 134.17 158.385 134.17C158.687 134.17 158.973 134.202 159.241 134.265C159.51 134.329 159.742 134.435 159.938 134.585C160.134 134.734 160.285 134.927 160.392 135.163C160.498 135.399 160.546 135.69 160.534 136.035L163.037 136.035C163.037 135.321 162.916 134.714 162.676 134.214C162.435 133.713 162.11 133.302 161.702 132.979C161.293 132.657 160.817 132.424 160.274 132.28C159.731 132.136 159.152 132.064 158.536 132.064C157.954 132.064 157.38 132.136 156.815 132.28C156.249 132.424 155.743 132.648 155.295 132.953C154.847 133.258 154.483 133.653 154.204 134.136C153.924 134.619 153.784 135.206 153.784 135.897C153.784 136.426 153.87 136.875 154.044 137.243C154.218 137.611 154.447 137.922 154.733 138.175C155.018 138.429 155.34 138.636 155.698 138.797C156.056 138.958 156.426 139.096 156.806 139.211C157.176 139.326 157.543 139.436 157.906 139.539C158.27 139.643 158.595 139.764 158.88 139.902C159.166 140.04 159.398 140.204 159.577 140.394C159.756 140.584 159.846 140.828 159.846 141.127C159.846 141.438 159.776 141.703 159.636 141.921C159.496 142.14 159.317 142.318 159.099 142.457C158.88 142.595 158.637 142.698 158.368 142.767C158.099 142.836 157.831 142.871 157.562 142.871C157.181 142.871 156.829 142.833 156.504 142.759C156.179 142.684 155.9 142.56 155.665 142.388C155.429 142.215 155.25 141.982 155.127 141.688C155.004 141.395 154.954 141.029 154.976 140.592Z" fill="#000000" fill-rule="nonzero" opacity="1" stroke="none"/>
<path d="M165.707 132.358L163.221 144.683L165.841 144.683L166.748 140.264L170.006 140.264C170.633 140.264 171.226 140.166 171.786 139.971C172.346 139.775 172.841 139.493 173.272 139.125C173.703 138.757 174.044 138.305 174.296 137.77C174.548 137.235 174.674 136.627 174.674 135.948C174.674 135.269 174.571 134.7 174.364 134.239C174.156 133.779 173.868 133.411 173.499 133.135C173.129 132.858 172.69 132.66 172.18 132.539C171.671 132.418 171.114 132.358 170.51 132.358L165.707 132.358ZM167.185 138.158L167.923 134.464L170.174 134.464C170.409 134.464 170.635 134.487 170.854 134.533C171.072 134.579 171.271 134.657 171.45 134.766C171.629 134.875 171.772 135.031 171.878 135.232C171.985 135.433 172.038 135.69 172.038 136C172.038 136.737 171.845 137.281 171.458 137.632C171.072 137.983 170.543 138.158 169.871 138.158L167.185 138.158Z" fill="#000000" fill-rule="nonzero" opacity="1" stroke="none"/>
<path d="M178.436 137.934L179.141 134.464L181.643 134.464C181.901 134.464 182.147 134.481 182.382 134.516C182.617 134.55 182.824 134.619 183.004 134.723C183.183 134.826 183.325 134.979 183.432 135.18C183.538 135.382 183.591 135.649 183.591 135.983C183.591 136.328 183.516 136.625 183.365 136.872C183.213 137.119 183.012 137.321 182.76 137.476C182.508 137.632 182.22 137.747 181.895 137.821C181.571 137.896 181.229 137.934 180.871 137.934L178.436 137.934ZM176.924 132.358L174.422 144.683L177.042 144.683L178.033 139.867L180.518 139.867C180.776 139.867 181.011 139.887 181.223 139.928C181.436 139.968 181.618 140.046 181.769 140.161C181.92 140.276 182.038 140.428 182.122 140.618C182.206 140.808 182.248 141.053 182.248 141.352C182.248 141.766 182.225 142.183 182.181 142.603C182.136 143.023 182.113 143.441 182.113 143.855C182.113 143.993 182.125 144.128 182.147 144.261C182.169 144.393 182.197 144.534 182.231 144.683L184.8 144.683C184.733 144.499 184.688 144.284 184.666 144.036C184.644 143.789 184.632 143.527 184.632 143.251C184.632 142.871 184.646 142.488 184.674 142.103C184.702 141.717 184.716 141.386 184.716 141.11C184.716 140.615 184.632 140.169 184.465 139.772C184.297 139.375 183.966 139.096 183.474 138.935L183.474 138.9C183.877 138.843 184.246 138.716 184.582 138.521C184.918 138.325 185.209 138.08 185.455 137.787C185.702 137.493 185.892 137.157 186.026 136.777C186.161 136.397 186.228 136 186.228 135.586C186.228 134.988 186.144 134.481 185.976 134.067C185.808 133.653 185.567 133.316 185.254 133.057C184.94 132.798 184.562 132.614 184.12 132.505C183.678 132.395 183.188 132.346 182.651 132.358L176.924 132.358Z" fill="#000000" fill-rule="nonzero" opacity="1" stroke="none"/>
<path d="M189.066 132.358L186.547 144.683L189.183 144.683L191.719 132.358L189.066 132.358Z" fill="#000000" fill-rule="nonzero" opacity="1" stroke="none"/>
<path d="M194.037 132.358L191.518 144.683L193.969 144.683L195.682 136.035L195.716 136.035L199.007 144.683L201.644 144.683L204.179 132.358L201.761 132.358L200.048 141.127L200.015 141.127L196.757 132.358L194.037 132.358Z" fill="#000000" fill-rule="nonzero" opacity="1" stroke="none"/>
<path d="M208.68 134.637L206.631 144.683L209.285 144.683L211.333 134.637L214.927 134.637L215.397 132.358L205.389 132.358L204.918 134.637L208.68 134.637Z" fill="#000000" fill-rule="nonzero" opacity="1" stroke="none"/>
<path d="M223.609 134.637L221.56 144.683L224.214 144.683L226.262 134.637L229.856 134.637L230.326 132.358L220.318 132.358L219.847 134.637L223.609 134.637Z" fill="#000000" fill-rule="nonzero" opacity="1" stroke="none"/>
<path d="M233.164 137.934L233.87 134.464L236.372 134.464C236.629 134.464 236.875 134.481 237.111 134.516C237.346 134.55 237.553 134.619 237.732 134.723C237.911 134.826 238.054 134.979 238.16 135.18C238.266 135.382 238.32 135.649 238.32 135.983C238.32 136.328 238.244 136.625 238.093 136.872C237.942 137.119 237.74 137.321 237.488 137.476C237.237 137.632 236.948 137.747 236.624 137.821C236.299 137.896 235.957 137.934 235.599 137.934L233.164 137.934ZM231.653 132.358L229.151 144.683L231.77 144.683L232.761 139.867L235.247 139.867C235.504 139.867 235.739 139.887 235.952 139.928C236.165 139.968 236.346 140.046 236.498 140.161C236.649 140.276 236.766 140.428 236.85 140.618C236.934 140.808 236.976 141.053 236.976 141.352C236.976 141.766 236.954 142.183 236.909 142.603C236.864 143.023 236.842 143.441 236.842 143.855C236.842 143.993 236.853 144.128 236.875 144.261C236.898 144.393 236.926 144.534 236.959 144.683L239.529 144.683C239.462 144.499 239.417 144.284 239.394 144.036C239.372 143.789 239.361 143.527 239.361 143.251C239.361 142.871 239.375 142.488 239.403 142.103C239.431 141.717 239.445 141.386 239.445 141.11C239.445 140.615 239.361 140.169 239.193 139.772C239.025 139.375 238.695 139.096 238.202 138.935L238.202 138.9C238.605 138.843 238.975 138.716 239.31 138.521C239.646 138.325 239.937 138.08 240.184 137.787C240.43 137.493 240.62 137.157 240.755 136.777C240.889 136.397 240.956 136 240.956 135.586C240.956 134.988 240.872 134.481 240.704 134.067C240.536 133.653 240.296 133.316 239.982 133.057C239.669 132.798 239.291 132.614 238.849 132.505C238.406 132.395 237.917 132.346 237.379 132.358L231.653 132.358Z" fill="#000000" fill-rule="nonzero" opacity="1" stroke="none"/>
<path d="M243.794 132.358L241.275 144.683L243.912 144.683L246.447 132.358L243.794 132.358Z" fill="#000000" fill-rule="nonzero" opacity="1" stroke="none"/>
<path d="M252.09 132.358L245.02 144.683L247.791 144.683L249.302 141.939L253.786 141.939L254.172 144.683L256.792 144.683L254.794 132.358L252.09 132.358ZM250.343 139.919L252.93 135.016L252.963 135.016L253.551 139.919L250.343 139.919Z" fill="#000000" fill-rule="nonzero" opacity="1" stroke="none"/>
<path d="M260.923 134.637L258.874 144.683L261.528 144.683L263.576 134.637L267.17 134.637L267.64 132.358L257.632 132.358L257.161 134.637L260.923 134.637Z" fill="#000000" fill-rule="nonzero" opacity="1" stroke="none"/>
<path d="M268.984 132.358L266.465 144.683L269.101 144.683L270.193 139.367L275.046 139.367L273.954 144.683L276.608 144.683L279.143 132.358L276.49 132.358L275.516 137.088L270.663 137.088L271.637 132.358L268.984 132.358Z" fill="#000000" fill-rule="nonzero" opacity="1" stroke="none"/>
<path d="M281.41 132.358L278.908 144.683L287.338 144.683L287.809 142.405L282.015 142.405L284.064 132.358L281.41 132.358Z" fill="#000000" fill-rule="nonzero" opacity="1" stroke="none"/>
<path d="M289.219 139.522C289.219 141.283 289.681 142.629 290.605 143.561C291.528 144.494 292.841 144.96 294.543 144.96C295.595 144.96 296.527 144.755 297.339 144.347C298.15 143.938 298.833 143.383 299.387 142.681C299.942 141.979 300.364 141.168 300.655 140.247C300.946 139.326 301.092 138.36 301.092 137.347C301.092 136.484 300.966 135.724 300.714 135.068C300.462 134.412 300.107 133.86 299.648 133.411C299.189 132.962 298.629 132.625 297.968 132.401C297.308 132.177 296.575 132.064 295.768 132.064C294.761 132.064 293.851 132.266 293.04 132.669C292.228 133.071 291.539 133.615 290.974 134.3C290.409 134.985 289.975 135.776 289.673 136.674C289.37 137.571 289.219 138.521 289.219 139.522ZM291.856 139.522C291.856 138.935 291.934 138.334 292.091 137.718C292.248 137.102 292.485 136.544 292.805 136.043C293.124 135.543 293.532 135.134 294.03 134.818C294.529 134.501 295.114 134.343 295.785 134.343C296.278 134.343 296.692 134.429 297.028 134.602C297.364 134.775 297.638 135.005 297.851 135.292C298.064 135.58 298.217 135.917 298.313 136.302C298.408 136.688 298.455 137.099 298.455 137.537C298.455 138.124 298.374 138.722 298.212 139.332C298.05 139.942 297.806 140.497 297.481 140.998C297.157 141.498 296.754 141.907 296.272 142.224C295.791 142.54 295.226 142.698 294.576 142.698C294.095 142.698 293.683 142.612 293.342 142.439C293 142.267 292.721 142.034 292.502 141.74C292.284 141.447 292.122 141.11 292.015 140.73C291.909 140.35 291.856 139.948 291.856 139.522Z" fill="#000000" fill-rule="nonzero" opacity="1" stroke="none"/>
<path d="M304.131 132.358L301.612 144.683L304.064 144.683L305.777 136.035L305.811 136.035L309.102 144.683L311.739 144.683L314.274 132.358L311.856 132.358L310.143 141.127L310.11 141.127L306.852 132.358L304.131 132.358Z" fill="#000000" fill-rule="nonzero" opacity="1" stroke="none"/>
</g>
</svg>
