<?xml version="1.0" encoding="UTF-8" standalone="no"?>
<!DOCTYPE svg PUBLIC "-//W3C//DTD SVG 1.1//EN" "http://www.w3.org/Graphics/SVG/1.1/DTD/svg11.dtd">
<!-- Created with Vectornator (http://vectornator.io/) -->
<svg height="150.0pt" stroke-miterlimit="10" style="fill-rule:nonzero;clip-rule:evenodd;stroke-linecap:round;stroke-linejoin:round;" version="1.1" viewBox="0 0 340 150" width="340.0pt" xml:space="preserve" xmlns="http://www.w3.org/2000/svg" xmlns:xlink="http://www.w3.org/1999/xlink">
<defs/>
<g id="Untitled">
<g opacity="1">
<path d="M162.344 79.1845L162.344 85.2591L150.479 85.2591L150.479 117.796L143.403 117.796L143.403 85.2591L131.538 85.2591L131.538 79.1845L162.344 79.1845ZM176.804 94.724C176.247 94.5402 175.477 94.3445 174.493 94.1371C173.509 93.9355 172.365 93.8291 171.068 93.8291C170.327 93.8291 169.539 93.9061 168.703 94.0543C167.867 94.2025 167.281 94.3328 166.949 94.4454L166.949 117.79L160.21 117.79L160.21 90.0477C161.508 89.5679 163.138 89.1114 165.088 88.6847C167.037 88.2579 169.201 88.0447 171.577 88.0447C172.022 88.0447 172.543 88.0742 173.136 88.1275C173.729 88.1809 174.321 88.2579 174.92 88.3527C175.512 88.4478 176.087 88.5543 176.644 88.6847C177.201 88.815 177.646 88.9338 177.984 89.0464L176.804 94.724ZM188.414 83.0902C188.414 84.3526 188.005 85.3539 187.188 86.101C186.37 86.8415 185.404 87.2149 184.29 87.2149C183.14 87.2149 182.156 86.8415 181.338 86.101C180.521 85.3601 180.111 84.3526 180.111 83.0902C180.111 81.7922 180.521 80.7669 181.338 80.026C182.156 79.2855 183.14 78.9121 184.29 78.9121C185.404 78.9121 186.37 79.2855 187.188 80.026C188.005 80.7728 188.414 81.7922 188.414 83.0902ZM187.691 117.79L180.953 117.79L180.953 88.6552L187.691 88.6552L187.691 117.79ZM202.324 87.9263C204.552 87.9263 206.425 88.2045 207.948 88.7617C209.471 89.3188 210.686 90.1011 211.599 91.1027C212.511 92.1044 213.158 93.325 213.549 94.7534C213.94 96.1818 214.135 97.7522 214.135 99.4592L214.135 117.12C213.092 117.345 211.528 117.612 209.43 117.926C207.332 118.24 204.961 118.4 202.324 118.4C200.575 118.4 198.981 118.234 197.535 117.896C196.089 117.565 194.851 117.025 193.831 116.278C192.812 115.538 192.012 114.572 191.437 113.38C190.862 112.195 190.572 110.725 190.572 108.977C190.572 107.306 190.898 105.895 191.55 104.746C192.202 103.596 193.079 102.653 194.193 101.93C195.307 101.208 196.599 100.686 198.063 100.372C199.527 100.058 201.061 99.8975 202.656 99.8975C203.397 99.8975 204.179 99.9451 204.997 100.034C205.815 100.129 206.686 100.283 207.616 100.508L207.616 99.3938C207.616 98.6115 207.521 97.871 207.338 97.1657C207.154 96.4604 206.828 95.8379 206.366 95.2986C205.903 94.7593 205.287 94.3445 204.528 94.0423C203.764 93.746 202.81 93.5978 201.66 93.5978C200.102 93.5978 198.673 93.7104 197.369 93.9297C196.071 94.1549 195.01 94.4157 194.193 94.712L193.357 89.2538C194.21 88.9574 195.455 88.661 197.091 88.3647C198.721 88.0803 200.469 87.9263 202.324 87.9263ZM202.881 113.055C204.961 113.055 206.537 112.942 207.616 112.723L207.616 105.255C207.243 105.143 206.703 105.03 205.998 104.923C205.293 104.811 204.511 104.757 203.657 104.757C202.917 104.757 202.164 104.811 201.4 104.923C200.635 105.036 199.953 105.237 199.337 105.534C198.727 105.83 198.229 106.251 197.861 106.784C197.488 107.324 197.304 107.999 197.304 108.817C197.304 110.417 197.808 111.519 198.809 112.13C199.817 112.746 201.174 113.055 202.881 113.055ZM239.05 117.79L239.05 80.2988L245.789 79.1845L245.789 88.9872C246.53 88.7264 247.395 88.507 248.379 88.3175C249.362 88.1337 250.334 88.0389 251.3 88.0389C253.641 88.0389 255.579 88.3647 257.12 89.0166C258.661 89.6685 259.894 90.5754 260.824 91.7488C261.755 92.9164 262.413 94.3209 262.804 95.9566C263.195 97.5924 263.39 99.4116 263.39 101.415L263.39 117.796L256.652 117.796L256.652 102.476C256.652 100.917 256.551 99.5895 256.344 98.4931C256.142 97.3967 255.805 96.5076 255.342 95.8201C254.874 95.1329 254.258 94.635 253.475 94.315C252.693 94.0009 251.727 93.8408 250.577 93.8408C249.688 93.8408 248.776 93.9355 247.845 94.1193C246.915 94.3031 246.227 94.4749 245.783 94.623L245.783 117.796L239.05 117.796L239.05 117.79ZM307.608 103.193C307.608 105.498 307.276 107.596 306.606 109.487C305.937 111.377 304.988 112.995 303.767 114.335C302.541 115.674 301.065 116.711 299.34 117.452C297.616 118.193 295.707 118.566 293.633 118.566C291.553 118.566 289.656 118.193 287.95 117.452C286.243 116.711 284.773 115.668 283.546 114.335C282.319 112.995 281.365 111.383 280.678 109.487C279.99 107.59 279.647 105.492 279.647 103.193C279.647 100.893 279.99 98.8014 280.678 96.9227C281.365 95.0498 282.331 93.438 283.576 92.1044C284.821 90.7708 286.296 89.7339 288.003 89.0108C289.71 88.2877 291.589 87.9263 293.627 87.9263C295.672 87.9263 297.557 88.2877 299.281 89.0108C301.006 89.7339 302.481 90.765 303.708 92.1044C304.935 93.4438 305.889 95.0498 306.577 96.9227C307.264 98.8014 307.608 100.893 307.608 103.193ZM300.697 103.193C300.697 100.295 300.075 98.0013 298.831 96.3122C297.586 94.623 295.85 93.7757 293.621 93.7757C291.393 93.7757 289.656 94.623 288.412 96.3122C287.167 98.0013 286.545 100.295 286.545 103.193C286.545 106.126 287.167 108.45 288.412 110.156C289.656 111.863 291.393 112.717 293.621 112.717C295.85 112.717 297.586 111.863 298.831 110.156C300.075 108.45 300.697 106.126 300.697 103.193ZM310.654 89.5973C311.952 89.2301 313.641 88.8743 315.721 88.5365C317.802 88.2045 320.101 88.0328 322.631 88.0328C325.008 88.0328 326.993 88.3589 328.594 89.0108C330.189 89.6627 331.461 90.5692 332.412 91.7427C333.36 92.9103 334.029 94.3267 334.414 95.9744C334.806 97.6277 335 99.4355 335 101.409L335 117.79L328.261 117.79L328.261 102.47C328.261 100.911 328.161 99.5834 327.954 98.4873C327.753 97.3908 327.413 96.5018 326.951 95.8143C326.484 95.1268 325.855 94.6289 325.055 94.3089C324.255 93.9948 323.283 93.8349 322.128 93.8349C321.274 93.8349 320.379 93.8883 319.455 94.0009C318.524 94.1135 317.837 94.2025 317.393 94.2795L317.393 117.79L310.654 117.79L310.654 89.5973ZM159.499 36.7391C160.092 38.7423 160.726 40.8343 161.395 43.0034C162.065 45.1725 162.759 47.3475 163.482 49.5226C164.205 51.6976 164.928 53.8312 165.657 55.9289C166.38 58.027 167.079 60.0064 167.749 61.8615C168.306 59.8582 168.845 57.6773 169.367 55.3188C169.888 52.9599 170.404 50.5064 170.925 47.9639C171.447 45.4214 171.957 42.8316 172.454 40.1943C172.958 37.557 173.432 34.9553 173.877 32.395L181.119 32.395C179.821 39.3764 178.375 46.0911 176.781 52.5332C175.187 58.9753 173.409 65.133 171.441 71.0002L164.685 71.0002C161.805 63.4973 159.019 55.3068 156.328 46.4349C154.954 50.9271 153.555 55.2 152.144 59.248C150.728 63.2957 149.317 67.213 147.907 71.0002L141.21 71.0002C139.207 65.133 137.423 58.9753 135.847 52.5332C134.27 46.0911 132.836 39.3764 131.538 32.395L139.059 32.395C139.503 34.9197 139.977 37.5036 140.481 40.141C140.985 42.7782 141.5 45.3681 142.04 47.9105C142.579 50.453 143.124 52.9184 143.681 55.2948C144.238 57.6715 144.795 59.8643 145.353 61.8673C146.058 59.9708 146.775 57.9798 147.498 55.8759C148.221 53.7778 148.938 51.6442 149.644 49.4692C150.349 47.2942 151.024 45.131 151.676 42.9797C152.328 40.8284 152.927 38.7482 153.49 36.7391L159.499 36.7391ZM208.286 56.4032C208.286 58.7087 207.954 60.8065 207.284 62.6972C206.614 64.5876 205.667 66.2055 204.446 67.5449C203.219 68.8843 201.743 69.9216 200.018 70.6625C198.294 71.403 196.385 71.7764 194.311 71.7764C192.231 71.7764 190.334 71.403 188.628 70.6625C186.921 69.9216 185.451 68.8785 184.224 67.5449C182.997 66.2055 182.043 64.5937 181.356 62.6972C180.668 60.8006 180.325 58.7026 180.325 56.4032C180.325 54.1036 180.668 52.0117 181.356 50.133C182.043 48.2602 183.009 46.6482 184.254 45.3147C185.499 43.9813 186.974 42.9442 188.681 42.2211C190.388 41.4981 192.267 41.1366 194.305 41.1366C196.35 41.1366 198.235 41.4981 199.959 42.2211C201.684 42.9442 203.16 43.9754 204.386 45.3147C205.613 46.6542 206.567 48.2602 207.255 50.133C207.942 52.0117 208.286 54.1036 208.286 56.4032ZM201.382 56.4032C201.382 53.5051 200.759 51.2116 199.515 49.5226C198.27 47.8335 196.534 46.986 194.305 46.986C192.077 46.986 190.341 47.8335 189.096 49.5226C187.851 51.2116 187.229 53.5051 187.229 56.4032C187.229 59.3367 187.851 61.6599 189.096 63.3669C190.341 65.0735 192.077 65.927 194.305 65.927C196.534 65.927 198.27 65.0735 199.515 63.3669C200.759 61.6599 201.382 59.3367 201.382 56.4032ZM227.938 47.9343C227.381 47.7506 226.611 47.555 225.627 47.3475C224.643 47.146 223.499 47.0394 222.201 47.0394C221.461 47.0394 220.672 47.1164 219.831 47.2646C218.995 47.4127 218.408 47.5431 218.076 47.6557L218.076 71.0002L211.338 71.0002L211.338 43.2583C212.636 42.7782 214.26 42.3219 216.21 41.8952C218.159 41.4685 220.323 41.2551 222.699 41.2551C223.144 41.2551 223.665 41.2848 224.258 41.3381C224.851 41.3914 225.443 41.4685 226.042 41.5633C226.634 41.6581 227.209 41.7648 227.766 41.8952C228.323 42.0256 228.768 42.1441 229.106 42.2567L227.938 47.9343ZM270.348 70.1053C269.009 70.5143 267.332 70.8876 265.305 71.2193C263.278 71.5512 261.156 71.7233 258.928 71.7233C256.622 71.7233 254.566 71.3674 252.747 70.6625C250.927 69.9572 249.374 68.9436 248.094 67.6281C246.814 66.3123 245.83 64.7121 245.143 62.8395C244.455 60.9666 244.112 58.8569 244.112 56.5158C244.112 54.2165 244.402 52.1243 244.977 50.2515C245.552 48.3788 246.399 46.7667 247.513 45.4333C248.627 44.0939 249.985 43.0686 251.579 42.3397C253.173 41.6166 255.01 41.2551 257.096 41.2551C258.507 41.2551 259.752 41.4211 260.83 41.7589C261.909 42.0907 262.833 42.4641 263.616 42.8731L263.616 33.5151L270.354 32.401L270.354 70.1053L270.348 70.1053ZM251.016 56.3498C251.016 59.3189 251.721 61.6541 253.132 63.3433C254.542 65.0321 256.492 65.8797 258.981 65.8797C260.06 65.8797 260.978 65.8322 261.737 65.7432C262.495 65.6484 263.118 65.5478 263.604 65.4352L263.604 48.7225C263.011 48.3136 262.223 47.9343 261.233 47.5787C260.249 47.229 259.2 47.0512 258.086 47.0512C255.633 47.0512 253.843 47.8869 252.711 49.5581C251.579 51.2235 251.016 53.4873 251.016 56.3498ZM27.7593 32.8869C28.1504 33.4855 28.9328 33.6752 29.555 33.3255C35.8906 29.7874 43.1859 27.7664 50.9554 27.7664C61.1786 27.7664 70.5901 31.2631 78.0575 37.1303C80.0902 38.7245 79.3551 41.9722 76.8365 42.5471C64.8471 45.2851 53.2253 49.007 42.0716 53.6176C40.596 54.2281 41.1767 56.4446 42.7591 56.2492C51.7261 55.1292 60.8586 54.5481 70.1278 54.5481C77.4589 54.5481 84.707 54.9098 91.8482 55.6151C96.9154 56.1127 101.935 56.7886 106.902 57.6242C109.071 57.9914 110.801 55.8047 109.912 53.7898C107.429 48.1536 104.021 43.0153 99.8905 38.5586C89.8747 27.7664 75.5802 21.0103 59.703 21.0103C47.9391 21.0103 37.0401 24.7202 28.103 31.0379C27.5163 31.4587 27.3622 32.2765 27.7593 32.8869ZM38.593 125.548C38.9188 124.913 38.6878 124.137 38.0773 123.769C31.8486 120.048 26.4555 114.726 22.5736 107.987C17.4591 99.1153 15.7819 89.2062 17.1154 79.795C17.4769 77.2346 20.6475 76.245 22.4077 78.1473C30.77 87.1793 39.7959 95.3995 49.3614 102.772C50.6296 103.75 52.2534 102.138 51.2874 100.858C45.8352 93.6392 40.7678 86.0058 36.1336 77.9639C32.4709 71.6046 29.158 65.1388 26.1947 58.5841C24.0909 53.9379 22.1647 49.244 20.4105 44.5206C19.646 42.4582 16.8902 42.0493 15.5923 43.8272C11.9593 48.7995 9.22128 54.3229 7.43741 60.1368C3.11108 74.2242 4.42082 90.0063 12.3564 103.774C18.2414 113.979 26.9 121.583 36.8269 126.17C37.4846 126.472 38.2669 126.2 38.593 125.548ZM113.29 69.8148C112.579 69.8504 112.022 70.437 112.01 71.1542C111.904 78.42 110.001 85.757 106.119 92.4955C101.005 101.367 93.2766 107.78 84.4756 111.324C82.0815 112.29 79.6399 110.032 80.4044 107.561C84.0311 95.7907 86.6271 83.8489 88.2153 71.8653C88.4227 70.2771 86.2182 69.6725 85.596 71.1484C82.0815 79.4867 78.0161 87.7008 73.3815 95.7431C69.7188 102.102 65.7776 108.207 61.5937 114.05C58.6244 118.199 55.5366 122.217 52.3304 126.099C50.9318 127.794 51.9512 130.39 54.138 130.626C60.2543 131.29 66.4001 130.905 72.3145 129.548C86.6566 126.253 99.6476 117.233 107.583 103.46C113.468 93.2542 115.708 81.9404 114.713 71.0358C114.642 70.3186 114.013 69.7792 113.29 69.8148ZM243.163 65.9865C242.274 65.8736 241.539 65.7196 240.965 65.5122C240.39 65.3106 239.933 65.0085 239.602 64.6231C239.27 64.232 239.032 63.758 238.908 63.2009C238.778 62.6438 238.712 61.9563 238.712 61.1384L238.712 32.395L231.974 33.5092L231.974 62.4244C231.974 63.8706 232.134 65.1625 232.448 66.2945C232.762 67.4265 233.313 68.3748 234.09 69.1331C234.872 69.898 235.921 70.4787 237.237 70.8876C238.505 71.2788 240.099 71.4978 242.008 71.5454L243.163 65.9865ZM235.103 111.549C234.546 111.774 233.794 112.011 232.845 112.272C231.897 112.533 230.813 112.663 229.586 112.663C227.802 112.663 226.539 112.16 225.798 111.158C225.058 110.156 224.685 108.485 224.685 106.144L224.685 94.2795L234.878 94.2795L234.878 88.6552L224.685 88.6552L224.685 82.6693L217.946 83.7835L217.946 106.198C217.946 108.129 218.112 109.848 218.45 111.348C218.782 112.853 219.363 114.133 220.175 115.194C220.992 116.255 222.095 117.061 223.488 117.618C224.88 118.175 226.616 118.454 228.697 118.454C230.404 118.454 231.891 118.276 233.153 117.926C233.385 117.861 233.592 117.802 233.805 117.736L235.103 111.549ZM278.876 112.776C277.987 112.663 277.252 112.509 276.678 112.302C276.103 112.1 275.646 111.798 275.314 111.413C274.983 111.022 274.746 110.547 274.621 109.99C274.491 109.433 274.426 108.746 274.426 107.928L274.426 79.1845L267.681 80.2988L267.681 109.214C267.681 110.66 267.841 111.952 268.155 113.084C268.469 114.216 269.02 115.164 269.797 115.923C270.579 116.687 271.628 117.268 272.944 117.677C274.212 118.068 275.806 118.288 277.715 118.335L278.876 112.776Z" fill="#000000" fill-rule="nonzero" opacity="1" stroke="none"/>
</g>
</g>
</svg>
