<?xml version="1.0" encoding="UTF-8" standalone="no"?>
<!DOCTYPE svg PUBLIC "-//W3C//DTD SVG 1.1//EN" "http://www.w3.org/Graphics/SVG/1.1/DTD/svg11.dtd">
<!-- Created with Vectornator (http://vectornator.io/) -->
<svg height="140.0pt" stroke-miterlimit="10" style="fill-rule:nonzero;clip-rule:evenodd;stroke-linecap:round;stroke-linejoin:round;" version="1.1" viewBox="0 0 340 140" width="340.0pt" xml:space="preserve" xmlns="http://www.w3.org/2000/svg" xmlns:xlink="http://www.w3.org/1999/xlink">
<defs/>
<g id="Layer-4">
<g opacity="1">
<g opacity="1">
<path d="M117.492 87.341C117.638 87.8399 117.799 88.4028 117.976 89.0296C118.152 89.6564 118.341 90.3044 118.542 90.9738C118.743 91.6431 118.947 92.3125 119.153 92.9819C119.36 93.6512 119.561 94.2719 119.756 94.8439C119.914 94.2232 120.075 93.5478 120.24 92.8176C120.404 92.0874 120.559 91.3328 120.705 90.5539C120.851 89.775 120.994 88.9992 121.134 88.2263C121.274 87.4535 121.405 86.7081 121.527 85.9901L124.484 85.9901C124.058 88.1077 123.568 90.2557 123.014 92.4342C122.461 94.6127 121.861 96.6816 121.216 98.6411L118.606 98.6411C118.18 97.4727 117.766 96.2466 117.364 94.9626C116.963 93.6786 116.567 92.3916 116.178 91.1016C115.788 92.3916 115.399 93.6786 115.009 94.9626C114.62 96.2466 114.212 97.4727 113.786 98.6411L111.176 98.6411C110.531 96.6816 109.931 94.6127 109.378 92.4342C108.824 90.2557 108.334 88.1077 107.908 85.9901L110.993 85.9901C111.115 86.7081 111.249 87.4535 111.395 88.2263C111.541 88.9992 111.693 89.775 111.851 90.5539C112.009 91.3328 112.171 92.0874 112.335 92.8176C112.499 93.5478 112.667 94.2232 112.837 94.8439C113.056 94.2476 113.269 93.6147 113.476 92.9454C113.683 92.276 113.884 91.6066 114.078 90.9373C114.273 90.2679 114.453 89.6229 114.617 89.0022C114.781 88.3815 114.93 87.8278 115.064 87.341L117.492 87.341Z" fill="#000000" fill-rule="nonzero" opacity="1" stroke="none"/>
<path d="M127.99 92.3064C127.99 92.9271 128.066 93.4869 128.218 93.9859C128.37 94.4849 128.589 94.9139 128.875 95.2729C129.161 95.632 129.511 95.9088 129.925 96.1036C130.339 96.2983 130.814 96.3956 131.349 96.3956C131.872 96.3956 132.344 96.2983 132.764 96.1036C133.184 95.9088 133.537 95.632 133.823 95.2729C134.109 94.9139 134.328 94.4849 134.48 93.9859C134.632 93.4869 134.708 92.9271 134.708 92.3064C134.708 91.6857 134.632 91.1229 134.48 90.6178C134.328 90.1127 134.109 89.6807 133.823 89.3217C133.537 88.9626 133.184 88.6858 132.764 88.491C132.344 88.2963 131.872 88.199 131.349 88.199C130.814 88.199 130.339 88.2994 129.925 88.5002C129.511 88.701 129.161 88.9809 128.875 89.3399C128.589 89.6989 128.37 90.131 128.218 90.6361C128.066 91.1411 127.99 91.6979 127.99 92.3064ZM137.647 92.3064C137.647 93.3896 137.486 94.3419 137.163 95.1634C136.841 95.9849 136.4 96.6725 135.84 97.2263C135.28 97.78 134.614 98.1968 133.841 98.4768C133.068 98.7567 132.237 98.8966 131.349 98.8966C130.485 98.8966 129.67 98.7567 128.903 98.4768C128.136 98.1968 127.467 97.78 126.895 97.2263C126.323 96.6725 125.872 95.9849 125.544 95.1634C125.215 94.3419 125.051 93.3896 125.051 92.3064C125.051 91.2233 125.221 90.2709 125.562 89.4495C125.903 88.628 126.362 87.9373 126.94 87.3775C127.518 86.8176 128.188 86.3978 128.948 86.1178C129.709 85.8379 130.509 85.698 131.349 85.698C132.213 85.698 133.029 85.8379 133.795 86.1178C134.562 86.3978 135.231 86.8176 135.803 87.3775C136.375 87.9373 136.826 88.628 137.154 89.4495C137.483 90.2709 137.647 91.2233 137.647 92.3064Z" fill="#000000" fill-rule="nonzero" opacity="1" stroke="none"/>
<path d="M147.944 96.1948L147.944 98.6411L139.492 98.6411L139.492 85.9901L142.34 85.9901L142.34 96.1948L147.944 96.1948Z" fill="#000000" fill-rule="nonzero" opacity="1" stroke="none"/>
<path d="M157.694 96.1948L157.694 98.6411L149.241 98.6411L149.241 85.9901L152.089 85.9901L152.089 96.1948L157.694 96.1948Z" fill="#000000" fill-rule="nonzero" opacity="1" stroke="none"/>
<path d="M161.017 92.3064C161.017 92.9271 161.093 93.4869 161.245 93.9859C161.397 94.4849 161.616 94.9139 161.902 95.2729C162.188 95.632 162.538 95.9088 162.952 96.1036C163.366 96.2983 163.84 96.3956 164.376 96.3956C164.899 96.3956 165.371 96.2983 165.791 96.1036C166.211 95.9088 166.564 95.632 166.85 95.2729C167.136 94.9139 167.355 94.4849 167.507 93.9859C167.659 93.4869 167.735 92.9271 167.735 92.3064C167.735 91.6857 167.659 91.1229 167.507 90.6178C167.355 90.1127 167.136 89.6807 166.85 89.3217C166.564 88.9626 166.211 88.6858 165.791 88.491C165.371 88.2963 164.899 88.199 164.376 88.199C163.84 88.199 163.366 88.2994 162.952 88.5002C162.538 88.701 162.188 88.9809 161.902 89.3399C161.616 89.6989 161.397 90.131 161.245 90.6361C161.093 91.1411 161.017 91.6979 161.017 92.3064ZM170.674 92.3064C170.674 93.3896 170.513 94.3419 170.19 95.1634C169.868 95.9849 169.427 96.6725 168.867 97.2263C168.307 97.78 167.641 98.1968 166.868 98.4768C166.095 98.7567 165.264 98.8966 164.376 98.8966C163.512 98.8966 162.696 98.7567 161.93 98.4768C161.163 98.1968 160.494 97.78 159.922 97.2263C159.35 96.6725 158.899 95.9849 158.571 95.1634C158.242 94.3419 158.078 93.3896 158.078 92.3064C158.078 91.2233 158.248 90.2709 158.589 89.4495C158.93 88.628 159.389 87.9373 159.967 87.3775C160.545 86.8176 161.215 86.3978 161.975 86.1178C162.736 85.8379 163.536 85.698 164.376 85.698C165.24 85.698 166.055 85.8379 166.822 86.1178C167.589 86.3978 168.258 86.8176 168.83 87.3775C169.402 87.9373 169.853 88.628 170.181 89.4495C170.51 90.2709 170.674 91.2233 170.674 92.3064Z" fill="#000000" fill-rule="nonzero" opacity="1" stroke="none"/>
<path d="M181.008 98.6411C180.192 97.1928 179.31 95.7628 178.361 94.351C177.411 92.9393 176.401 91.6066 175.33 90.3531L175.33 98.6411L172.519 98.6411L172.519 85.9901L174.837 85.9901C175.239 86.3917 175.683 86.8846 176.17 87.4687C176.657 88.0529 177.153 88.6766 177.658 89.3399C178.163 90.0032 178.665 90.6908 179.164 91.4028C179.663 92.1147 180.131 92.7993 180.569 93.4565L180.569 85.9901L183.399 85.9901L183.399 98.6411L181.008 98.6411Z" fill="#000000" fill-rule="nonzero" opacity="1" stroke="none"/>
<path d="M191.962 88.1807C190.635 88.1807 189.677 88.5489 189.087 89.2852C188.496 90.0215 188.201 91.0285 188.201 92.3064C188.201 92.9271 188.274 93.49 188.42 93.9951C188.566 94.5001 188.785 94.9352 189.077 95.3003C189.37 95.6654 189.735 95.9484 190.173 96.1492C190.611 96.35 191.122 96.4504 191.706 96.4504C192.023 96.4504 192.293 96.4443 192.519 96.4322C192.744 96.42 192.942 96.3956 193.112 96.3591L193.112 91.9596L195.96 91.9596L195.96 98.2212C195.619 98.3551 195.071 98.4981 194.317 98.6502C193.562 98.8023 192.631 98.8784 191.524 98.8784C190.574 98.8784 189.713 98.7323 188.941 98.4402C188.168 98.1482 187.507 97.7222 186.96 97.1624C186.412 96.6025 185.989 95.9149 185.691 95.0995C185.393 94.2841 185.244 93.3531 185.244 92.3064C185.244 91.2476 185.408 90.3105 185.737 89.4951C186.065 88.6797 186.516 87.989 187.088 87.4231C187.66 86.8572 188.332 86.4282 189.105 86.1361C189.878 85.844 190.702 85.698 191.578 85.698C192.175 85.698 192.713 85.7375 193.194 85.8166C193.675 85.8957 194.089 85.987 194.435 86.0905C194.782 86.1939 195.068 86.3004 195.293 86.4099C195.519 86.5195 195.68 86.6047 195.777 86.6655L194.956 88.9474C194.566 88.7405 194.119 88.561 193.614 88.4089C193.109 88.2568 192.558 88.1807 191.962 88.1807Z" fill="#000000" fill-rule="nonzero" opacity="1" stroke="none"/>
<path d="M200.47 92.3064C200.47 92.9271 200.546 93.4869 200.698 93.9859C200.85 94.4849 201.069 94.9139 201.355 95.2729C201.641 95.632 201.991 95.9088 202.405 96.1036C202.819 96.2983 203.293 96.3956 203.829 96.3956C204.352 96.3956 204.824 96.2983 205.244 96.1036C205.663 95.9088 206.016 95.632 206.302 95.2729C206.588 94.9139 206.807 94.4849 206.96 93.9859C207.112 93.4869 207.188 92.9271 207.188 92.3064C207.188 91.6857 207.112 91.1229 206.96 90.6178C206.807 90.1127 206.588 89.6807 206.302 89.3217C206.016 88.9626 205.663 88.6858 205.244 88.491C204.824 88.2963 204.352 88.199 203.829 88.199C203.293 88.199 202.819 88.2994 202.405 88.5002C201.991 88.701 201.641 88.9809 201.355 89.3399C201.069 89.6989 200.85 90.131 200.698 90.6361C200.546 91.1411 200.47 91.6979 200.47 92.3064ZM210.127 92.3064C210.127 93.3896 209.966 94.3419 209.643 95.1634C209.321 95.9849 208.879 96.6725 208.32 97.2263C207.76 97.78 207.093 98.1968 206.321 98.4768C205.548 98.7567 204.717 98.8966 203.829 98.8966C202.965 98.8966 202.149 98.7567 201.383 98.4768C200.616 98.1968 199.946 97.78 199.374 97.2263C198.802 96.6725 198.352 95.9849 198.024 95.1634C197.695 94.3419 197.531 93.3896 197.531 92.3064C197.531 91.2233 197.701 90.2709 198.042 89.4495C198.383 88.628 198.842 87.9373 199.42 87.3775C199.998 86.8176 200.668 86.3978 201.428 86.1178C202.189 85.8379 202.989 85.698 203.829 85.698C204.693 85.698 205.508 85.8379 206.275 86.1178C207.042 86.3978 207.711 86.8176 208.283 87.3775C208.855 87.9373 209.305 88.628 209.634 89.4495C209.963 90.2709 210.127 91.2233 210.127 92.3064Z" fill="#000000" fill-rule="nonzero" opacity="1" stroke="none"/>
<path d="M220.46 98.6411C219.645 97.1928 218.763 95.7628 217.813 94.351C216.864 92.9393 215.854 91.6066 214.783 90.3531L214.783 98.6411L211.972 98.6411L211.972 85.9901L214.29 85.9901C214.692 86.3917 215.136 86.8846 215.623 87.4687C216.11 88.0529 216.606 88.6766 217.111 89.3399C217.616 90.0032 218.118 90.6908 218.617 91.4028C219.116 92.1147 219.584 92.7993 220.022 93.4565L220.022 85.9901L222.852 85.9901L222.852 98.6411L220.46 98.6411Z" fill="#000000" fill-rule="nonzero" opacity="1" stroke="none"/>
<path d="M231.415 88.1807C230.088 88.1807 229.13 88.5489 228.539 89.2852C227.949 90.0215 227.654 91.0285 227.654 92.3064C227.654 92.9271 227.727 93.49 227.873 93.9951C228.019 94.5001 228.238 94.9352 228.53 95.3003C228.822 95.6654 229.187 95.9484 229.626 96.1492C230.064 96.35 230.575 96.4504 231.159 96.4504C231.476 96.4504 231.746 96.4443 231.971 96.4322C232.197 96.42 232.394 96.3956 232.565 96.3591L232.565 91.9596L235.413 91.9596L235.413 98.2212C235.072 98.3551 234.524 98.4981 233.77 98.6502C233.015 98.8023 232.084 98.8784 230.977 98.8784C230.027 98.8784 229.166 98.7323 228.393 98.4402C227.621 98.1482 226.96 97.7222 226.413 97.1624C225.865 96.6025 225.442 95.9149 225.144 95.0995C224.846 94.2841 224.697 93.3531 224.697 92.3064C224.697 91.2476 224.861 90.3105 225.19 89.4951C225.518 88.6797 225.968 87.989 226.54 87.4231C227.112 86.8572 227.785 86.4282 228.558 86.1361C229.33 85.844 230.155 85.698 231.031 85.698C231.628 85.698 232.166 85.7375 232.647 85.8166C233.128 85.8957 233.541 85.987 233.888 86.0905C234.235 86.1939 234.521 86.3004 234.746 86.4099C234.971 86.5195 235.133 86.6047 235.23 86.6655L234.409 88.9474C234.019 88.7405 233.572 88.561 233.067 88.4089C232.562 88.2568 232.011 88.1807 231.415 88.1807Z" fill="#000000" fill-rule="nonzero" opacity="1" stroke="none"/>
</g>
<g opacity="1">
<path d="M115.846 106.588C115.846 107.063 115.761 107.51 115.59 107.93C115.42 108.35 115.192 108.754 114.906 109.144C114.62 109.533 114.294 109.911 113.929 110.276C113.564 110.641 113.193 111.006 112.816 111.371C112.499 111.675 112.192 111.983 111.894 112.293C111.596 112.603 111.328 112.914 111.091 113.224C110.853 113.534 110.665 113.839 110.525 114.137C110.385 114.435 110.315 114.73 110.315 115.022L110.315 115.059L116.284 115.059L116.284 116.099L109 116.099C109 116.075 108.997 116.029 108.991 115.962C108.985 115.895 108.982 115.795 108.982 115.661C108.982 115.089 109.085 114.557 109.292 114.064C109.499 113.571 109.764 113.105 110.086 112.667C110.409 112.229 110.768 111.821 111.164 111.444C111.559 111.067 111.939 110.702 112.305 110.349C112.609 110.057 112.898 109.774 113.172 109.5C113.445 109.226 113.686 108.943 113.893 108.651C114.1 108.359 114.264 108.049 114.386 107.72C114.507 107.391 114.568 107.032 114.568 106.643C114.568 105.791 114.34 105.179 113.884 104.808C113.427 104.437 112.852 104.251 112.158 104.251C111.769 104.251 111.422 104.3 111.118 104.398C110.814 104.495 110.549 104.607 110.324 104.735C110.099 104.863 109.907 104.994 109.749 105.128C109.591 105.262 109.475 105.365 109.402 105.438L108.781 104.617C108.854 104.531 108.985 104.407 109.174 104.242C109.362 104.078 109.6 103.917 109.886 103.759C110.172 103.6 110.503 103.463 110.881 103.348C111.258 103.232 111.678 103.174 112.14 103.174C113.369 103.174 114.294 103.476 114.915 104.078C115.536 104.68 115.846 105.517 115.846 106.588Z" fill="#000000" fill-rule="nonzero" opacity="1" stroke="none"/>
<path d="M117.934 109.783C117.934 107.641 118.287 106.004 118.993 104.872C119.699 103.74 120.703 103.174 122.005 103.174C123.295 103.174 124.296 103.74 125.008 104.872C125.72 106.004 126.076 107.641 126.076 109.783C126.076 111.913 125.72 113.543 125.008 114.675C124.296 115.807 123.295 116.373 122.005 116.373C120.715 116.373 119.714 115.807 119.002 114.675C118.29 113.543 117.934 111.913 117.934 109.783ZM124.78 109.783C124.78 109.053 124.734 108.356 124.643 107.693C124.551 107.029 124.396 106.442 124.177 105.931C123.958 105.42 123.672 105.012 123.319 104.708C122.966 104.404 122.528 104.251 122.005 104.251C121.469 104.251 121.025 104.404 120.672 104.708C120.319 105.012 120.036 105.42 119.823 105.931C119.61 106.442 119.458 107.029 119.367 107.693C119.276 108.356 119.23 109.053 119.23 109.783C119.23 110.513 119.276 111.21 119.367 111.873C119.458 112.536 119.61 113.121 119.823 113.626C120.036 114.131 120.319 114.535 120.672 114.84C121.025 115.144 121.469 115.296 122.005 115.296C122.528 115.296 122.966 115.144 123.319 114.84C123.672 114.535 123.958 114.131 124.177 113.626C124.396 113.121 124.551 112.536 124.643 111.873C124.734 111.21 124.78 110.513 124.78 109.783Z" fill="#000000" fill-rule="nonzero" opacity="1" stroke="none"/>
<path d="M134.517 106.588C134.517 107.063 134.431 107.51 134.261 107.93C134.091 108.35 133.862 108.754 133.576 109.144C133.29 109.533 132.965 109.911 132.6 110.276C132.235 110.641 131.863 111.006 131.486 111.371C131.17 111.675 130.862 111.983 130.564 112.293C130.266 112.603 129.998 112.914 129.761 113.224C129.524 113.534 129.335 113.839 129.195 114.137C129.055 114.435 128.985 114.73 128.985 115.022L128.985 115.059L134.955 115.059L134.955 116.099L127.671 116.099C127.671 116.075 127.668 116.029 127.662 115.962C127.656 115.895 127.653 115.795 127.653 115.661C127.653 115.089 127.756 114.557 127.963 114.064C128.17 113.571 128.434 113.105 128.757 112.667C129.079 112.229 129.438 111.821 129.834 111.444C130.23 111.067 130.61 110.702 130.975 110.349C131.279 110.057 131.568 109.774 131.842 109.5C132.116 109.226 132.356 108.943 132.563 108.651C132.77 108.359 132.934 108.049 133.056 107.72C133.178 107.391 133.239 107.032 133.239 106.643C133.239 105.791 133.01 105.179 132.554 104.808C132.098 104.437 131.523 104.251 130.829 104.251C130.44 104.251 130.093 104.3 129.788 104.398C129.484 104.495 129.219 104.607 128.994 104.735C128.769 104.863 128.577 104.994 128.419 105.128C128.261 105.262 128.145 105.365 128.072 105.438L127.452 104.617C127.525 104.531 127.656 104.407 127.844 104.242C128.033 104.078 128.27 103.917 128.556 103.759C128.842 103.6 129.174 103.463 129.551 103.348C129.928 103.232 130.348 103.174 130.811 103.174C132.04 103.174 132.965 103.476 133.586 104.078C134.206 104.68 134.517 105.517 134.517 106.588Z" fill="#000000" fill-rule="nonzero" opacity="1" stroke="none"/>
<path d="M139.89 115.278C140.499 115.278 141.007 115.208 141.415 115.068C141.822 114.928 142.148 114.736 142.391 114.493C142.635 114.249 142.808 113.966 142.912 113.644C143.015 113.321 143.067 112.971 143.067 112.594C143.067 112.107 142.988 111.669 142.829 111.28C142.671 110.89 142.391 110.562 141.99 110.294C141.588 110.026 141.047 109.822 140.365 109.682C139.683 109.542 138.819 109.473 137.773 109.473C137.846 108.852 137.907 108.283 137.955 107.766C138.004 107.248 138.047 106.749 138.083 106.269C138.12 105.788 138.147 105.319 138.165 104.863C138.183 104.407 138.199 103.935 138.211 103.448L143.907 103.448L143.907 104.489L139.251 104.489C139.239 104.72 139.221 105.018 139.197 105.383C139.172 105.748 139.148 106.123 139.124 106.506C139.099 106.889 139.069 107.258 139.032 107.61C138.996 107.963 138.965 108.243 138.941 108.45C139.878 108.475 140.688 108.59 141.369 108.797C142.051 109.004 142.61 109.284 143.049 109.637C143.487 109.99 143.812 110.416 144.025 110.915C144.238 111.414 144.345 111.967 144.345 112.576C144.345 113.111 144.256 113.61 144.08 114.073C143.904 114.535 143.633 114.937 143.268 115.278C142.903 115.618 142.44 115.886 141.88 116.081C141.32 116.276 140.657 116.373 139.89 116.373C139.501 116.373 139.139 116.346 138.804 116.291C138.469 116.236 138.171 116.172 137.91 116.099C137.648 116.026 137.426 115.953 137.243 115.88C137.061 115.807 136.927 115.746 136.842 115.698L137.152 114.639C137.225 114.687 137.35 114.748 137.526 114.821C137.703 114.894 137.91 114.964 138.147 115.031C138.384 115.098 138.652 115.156 138.95 115.205C139.248 115.253 139.562 115.278 139.89 115.278Z" fill="#000000" fill-rule="nonzero" opacity="1" stroke="none"/>
</g>
<g opacity="1">
<path d="M119.478 72.2737C119.272 71.6717 119.059 71.0769 118.839 70.4896C118.619 69.9022 118.406 69.3001 118.2 68.6834L111.768 68.6834C111.563 69.3001 111.353 69.9058 111.14 70.5006C110.928 71.0953 110.718 71.6864 110.513 72.2737L107.627 72.2737C108.2 70.6437 108.743 69.1386 109.257 67.7582C109.771 66.3779 110.274 65.0709 110.766 63.8374C111.258 62.6039 111.746 61.4292 112.231 60.3131C112.715 59.1971 113.215 58.0958 113.729 57.0091L116.35 57.0091C116.864 58.0958 117.363 59.1971 117.848 60.3131C118.332 61.4292 118.821 62.6039 119.312 63.8374C119.804 65.0709 120.311 66.3779 120.832 67.7582C121.354 69.1386 121.901 70.6437 122.473 72.2737L119.478 72.2737ZM114.984 59.9607C114.646 60.739 114.261 61.6861 113.828 62.8022C113.395 63.9182 112.943 65.1297 112.473 66.4366L117.495 66.4366C117.025 65.1297 116.57 63.9109 116.13 62.7801C115.689 61.6494 115.307 60.7096 114.984 59.9607Z" fill="#000000" fill-rule="nonzero" opacity="1" stroke="none"/>
<path d="M124.76 66.2163C124.76 67.3471 125.006 68.1731 125.498 68.6944C125.99 69.2157 126.625 69.4763 127.403 69.4763C127.829 69.4763 128.229 69.4176 128.603 69.3001C128.978 69.1826 129.283 69.0431 129.518 68.8816L129.518 62.9123C129.327 62.8683 129.092 62.8279 128.813 62.7912C128.534 62.7544 128.181 62.7361 127.755 62.7361C126.786 62.7361 126.045 63.0555 125.531 63.6943C125.017 64.333 124.76 65.1737 124.76 66.2163ZM132.183 71.1063C132.183 72.9419 131.717 74.2855 130.784 75.1372C129.852 75.9889 128.424 76.4148 126.5 76.4148C125.795 76.4148 125.108 76.3561 124.44 76.2386C123.772 76.1211 123.166 75.9669 122.623 75.776L123.108 73.5072C123.563 73.6981 124.081 73.8523 124.661 73.9698C125.241 74.0873 125.868 74.146 126.544 74.146C127.616 74.146 128.379 73.9258 128.835 73.4852C129.29 73.0447 129.518 72.3912 129.518 71.5248L129.518 71.0843C129.253 71.2164 128.904 71.3486 128.471 71.4808C128.038 71.6129 127.542 71.679 126.984 71.679C126.25 71.679 125.578 71.5615 124.969 71.3266C124.36 71.0916 123.838 70.7465 123.405 70.2913C122.972 69.8361 122.634 69.2671 122.392 68.5842C122.15 67.9014 122.028 67.1121 122.028 66.2163C122.028 65.3793 122.157 64.6084 122.414 63.9035C122.671 63.1987 123.045 62.5966 123.537 62.0973C124.029 61.598 124.628 61.2089 125.332 60.9299C126.037 60.6509 126.838 60.5114 127.733 60.5114C128.6 60.5114 129.422 60.5775 130.2 60.7096C130.979 60.8418 131.639 60.9813 132.183 61.1281L132.183 71.1063Z" fill="#000000" fill-rule="nonzero" opacity="1" stroke="none"/>
<path d="M133.632 66.5688C133.632 65.5555 133.783 64.6671 134.084 63.9035C134.385 63.1399 134.785 62.5048 135.284 61.9982C135.783 61.4916 136.356 61.1098 137.002 60.8528C137.648 60.5958 138.309 60.4673 138.985 60.4673C140.571 60.4673 141.808 60.9593 142.696 61.9431C143.585 62.927 144.029 64.3954 144.029 66.3485C144.029 66.4953 144.025 66.6605 144.018 66.8441C144.011 67.0277 143.999 67.1929 143.985 67.3397L136.386 67.3397C136.459 68.2648 136.786 68.9807 137.366 69.4873C137.946 69.994 138.786 70.2473 139.888 70.2473C140.534 70.2473 141.125 70.1885 141.661 70.071C142.197 69.9536 142.619 69.8288 142.928 69.6966L143.28 71.8773C143.133 71.9507 142.931 72.0278 142.674 72.1085C142.417 72.1893 142.124 72.2627 141.793 72.3288C141.463 72.3949 141.107 72.45 140.725 72.494C140.343 72.5381 139.954 72.5601 139.557 72.5601C138.544 72.5601 137.663 72.4096 136.914 72.1085C136.165 71.8075 135.549 71.389 135.064 70.853C134.579 70.317 134.22 69.6856 133.985 68.9587C133.75 68.2318 133.632 67.4352 133.632 66.5688ZM141.364 65.3793C141.364 65.0122 141.312 64.6634 141.209 64.333C141.107 64.0026 140.956 63.7163 140.758 63.474C140.56 63.2317 140.317 63.0408 140.031 62.9013C139.745 62.7618 139.403 62.692 139.007 62.692C138.596 62.692 138.236 62.7691 137.927 62.9233C137.619 63.0775 137.358 63.2794 137.145 63.5291C136.933 63.7787 136.767 64.065 136.65 64.3881C136.532 64.7112 136.452 65.0416 136.408 65.3793L141.364 65.3793Z" fill="#000000" fill-rule="nonzero" opacity="1" stroke="none"/>
<path d="M144.355 64.7626L150.28 64.7626L150.28 67.2076L144.355 67.2076L144.355 64.7626Z" fill="#000000" fill-rule="nonzero" opacity="1" stroke="none"/>
<path d="M158.448 59.1016C156.876 59.1016 155.676 59.5899 154.846 60.5664C154.017 61.543 153.602 62.8976 153.602 64.6304C153.602 65.4527 153.701 66.2053 153.899 66.8882C154.097 67.571 154.391 68.1547 154.78 68.6393C155.169 69.1239 155.654 69.502 156.234 69.7737C156.814 70.0453 157.493 70.1812 158.271 70.1812C158.756 70.1812 159.175 70.1628 159.527 70.1261C159.879 70.0894 160.158 70.0417 160.364 69.9829L160.364 64.4982L163.139 64.4982L163.139 71.8332C162.758 71.98 162.111 72.1416 161.201 72.3178C160.291 72.494 159.241 72.5821 158.051 72.5821C156.95 72.5821 155.944 72.4059 155.034 72.0535C154.123 71.701 153.348 71.1871 152.71 70.5116C152.071 69.8361 151.575 69.0064 151.223 68.0225C150.87 67.0387 150.694 65.908 150.694 64.6304C150.694 63.3528 150.889 62.2221 151.278 61.2383C151.667 60.2544 152.199 59.421 152.875 58.7382C153.55 58.0554 154.343 57.5377 155.254 57.1853C156.164 56.8329 157.133 56.6567 158.161 56.6567C158.866 56.6567 159.494 56.7044 160.045 56.7998C160.595 56.8953 161.069 57.0018 161.465 57.1192C161.862 57.2367 162.189 57.3615 162.446 57.4937C162.703 57.6258 162.882 57.7213 162.985 57.78L162.148 60.0488C161.708 59.7845 161.161 59.5605 160.507 59.377C159.854 59.1934 159.167 59.1016 158.448 59.1016Z" fill="#000000" fill-rule="nonzero" opacity="1" stroke="none"/>
<path d="M171.483 63.1546C171.263 63.0812 170.958 63.0041 170.569 62.9233C170.18 62.8426 169.728 62.8022 169.214 62.8022C168.921 62.8022 168.609 62.8315 168.278 62.8903C167.948 62.949 167.717 63.0004 167.584 63.0445L167.584 72.2737L164.919 72.2737L164.919 61.3043C165.433 61.1134 166.076 60.9336 166.847 60.7647C167.617 60.5958 168.473 60.5114 169.413 60.5114C169.589 60.5114 169.794 60.5224 170.029 60.5444C170.264 60.5664 170.499 60.5958 170.734 60.6325C170.969 60.6692 171.197 60.7133 171.417 60.7647C171.637 60.8161 171.814 60.8638 171.946 60.9079L171.483 63.1546Z" fill="#000000" fill-rule="nonzero" opacity="1" stroke="none"/>
<path d="M182.911 66.5027C182.911 67.4131 182.779 68.2428 182.514 68.9917C182.25 69.7406 181.875 70.3794 181.391 70.9081C180.906 71.4367 180.323 71.8479 179.64 72.1416C178.957 72.4353 178.204 72.5821 177.382 72.5821C176.56 72.5821 175.811 72.4353 175.135 72.1416C174.46 71.8479 173.88 71.4367 173.395 70.9081C172.911 70.3794 172.532 69.7406 172.261 68.9917C171.989 68.2428 171.853 67.4131 171.853 66.5027C171.853 65.5922 171.989 64.7662 172.261 64.0247C172.532 63.2831 172.914 62.648 173.406 62.1193C173.898 61.5907 174.482 61.1832 175.157 60.8968C175.833 60.6105 176.574 60.4673 177.382 60.4673C178.19 60.4673 178.935 60.6105 179.618 60.8968C180.301 61.1832 180.884 61.5907 181.369 62.1193C181.853 62.648 182.232 63.2831 182.503 64.0247C182.775 64.7662 182.911 65.5922 182.911 66.5027ZM180.179 66.5027C180.179 65.3573 179.933 64.4505 179.442 63.7824C178.95 63.1142 178.263 62.7801 177.382 62.7801C176.501 62.7801 175.814 63.1142 175.322 63.7824C174.831 64.4505 174.585 65.3573 174.585 66.5027C174.585 67.6628 174.831 68.5806 175.322 69.2561C175.814 69.9315 176.501 70.2693 177.382 70.2693C178.263 70.2693 178.95 69.9315 179.442 69.2561C179.933 68.5806 180.179 67.6628 180.179 66.5027Z" fill="#000000" fill-rule="nonzero" opacity="1" stroke="none"/>
<path d="M193.81 71.9213C193.296 72.0535 192.628 72.1893 191.805 72.3288C190.983 72.4683 190.08 72.5381 189.096 72.5381C188.171 72.5381 187.396 72.4059 186.772 72.1416C186.148 71.8773 185.649 71.5101 185.274 71.0402C184.9 70.5703 184.632 70.0086 184.47 69.3552C184.309 68.7017 184.228 67.9858 184.228 67.2076L184.228 60.7537L186.893 60.7537L186.893 66.789C186.893 68.0225 187.073 68.9036 187.433 69.4323C187.793 69.9609 188.42 70.2252 189.316 70.2252C189.639 70.2252 189.981 70.2106 190.34 70.1812C190.7 70.1518 190.968 70.1151 191.144 70.071L191.144 60.7537L193.81 60.7537L193.81 71.9213Z" fill="#000000" fill-rule="nonzero" opacity="1" stroke="none"/>
<path d="M203.541 66.5688C203.541 65.3793 203.273 64.4542 202.737 63.7934C202.201 63.1326 201.338 62.8022 200.149 62.8022C199.899 62.8022 199.639 62.8132 199.367 62.8352C199.095 62.8572 198.827 62.905 198.563 62.9784L198.563 69.5644C198.798 69.726 199.11 69.8765 199.499 70.016C199.888 70.1555 200.303 70.2252 200.744 70.2252C201.713 70.2252 202.421 69.8948 202.869 69.234C203.317 68.5732 203.541 67.6848 203.541 66.5688ZM206.272 66.5247C206.272 67.4058 206.159 68.2134 205.931 68.9477C205.703 69.6819 205.377 70.3133 204.951 70.842C204.525 71.3706 203.993 71.7818 203.354 72.0755C202.715 72.3692 201.992 72.516 201.184 72.516C200.641 72.516 200.142 72.45 199.686 72.3178C199.231 72.1856 198.857 72.0388 198.563 71.8773L198.563 76.3487L195.898 76.3487L195.898 61.1281C196.441 60.9813 197.109 60.8418 197.902 60.7096C198.695 60.5775 199.532 60.5114 200.413 60.5114C201.324 60.5114 202.139 60.6509 202.858 60.9299C203.578 61.2089 204.191 61.609 204.698 62.1303C205.204 62.6517 205.593 63.2831 205.865 64.0247C206.137 64.7662 206.272 65.5996 206.272 66.5247Z" fill="#000000" fill-rule="nonzero" opacity="1" stroke="none"/>
<path d="M218.467 72.6041C217.321 72.6041 216.293 72.4279 215.383 72.0755C214.472 71.7231 213.701 71.2054 213.07 70.5226C212.439 69.8398 211.954 69.0064 211.616 68.0225C211.278 67.0387 211.11 65.908 211.11 64.6304C211.11 63.3528 211.304 62.2221 211.693 61.2383C212.082 60.2544 212.615 59.421 213.29 58.7382C213.966 58.0554 214.759 57.5377 215.669 57.1853C216.58 56.8329 217.556 56.6567 218.599 56.6567C219.23 56.6567 219.803 56.7044 220.317 56.7998C220.831 56.8953 221.279 57.0018 221.66 57.1192C222.042 57.2367 222.358 57.3615 222.608 57.4937C222.857 57.6258 223.033 57.7213 223.136 57.78L222.321 60.0488C221.969 59.8285 221.466 59.6193 220.812 59.421C220.159 59.2228 219.45 59.1237 218.687 59.1237C218.026 59.1237 217.409 59.2375 216.837 59.4651C216.264 59.6927 215.768 60.0341 215.35 60.4893C214.931 60.9446 214.605 61.5173 214.37 62.2074C214.135 62.8976 214.017 63.6979 214.017 64.6084C214.017 65.416 214.109 66.1576 214.292 66.8331C214.476 67.5086 214.759 68.0923 215.141 68.5842C215.522 69.0762 216.007 69.458 216.594 69.7296C217.182 70.0013 217.887 70.1371 218.709 70.1371C219.693 70.1371 220.493 70.038 221.11 69.8398C221.727 69.6415 222.204 69.4543 222.542 69.2781L223.29 71.5468C223.114 71.6643 222.876 71.7818 222.575 71.8993C222.274 72.0168 221.917 72.1306 221.506 72.2407C221.095 72.3508 220.633 72.4389 220.119 72.505C219.605 72.5711 219.054 72.6041 218.467 72.6041Z" fill="#000000" fill-rule="nonzero" opacity="1" stroke="none"/>
<path d="M224.299 72.2737L224.299 55.6214L226.965 55.1809L226.965 60.8858C227.258 60.783 227.6 60.6949 227.989 60.6215C228.378 60.5481 228.763 60.5114 229.145 60.5114C230.07 60.5114 230.838 60.6399 231.447 60.8968C232.056 61.1538 232.545 61.5136 232.912 61.9762C233.279 62.4387 233.54 62.9931 233.694 63.6392C233.848 64.2853 233.925 65.0049 233.925 65.7978L233.925 72.2737L231.26 72.2737L231.26 66.2163C231.26 65.5996 231.219 65.0746 231.139 64.6414C231.058 64.2082 230.926 63.8558 230.742 63.5841C230.559 63.3125 230.313 63.1142 230.004 62.9894C229.696 62.8646 229.314 62.8022 228.859 62.8022C228.506 62.8022 228.147 62.8389 227.78 62.9123C227.412 62.9857 227.141 63.0518 226.965 63.1105L226.965 72.2737L224.299 72.2737Z" fill="#000000" fill-rule="nonzero" opacity="1" stroke="none"/>
<path d="M239.868 70.4015C240.69 70.4015 241.314 70.3574 241.74 70.2693L241.74 67.3177C241.593 67.2736 241.38 67.2296 241.101 67.1855C240.822 67.1415 240.514 67.1194 240.176 67.1194C239.883 67.1194 239.585 67.1415 239.284 67.1855C238.983 67.2296 238.712 67.3103 238.469 67.4278C238.227 67.5453 238.032 67.7105 237.885 67.9234C237.739 68.1364 237.665 68.4043 237.665 68.7274C237.665 69.3588 237.863 69.7957 238.26 70.038C238.656 70.2803 239.192 70.4015 239.868 70.4015ZM239.648 60.4673C240.529 60.4673 241.27 60.5775 241.872 60.7977C242.474 61.018 242.955 61.3264 243.315 61.7229C243.675 62.1193 243.932 62.6003 244.086 63.1656C244.24 63.731 244.317 64.3514 244.317 65.0269L244.317 72.0094C243.906 72.0975 243.286 72.204 242.456 72.3288C241.626 72.4536 240.69 72.516 239.648 72.516C238.957 72.516 238.326 72.45 237.753 72.3178C237.181 72.1856 236.692 71.9727 236.289 71.679C235.885 71.3853 235.569 71.0035 235.341 70.5336C235.114 70.0637 235 69.4837 235 68.7935C235 68.1327 235.128 67.5747 235.385 67.1194C235.642 66.6642 235.991 66.2934 236.432 66.0071C236.872 65.7207 237.383 65.5151 237.963 65.3903C238.543 65.2655 239.148 65.2031 239.78 65.2031C240.073 65.2031 240.382 65.2215 240.705 65.2582C241.028 65.2949 241.373 65.3573 241.74 65.4454L241.74 65.0049C241.74 64.6965 241.703 64.4028 241.63 64.1238C241.557 63.8448 241.428 63.5988 241.245 63.3859C241.061 63.173 240.819 63.0078 240.518 62.8903C240.217 62.7728 239.839 62.7141 239.383 62.7141C238.767 62.7141 238.201 62.7581 237.687 62.8462C237.173 62.9343 236.755 63.0371 236.432 63.1546L236.101 60.996C236.439 60.8785 236.931 60.761 237.577 60.6435C238.223 60.5261 238.913 60.4673 239.648 60.4673Z" fill="#000000" fill-rule="nonzero" opacity="1" stroke="none"/>
<path d="M252.837 66.2163C252.837 65.0122 252.687 64.1421 252.386 63.6062C252.085 63.0702 251.523 62.8022 250.701 62.8022C250.407 62.8022 250.084 62.8242 249.732 62.8683C249.379 62.9123 249.115 62.949 248.939 62.9784L248.939 72.2737L246.273 72.2737L246.273 61.1281C246.787 60.9813 247.459 60.8418 248.289 60.7096C249.118 60.5775 249.996 60.5114 250.921 60.5114C251.714 60.5114 252.364 60.6142 252.87 60.8197C253.377 61.0253 253.799 61.297 254.137 61.6347C254.298 61.5173 254.504 61.3924 254.754 61.2603C255.003 61.1281 255.282 61.007 255.591 60.8968C255.899 60.7867 256.226 60.6949 256.571 60.6215C256.916 60.5481 257.265 60.5114 257.617 60.5114C258.513 60.5114 259.251 60.6399 259.831 60.8968C260.411 61.1538 260.866 61.5136 261.197 61.9762C261.527 62.4387 261.755 62.9967 261.879 63.6502C262.004 64.3037 262.067 65.0195 262.067 65.7978L262.067 72.2737L259.401 72.2737L259.401 66.2163C259.401 65.0122 259.255 64.1421 258.961 63.6062C258.667 63.0702 258.102 62.8022 257.265 62.8022C256.839 62.8022 256.435 62.8719 256.053 63.0114C255.671 63.1509 255.385 63.2868 255.194 63.4189C255.312 63.786 255.392 64.1752 255.437 64.5863C255.481 64.9975 255.503 65.4381 255.503 65.908L255.503 72.2737L252.837 72.2737L252.837 66.2163Z" fill="#000000" fill-rule="nonzero" opacity="1" stroke="none"/>
<path d="M271.666 66.5688C271.666 65.3793 271.398 64.4542 270.862 63.7934C270.326 63.1326 269.463 62.8022 268.274 62.8022C268.024 62.8022 267.764 62.8132 267.492 62.8352C267.22 62.8572 266.952 62.905 266.688 62.9784L266.688 69.5644C266.923 69.726 267.235 69.8765 267.624 70.016C268.013 70.1555 268.428 70.2252 268.869 70.2252C269.838 70.2252 270.546 69.8948 270.994 69.234C271.442 68.5732 271.666 67.6848 271.666 66.5688ZM274.397 66.5247C274.397 67.4058 274.283 68.2134 274.056 68.9477C273.828 69.6819 273.502 70.3133 273.076 70.842C272.65 71.3706 272.118 71.7818 271.479 72.0755C270.84 72.3692 270.117 72.516 269.309 72.516C268.766 72.516 268.266 72.45 267.811 72.3178C267.356 72.1856 266.982 72.0388 266.688 71.8773L266.688 76.3487L264.023 76.3487L264.023 61.1281C264.566 60.9813 265.234 60.8418 266.027 60.7096C266.82 60.5775 267.657 60.5114 268.538 60.5114C269.449 60.5114 270.264 60.6509 270.983 60.9299C271.703 61.2089 272.316 61.609 272.822 62.1303C273.329 62.6517 273.718 63.2831 273.99 64.0247C274.261 64.7662 274.397 65.5996 274.397 66.5247Z" fill="#000000" fill-rule="nonzero" opacity="1" stroke="none"/>
<path d="M278.534 72.2737L275.869 72.2737L275.869 60.7537L278.534 60.7537L278.534 72.2737ZM278.82 57.3836C278.82 57.8828 278.659 58.2793 278.336 58.573C278.013 58.8667 277.631 59.0135 277.19 59.0135C276.735 59.0135 276.346 58.8667 276.023 58.573C275.7 58.2793 275.538 57.8828 275.538 57.3836C275.538 56.8696 275.7 56.4658 276.023 56.1721C276.346 55.8784 276.735 55.7315 277.19 55.7315C277.631 55.7315 278.013 55.8784 278.336 56.1721C278.659 56.4658 278.82 56.8696 278.82 57.3836Z" fill="#000000" fill-rule="nonzero" opacity="1" stroke="none"/>
<path d="M291.041 66.5027C291.041 67.4131 290.909 68.2428 290.644 68.9917C290.38 69.7406 290.006 70.3794 289.521 70.9081C289.036 71.4367 288.453 71.8479 287.77 72.1416C287.087 72.4353 286.334 72.5821 285.512 72.5821C284.69 72.5821 283.941 72.4353 283.265 72.1416C282.59 71.8479 282.01 71.4367 281.525 70.9081C281.041 70.3794 280.662 69.7406 280.391 68.9917C280.119 68.2428 279.983 67.4131 279.983 66.5027C279.983 65.5922 280.119 64.7662 280.391 64.0247C280.662 63.2831 281.044 62.648 281.536 62.1193C282.028 61.5907 282.612 61.1832 283.287 60.8968C283.963 60.6105 284.704 60.4673 285.512 60.4673C286.32 60.4673 287.065 60.6105 287.748 60.8968C288.431 61.1832 289.014 61.5907 289.499 62.1193C289.984 62.648 290.362 63.2831 290.633 64.0247C290.905 64.7662 291.041 65.5922 291.041 66.5027ZM288.309 66.5027C288.309 65.3573 288.064 64.4505 287.572 63.7824C287.08 63.1142 286.393 62.7801 285.512 62.7801C284.631 62.7801 283.944 63.1142 283.453 63.7824C282.961 64.4505 282.715 65.3573 282.715 66.5027C282.715 67.6628 282.961 68.5806 283.453 69.2561C283.944 69.9315 284.631 70.2693 285.512 70.2693C286.393 70.2693 287.08 69.9315 287.572 69.2561C288.064 68.5806 288.309 67.6628 288.309 66.5027Z" fill="#000000" fill-rule="nonzero" opacity="1" stroke="none"/>
<path d="M292.49 61.1281C293.004 60.9813 293.672 60.8418 294.495 60.7096C295.317 60.5775 296.227 60.5114 297.226 60.5114C298.166 60.5114 298.951 60.6399 299.583 60.8968C300.214 61.1538 300.717 61.5136 301.092 61.9762C301.466 62.4387 301.73 62.9967 301.885 63.6502C302.039 64.3037 302.116 65.0195 302.116 65.7978L302.116 72.2737L299.451 72.2737L299.451 66.2163C299.451 65.5996 299.41 65.0746 299.33 64.6414C299.249 64.2082 299.117 63.8558 298.933 63.5841C298.749 63.3125 298.5 63.1142 298.184 62.9894C297.868 62.8646 297.483 62.8022 297.028 62.8022C296.69 62.8022 296.338 62.8242 295.97 62.8683C295.603 62.9123 295.332 62.949 295.155 62.9784L295.155 72.2737L292.49 72.2737L292.49 61.1281Z" fill="#000000" fill-rule="nonzero" opacity="1" stroke="none"/>
<path d="M306.957 70.3574C307.662 70.3574 308.176 70.273 308.499 70.1041C308.822 69.9352 308.984 69.6452 308.984 69.234C308.984 68.8522 308.811 68.5365 308.466 68.2869C308.121 68.0372 307.552 67.7656 306.759 67.4719C306.275 67.2957 305.83 67.1084 305.427 66.9102C305.023 66.7119 304.674 66.4807 304.38 66.2163C304.087 65.952 303.855 65.6326 303.686 65.2582C303.518 64.8837 303.433 64.4248 303.433 63.8815C303.433 62.8242 303.822 61.9908 304.601 61.3814C305.379 60.772 306.436 60.4673 307.772 60.4673C308.448 60.4673 309.094 60.5297 309.711 60.6545C310.328 60.7794 310.79 60.9005 311.099 61.018L310.614 63.1766C310.32 63.0445 309.946 62.9233 309.491 62.8132C309.035 62.703 308.507 62.648 307.905 62.648C307.361 62.648 306.921 62.7398 306.583 62.9233C306.245 63.1069 306.076 63.3896 306.076 63.7714C306.076 63.9623 306.109 64.1311 306.175 64.278C306.242 64.4248 306.355 64.5607 306.517 64.6855C306.678 64.8103 306.891 64.9351 307.156 65.0599C307.42 65.1847 307.743 65.3132 308.125 65.4454C308.756 65.6804 309.292 65.9116 309.733 66.1392C310.173 66.3669 310.537 66.6238 310.823 66.9102C311.11 67.1965 311.319 67.5233 311.451 67.8904C311.583 68.2575 311.649 68.698 311.649 69.212C311.649 70.3133 311.242 71.1467 310.427 71.7121C309.612 72.2774 308.448 72.5601 306.935 72.5601C305.922 72.5601 305.107 72.4757 304.49 72.3068C303.874 72.1379 303.44 72.0021 303.191 71.8993L303.653 69.6746C304.05 69.8361 304.523 69.9903 305.074 70.1371C305.625 70.284 306.253 70.3574 306.957 70.3574Z" fill="#000000" fill-rule="nonzero" opacity="1" stroke="none"/>
<path d="M312.834 72.2737L312.834 55.6214L315.499 55.1809L315.499 60.8858C315.793 60.783 316.135 60.6949 316.524 60.6215C316.913 60.5481 317.298 60.5114 317.68 60.5114C318.605 60.5114 319.373 60.6399 319.982 60.8968C320.591 61.1538 321.08 61.5136 321.447 61.9762C321.814 62.4387 322.075 62.9931 322.229 63.6392C322.383 64.2853 322.46 65.0049 322.46 65.7978L322.46 72.2737L319.795 72.2737L319.795 66.2163C319.795 65.5996 319.754 65.0746 319.674 64.6414C319.593 64.2082 319.461 63.8558 319.277 63.5841C319.094 63.3125 318.848 63.1142 318.539 62.9894C318.231 62.8646 317.849 62.8022 317.394 62.8022C317.041 62.8022 316.682 62.8389 316.314 62.9123C315.947 62.9857 315.676 63.0518 315.499 63.1105L315.499 72.2737L312.834 72.2737Z" fill="#000000" fill-rule="nonzero" opacity="1" stroke="none"/>
<path d="M327.037 72.2737L324.372 72.2737L324.372 60.7537L327.037 60.7537L327.037 72.2737ZM327.324 57.3836C327.324 57.8828 327.162 58.2793 326.839 58.573C326.516 58.8667 326.134 59.0135 325.694 59.0135C325.238 59.0135 324.849 58.8667 324.526 58.573C324.203 58.2793 324.042 57.8828 324.042 57.3836C324.042 56.8696 324.203 56.4658 324.526 56.1721C324.849 55.8784 325.238 55.7315 325.694 55.7315C326.134 55.7315 326.516 55.8784 326.839 56.1721C327.162 56.4658 327.324 56.8696 327.324 57.3836Z" fill="#000000" fill-rule="nonzero" opacity="1" stroke="none"/>
<path d="M336.769 66.5688C336.769 65.3793 336.501 64.4542 335.965 63.7934C335.429 63.1326 334.566 62.8022 333.377 62.8022C333.127 62.8022 332.866 62.8132 332.595 62.8352C332.323 62.8572 332.055 62.905 331.791 62.9784L331.791 69.5644C332.026 69.726 332.338 69.8765 332.727 70.016C333.116 70.1555 333.531 70.2252 333.971 70.2252C334.94 70.2252 335.649 69.8948 336.097 69.234C336.545 68.5732 336.769 67.6848 336.769 66.5688ZM339.5 66.5247C339.5 67.4058 339.386 68.2134 339.159 68.9477C338.931 69.6819 338.604 70.3133 338.178 70.842C337.753 71.3706 337.22 71.7818 336.581 72.0755C335.943 72.3692 335.219 72.516 334.412 72.516C333.868 72.516 333.369 72.45 332.914 72.3178C332.459 72.1856 332.084 72.0388 331.791 71.8773L331.791 76.3487L329.125 76.3487L329.125 61.1281C329.669 60.9813 330.337 60.8418 331.13 60.7096C331.923 60.5775 332.76 60.5114 333.641 60.5114C334.551 60.5114 335.366 60.6509 336.086 60.9299C336.805 61.2089 337.418 61.609 337.925 62.1303C338.432 62.6517 338.821 63.2831 339.093 64.0247C339.364 64.7662 339.5 65.5996 339.5 66.5247Z" fill="#000000" fill-rule="nonzero" opacity="1" stroke="none"/>
</g>
<g opacity="1">
<path d="M120.906 34.4957C121.189 35.448 121.488 36.44 121.806 37.4717C122.123 38.5033 122.454 39.535 122.798 40.5666C123.142 41.5983 123.486 42.6123 123.829 43.6087C124.173 44.6051 124.504 45.5442 124.821 46.4259C125.086 45.4736 125.342 44.4375 125.589 43.3177C125.835 42.1979 126.082 41.034 126.329 39.826C126.576 38.618 126.819 37.3879 127.057 36.1358C127.295 34.8837 127.52 33.6492 127.731 32.4324L131.17 32.4324C130.553 35.7478 129.865 38.9354 129.107 41.9951C128.348 45.0548 127.502 47.9778 126.567 50.7642L123.393 50.7642C122.017 47.2019 120.686 43.3133 119.399 39.0985C118.746 41.2324 118.085 43.2604 117.415 45.1826C116.745 47.1049 116.074 48.9654 115.404 50.7642L112.23 50.7642C111.278 47.9778 110.427 45.0548 109.677 41.9951C108.928 38.9354 108.244 35.7478 107.627 32.4324L111.198 32.4324C111.41 33.6316 111.635 34.8573 111.873 36.1094C112.111 37.3614 112.358 38.5915 112.614 39.7995C112.869 41.0075 113.129 42.1758 113.394 43.3045C113.658 44.4331 113.923 45.4736 114.187 46.4259C114.523 45.5265 114.862 44.5786 115.206 43.5822C115.55 42.5859 115.889 41.5718 116.224 40.5402C116.559 39.5085 116.881 38.4813 117.19 37.4584C117.498 36.4356 117.785 35.448 118.05 34.4957L120.906 34.4957Z" fill="#000000" fill-rule="nonzero" opacity="1" stroke="none"/>
<path d="M144.322 43.8335C144.322 44.9269 144.164 45.9233 143.846 46.8227C143.529 47.7221 143.079 48.4892 142.497 49.1241C141.915 49.759 141.214 50.2527 140.394 50.6054C139.574 50.9581 138.67 51.1345 137.683 51.1345C136.695 51.1345 135.796 50.9581 134.985 50.6054C134.173 50.2527 133.477 49.759 132.895 49.1241C132.313 48.4892 131.859 47.7221 131.533 46.8227C131.206 45.9233 131.043 44.9269 131.043 43.8335C131.043 42.7402 131.206 41.7482 131.533 40.8576C131.859 39.967 132.317 39.2043 132.908 38.5695C133.499 37.9346 134.2 37.4452 135.011 37.1013C135.822 36.7574 136.713 36.5855 137.683 36.5855C138.653 36.5855 139.548 36.7574 140.368 37.1013C141.188 37.4452 141.889 37.9346 142.471 38.5695C143.053 39.2043 143.507 39.967 143.833 40.8576C144.159 41.7482 144.322 42.7402 144.322 43.8335ZM141.042 43.8335C141.042 42.458 140.747 41.369 140.156 40.5666C139.565 39.7642 138.741 39.363 137.683 39.363C136.625 39.363 135.8 39.7642 135.209 40.5666C134.619 41.369 134.323 42.458 134.323 43.8335C134.323 45.2267 134.619 46.3289 135.209 47.1401C135.8 47.9514 136.625 48.357 137.683 48.357C138.741 48.357 139.565 47.9514 140.156 47.1401C140.747 46.3289 141.042 45.2267 141.042 43.8335Z" fill="#000000" fill-rule="nonzero" opacity="1" stroke="none"/>
<path d="M154.009 39.8127C153.745 39.7246 153.379 39.632 152.912 39.535C152.444 39.438 151.902 39.3895 151.285 39.3895C150.932 39.3895 150.557 39.4248 150.161 39.4953C149.764 39.5658 149.486 39.6276 149.327 39.6805L149.327 50.7642L146.126 50.7642L146.126 37.5907C146.744 37.3614 147.515 37.1454 148.441 36.9426C149.367 36.7398 150.394 36.6384 151.523 36.6384C151.734 36.6384 151.981 36.6516 152.264 36.6781C152.546 36.7045 152.828 36.7398 153.11 36.7839C153.392 36.828 153.666 36.8809 153.93 36.9426C154.195 37.0043 154.406 37.0616 154.565 37.1146L154.009 39.8127Z" fill="#000000" fill-rule="nonzero" opacity="1" stroke="none"/>
<path d="M160.099 51.0287C159.147 51.0111 158.357 50.9052 157.731 50.7113C157.105 50.5173 156.607 50.2395 156.237 49.878C155.866 49.5165 155.606 49.0668 155.456 48.5289C155.306 47.991 155.232 47.3782 155.232 46.6904L155.232 30.7659L158.432 30.2368L158.432 46.082C158.432 46.47 158.463 46.7963 158.525 47.0608C158.587 47.3253 158.697 47.5502 158.856 47.7353C159.014 47.9205 159.23 48.0616 159.504 48.1586C159.777 48.2556 160.125 48.3305 160.549 48.3834L160.099 51.0287Z" fill="#000000" fill-rule="nonzero" opacity="1" stroke="none"/>
<path d="M164.151 43.8071C164.151 45.2179 164.486 46.3245 165.157 47.1269C165.827 47.9293 166.753 48.3305 167.934 48.3305C168.446 48.3305 168.882 48.3085 169.244 48.2644C169.605 48.2203 169.9 48.1718 170.13 48.1189L170.13 40.1831C169.848 39.9891 169.473 39.8083 169.005 39.6408C168.538 39.4733 168.04 39.3895 167.511 39.3895C166.347 39.3895 165.496 39.7863 164.958 40.5799C164.42 41.3734 164.151 42.4492 164.151 43.8071ZM173.33 50.3409C172.696 50.5349 171.898 50.7113 170.936 50.87C169.975 51.0287 168.966 51.108 167.908 51.108C166.814 51.108 165.836 50.9405 164.971 50.6054C164.107 50.2704 163.371 49.7898 162.763 49.1638C162.154 48.5377 161.687 47.7794 161.361 46.8888C161.034 45.9983 160.871 44.9975 160.871 43.8865C160.871 42.7931 161.008 41.8011 161.281 40.9105C161.555 40.0199 161.956 39.2572 162.485 38.6224C163.014 37.9875 163.658 37.4981 164.416 37.1542C165.174 36.8103 166.047 36.6384 167.035 36.6384C167.705 36.6384 168.296 36.7178 168.807 36.8765C169.318 37.0352 169.759 37.2115 170.13 37.4055L170.13 30.7659L173.33 30.2368L173.33 50.3409Z" fill="#000000" fill-rule="nonzero" opacity="1" stroke="none"/>
<path d="M193.498 32.4324L193.498 35.3158L187.864 35.3158L187.864 50.7642L184.504 50.7642L184.504 35.3158L178.87 35.3158L178.87 32.4324L193.498 32.4324Z" fill="#000000" fill-rule="nonzero" opacity="1" stroke="none"/>
<path d="M201.307 39.8127C201.042 39.7246 200.676 39.632 200.209 39.535C199.742 39.438 199.199 39.3895 198.582 39.3895C198.23 39.3895 197.855 39.4248 197.458 39.4953C197.061 39.5658 196.783 39.6276 196.625 39.6805L196.625 50.7642L193.424 50.7642L193.424 37.5907C194.041 37.3614 194.813 37.1454 195.739 36.9426C196.664 36.7398 197.692 36.6384 198.82 36.6384C199.032 36.6384 199.279 36.6516 199.561 36.6781C199.843 36.7045 200.125 36.7398 200.407 36.7839C200.69 36.828 200.963 36.8809 201.228 36.9426C201.492 37.0043 201.704 37.0616 201.862 37.1146L201.307 39.8127Z" fill="#000000" fill-rule="nonzero" opacity="1" stroke="none"/>
<path d="M205.809 50.7642L202.608 50.7642L202.608 36.9294L205.809 36.9294L205.809 50.7642ZM206.153 32.8821C206.153 33.4817 205.959 33.9579 205.571 34.3106C205.183 34.6633 204.725 34.8396 204.196 34.8396C203.649 34.8396 203.181 34.6633 202.794 34.3106C202.406 33.9579 202.212 33.4817 202.212 32.8821C202.212 32.2649 202.406 31.7799 202.794 31.4272C203.181 31.0745 203.649 30.8982 204.196 30.8982C204.725 30.8982 205.183 31.0745 205.571 31.4272C205.959 31.7799 206.153 32.2649 206.153 32.8821Z" fill="#000000" fill-rule="nonzero" opacity="1" stroke="none"/>
<path d="M213.248 48.5157C214.235 48.5157 214.985 48.4628 215.496 48.357L215.496 44.8123C215.32 44.7594 215.064 44.7065 214.729 44.6536C214.394 44.6007 214.024 44.5742 213.618 44.5742C213.265 44.5742 212.908 44.6007 212.547 44.6536C212.185 44.7065 211.859 44.8035 211.568 44.9446C211.277 45.0856 211.043 45.284 210.867 45.5397C210.691 45.7955 210.602 46.1173 210.602 46.5053C210.602 47.2636 210.84 47.7882 211.317 48.0792C211.793 48.3702 212.436 48.5157 213.248 48.5157ZM212.983 36.5855C214.041 36.5855 214.932 36.7178 215.655 36.9823C216.378 37.2468 216.955 37.6172 217.387 38.0933C217.82 38.5695 218.128 39.147 218.313 39.826C218.498 40.5049 218.591 41.25 218.591 42.0612L218.591 50.4467C218.097 50.5525 217.352 50.6804 216.356 50.8303C215.359 50.9802 214.235 51.0551 212.983 51.0551C212.154 51.0551 211.396 50.9758 210.708 50.8171C210.02 50.6583 209.434 50.4026 208.949 50.0499C208.464 49.6972 208.085 49.2387 207.812 48.6744C207.538 48.1101 207.402 47.4135 207.402 46.5846C207.402 45.791 207.556 45.1209 207.864 44.5742C208.173 44.0275 208.592 43.5822 209.121 43.2384C209.65 42.8945 210.263 42.6476 210.959 42.4977C211.656 42.3478 212.384 42.2728 213.142 42.2728C213.495 42.2728 213.865 42.2949 214.253 42.339C214.641 42.3831 215.055 42.458 215.496 42.5638L215.496 42.0348C215.496 41.6644 215.452 41.3117 215.364 40.9767C215.276 40.6416 215.121 40.3462 214.901 40.0905C214.68 39.8348 214.39 39.6364 214.028 39.4953C213.666 39.3542 213.212 39.2837 212.666 39.2837C211.925 39.2837 211.246 39.3366 210.629 39.4424C210.012 39.5482 209.509 39.6717 209.121 39.8127L208.724 37.2204C209.13 37.0793 209.721 36.9382 210.497 36.7971C211.272 36.656 212.101 36.5855 212.983 36.5855Z" fill="#000000" fill-rule="nonzero" opacity="1" stroke="none"/>
<path d="M220.845 33.2789L224.046 32.7499L224.046 36.9294L228.966 36.9294L228.966 39.6011L224.046 39.6011L224.046 45.2355C224.046 46.3466 224.222 47.1401 224.575 47.6163C224.927 48.0924 225.527 48.3305 226.373 48.3305C226.955 48.3305 227.471 48.2688 227.921 48.1453C228.371 48.0219 228.728 47.9073 228.992 47.8015L229.521 50.3409C229.151 50.4996 228.666 50.6628 228.066 50.8303C227.467 50.9978 226.761 51.0816 225.95 51.0816C224.963 51.0816 224.138 50.9493 223.477 50.6848C222.816 50.4203 222.291 50.0367 221.903 49.5341C221.515 49.0315 221.242 48.4231 221.083 47.7089C220.924 46.9946 220.845 46.179 220.845 45.262L220.845 33.2789Z" fill="#000000" fill-rule="nonzero" opacity="1" stroke="none"/>
<path d="M230.558 50.7642L230.558 30.7659L233.759 30.2368L233.759 37.0881C234.112 36.9647 234.522 36.8588 234.989 36.7707C235.456 36.6825 235.919 36.6384 236.378 36.6384C237.489 36.6384 238.41 36.7927 239.142 37.1013C239.874 37.4099 240.46 37.842 240.901 38.3975C241.342 38.953 241.655 39.6187 241.84 40.3947C242.026 41.1706 242.118 42.0348 242.118 42.9871L242.118 50.7642L238.917 50.7642L238.917 43.4897C238.917 42.749 238.869 42.1185 238.772 41.5983C238.675 41.0781 238.516 40.6548 238.296 40.3286C238.075 40.0023 237.78 39.7642 237.41 39.6143C237.039 39.4644 236.581 39.3895 236.034 39.3895C235.611 39.3895 235.179 39.4336 234.738 39.5218C234.297 39.6099 233.971 39.6893 233.759 39.7598L233.759 50.7642L230.558 50.7642Z" fill="#000000" fill-rule="nonzero" opacity="1" stroke="none"/>
<path d="M249.266 51.0287C248.313 51.0111 247.524 50.9052 246.898 50.7113C246.272 50.5173 245.774 50.2395 245.404 49.878C245.033 49.5165 244.773 49.0668 244.623 48.5289C244.473 47.991 244.398 47.3782 244.398 46.6904L244.398 30.7659L247.599 30.2368L247.599 46.082C247.599 46.47 247.63 46.7963 247.692 47.0608C247.753 47.3253 247.864 47.5502 248.022 47.7353C248.181 47.9205 248.397 48.0616 248.67 48.1586C248.944 48.2556 249.292 48.3305 249.715 48.3834L249.266 51.0287Z" fill="#000000" fill-rule="nonzero" opacity="1" stroke="none"/>
<path d="M263.317 43.8335C263.317 44.9269 263.159 45.9233 262.841 46.8227C262.524 47.7221 262.074 48.4892 261.492 49.1241C260.91 49.759 260.209 50.2527 259.389 50.6054C258.569 50.9581 257.665 51.1345 256.678 51.1345C255.69 51.1345 254.791 50.9581 253.98 50.6054C253.168 50.2527 252.472 49.759 251.89 49.1241C251.308 48.4892 250.854 47.7221 250.527 46.8227C250.201 45.9233 250.038 44.9269 250.038 43.8335C250.038 42.7402 250.201 41.7482 250.527 40.8576C250.854 39.967 251.312 39.2043 251.903 38.5695C252.494 37.9346 253.195 37.4452 254.006 37.1013C254.817 36.7574 255.708 36.5855 256.678 36.5855C257.648 36.5855 258.543 36.7574 259.363 37.1013C260.183 37.4452 260.884 37.9346 261.466 38.5695C262.048 39.2043 262.502 39.967 262.828 40.8576C263.154 41.7482 263.317 42.7402 263.317 43.8335ZM260.037 43.8335C260.037 42.458 259.742 41.369 259.151 40.5666C258.56 39.7642 257.736 39.363 256.678 39.363C255.62 39.363 254.795 39.7642 254.204 40.5666C253.614 41.369 253.318 42.458 253.318 43.8335C253.318 45.2267 253.614 46.3289 254.204 47.1401C254.795 47.9514 255.62 48.357 256.678 48.357C257.736 48.357 258.56 47.9514 259.151 47.1401C259.742 46.3289 260.037 45.2267 260.037 43.8335Z" fill="#000000" fill-rule="nonzero" opacity="1" stroke="none"/>
<path d="M265.121 37.3791C265.739 37.2027 266.541 37.0352 267.529 36.8765C268.516 36.7178 269.61 36.6384 270.809 36.6384C271.937 36.6384 272.881 36.7927 273.639 37.1013C274.398 37.4099 275.002 37.842 275.451 38.3975C275.901 38.953 276.218 39.6232 276.404 40.4079C276.589 41.1927 276.681 42.0524 276.681 42.9871L276.681 50.7642L273.48 50.7642L273.48 43.4897C273.48 42.749 273.432 42.1185 273.335 41.5983C273.238 41.0781 273.079 40.6548 272.859 40.3286C272.638 40.0023 272.339 39.7642 271.959 39.6143C271.58 39.4644 271.117 39.3895 270.571 39.3895C270.165 39.3895 269.742 39.4159 269.301 39.4688C268.86 39.5218 268.534 39.5658 268.322 39.6011L268.322 50.7642L265.121 50.7642L265.121 37.3791Z" fill="#000000" fill-rule="nonzero" opacity="1" stroke="none"/>
</g>
<path d="M95.0809 21.4436L96.9585 21.4436L96.9585 126.556L95.0809 126.556L95.0809 21.4436Z" fill="#000000" fill-rule="nonzero" opacity="1" stroke="none"/>
<g opacity="1">
<path d="M17.8044 41.2354C18.1018 41.6905 18.6966 41.8348 19.1698 41.5689C23.9868 38.8786 29.5336 37.3419 35.4409 37.3419C43.2139 37.3419 50.3696 40.0007 56.0473 44.4619C57.5928 45.6741 57.0339 48.1436 55.1189 48.5807C46.0031 50.6627 37.1668 53.4926 28.6864 56.9985C27.5644 57.4627 28.006 59.1481 29.2091 58.9995C36.0269 58.1478 42.9706 57.706 50.0181 57.706C55.5922 57.706 61.103 57.981 66.5327 58.5173C70.3853 58.8957 74.2021 59.4096 77.9782 60.045C79.6273 60.3242 80.9431 58.6615 80.2671 57.1294C78.3792 52.8437 75.7882 48.9367 72.6474 45.548C65.0322 37.3419 54.1637 32.2047 42.0919 32.2047C33.1476 32.2047 24.8608 35.0257 18.0658 39.8294C17.6197 40.1494 17.5025 40.7713 17.8044 41.2354ZM26.0415 111.692C26.2893 111.21 26.1136 110.62 25.6494 110.34C20.9136 107.51 16.8131 103.464 13.8616 98.3398C9.97293 91.5936 8.69773 84.0591 9.71159 76.9031C9.98646 74.9562 12.3972 74.2037 13.7355 75.6502C20.0935 82.5179 26.9561 88.7683 34.229 94.3742C35.1932 95.1176 36.4278 93.892 35.6933 92.9186C31.548 87.4298 27.6951 81.6256 24.1716 75.5107C21.3867 70.6753 18.8679 65.7589 16.6148 60.7749C15.0152 57.242 13.5507 53.6729 12.2169 50.0813C11.6357 48.5131 9.54036 48.2022 8.55353 49.5541C5.79132 53.3349 3.70954 57.5348 2.35322 61.9554C-0.936191 72.6672 0.0596399 84.6674 6.09322 95.1358C10.5677 102.896 17.151 108.677 24.6987 112.165C25.1988 112.395 25.7936 112.188 26.0415 111.692ZM82.8355 69.3144C82.2948 69.3414 81.8712 69.7874 81.8623 70.3328C81.7812 75.8576 80.3348 81.4364 77.3834 86.5602C73.4946 93.3061 67.6187 98.1821 60.9271 100.877C59.1068 101.611 57.2504 99.8945 57.8316 98.0153C60.5892 89.0657 62.563 79.9855 63.7705 70.8735C63.9282 69.6659 62.252 69.2061 61.779 70.3284C59.1068 76.6686 56.0158 82.9144 52.492 89.0296C49.7072 93.865 46.7106 98.5066 43.5295 102.95C41.2718 106.104 38.9241 109.159 36.4864 112.111C35.423 113.4 36.1981 115.374 37.8607 115.554C42.5111 116.059 47.1839 115.766 51.6807 114.734C62.5853 112.228 72.4627 105.37 78.4963 94.897C82.9707 87.1371 84.674 78.5343 83.9171 70.2428C83.8629 69.6974 83.3852 69.2873 82.8355 69.3144Z" fill="#000000" fill-rule="nonzero" opacity="1" stroke="none"/>
</g>
</g>
</g>
</svg>
