<?xml version="1.0" encoding="UTF-8" standalone="no"?>
<!DOCTYPE svg PUBLIC "-//W3C//DTD SVG 1.1//EN" "http://www.w3.org/Graphics/SVG/1.1/DTD/svg11.dtd">
<!-- Created with Vectornator (http://vectornator.io/) -->
<svg height="100%" stroke-miterlimit="10" style="fill-rule:nonzero;clip-rule:evenodd;stroke-linecap:round;stroke-linejoin:round;" version="1.1" viewBox="1 24.4375 338 101.125" width="100%" xml:space="preserve" xmlns="http://www.w3.org/2000/svg" xmlns:xlink="http://www.w3.org/1999/xlink">
<defs/>
<g id="Layer-2">
<g opacity="1">
<g opacity="1">
<path d="M1 24.4375L1 125.562L155.469 125.562L155.469 24.4375L1 24.4375ZM23.6875 43.9062L58 43.9062C58 43.9062 58.717 44.1806 58.9062 44.25C69.0332 47.9164 78.1954 53.3569 86.9375 59.5625C96.6176 66.4403 105.578 74.1802 114.094 82.4375C121.524 89.6388 128.561 97.1716 135.219 105.094C135.442 105.36 136 106.094 136 106.094L85.1875 106.094C85.1875 106.094 85.0816 105.833 84.75 105.188C76.6999 89.7326 66.2574 76.1362 53.375 64.4062C44.4095 56.2445 34.5398 49.3495 23.6875 43.9062ZM74.3125 43.9062L134.25 43.9062C129.597 48.0971 124.94 52.3146 120.281 56.5C116.571 59.8411 112.844 63.1697 109.125 66.5C108.828 66.7703 108.545 67.032 108.188 67.3438C97.8713 58.0827 86.5218 50.3695 74.3125 43.9062ZM54.5625 75.0938C63.4857 84.2413 70.4914 94.6674 76.3438 106.094L20.4688 106.094C31.8347 95.7568 43.1614 85.4694 54.5625 75.0938Z" fill="#000000" fill-rule="nonzero" opacity="1" stroke="none"/>
</g>
<g opacity="1">
<path d="M175.818 70.6205L332.118 70.6205L332.118 71.7087L175.818 71.7087L175.818 70.6205Z" fill="#6c6c71" fill-rule="nonzero" opacity="1" stroke="none"/>
<g opacity="1">
<path d="M195.717 54.1114L189.18 48.6277L182.681 54.1114L175.815 54.1114L185.779 45.7203L176.414 37.7625L183.105 37.765L189.147 42.8658L195.179 37.7625L202.022 37.7625L192.556 45.7589L202.444 54.1114L195.717 54.1114Z" fill="#101921" fill-rule="nonzero" opacity="1" stroke="none"/>
<path d="M327.601 54.1336L327.601 47.6457L314.291 47.6457L314.291 54.0813L309.77 54.0813L309.77 37.7616L332.124 37.7616L332.124 54.1336L327.601 54.1336ZM314.309 44.2664L327.557 44.2664L327.557 41.1491L314.309 41.1491L314.309 44.2664Z" fill="#101921" fill-rule="nonzero" opacity="1" stroke="none"/>
<path d="M232.152 54.0938L232.152 37.7872L254.442 37.7872L254.442 41.0981L236.668 41.0981L236.668 44.2863L254.442 44.2863L254.442 47.5922L236.675 47.5922L236.675 50.781L254.437 50.781L254.437 54.0938L232.152 54.0938Z" fill="#101921" fill-rule="nonzero" opacity="1" stroke="none"/>
<path d="M214.061 54.0834L214.061 41.1301L205.141 41.1301L205.141 37.8067L227.468 37.8067L227.468 41.0846L218.598 41.0846L218.598 54.0834L214.061 54.0834Z" fill="#101921" fill-rule="nonzero" opacity="1" stroke="none"/>
<path d="M284.268 54.0926L284.268 37.7978L305.252 37.7978L305.252 41.1037L288.803 41.1037L288.803 54.0926L284.268 54.0926Z" fill="#101921" fill-rule="nonzero" opacity="1" stroke="none"/>
<path d="M259.604 54.0871L259.604 37.7942L279.261 37.7942L279.261 41.0951L264.126 41.0951L264.126 54.0871L259.604 54.0871Z" fill="#101921" fill-rule="nonzero" opacity="1" stroke="none"/>
<path d="M336.535 51.1627L337.024 51.1627C337.276 51.1627 337.547 51.2131 337.547 51.5269C337.547 51.9035 337.249 51.9197 336.924 51.9197L336.535 51.9197L336.535 51.1627ZM336.165 53.244L336.535 53.244L336.535 52.2198L336.929 52.2198L337.575 53.244L337.973 53.244L337.292 52.1899C337.648 52.1526 337.919 51.9751 337.919 51.5437C337.919 51.0855 337.652 50.8626 337.085 50.8626L336.165 50.8626L336.165 53.244ZM335.276 52.0455C335.276 51.0693 336.009 50.3185 336.96 50.3185C337.899 50.3185 338.633 51.0693 338.633 52.0455C338.633 53.0429 337.899 53.7956 336.96 53.7956C336.009 53.7956 335.276 53.0429 335.276 52.0455M334.903 52.0455C334.903 53.2172 335.845 54.0925 336.96 54.0925C338.069 54.0925 339 53.2172 339 52.0455C339 50.8968 338.069 50.0184 336.96 50.0184C335.845 50.0184 334.903 50.8968 334.903 52.0455" fill="#101921" fill-rule="nonzero" opacity="1" stroke="none"/>
</g>
<g opacity="1">
<path d="M185.652 112.238L182.698 112.238C182.34 112.238 182.123 112.058 182.046 111.701L177.138 88.1109C177.059 87.7536 177.226 87.573 177.635 87.573L179.705 87.573C180.089 87.573 180.293 87.7536 180.319 88.1109L184.193 109.246L184.425 109.246L189.603 88.0723C189.68 87.7417 189.883 87.573 190.217 87.573L192.519 87.573C192.85 87.573 193.055 87.7417 193.132 88.0723L198.386 109.246L198.617 109.246L202.452 88.1495C202.53 87.7654 202.746 87.573 203.106 87.573L205.176 87.573C205.583 87.573 205.752 87.7654 205.674 88.1495L200.728 111.701C200.65 112.058 200.445 112.238 200.114 112.238L197.159 112.238C196.801 112.238 196.584 112.058 196.508 111.701L191.482 91.103L191.329 91.103L186.265 111.701C186.188 112.058 185.984 112.238 185.652 112.238" fill="#101921" fill-rule="nonzero" opacity="1" stroke="none"/>
<path d="M211.965 112.238L210.24 112.238C209.882 112.238 209.704 112.058 209.704 111.701L209.704 88.1109C209.704 87.7536 209.882 87.573 210.24 87.573L211.965 87.573C212.323 87.573 212.504 87.7536 212.504 88.1109L212.504 98.1992C212.504 98.4296 212.63 98.5441 212.885 98.5441L222.401 98.5441C222.656 98.5441 222.784 98.4296 222.784 98.1992L222.784 88.1109C222.784 87.7536 222.962 87.573 223.32 87.573L225.046 87.573C225.404 87.573 225.584 87.7536 225.584 88.1109L225.584 111.701C225.584 112.058 225.404 112.238 225.046 112.238L223.32 112.238C222.962 112.238 222.784 112.058 222.784 111.701L222.784 101.344C222.784 101.113 222.656 100.999 222.401 100.999L212.885 100.999C212.63 100.999 212.504 101.113 212.504 101.344L212.504 111.701C212.504 112.058 212.323 112.238 211.965 112.238" fill="#101921" fill-rule="nonzero" opacity="1" stroke="none"/>
<path d="M234.635 88.1107L234.635 111.701C234.635 112.058 234.455 112.238 234.1 112.238L232.372 112.238C232.014 112.238 231.836 112.058 231.836 111.701L231.836 88.1107C231.836 87.7539 232.014 87.5734 232.372 87.5734L234.1 87.5734C234.455 87.5734 234.635 87.7539 234.635 88.1107" fill="#101921" fill-rule="nonzero" opacity="1" stroke="none"/>
<path d="M240.62 106.561L240.62 105.333C240.62 104.976 240.797 104.797 241.155 104.797L242.884 104.797C243.24 104.797 243.42 104.976 243.42 105.333L243.42 106.33C243.42 108.633 244.558 109.783 246.833 109.783L250.209 109.783C252.486 109.783 253.624 108.609 253.624 106.254L253.624 104.95C253.624 103.108 252.101 101.908 249.06 101.345C247.779 101.114 246.501 100.846 245.223 100.538C243.944 100.231 242.857 99.6366 241.961 98.7551C241.067 97.8723 240.62 96.6645 240.62 95.1298L240.62 93.2509C240.62 91.4858 241.123 90.1 242.135 89.0883C243.144 88.0791 244.532 87.5729 246.296 87.5729L250.554 87.5729C252.293 87.5729 253.674 88.0791 254.697 89.0883C255.72 90.1 256.231 91.4858 256.231 93.2509L256.231 94.2096C256.231 94.5925 256.065 94.7849 255.732 94.7849L253.969 94.7849C253.635 94.7849 253.471 94.5925 253.471 94.2096L253.471 93.5192C253.471 91.1926 252.331 90.0284 250.057 90.0284L246.796 90.0284C244.518 90.0284 243.381 91.243 243.381 93.6723L243.381 95.207C243.381 96.5107 244.237 97.4072 245.951 97.8916C246.718 98.0983 247.564 98.2825 248.484 98.4488C249.404 98.6156 250.331 98.831 251.263 99.1006C252.197 99.3683 253.047 99.702 253.814 100.098C254.583 100.496 255.201 101.095 255.676 101.9C256.149 102.706 256.385 103.683 256.385 104.835L256.385 106.561C256.385 108.325 255.873 109.714 254.852 110.723C253.826 111.735 252.447 112.238 250.708 112.238L246.296 112.238C244.558 112.238 243.176 111.735 242.153 110.723C241.13 109.714 240.62 108.325 240.62 106.561" fill="#101921" fill-rule="nonzero" opacity="1" stroke="none"/>
<path d="M268.199 112.238L266.474 112.238C266.115 112.238 265.936 112.058 265.936 111.701L265.936 90.3734C265.936 90.1436 265.807 90.0285 265.551 90.0285L260.335 90.0285C259.951 90.0285 259.757 89.8517 259.757 89.4918L259.757 88.1109C259.757 87.7536 259.951 87.573 260.335 87.573L274.336 87.573C274.72 87.573 274.911 87.7536 274.911 88.1109L274.911 89.4918C274.911 89.8517 274.72 90.0285 274.336 90.0285L269.119 90.0285C268.864 90.0285 268.736 90.1436 268.736 90.3734L268.736 111.701C268.736 112.058 268.557 112.238 268.199 112.238" fill="#101921" fill-rule="nonzero" opacity="1" stroke="none"/>
<path d="M291.405 112.238L279.091 112.238C278.733 112.238 278.554 112.058 278.554 111.701L278.554 88.1109C278.554 87.7536 278.733 87.573 279.091 87.573L280.819 87.573C281.177 87.573 281.355 87.7536 281.355 88.1109L281.355 109.361C281.355 109.592 281.483 109.706 281.739 109.706L291.405 109.706C291.763 109.706 291.942 109.898 291.942 110.282L291.942 111.701C291.942 112.058 291.763 112.238 291.405 112.238" fill="#101921" fill-rule="nonzero" opacity="1" stroke="none"/>
<path d="M308.436 112.238L296.391 112.238C296.032 112.238 295.854 112.058 295.854 111.701L295.854 88.1109C295.854 87.7536 296.032 87.573 296.391 87.573L308.436 87.573C308.793 87.573 308.971 87.7536 308.971 88.1109L308.971 89.4918C308.971 89.8517 308.793 90.0285 308.436 90.0285L299.037 90.0285C298.783 90.0285 298.654 90.1436 298.654 90.3734L298.654 98.1226C298.654 98.3524 298.783 98.4675 299.037 98.4675L307.246 98.4675C307.604 98.4675 307.786 98.6475 307.786 99.0048L307.786 100.386C307.786 100.745 307.604 100.924 307.246 100.924L299.037 100.924C298.783 100.924 298.654 101.038 298.654 101.267L298.654 109.438C298.654 109.668 298.783 109.784 299.037 109.784L308.436 109.784C308.793 109.784 308.971 109.963 308.971 110.321L308.971 111.701C308.971 112.058 308.793 112.238 308.436 112.238" fill="#101921" fill-rule="nonzero" opacity="1" stroke="none"/>
<path d="M317.449 100.079L323.242 100.079C325.442 100.079 326.54 98.981 326.54 96.7802L326.54 93.3672C326.54 91.1415 325.442 90.0289 323.242 90.0289L317.449 90.0289C317.195 90.0289 317.069 90.1441 317.069 90.3751L317.069 99.7343C317.069 99.964 317.195 100.079 317.449 100.079M316.529 112.238L314.801 112.238C314.446 112.238 314.269 112.06 314.269 111.702L314.269 88.1108C314.269 87.7515 314.446 87.5747 314.801 87.5747L323.625 87.5747C325.392 87.5747 326.783 88.0802 327.808 89.0894C328.829 90.0986 329.341 91.487 329.341 93.2508L329.341 96.7422C329.341 98.1729 328.994 99.3576 328.305 100.29C327.615 101.223 326.658 101.844 325.428 102.15L325.428 102.304L329.879 111.624C330.109 112.033 329.98 112.238 329.496 112.238L327.769 112.238C327.334 112.238 327.013 112.06 326.81 111.702L322.514 102.419L317.449 102.419C317.195 102.419 317.069 102.534 317.069 102.765L317.069 111.702C317.069 112.06 316.888 112.238 316.529 112.238" fill="#101921" fill-rule="nonzero" opacity="1" stroke="none"/>
</g>
</g>
</g>
</g>
</svg>
