<?xml version="1.0" encoding="UTF-8" standalone="no"?>
<!DOCTYPE svg PUBLIC "-//W3C//DTD SVG 1.1//EN" "http://www.w3.org/Graphics/SVG/1.1/DTD/svg11.dtd">
<!-- Created with Vectornator (http://vectornator.io/) -->
<svg height="150.0px" stroke-miterlimit="10" style="fill-rule:nonzero;clip-rule:evenodd;stroke-linecap:round;stroke-linejoin:round;" version="1.1" viewBox="0 0 340 150" width="340.0px" xml:space="preserve" xmlns="http://www.w3.org/2000/svg" xmlns:xlink="http://www.w3.org/1999/xlink">
<defs/>
<g id="Layer-2">
<g opacity="1">
<g opacity="1">
<path d="M1 40L1 141.125L155.469 141.125L155.469 40L1 40ZM23.6875 59.4688L58 59.4688C58 59.4688 58.717 59.7431 58.9062 59.8125C69.0332 63.4789 78.1954 68.9194 86.9375 75.125C96.6176 82.0028 105.578 89.7427 114.094 98C121.524 105.201 128.561 112.734 135.219 120.656C135.442 120.923 136 121.656 136 121.656L85.1875 121.656C85.1875 121.656 85.0816 121.395 84.75 120.75C76.6999 105.295 66.2574 91.6987 53.375 79.9688C44.4095 71.807 34.5398 64.912 23.6875 59.4688ZM74.3125 59.4688L134.25 59.4688C129.597 63.6596 124.94 67.8771 120.281 72.0625C116.571 75.4036 112.844 78.7322 109.125 82.0625C108.828 82.3328 108.545 82.5945 108.188 82.9062C97.8713 73.6452 86.5218 65.932 74.3125 59.4688ZM54.5625 90.6562C63.4857 99.8038 70.4914 110.23 76.3438 121.656L20.4688 121.656C31.8347 111.319 43.1614 101.032 54.5625 90.6562Z" fill="#000000" fill-rule="nonzero" opacity="1" stroke="none"/>
</g>
<g opacity="1">
<path d="M175.818 86.183L332.118 86.183L332.118 87.2712L175.818 87.2712L175.818 86.183Z" fill="#6c6c71" fill-rule="nonzero" opacity="1" stroke="none"/>
<g opacity="1">
<path d="M195.717 69.6739L189.18 64.1902L182.681 69.6739L175.815 69.6739L185.779 61.2828L176.414 53.325L183.105 53.3275L189.147 58.4283L195.179 53.325L202.022 53.325L192.556 61.3214L202.444 69.6739L195.717 69.6739Z" fill="#101921" fill-rule="nonzero" opacity="1" stroke="none"/>
<path d="M327.601 69.6961L327.601 63.2082L314.291 63.2082L314.291 69.6438L309.77 69.6438L309.77 53.3241L332.124 53.3241L332.124 69.6961L327.601 69.6961ZM314.309 59.8289L327.557 59.8289L327.557 56.7116L314.309 56.7116L314.309 59.8289Z" fill="#101921" fill-rule="nonzero" opacity="1" stroke="none"/>
<path d="M232.152 69.6563L232.152 53.3497L254.442 53.3497L254.442 56.6606L236.668 56.6606L236.668 59.8488L254.442 59.8488L254.442 63.1547L236.675 63.1547L236.675 66.3435L254.437 66.3435L254.437 69.6563L232.152 69.6563Z" fill="#101921" fill-rule="nonzero" opacity="1" stroke="none"/>
<path d="M214.061 69.6459L214.061 56.6926L205.141 56.6926L205.141 53.3692L227.468 53.3692L227.468 56.6471L218.598 56.6471L218.598 69.6459L214.061 69.6459Z" fill="#101921" fill-rule="nonzero" opacity="1" stroke="none"/>
<path d="M284.268 69.6551L284.268 53.3603L305.252 53.3603L305.252 56.6662L288.803 56.6662L288.803 69.6551L284.268 69.6551Z" fill="#101921" fill-rule="nonzero" opacity="1" stroke="none"/>
<path d="M259.604 69.6496L259.604 53.3567L279.261 53.3567L279.261 56.6576L264.126 56.6576L264.126 69.6496L259.604 69.6496Z" fill="#101921" fill-rule="nonzero" opacity="1" stroke="none"/>
<path d="M336.535 66.7252L337.024 66.7252C337.276 66.7252 337.547 66.7756 337.547 67.0894C337.547 67.466 337.249 67.4822 336.924 67.4822L336.535 67.4822L336.535 66.7252ZM336.165 68.8065L336.535 68.8065L336.535 67.7823L336.929 67.7823L337.575 68.8065L337.973 68.8065L337.292 67.7524C337.648 67.7151 337.919 67.5376 337.919 67.1062C337.919 66.648 337.652 66.4251 337.085 66.4251L336.165 66.4251L336.165 68.8065ZM335.276 67.608C335.276 66.6318 336.009 65.881 336.96 65.881C337.899 65.881 338.633 66.6318 338.633 67.608C338.633 68.6054 337.899 69.3581 336.96 69.3581C336.009 69.3581 335.276 68.6054 335.276 67.608M334.903 67.608C334.903 68.7797 335.845 69.655 336.96 69.655C338.069 69.655 339 68.7797 339 67.608C339 66.4593 338.069 65.5809 336.96 65.5809C335.845 65.5809 334.903 66.4593 334.903 67.608" fill="#101921" fill-rule="nonzero" opacity="1" stroke="none"/>
</g>
<g opacity="1">
<path d="M185.652 127.801L182.698 127.801C182.34 127.801 182.123 127.62 182.046 127.264L177.138 103.673C177.059 103.316 177.226 103.136 177.635 103.136L179.705 103.136C180.089 103.136 180.293 103.316 180.319 103.673L184.193 124.809L184.425 124.809L189.603 103.635C189.68 103.304 189.883 103.136 190.217 103.136L192.519 103.136C192.85 103.136 193.055 103.304 193.132 103.635L198.386 124.809L198.617 124.809L202.452 103.712C202.53 103.328 202.746 103.136 203.106 103.136L205.176 103.136C205.583 103.136 205.752 103.328 205.674 103.712L200.728 127.264C200.65 127.62 200.445 127.801 200.114 127.801L197.159 127.801C196.801 127.801 196.584 127.62 196.508 127.264L191.482 106.666L191.329 106.666L186.265 127.264C186.188 127.62 185.984 127.801 185.652 127.801" fill="#101921" fill-rule="nonzero" opacity="1" stroke="none"/>
<path d="M211.965 127.801L210.24 127.801C209.882 127.801 209.704 127.62 209.704 127.264L209.704 103.673C209.704 103.316 209.882 103.136 210.24 103.136L211.965 103.136C212.323 103.136 212.504 103.316 212.504 103.673L212.504 113.762C212.504 113.992 212.63 114.107 212.885 114.107L222.401 114.107C222.656 114.107 222.784 113.992 222.784 113.762L222.784 103.673C222.784 103.316 222.962 103.136 223.32 103.136L225.046 103.136C225.404 103.136 225.584 103.316 225.584 103.673L225.584 127.264C225.584 127.62 225.404 127.801 225.046 127.801L223.32 127.801C222.962 127.801 222.784 127.62 222.784 127.264L222.784 116.907C222.784 116.676 222.656 116.561 222.401 116.561L212.885 116.561C212.63 116.561 212.504 116.676 212.504 116.907L212.504 127.264C212.504 127.62 212.323 127.801 211.965 127.801" fill="#101921" fill-rule="nonzero" opacity="1" stroke="none"/>
<path d="M234.635 103.673L234.635 127.264C234.635 127.62 234.455 127.801 234.1 127.801L232.372 127.801C232.014 127.801 231.836 127.62 231.836 127.264L231.836 103.673C231.836 103.316 232.014 103.136 232.372 103.136L234.1 103.136C234.455 103.136 234.635 103.316 234.635 103.673" fill="#101921" fill-rule="nonzero" opacity="1" stroke="none"/>
<path d="M240.62 122.123L240.62 120.895C240.62 120.538 240.797 120.359 241.155 120.359L242.884 120.359C243.24 120.359 243.42 120.538 243.42 120.895L243.42 121.892C243.42 124.195 244.558 125.346 246.833 125.346L250.209 125.346C252.486 125.346 253.624 124.171 253.624 121.817L253.624 120.513C253.624 118.671 252.101 117.47 249.06 116.908C247.779 116.677 246.501 116.408 245.223 116.101C243.944 115.794 242.857 115.199 241.961 114.318C241.067 113.435 240.62 112.227 240.62 110.692L240.62 108.813C240.62 107.048 241.123 105.662 242.135 104.651C243.144 103.642 244.532 103.135 246.296 103.135L250.554 103.135C252.293 103.135 253.674 103.642 254.697 104.651C255.72 105.662 256.231 107.048 256.231 108.813L256.231 109.772C256.231 110.155 256.065 110.347 255.732 110.347L253.969 110.347C253.635 110.347 253.471 110.155 253.471 109.772L253.471 109.082C253.471 106.755 252.331 105.591 250.057 105.591L246.796 105.591C244.518 105.591 243.381 106.806 243.381 109.235L243.381 110.769C243.381 112.073 244.237 112.97 245.951 113.454C246.718 113.661 247.564 113.845 248.484 114.011C249.404 114.178 250.331 114.394 251.263 114.663C252.197 114.931 253.047 115.265 253.814 115.66C254.583 116.058 255.201 116.658 255.676 117.463C256.149 118.268 256.385 119.246 256.385 120.398L256.385 122.123C256.385 123.887 255.873 125.276 254.852 126.285C253.826 127.298 252.447 127.801 250.708 127.801L246.296 127.801C244.558 127.801 243.176 127.298 242.153 126.285C241.13 125.276 240.62 123.887 240.62 122.123" fill="#101921" fill-rule="nonzero" opacity="1" stroke="none"/>
<path d="M268.199 127.801L266.474 127.801C266.115 127.801 265.936 127.62 265.936 127.264L265.936 105.936C265.936 105.706 265.807 105.591 265.551 105.591L260.335 105.591C259.951 105.591 259.757 105.414 259.757 105.054L259.757 103.673C259.757 103.316 259.951 103.136 260.335 103.136L274.336 103.136C274.72 103.136 274.911 103.316 274.911 103.673L274.911 105.054C274.911 105.414 274.72 105.591 274.336 105.591L269.119 105.591C268.864 105.591 268.736 105.706 268.736 105.936L268.736 127.264C268.736 127.62 268.557 127.801 268.199 127.801" fill="#101921" fill-rule="nonzero" opacity="1" stroke="none"/>
<path d="M291.405 127.801L279.091 127.801C278.733 127.801 278.554 127.62 278.554 127.264L278.554 103.673C278.554 103.316 278.733 103.136 279.091 103.136L280.819 103.136C281.177 103.136 281.355 103.316 281.355 103.673L281.355 124.923C281.355 125.154 281.483 125.269 281.739 125.269L291.405 125.269C291.763 125.269 291.942 125.461 291.942 125.844L291.942 127.264C291.942 127.62 291.763 127.801 291.405 127.801" fill="#101921" fill-rule="nonzero" opacity="1" stroke="none"/>
<path d="M308.436 127.801L296.391 127.801C296.032 127.801 295.854 127.62 295.854 127.264L295.854 103.673C295.854 103.316 296.032 103.136 296.391 103.136L308.436 103.136C308.793 103.136 308.971 103.316 308.971 103.673L308.971 105.054C308.971 105.414 308.793 105.591 308.436 105.591L299.037 105.591C298.783 105.591 298.654 105.706 298.654 105.936L298.654 113.685C298.654 113.915 298.783 114.03 299.037 114.03L307.246 114.03C307.604 114.03 307.786 114.21 307.786 114.567L307.786 115.948C307.786 116.307 307.604 116.486 307.246 116.486L299.037 116.486C298.783 116.486 298.654 116.601 298.654 116.83L298.654 125C298.654 125.231 298.783 125.346 299.037 125.346L308.436 125.346C308.793 125.346 308.971 125.526 308.971 125.883L308.971 127.264C308.971 127.62 308.793 127.801 308.436 127.801" fill="#101921" fill-rule="nonzero" opacity="1" stroke="none"/>
<path d="M317.449 115.642L323.242 115.642C325.442 115.642 326.54 114.543 326.54 112.343L326.54 108.93C326.54 106.704 325.442 105.591 323.242 105.591L317.449 105.591C317.195 105.591 317.069 105.707 317.069 105.938L317.069 115.297C317.069 115.527 317.195 115.642 317.449 115.642M316.529 127.801L314.801 127.801C314.446 127.801 314.269 127.622 314.269 127.265L314.269 103.673C314.269 103.314 314.446 103.137 314.801 103.137L323.625 103.137C325.392 103.137 326.783 103.643 327.808 104.652C328.829 105.661 329.341 107.05 329.341 108.813L329.341 112.305C329.341 113.735 328.994 114.92 328.305 115.852C327.615 116.785 326.658 117.406 325.428 117.712L325.428 117.867L329.879 127.187C330.109 127.595 329.98 127.801 329.496 127.801L327.769 127.801C327.334 127.801 327.013 127.622 326.81 127.265L322.514 117.981L317.449 117.981C317.195 117.981 317.069 118.097 317.069 118.328L317.069 127.265C317.069 127.622 316.888 127.801 316.529 127.801" fill="#101921" fill-rule="nonzero" opacity="1" stroke="none"/>
</g>
</g>
</g>
</g>
</svg>
